<?xml version="1.0" encoding="UTF-8" standalone="no"?><!-- Generator: Gravit.io --><svg xmlns="http://www.w3.org/2000/svg" xmlns:xlink="http://www.w3.org/1999/xlink" style="isolation:isolate" viewBox="0 0 189.433 100.93" width="189.433pt" height="100.93pt"><defs><clipPath id="_clipPath_Wthdms7cQ1onvoipTwX37zptRTQZQjr6"><rect width="189.433" height="100.93"/></clipPath></defs><g clip-path="url(#_clipPath_Wthdms7cQ1onvoipTwX37zptRTQZQjr6)"><g><g opacity="0.1"><ellipse vector-effect="non-scaling-stroke" cx="94.71655405377817" cy="71.38022147494699" rx="94.71655405377817" ry="29.550114358125153" fill="rgb(24,144,255)"/></g><g style="opacity:0.8;"><g opacity="0.8"><path d=" M 68.834 6.017 C 70.44 8.268 71.672 14.826 72.015 16.802 L 74.885 16.743 C 74.737 15.046 71.398 8.14 70.469 6.246 C 69.953 6.165 69.402 6.086 68.834 6.017 Z " fill="rgb(101,97,125)"/></g><g opacity="0.8"><rect x="32.735" y="4.823" width="1.791" height="1.272" transform="matrix(0.019,-1,1,0.019,27.537,38.98)" fill="rgb(220,224,237)"/></g><g opacity="0.1"><path d=" M 33.012 4.551 L 33.001 5.135 C 33.09 5.162 33.183 5.176 33.276 5.177 L 34.271 5.187 L 34.283 4.575 L 33.012 4.551 Z " fill="rgb(0,0,0)"/></g><g opacity="0.8"><path d=" M 34.906 0.023 L 33.706 0 C 33.119 -0.011 32.585 0.335 32.354 0.874 C 31.986 1.733 31.662 3.103 32.419 4.49 C 32.591 4.806 32.92 5.004 33.279 5.008 L 34.811 5.024 L 34.906 0.023 Z " fill="rgb(220,224,237)"/></g><g opacity="0.8"><path d=" M 34.811 5.024 C 34.102 5.01 33.547 3.879 33.573 2.499 C 33.599 1.119 34.196 0.01 34.906 0.023 C 35.615 0.036 36.17 1.168 36.144 2.547 C 36.118 3.927 35.521 5.037 34.811 5.024 Z " fill="rgb(240,240,244)"/></g><g opacity="0.8"><rect x="44.142" y="4.946" width="1.568" height="1.272" transform="matrix(0.019,-1,1,0.019,38.496,50.394)" fill="rgb(220,224,237)"/></g><g opacity="0.1"><path d=" M 44.305 4.786 L 44.295 5.284 C 44.385 5.312 44.478 5.326 44.571 5.327 L 45.566 5.337 L 45.576 4.81 L 44.305 4.786 Z " fill="rgb(0,0,0)"/></g><g opacity="0.8"><path d=" M 46.199 0.257 L 44.999 0.235 C 44.412 0.224 43.878 0.569 43.647 1.109 C 43.279 1.967 42.956 3.338 43.712 4.725 C 43.884 5.04 44.213 5.238 44.573 5.242 L 46.105 5.258 L 46.199 0.257 Z " fill="rgb(220,224,237)"/></g><g opacity="0.8"><path d=" M 46.105 5.258 C 45.395 5.245 44.84 4.113 44.866 2.733 C 44.892 1.353 45.489 0.244 46.199 0.257 C 46.908 0.271 47.463 1.402 47.437 2.782 C 47.411 4.162 46.814 5.271 46.105 5.258 Z " fill="rgb(240,240,244)"/></g><g opacity="0.8"><path d=" M 45.861 1.165 C 45.861 1.165 46.334 1.25 46.075 1.871 C 45.939 2.173 45.837 2.489 45.773 2.814 C 45.773 2.814 45.294 3.052 45.329 2.237 C 45.363 1.422 45.861 1.165 45.861 1.165 Z " fill="rgb(220,224,237)"/></g><g opacity="0.8"><path d=" M 93.211 46.025 C 89.071 45.947 85.779 42.2 85.865 37.662 C 85.951 33.125 89.381 29.504 93.521 29.583 C 97.661 29.661 100.952 33.408 100.867 37.946 C 100.781 42.483 97.35 46.103 93.211 46.025 Z " fill="rgb(99,103,128)"/></g><g opacity="0.1"><path d=" M 90.701 30.042 C 94.621 30.381 97.663 34.012 97.58 38.38 C 97.514 41.902 95.437 44.867 92.575 45.985 C 88.655 45.647 85.613 42.016 85.696 37.647 C 85.762 34.126 87.839 31.16 90.701 30.042 Z " fill="rgb(0,0,0)"/></g><g opacity="0.8"><path d=" M 34.848 26.666 C 31.488 26.602 28.827 22.994 28.909 18.612 C 28.992 14.23 31.787 10.725 35.148 10.788 C 38.508 10.852 41.169 14.46 41.086 18.842 C 41.003 23.224 38.208 26.729 34.848 26.666 Z " fill="rgb(99,103,128)"/></g><g opacity="0.1"><path d=" M 36.843 11.153 C 39.35 12.168 41.136 15.247 41.068 18.853 C 40.995 22.706 38.829 25.878 36.023 26.547 C 33.516 25.531 31.73 22.453 31.798 18.847 C 31.871 14.994 34.037 11.822 36.843 11.153 Z " fill="rgb(0,0,0)"/></g><g opacity="0.8"><path d=" M 57.9 17.464 L 57.841 14.58 C 57.841 14.58 58.43 13.348 58.997 13.245 C 58.997 13.245 60.865 13.097 60.865 13.097 C 60.865 13.097 61.804 17.255 61.102 18.485 C 60.401 19.715 57.9 17.464 57.9 17.464 Z " fill="rgb(101,97,125)"/></g><g opacity="0.1"><path d=" M 57.9 17.464 L 57.841 14.58 C 57.841 14.58 58.43 13.348 58.997 13.245 C 58.997 13.245 60.865 13.097 60.865 13.097 C 60.865 13.097 61.804 17.255 61.102 18.485 C 60.401 19.715 57.9 17.464 57.9 17.464 Z " fill="rgb(0,0,0)"/></g><g opacity="0.8"><path d=" M 68.33 17.35 C 68.33 17.35 68.756 13.361 66.561 13.247 C 66.279 13.233 65.996 13.221 65.716 13.188 C 64.196 13.012 60.052 12.613 60.531 13.571 C 60.531 13.571 61.454 17.065 60.759 17.928 L 68.33 17.35 Z " fill="rgb(101,97,125)"/></g><g opacity="0.8"><path d=" M 37.071 24.171 L 34.124 24.2 C 34.124 24.2 33.718 18.766 33.557 18.339 C 33.557 18.339 33.349 15.877 33.905 15.59 C 33.905 15.59 36.312 14.979 36.312 14.979 L 37.61 18.098 L 37.663 20.897 L 37.071 24.171 Z " fill="rgb(101,97,125)"/></g><g opacity="0.1"><path d=" M 37.071 24.171 L 34.124 24.2 C 34.124 24.2 33.718 18.766 33.557 18.339 C 33.557 18.339 33.349 15.877 33.905 15.59 C 33.905 15.59 36.312 14.979 36.312 14.979 L 37.61 18.098 L 37.663 20.897 L 37.071 24.171 Z " fill="rgb(0,0,0)"/></g><g opacity="0.8"><path d=" M 44.361 15.3 L 44.385 14.697 C 44.389 14.6 44.353 14.507 44.286 14.438 C 44.218 14.369 44.125 14.332 44.029 14.334 C 42.568 14.368 37.251 14.522 36.312 14.979 C 36.312 14.979 37.186 22.563 36.029 24.342 L 36.296 30.41 L 49.325 29.681 L 44.361 15.3 Z " fill="rgb(101,97,125)"/></g><g opacity="0.1"><path d=" M 45.558 5.767 C 45.198 5.724 44.769 5.677 44.289 5.631 L 44.275 6.354 L 45.547 6.378 L 45.558 5.767 Z " fill="rgb(0,0,0)"/></g><g opacity="0.1"><path d=" M 32.98 6.251 L 32.978 6.342 L 34.249 6.366 L 34.259 5.816 C 33.816 5.907 33.386 6.053 32.98 6.251 L 32.98 6.251 Z " fill="rgb(0,0,0)"/></g><g opacity="0.8"><path d=" M 26.261 24.158 L 28.182 24.222 L 32.288 17.083 L 32.974 15.891 L 32.523 12.83 L 32.118 13.562 L 26.261 24.158 L 26.261 24.158 Z " fill="rgb(220,224,237)"/></g><g opacity="0.8"><path d=" M 43.804 15.615 L 44.572 16.816 L 46.997 13.664 L 48.107 12.22 L 47.474 11.332 L 46.965 11.926 L 43.804 15.615 L 43.804 15.615 Z " fill="rgb(220,224,237)"/></g><g opacity="0.1"><path d=" M 46.965 11.926 C 46.96 11.987 46.955 12.05 46.95 12.113 L 46.997 13.664 L 48.107 12.22 L 47.473 11.332 L 46.965 11.926 Z " fill="rgb(0,0,0)"/></g><g opacity="0.1"><path d=" M 32.118 13.562 L 32.288 17.083 L 32.974 15.891 L 32.523 12.83 L 32.118 13.562 L 32.118 13.562 Z " fill="rgb(0,0,0)"/></g><g opacity="0.8"><path d=" M 49.171 14.218 C 49.171 14.218 50.254 7.15 46.821 6.026 C 46.776 6.012 46.731 6.001 46.685 5.995 C 45.892 5.884 38.5 4.89 34.634 5.833 C 34.634 5.833 31.999 6.179 32 7.592 L 32.833 24.875 L 34.726 24.911 L 34.32 13.486 C 34.32 13.486 33.509 8.496 35.013 8.186 C 35.013 8.186 43.336 7.438 45.725 8.162 C 45.725 8.162 47.484 7.799 47.12 12.117 L 47.189 14.435 L 49.171 14.218 Z " fill="rgb(220,224,237)"/></g><g opacity="0.8"><path d=" M 43.368 16.214 C 43.343 15.833 43.519 15.467 43.832 15.248 C 44.369 14.855 46.017 14.018 46.017 14.018 L 46.546 14.07 L 48.061 18.041 L 47.797 26.409 L 44.869 29.893 L 43.368 16.214 Z " fill="rgb(101,97,125)"/></g><g opacity="0.1"><path d=" M 43.368 16.214 C 43.343 15.833 43.519 15.467 43.832 15.248 C 44.369 14.855 46.017 14.018 46.017 14.018 L 46.546 14.07 L 48.061 18.041 L 47.797 26.409 L 44.869 29.893 L 43.368 16.214 Z " fill="rgb(0,0,0)"/></g><g opacity="0.8"><path d=" M 54.616 25.202 L 54.722 16.612 C 54.722 16.612 55.039 13.284 53.049 13.189 C 53.049 13.189 48.35 13.135 46.298 13.759 C 46.166 13.798 46.06 13.895 46.008 14.022 C 45.955 14.148 45.963 14.292 46.028 14.413 C 46.421 15.128 47.071 17.013 47.311 21.821 L 47.214 26.97 L 54.616 25.202 Z " fill="rgb(101,97,125)"/></g><g opacity="0.8"><path d=" M 44.604 30.503 L 53.154 30.465 L 53.163 30.465 L 57.365 30.447 L 56.983 24.823 L 54.651 24.864 L 47.204 26.376 L 44.869 29.893 L 44.604 30.503 L 44.604 30.503 Z " fill="rgb(101,97,125)"/></g><g opacity="0.1"><path d=" M 44.604 30.503 L 53.154 30.465 L 53.163 30.465 L 57.365 30.447 L 56.983 24.823 L 54.651 24.864 L 47.204 26.376 L 44.869 29.893 L 44.604 30.503 L 44.604 30.503 Z " fill="rgb(0,0,0)"/></g><g opacity="0.8"><path d=" M 44.604 30.503 L 53.154 30.465 L 53.366 26.705 L 47.204 26.376 L 44.869 29.893 L 44.604 30.503 L 44.604 30.503 Z " fill="rgb(101,97,125)"/></g><g opacity="0.1"><path d=" M 53.162 30.465 L 57.365 30.447 L 56.983 24.823 C 56.983 24.823 55.63 26.896 53.366 26.705 L 53.162 30.465 Z " fill="rgb(255,255,255)"/></g><g opacity="0.8"><path d=" M 22.93 34.439 C 23.069 36.052 24.218 35.82 24.218 35.82 L 24.432 35.804 L 26.553 35.652 L 26.515 33.15 C 25.798 33.095 25.076 33.125 24.365 33.238 C 23.568 33.388 22.868 33.722 22.93 34.439 Z " fill="rgb(220,224,237)"/></g><g opacity="0.1"><path d=" M 22.93 34.439 C 23.069 36.052 24.218 35.82 24.218 35.82 L 24.432 35.804 C 24.668 35.448 24.794 35.029 24.792 34.601 C 24.819 34.11 24.667 33.626 24.365 33.238 C 23.568 33.388 22.868 33.722 22.93 34.439 Z " fill="rgb(0,0,0)"/></g><g opacity="0.8"><path d=" M 52.48 18.619 C 52.43 21.233 53.959 23.381 55.894 23.417 C 57.828 23.454 59.437 21.365 59.486 18.751 C 59.536 16.138 58.007 13.99 56.072 13.953 C 54.138 13.917 52.529 16.006 52.48 18.619 Z  M 53.802 18.955 C 53.838 17.059 55.062 15.545 56.536 15.573 C 58.011 15.601 59.177 17.16 59.141 19.056 C 59.106 20.952 57.881 22.466 56.407 22.438 C 54.932 22.41 53.766 20.851 53.802 18.955 L 53.802 18.955 Z " fill="rgb(99,103,128)"/></g><g opacity="0.8"><path d=" M 55.786 20.137 L 54.117 21.716 L 53.551 20.264 L 55.95 18.925 L 55.786 20.137 L 55.786 20.137 Z " fill="rgb(99,103,128)"/></g><g opacity="0.8"><path d=" M 53.671 4.153 L 52.242 4.3 L 51.7 4.919 L 52.435 8.545 L 54.03 14.394 L 55.073 18.409 L 55.814 20.849 L 56.255 24.068 L 56.715 26.284 L 58.191 27.816 L 61.318 24.264 L 61.842 23.07 L 63.092 20.635 L 60.011 19.122 L 56.606 18.757 L 55.079 14.614 L 53.865 9.826 L 53.671 4.153 L 53.671 4.153 Z " fill="rgb(24,144,255)"/></g><g opacity="0.8"><path d=" M 82.206 21.908 L 83.775 37.595 L 60.316 36.162 L 63.174 28.529 L 67.749 25.676 L 57.406 25.65 L 57.431 21.355 L 61.629 20.53 L 70.061 20.011 L 76.394 19.848 L 82.403 21.94" fill="rgb(101,97,125)"/></g><g opacity="0.1"><path d=" M 82.206 21.908 L 83.775 37.595 L 60.316 36.162 L 63.174 28.529 L 67.749 25.676 L 57.406 25.65 L 57.431 21.355 L 61.629 20.53 L 70.061 20.011 L 76.394 19.848 L 82.403 21.94" fill="rgb(0,0,0)"/></g><g opacity="0.8"><path d=" M 49.836 36.9 C 49.763 40.79 50.988 44.355 54.581 44.035 C 59.106 44.023 59.519 40.974 59.592 37.085 C 59.666 33.195 57.536 30.26 54.842 30.209 C 52.148 30.158 49.91 33.011 49.836 36.9 Z " fill="rgb(99,103,128)"/></g><g opacity="0.1"><path d=" M 49.808 36.907 C 49.865 33.895 51.22 31.506 53.079 30.603 C 55.435 31.098 57.201 33.852 57.134 37.4 C 57.074 40.588 56.785 43.21 54.193 44.06 C 50.878 44.116 49.737 40.663 49.808 36.907 Z " fill="rgb(0,0,0)"/></g><g opacity="0.8"><path d=" M 45.344 30.709 L 46.693 32.315 L 44.219 31.842 L 42.396 30.102 L 40.803 26.761 L 38.498 25.287 L 32.767 25.957 L 27.473 26.057 L 25.552 24.286 L 27.737 24.031 L 29.944 24.022 L 35.488 24.002 L 42.085 23.951 L 43.371 27.587 L 44.353 30.088 L 45.344 30.709 L 45.344 30.709 Z " fill="rgb(24,144,255)"/></g><g opacity="0.8"><path d=" M 26.249 36.791 C 26.358 36.962 30.049 37.598 30.049 37.598 L 40.24 39.655 L 57.809 40.242 L 59.904 38.529 L 60.984 38.741 L 61.028 38.75 L 75.447 41.592 L 75.683 41.563 L 79.637 41.075 L 100.29 38.528 L 100.116 35.534 L 100.013 33.767 L 99.8 30.097 L 99.62 29.132 L 97.789 28.93 L 96.933 28.835 L 83.588 27.356 L 81.843 27.163 L 80.865 27.054 L 71.34 25.575 L 57.406 25.651 L 57.43 21.355 L 52.242 4.3 C 51.023 4.474 51.036 5.295 51.036 5.295 L 55.424 21.345 L 55.295 31.15 C 45.523 31.951 45.249 29.82 43.692 30.507 L 41.94 24.511 L 25.552 24.286 C 24.887 25.065 26.249 36.791 26.249 36.791 Z " fill="rgb(101,97,125)"/></g><g opacity="0.8"><path d=" M 67.071 28.659 L 61.662 39.721 L 59.899 40.252 L 59.51 38.436 L 61.576 32.286 L 63.65 28.736 L 67.071 28.659 L 67.071 28.659 Z " fill="rgb(101,97,125)"/></g><g opacity="0.15"><path d=" M 67.071 28.659 L 61.662 39.721 L 59.899 40.252 L 59.51 38.436 L 61.576 32.286 L 63.65 28.736 L 67.071 28.659 L 67.071 28.659 Z " fill="rgb(0,0,0)"/></g><g opacity="0.8"><path d=" M 70.021 51.692 C 64.824 51.594 60.696 46.729 60.808 40.835 C 60.919 34.941 65.228 30.235 70.424 30.333 C 75.62 30.432 79.748 35.296 79.637 41.19 C 79.526 47.084 75.217 51.79 70.021 51.692 Z " fill="rgb(99,103,128)"/></g><g opacity="0.1"><path d=" M 67.053 30.936 C 71.974 31.372 75.789 36.086 75.681 41.761 C 75.595 46.335 72.986 50.189 69.393 51.643 C 64.473 51.207 60.658 46.493 60.765 40.819 C 60.852 36.244 63.461 32.39 67.053 30.936 Z " fill="rgb(0,0,0)"/></g><g opacity="0.8"><path d=" M 95.811 22.815 L 96.236 25.021 L 97.535 31.778 L 103.677 31.301 C 103.677 31.301 104.066 30.178 103.113 29.736 C 103.113 29.736 102.87 25.905 101.76 24.679 C 101.641 24.539 101.49 24.43 101.321 24.36 L 95.811 22.815 Z " fill="rgb(101,97,125)"/></g><g opacity="0.1"><path d=" M 96.236 25.021 L 97.535 31.778 L 103.677 31.301 C 103.677 31.301 104.066 30.178 103.113 29.736 C 103.113 29.736 102.87 25.905 101.76 24.679 L 96.236 25.021 Z " fill="rgb(255,255,255)"/></g><g opacity="0.8"><path d=" M 81.985 23.147 C 81.169 24.46 82.858 36.73 82.858 36.73 L 97.964 34.527 L 97.629 23.81 C 97.355 21.883 96.229 21.636 96.229 21.636 C 90.968 18.851 78.774 18.056 78.774 18.056 C 67.635 18.269 57.431 21.355 57.431 21.355 C 70.124 19.645 81.985 23.147 81.985 23.147 Z " fill="rgb(101,97,125)"/></g><g opacity="0.1"><path d=" M 82.858 36.73 L 97.964 34.527 L 97.629 23.81 C 97.355 21.883 96.229 21.636 96.229 21.636 C 96.229 21.636 85.259 20.383 81.985 23.147 C 81.169 24.46 82.858 36.73 82.858 36.73 Z " fill="rgb(0,0,0)"/></g><g opacity="0.8"><path d=" M 84.463 36.053 L 97.094 34.169 L 96.818 25.026 C 96.589 23.381 95.648 23.171 95.648 23.171 C 95.648 23.171 86.476 22.105 83.737 24.465 C 83.055 25.585 84.463 36.053 84.463 36.053 Z " fill="rgb(101,97,125)"/></g><g opacity="0.1"><path d=" M 85.582 31.694 C 84.631 31.676 83.885 30.256 83.918 28.525 C 83.951 26.794 84.749 25.404 85.7 25.422 C 86.652 25.44 87.397 26.86 87.365 28.59 C 87.332 30.321 86.533 31.712 85.582 31.694 Z " fill="rgb(0,0,0)"/></g><g opacity="0.8"><path d=" M 85.584 31.609 C 84.632 31.591 83.887 30.171 83.919 28.44 C 83.952 26.71 84.751 25.319 85.702 25.337 C 86.653 25.355 87.399 26.775 87.366 28.506 C 87.333 30.236 86.535 31.627 85.584 31.609 Z " fill="rgb(220,224,237)"/></g><g opacity="0.8"><path d=" M 85.461 26.152 C 85.461 26.152 86.165 26.278 85.78 27.204 C 85.576 27.653 85.425 28.124 85.329 28.608 C 85.329 28.608 84.616 28.962 84.667 27.748 C 84.719 26.534 85.461 26.152 85.461 26.152 Z " fill="rgb(240,240,244)"/></g><g opacity="0.1"><path d=" M 94.848 30.419 C 93.959 30.403 93.262 29.076 93.293 27.459 C 93.323 25.841 94.07 24.542 94.958 24.559 C 95.847 24.576 96.544 25.902 96.513 27.52 C 96.483 29.137 95.736 30.436 94.848 30.419 Z " fill="rgb(0,0,0)"/></g><g opacity="0.8"><path d=" M 94.849 30.335 C 93.961 30.318 93.264 28.991 93.294 27.374 C 93.325 25.757 94.071 24.457 94.96 24.474 C 95.849 24.491 96.546 25.818 96.515 27.435 C 96.484 29.052 95.738 30.351 94.849 30.335 Z " fill="rgb(220,224,237)"/></g><g opacity="0.8"><path d=" M 94.722 25.083 C 94.722 25.083 95.427 25.21 95.042 26.135 C 94.838 26.585 94.687 27.056 94.591 27.54 C 94.591 27.54 93.878 27.894 93.929 26.679 C 93.98 25.465 94.722 25.083 94.722 25.083 Z " fill="rgb(240,240,244)"/></g><g opacity="0.1"><path d=" M 87.669 25.939 C 87.76 27.1 88.163 35.699 88.163 35.699 L 89.125 35.557 L 89.66 35.479 L 90.372 35.373 L 90.458 35.361 L 93.265 34.947 L 92.884 25.827 C 92.858 25.218 92.36 24.737 91.751 24.733 C 91.723 24.733 91.694 24.733 91.665 24.735 C 91.472 24.748 91.263 24.765 91.045 24.785 C 90.954 24.793 90.861 24.801 90.767 24.811 C 90.497 24.839 90.219 24.872 89.947 24.912 C 89.807 24.933 89.67 24.955 89.535 24.979 C 89.306 25.02 89.085 25.066 88.88 25.119 C 88.741 25.155 88.609 25.194 88.488 25.236 C 87.979 25.41 87.645 25.639 87.669 25.939 Z " fill="rgb(0,0,0)"/></g><g opacity="0.8"><path d=" M 91.751 24.733 L 92.105 34.982 L 92.416 34.96 L 92.066 24.779 C 91.964 24.749 91.858 24.733 91.751 24.733 L 91.751 24.733 Z " fill="rgb(101,97,125)"/></g><g opacity="0.8"><path d=" M 90.767 24.811 L 91.084 35.16 L 91.565 35.17 L 91.045 24.785 C 90.953 24.793 90.861 24.801 90.767 24.811 Z " fill="rgb(101,97,125)"/></g><g opacity="0.8"><path d=" M 89.535 24.979 L 90.148 35.369 L 90.459 35.375 L 90.458 35.361 L 89.947 24.912 C 89.807 24.933 89.67 24.955 89.535 24.979 Z " fill="rgb(101,97,125)"/></g><g opacity="0.8"><path d=" M 88.488 25.236 L 89.125 35.557 L 89.126 35.576 L 89.664 35.53 L 89.66 35.479 L 88.88 25.119 C 88.741 25.155 88.609 25.194 88.488 25.236 Z " fill="rgb(101,97,125)"/></g><g opacity="0.1"><path d=" M 99.828 33.432 C 99.828 33.432 100.968 28.091 98.6 27.771 C 98.6 27.771 88.424 27.875 88.615 30.084 C 88.615 30.084 88.998 35.644 88.998 35.644 L 90.615 35.314 C 90.615 35.314 89.502 30.249 91.392 30.094 C 91.392 30.094 97.91 29.496 97.91 29.496 C 97.91 29.496 99.165 29.308 98.36 33.723 L 99.828 33.432 Z " fill="rgb(0,0,0)"/></g><g opacity="0.8"><path d=" M 99.819 33.941 C 99.819 33.941 100.965 28.261 98.597 27.94 C 98.597 27.94 88.421 28.045 88.612 30.253 C 88.612 30.253 88.995 35.814 88.995 35.814 L 90.612 35.484 C 90.612 35.484 89.499 30.418 91.389 30.263 C 91.389 30.263 97.907 29.666 97.907 29.666 C 97.907 29.666 99.155 29.816 98.351 34.231 L 99.819 33.941 Z " fill="rgb(220,224,237)"/></g><g opacity="0.8"><path d=" M 57.809 40.242 L 59.9 40.252 C 61.552 33.557 64.146 29.424 64.146 29.424 C 65.002 28.987 74.267 29.219 74.267 29.219 C 75.225 29.407 75.422 32.463 75.422 32.463 C 75.422 32.463 74.589 33.153 75.371 33.621 C 75.721 33.829 76.883 33.889 78.224 33.846 C 79.889 33.791 81.832 33.575 82.839 33.281 C 84.658 32.75 83.237 31.678 83.237 31.678 C 83.237 31.678 82.989 31.334 82.855 29.466 C 82.759 28.375 82.427 27.318 81.881 26.369 C 81.806 26.238 81.758 26.167 81.758 26.167 C 81.664 26.074 81.553 26.002 81.431 25.954 C 79.055 24.908 67.298 25.639 67.298 25.639 L 62.921 26.942 C 62.8 26.988 62.608 27.291 62.37 27.777 C 60.94 30.7 57.809 40.242 57.809 40.242 Z " fill="rgb(101,97,125)"/></g><g opacity="0.1"><path d=" M 57.809 40.242 L 59.9 40.252 C 61.552 33.557 64.146 29.424 64.146 29.424 C 65.002 28.987 74.267 29.219 74.267 29.219 C 75.225 29.407 75.422 32.463 75.422 32.463 C 75.422 32.463 74.589 33.153 75.371 33.621 C 75.721 33.829 76.883 33.889 78.224 33.846 C 79.889 33.791 81.832 33.575 82.839 33.281 C 84.658 32.75 83.237 31.678 83.237 31.678 C 83.237 31.678 82.989 31.334 82.855 29.466 C 82.759 28.375 82.427 27.318 81.881 26.369 C 81.806 26.238 81.758 26.167 81.758 26.167 C 81.664 26.074 81.553 26.002 81.431 25.954 C 79.055 24.908 67.298 25.639 67.298 25.639 L 62.921 26.942 C 62.8 26.988 62.608 27.291 62.37 27.777 C 60.94 30.7 57.809 40.242 57.809 40.242 Z " fill="rgb(0,0,0)"/></g><g opacity="0.8"><path d=" M 62.37 27.777 C 66.416 26.292 77.469 27.329 77.469 27.329 C 78.663 26.346 80.876 26.322 81.881 26.369 C 81.806 26.238 81.758 26.167 81.758 26.167 C 81.664 26.074 81.553 26.002 81.431 25.954 C 79.055 24.908 67.298 25.639 67.298 25.639 L 62.921 26.942 C 62.8 26.988 62.608 27.291 62.37 27.777 Z " fill="rgb(101,97,125)"/></g><g opacity="0.8"><path d=" M 76.811 27.741 C 77.048 28.621 78.027 32.145 78.027 32.145 C 78.125 32.708 78.191 33.276 78.224 33.846 C 79.889 33.791 81.832 33.575 82.839 33.281 C 84.658 32.75 83.237 31.678 83.237 31.678 C 83.237 31.678 82.989 31.334 82.855 29.466 C 82.752 28.296 82.377 27.165 81.758 26.167 C 81.664 26.074 81.553 26.002 81.431 25.954 C 79.854 26.294 76.631 27.075 76.811 27.741 Z " fill="rgb(101,97,125)"/></g><g opacity="0.1"><path d=" M 76.811 27.741 C 77.048 28.621 78.027 32.145 78.027 32.145 C 78.125 32.708 78.191 33.276 78.224 33.846 C 79.889 33.791 81.832 33.575 82.839 33.281 C 84.658 32.75 83.237 31.678 83.237 31.678 C 83.237 31.678 82.989 31.334 82.855 29.466 C 82.752 28.296 82.377 27.165 81.758 26.167 C 81.664 26.074 81.553 26.002 81.431 25.954 C 79.854 26.294 76.631 27.075 76.811 27.741 Z " fill="rgb(255,255,255)"/></g><g opacity="0.8"><path d=" M 52.242 4.3 L 57.431 21.355 L 79.068 18.224 L 76.209 7.974 C 76.209 7.974 75.766 5.634 74.646 5.444 C 74.646 5.444 57.349 2.107 52.242 4.3 Z  M 54.65 6.974 C 53.951 4.671 64.231 5.819 64.231 5.819 C 65.615 5.712 67.283 5.829 68.834 6.017 C 69.402 6.086 69.953 6.165 70.469 6.246 C 71.622 6.427 72.6 6.62 73.185 6.742 C 73.557 6.82 73.771 6.869 73.771 6.869 C 75.814 7.543 76.82 16.041 76.82 16.041 C 76.972 16.934 75.917 16.723 75.917 16.723 L 75.848 16.724 L 74.885 16.743 L 72.015 16.802 L 58.02 17.085 C 57.195 16.984 57.086 16.007 57.086 16.007 C 56.655 15.299 54.65 6.974 54.65 6.974 L 54.65 6.974 Z " fill="rgb(101,97,125)"/></g><g opacity="0.8"><path d=" M 75.848 16.724 L 75.917 16.723 C 75.917 16.723 76.972 16.934 76.82 16.041 C 76.82 16.041 75.814 7.543 73.771 6.869 C 73.771 6.869 73.557 6.82 73.185 6.742 C 73.904 8.212 76.204 13.244 75.848 16.724 Z " fill="rgb(101,97,125)"/></g><g opacity="0.1"><path d=" M 75.848 16.724 L 75.917 16.723 C 75.917 16.723 76.972 16.934 76.82 16.041 C 76.82 16.041 75.814 7.543 73.771 6.869 C 73.771 6.869 73.557 6.82 73.185 6.742 C 73.904 8.212 76.204 13.244 75.848 16.724 Z " fill="rgb(0,0,0)"/></g><g opacity="0.1"><path d=" M 73.554 37.593 C 73.796 38.064 74.289 38.352 74.818 38.333 L 75.25 38.322 L 79.327 38.224 L 80.796 38.188 L 82.154 38.101 L 100.116 35.534 L 100.013 33.767 L 97.948 34.023 L 97.094 34.129 L 84.417 35.698 L 82.748 35.905 L 81.939 36.005 L 78.521 35.916 L 74.82 35.819 C 74.633 35.814 74.447 35.846 74.272 35.914 C 73.952 36.034 73.691 36.274 73.542 36.582 C 73.385 36.901 73.389 37.277 73.554 37.593 L 73.554 37.593 Z " fill="rgb(0,0,0)"/></g><g opacity="0.8"><path d=" M 73.551 37.762 C 73.793 38.233 74.286 38.522 74.815 38.502 L 80.793 38.358 L 82.151 38.27 L 101.306 35.532 L 102.811 35.318 L 103.632 35.2 C 105.248 34.891 104.798 33.272 104.798 33.272 C 104.699 32.535 101.943 31.805 101.039 31.816 C 100.431 31.824 100.329 32.758 100.327 33.371 C 100.327 33.672 100.35 33.894 100.35 33.894 L 99.454 34.005 L 81.936 36.175 L 74.817 35.989 C 74.278 35.969 73.777 36.267 73.539 36.751 C 73.382 37.071 73.386 37.446 73.551 37.762 L 73.551 37.762 Z " fill="rgb(220,224,237)"/></g><g opacity="0.1"><path d=" M 102.319 32.858 C 102.319 32.858 101.539 33.776 100.35 33.894 C 100.35 33.894 100.85 32.858 102.319 32.858 Z " fill="rgb(0,0,0)"/></g><g opacity="0.1"><path d=" M 102.467 35.489 C 102.467 35.489 104.983 35.48 104.957 36.836 C 104.957 36.836 103.345 38.388 103.345 38.388 L 80.803 42.286 L 74.416 42.279 C 74.416 42.279 72.218 40.457 74.55 39.71 L 80.988 40.001 L 102.477 36.478 C 102.477 36.478 101.926 35.705 102.467 35.489 Z " fill="rgb(0,0,0)"/></g><g opacity="0.8"><path d=" M 74.413 42.448 L 80.8 42.456 L 100.844 38.99 L 102.31 38.736 L 103.342 38.558 C 103.342 38.558 104.929 38.362 104.954 37.005 C 104.973 36.032 103.681 35.762 102.951 35.687 C 102.664 35.658 102.464 35.659 102.464 35.659 C 101.923 35.874 102.474 36.647 102.474 36.647 L 101.692 36.776 L 80.985 40.171 L 74.547 39.879 C 72.215 40.626 74.413 42.448 74.413 42.448 Z " fill="rgb(220,224,237)"/></g><g opacity="0.8"><path d=" M 100.595 34.351 L 99.279 33.733 L 98.601 33.692 L 98.55 39.4 L 100.649 39.015 L 101.535 38.467 L 102.004 36.102 C 102.004 36.102 101.853 35.11 101.77 35.023 C 101.687 34.937 100.595 34.351 100.595 34.351 Z " fill="rgb(220,224,237)"/></g><g opacity="0.1"><path d=" M 100.595 34.351 L 99.279 33.733 L 98.601 33.692 L 98.55 39.4 L 100.649 39.015 L 101.535 38.467 L 102.004 36.102 C 102.004 36.102 101.853 35.11 101.77 35.023 C 101.687 34.937 100.595 34.351 100.595 34.351 Z " fill="rgb(0,0,0)"/></g><g opacity="0.1"><path d=" M 100.844 38.99 C 100.827 39.009 100.818 39.019 100.818 39.019 L 102.293 38.764 C 102.299 38.754 102.305 38.745 102.31 38.736 C 103.108 37.502 103.194 36.49 102.951 35.687 C 102.664 35.658 102.464 35.659 102.464 35.659 C 101.923 35.874 102.474 36.647 102.474 36.647 L 101.692 36.776 C 101.723 37.894 100.99 38.816 100.844 38.99 Z " fill="rgb(0,0,0)"/></g><g opacity="0.1"><path d=" M 98.771 33.695 Q 99.14 33.845 99.454 34.005 C 100.395 34.481 100.973 35.006 101.306 35.532 L 102.811 35.318 C 102.186 33.953 100.643 33.306 100.643 33.306 L 100.327 33.371 L 98.771 33.695 Z " fill="rgb(0,0,0)"/></g><g opacity="0.8"><path d=" M 100.474 33.303 C 100.474 33.303 104.568 35.02 102.123 38.761 L 100.649 39.015 C 100.649 39.015 103.622 35.737 98.601 33.692 L 100.474 33.303 Z " fill="rgb(220,224,237)"/></g><g opacity="0.8"><path d=" M 90.608 34.954 L 89.083 34.869 L 89.221 41.004 L 91.688 40.599 L 92.743 40.11 L 93.246 38.904 L 93.608 37.695 L 92.81 36.578 L 91.889 35.939 L 90.608 34.954 L 90.608 34.954 Z " fill="rgb(220,224,237)"/></g><g opacity="0.1"><path d=" M 90.608 34.954 L 89.083 34.869 L 89.221 41.004 L 91.688 40.599 L 92.743 40.11 L 93.246 38.904 L 93.608 37.695 L 92.81 36.578 L 91.889 35.939 L 90.608 34.954 L 90.608 34.954 Z " fill="rgb(0,0,0)"/></g><g opacity="0.8"><path d=" M 90.694 39.364 C 90.288 39.357 89.97 38.794 89.983 38.107 C 89.996 37.421 90.335 36.871 90.741 36.878 C 91.146 36.886 91.465 37.449 91.452 38.135 C 91.439 38.821 91.099 39.372 90.694 39.364 Z " fill="rgb(220,224,237)"/></g><g opacity="0.8"><path d=" M 97.691 39.941 C 97.795 39.986 97.874 40.073 97.91 40.179 C 97.946 40.286 97.936 40.403 97.88 40.502 C 97.708 40.81 97.501 41.209 97.518 41.316 C 97.546 41.497 97.146 41.341 97.094 41.298 C 97.042 41.254 96.31 41.283 96.277 40.784 C 96.269 40.478 96.423 40.19 96.683 40.029 L 96.535 38.934 L 97.543 38.869 L 97.513 39.864 L 97.691 39.941 Z " fill="rgb(99,103,128)"/></g><g opacity="0.1"><path d=" M 97.691 39.941 C 97.795 39.986 97.874 40.073 97.91 40.179 C 97.946 40.286 97.936 40.403 97.88 40.502 C 97.708 40.81 97.501 41.209 97.518 41.316 C 97.546 41.497 97.146 41.341 97.094 41.298 C 97.042 41.254 96.31 41.283 96.277 40.784 C 96.269 40.478 96.423 40.19 96.683 40.029 L 96.535 38.934 L 97.543 38.869 L 97.513 39.864 L 97.691 39.941 Z " fill="rgb(0,0,0)"/></g><g opacity="0.1"><path d=" M 97.417 39.915 C 97.417 39.915 97.056 41.074 97.203 41.12 C 97.351 41.165 97.417 39.915 97.417 39.915 Z " fill="rgb(0,0,0)"/></g><g opacity="0.1"><path d=" M 97.041 39.633 C 97.041 39.633 96.68 40.792 96.827 40.837 C 96.975 40.882 97.041 39.633 97.041 39.633 Z " fill="rgb(0,0,0)"/></g><g opacity="0.8"><path d=" M 93.045 36.045 L 93.545 39.56 C 93.545 39.56 94.246 39.477 94.633 39.402 C 94.718 39.392 94.8 39.368 94.878 39.331 C 94.897 39.312 94.939 39.314 94.994 39.326 L 94.995 39.326 C 95.182 39.368 95.515 39.53 95.582 39.4 C 95.587 39.39 95.594 39.381 95.602 39.372 L 95.603 39.372 C 95.67 39.301 95.798 39.356 95.922 39.377 C 95.989 39.395 96.059 39.387 96.12 39.354 C 96.226 39.287 96.435 39.402 96.607 39.443 C 96.716 39.469 96.81 39.466 96.855 39.368 C 96.89 39.304 96.953 39.26 97.026 39.251 L 97.027 39.251 C 97.19 39.213 97.418 39.246 97.55 39.22 C 97.601 39.211 97.637 39.192 97.65 39.157 C 97.677 39.081 97.823 39.047 97.98 39.02 C 98.169 38.988 98.373 38.965 98.39 38.888 C 98.395 38.863 98.414 38.852 98.442 38.852 C 98.547 38.87 98.65 38.897 98.75 38.934 L 98.75 38.934 C 98.835 38.957 98.905 38.959 98.927 38.898 C 98.95 38.832 99.047 38.841 99.158 38.871 C 99.247 38.894 99.346 38.931 99.422 38.95 C 99.49 38.967 99.539 38.97 99.548 38.938 C 99.578 38.826 99.94 39.087 100.029 38.862 C 100.119 38.638 101.305 37.163 99.845 35.185 C 99.845 35.185 99.439 35.206 99.129 35.256 C 99.025 35.268 98.924 35.294 98.829 35.334 C 98.827 35.334 98.826 35.335 98.824 35.336 C 98.646 35.382 98.462 35.399 98.279 35.388 C 98.174 35.387 98.07 35.41 97.974 35.454 C 97.937 35.474 97.906 35.505 97.888 35.543 C 97.838 35.65 97.729 35.67 97.611 35.661 C 97.451 35.649 97.274 35.584 97.208 35.615 C 97.206 35.616 97.204 35.617 97.202 35.618 C 97.082 35.666 96.64 35.609 96.563 35.681 C 96.561 35.683 96.559 35.685 96.557 35.688 C 96.524 35.735 96.351 35.681 96.175 35.654 L 96.174 35.654 C 96.055 35.619 95.927 35.637 95.822 35.703 C 95.743 35.763 95.644 35.79 95.545 35.779 C 95.425 35.768 95.304 35.77 95.185 35.787 C 95.157 35.794 95.132 35.809 95.113 35.83 C 95.039 35.918 94.868 35.903 94.714 35.907 C 94.635 35.903 94.557 35.921 94.488 35.96 C 94.464 35.977 94.436 35.988 94.406 35.992 C 94.178 36.009 93.949 35.993 93.726 35.945 L 93.045 36.045 Z " fill="rgb(99,103,128)"/></g><g opacity="0.1"><path d=" M 99.158 38.871 C 99.247 38.894 99.346 38.931 99.422 38.95 C 100.603 37.192 99.662 35.822 99.128 35.256 C 99.025 35.268 98.924 35.294 98.829 35.334 C 99.955 36.685 99.389 38.337 99.158 38.871 Z " fill="rgb(0,0,0)"/></g><g opacity="0.1"><path d=" M 98.442 38.852 C 98.547 38.87 98.65 38.897 98.75 38.934 L 98.75 38.934 C 99.766 37.216 98.78 35.899 98.279 35.388 C 98.174 35.387 98.07 35.41 97.974 35.454 C 99.051 36.677 98.696 38.166 98.442 38.852 Z " fill="rgb(0,0,0)"/></g><g opacity="0.1"><path d=" M 97.55 39.22 C 97.601 39.211 97.637 39.192 97.65 39.157 C 97.677 39.081 97.823 39.047 97.98 39.02 C 98.871 37.464 98.123 36.241 97.611 35.661 C 97.451 35.649 97.274 35.584 97.208 35.615 C 97.206 35.616 97.204 35.617 97.202 35.618 C 98.392 37.004 97.773 38.717 97.55 39.22 Z " fill="rgb(0,0,0)"/></g><g opacity="0.1"><path d=" M 96.607 39.443 C 96.716 39.469 96.81 39.466 96.855 39.368 C 96.89 39.304 96.953 39.26 97.026 39.251 L 97.027 39.251 C 98.065 37.518 97.065 36.189 96.563 35.681 C 96.561 35.683 96.559 35.685 96.557 35.688 C 96.524 35.735 96.351 35.681 96.175 35.654 C 97.575 37.122 96.805 39.022 96.607 39.443 Z " fill="rgb(0,0,0)"/></g><g opacity="0.1"><path d=" M 95.603 39.372 C 95.67 39.301 95.798 39.356 95.922 39.377 C 97.002 37.657 96.064 36.325 95.545 35.779 C 95.425 35.768 95.304 35.77 95.185 35.787 C 96.383 37.125 95.847 38.791 95.603 39.372 Z " fill="rgb(0,0,0)"/></g><g opacity="0.1"><path d=" M 94.633 39.402 C 94.718 39.392 94.8 39.368 94.878 39.331 C 94.897 39.312 94.939 39.314 94.994 39.326 L 94.995 39.326 C 95.953 37.755 95.235 36.514 94.714 35.907 C 94.635 35.903 94.557 35.921 94.488 35.96 C 94.464 35.977 94.436 35.988 94.406 35.992 C 95.396 37.321 94.856 38.888 94.633 39.402 Z " fill="rgb(0,0,0)"/></g><g opacity="0.8"><path d=" M 67.069 48.245 C 64.527 48.197 62.521 45.119 62.592 41.377 C 62.662 37.635 64.783 34.636 67.325 34.684 C 69.866 34.732 71.872 37.809 71.802 41.551 C 71.731 45.293 69.61 48.293 67.069 48.245 Z " fill="rgb(99,103,128)"/></g><g opacity="0.1"><path d=" M 67.246 47.061 C 65.399 47.026 63.945 44.536 64.002 41.503 C 64.06 38.47 65.606 36.036 67.454 36.071 C 69.302 36.106 70.755 38.597 70.698 41.629 C 70.641 44.662 69.094 47.096 67.246 47.061 Z " fill="rgb(0,0,0)"/></g><g opacity="0.8"><path d=" M 67.25 46.892 C 65.402 46.857 63.948 44.366 64.006 41.333 C 64.063 38.301 65.61 35.867 67.457 35.902 C 69.305 35.936 70.759 38.427 70.701 41.46 C 70.644 44.493 69.097 46.926 67.25 46.892 Z " fill="rgb(240,240,244)"/></g><g opacity="0.8"><path d=" M 66.803 38.376 C 66.585 38.372 66.413 38.065 66.42 37.691 C 66.427 37.317 66.61 37.016 66.828 37.02 C 67.047 37.024 67.218 37.331 67.211 37.706 C 67.204 38.08 67.021 38.38 66.803 38.376 Z " fill="rgb(99,103,128)"/></g><g opacity="0.8"><path d=" M 65.109 44.279 C 64.89 44.275 64.719 43.968 64.726 43.594 C 64.733 43.22 64.916 42.919 65.134 42.923 C 65.353 42.927 65.524 43.234 65.517 43.609 C 65.51 43.983 65.327 44.283 65.109 44.279 Z " fill="rgb(99,103,128)"/></g><g opacity="0.8"><path d=" M 69.428 41.535 C 69.21 41.531 69.038 41.223 69.045 40.849 C 69.052 40.475 69.235 40.174 69.454 40.179 C 69.672 40.183 69.844 40.49 69.836 40.864 C 69.829 41.238 69.646 41.539 69.428 41.535 Z " fill="rgb(99,103,128)"/></g><g opacity="0.8"><path d=" M 68.195 45.468 C 67.977 45.464 67.805 45.157 67.812 44.783 C 67.819 44.408 68.002 44.108 68.221 44.112 C 68.439 44.116 68.61 44.423 68.603 44.797 C 68.596 45.172 68.413 45.472 68.195 45.468 Z " fill="rgb(99,103,128)"/></g><g opacity="0.8"><path d=" M 33.729 28.284 C 33.729 28.284 30.257 37.036 30.416 37.59 C 30.416 37.59 29.002 38.411 28.667 38.193 C 28.332 37.975 28.702 34.082 28.702 34.082 L 29.403 30.661 L 30.161 28.64 L 33.729 28.284 Z " fill="rgb(101,97,125)"/></g><g opacity="0.15"><path d=" M 33.729 28.284 C 33.729 28.284 30.257 37.036 30.416 37.59 C 30.416 37.59 29.002 38.411 28.667 38.193 C 28.332 37.975 28.702 34.082 28.702 34.082 L 29.403 30.661 L 30.161 28.64 L 33.729 28.284 Z " fill="rgb(0,0,0)"/></g><g opacity="0.8"><path d=" M 64.613 40.596 C 64.395 40.592 64.223 40.285 64.23 39.91 C 64.237 39.536 64.42 39.236 64.639 39.24 C 64.857 39.244 65.028 39.551 65.021 39.925 C 65.014 40.299 64.831 40.6 64.613 40.596 Z " fill="rgb(99,103,128)"/></g><g opacity="0.8"><path d=" M 66.712 43.207 C 66.072 43.195 65.567 42.464 65.584 41.575 C 65.601 40.686 66.133 39.975 66.772 39.987 C 67.412 39.999 67.917 40.73 67.9 41.619 C 67.884 42.508 67.351 43.219 66.712 43.207 Z " fill="rgb(99,103,128)"/></g><g opacity="0.8"><path d=" M 29.82 39.995 C 29.723 45.097 31.331 49.774 36.044 49.354 C 41.98 49.339 42.522 45.339 42.618 40.237 C 42.714 35.135 39.921 31.284 36.387 31.217 C 32.853 31.15 29.916 34.893 29.82 39.995 Z " fill="rgb(99,103,128)"/></g><g opacity="0.1"><path d=" M 29.783 40.003 C 29.857 36.053 31.635 32.918 34.073 31.735 C 37.164 32.383 39.481 35.996 39.394 40.651 C 39.315 44.832 38.936 48.273 35.535 49.387 C 31.186 49.461 29.69 44.931 29.783 40.003 Z " fill="rgb(0,0,0)"/></g><g opacity="0.1"><path d=" M 27.36 37.787 C 27.36 37.787 28.194 38.523 28.67 38.023 C 28.67 38.023 29.987 28.891 31.429 28.876 L 36.388 28.928 C 36.388 28.928 36.976 29.193 37.21 30.3 L 40.244 39.486 L 57.812 40.072 L 59.207 37.286 L 44.67 37.054 L 44.669 37.047 C 44.595 36.764 42.331 28.046 40.719 26.936 C 40.718 26.935 40.717 26.935 40.716 26.935 C 40.662 26.896 40.602 26.866 40.539 26.844 C 40.539 26.844 34.494 25.924 32.492 26.438 C 32.492 26.438 30.407 26.865 29.886 27.491 C 29.885 27.492 29.883 27.494 29.882 27.496 C 29.813 27.566 29.01 28.436 28.718 30.987 L 27.36 37.787 Z " fill="rgb(0,0,0)"/></g><g opacity="0.8"><path d=" M 27.357 37.956 C 27.357 37.956 28.191 38.693 28.667 38.193 C 28.667 38.193 29.984 29.061 31.426 29.046 L 36.385 29.097 C 36.385 29.097 36.973 29.363 37.207 30.469 L 40.24 39.655 L 57.809 40.242 L 59.204 37.456 L 44.667 37.223 L 44.666 37.217 C 44.592 36.934 42.328 28.216 40.716 27.106 C 40.715 27.105 40.714 27.105 40.713 27.104 C 40.659 27.066 40.599 27.035 40.536 27.013 C 40.536 27.013 34.491 26.094 32.489 26.607 C 32.489 26.607 30.404 27.034 29.883 27.66 C 29.882 27.662 29.88 27.663 29.879 27.665 C 29.81 27.735 29.006 28.606 28.715 31.157 L 27.357 37.956 Z " fill="rgb(101,97,125)"/></g><g opacity="0.1"><path d=" M 27.357 37.956 C 27.357 37.956 28.191 38.693 28.667 38.193 C 28.667 38.193 29.984 29.061 31.426 29.046 L 36.385 29.097 C 36.385 29.097 36.973 29.363 37.207 30.469 L 40.24 39.655 L 57.809 40.242 L 59.204 37.456 L 44.667 37.223 L 44.666 37.217 C 44.592 36.934 42.328 28.216 40.716 27.106 C 40.715 27.105 40.714 27.105 40.713 27.104 C 40.659 27.066 40.599 27.035 40.536 27.013 C 40.536 27.013 34.491 26.094 32.489 26.607 C 32.489 26.607 30.404 27.034 29.883 27.66 C 29.882 27.662 29.88 27.663 29.879 27.665 C 29.81 27.735 29.006 28.606 28.715 31.157 L 27.357 37.956 Z " fill="rgb(0,0,0)"/></g><g opacity="0.8"><path d=" M 38.31 28.158 C 38.719 28.972 42.176 38.957 42.176 38.957 L 44.667 37.223 L 44.666 37.217 C 44.592 36.934 42.325 28.206 40.713 27.104 C 39.649 27.265 38.032 27.606 38.31 28.158 Z " fill="rgb(101,97,125)"/></g><g opacity="0.8"><path d=" M 43.142 23.714 L 45.01 30.277 L 55.399 30.177 L 55.295 31.15 C 55.295 31.15 47.136 32.183 43.692 30.507 L 41.94 24.511 L 25.552 24.286 L 28.688 23.61 L 43.142 23.714 Z " fill="rgb(101,97,125)"/></g><g opacity="0.1"><path d=" M 43.142 23.714 L 45.01 30.277 L 55.399 30.177 L 55.295 31.15 C 55.295 31.15 47.136 32.183 43.692 30.507 L 41.94 24.511 L 25.552 24.286 L 28.688 23.61 L 43.142 23.714 Z " fill="rgb(255,255,255)"/></g><g opacity="0.1"><path d=" M 91.626 34.917 C 91.626 34.917 97.138 37.819 92.964 40.368 L 91.857 40.602 C 91.857 40.602 95.952 37.768 89.253 34.872 L 91.626 34.917 Z " fill="rgb(0,0,0)"/></g><g opacity="0.8"><path d=" M 91.456 34.913 C 91.456 34.913 96.969 37.816 92.795 40.365 L 91.688 40.598 C 91.688 40.598 95.783 37.765 89.083 34.869 L 91.456 34.913 Z " fill="rgb(220,224,237)"/></g><g opacity="0.8"><path d=" M 33.647 46.087 C 31.94 46.055 30.599 43.655 30.654 40.732 C 30.709 37.808 32.14 35.461 33.847 35.493 C 35.555 35.525 36.896 37.925 36.841 40.849 C 36.786 43.772 35.355 46.12 33.647 46.087 Z " fill="rgb(99,103,128)"/></g><g opacity="0.1"><path d=" M 33.768 45.199 C 32.527 45.176 31.556 43.233 31.601 40.864 C 31.645 38.495 32.689 36.59 33.931 36.613 C 35.172 36.637 36.143 38.58 36.099 40.949 C 36.054 43.318 35.01 45.223 33.768 45.199 Z " fill="rgb(0,0,0)"/></g><g opacity="0.8"><path d=" M 33.772 45.03 C 32.53 45.006 31.559 43.064 31.604 40.694 C 31.648 38.325 32.693 36.42 33.934 36.444 C 35.175 36.467 36.147 38.41 36.102 40.779 C 36.057 43.149 35.013 45.053 33.772 45.03 Z " fill="rgb(240,240,244)"/></g><g opacity="0.8"><path d=" M 33.489 38.379 C 33.342 38.376 33.228 38.136 33.233 37.844 C 33.239 37.551 33.362 37.316 33.509 37.319 C 33.656 37.322 33.77 37.561 33.765 37.854 C 33.759 38.146 33.636 38.381 33.489 38.379 Z " fill="rgb(99,103,128)"/></g><g opacity="0.8"><path d=" M 32.339 42.994 C 32.192 42.991 32.078 42.751 32.083 42.459 C 32.089 42.166 32.212 41.931 32.359 41.934 C 32.505 41.937 32.62 42.176 32.614 42.469 C 32.609 42.761 32.485 42.996 32.339 42.994 Z " fill="rgb(99,103,128)"/></g><g opacity="0.8"><path d=" M 35.246 40.84 C 35.1 40.838 34.985 40.598 34.991 40.306 C 34.996 40.013 35.12 39.778 35.266 39.781 C 35.413 39.784 35.527 40.023 35.522 40.316 C 35.516 40.608 35.393 40.843 35.246 40.84 Z " fill="rgb(99,103,128)"/></g><g opacity="0.8"><path d=" M 34.41 43.916 C 34.263 43.913 34.149 43.673 34.154 43.381 C 34.16 43.089 34.283 42.854 34.43 42.856 C 34.576 42.859 34.691 43.099 34.685 43.391 C 34.68 43.684 34.556 43.919 34.41 43.916 Z " fill="rgb(99,103,128)"/></g><g opacity="0.8"><path d=" M 32.013 40.117 C 31.867 40.114 31.752 39.875 31.758 39.582 C 31.763 39.29 31.887 39.055 32.033 39.058 C 32.18 39.06 32.295 39.3 32.289 39.592 C 32.284 39.885 32.16 40.12 32.013 40.117 Z " fill="rgb(99,103,128)"/></g><g opacity="0.8"><path d=" M 33.418 42.153 C 32.988 42.145 32.65 41.574 32.663 40.88 C 32.677 40.186 33.036 39.629 33.465 39.637 C 33.895 39.645 34.233 40.215 34.22 40.909 C 34.207 41.604 33.847 42.161 33.418 42.153 Z " fill="rgb(99,103,128)"/></g><g opacity="0.1"><path d=" M 79.113 18.076 C 79.113 18.076 69.699 18.238 57.431 21.355 L 79.113 18.076 Z " fill="rgb(0,0,0)"/></g><g opacity="0.8"><path d=" M 34.537 0.759 C 34.537 0.759 35.046 0.85 34.768 1.52 C 34.621 1.845 34.511 2.186 34.442 2.536 C 34.442 2.536 33.926 2.792 33.963 1.913 C 34 1.035 34.537 0.759 34.537 0.759 Z " fill="rgb(220,224,237)"/></g><g opacity="0.8"><mask id="_mask_tlZC2ubSCuGfK0FU2AWLvdv0q9bise2c" x="-200%" y="-200%" width="400%" height="400%"><rect x="-200%" y="-200%" width="400%" height="400%" style="fill:white;"/><path d=" M 54.336 16.865 L 55.086 19.85 L 57.669 17.586" fill="black" stroke="none"/></mask><path d=" M 54.336 16.865 L 55.086 19.85 L 57.669 17.586" fill="none"/><path d=" M 54.336 16.865 L 55.086 19.85 L 57.669 17.586" fill="none" mask="url(#_mask_tlZC2ubSCuGfK0FU2AWLvdv0q9bise2c)" vector-effect="non-scaling-stroke" stroke-width="0.34" stroke="rgb(0,0,0)" stroke-linejoin="miter" stroke-linecap="butt" stroke-miterlimit="10"/></g><g opacity="0.8"><rect x="50.461" y="19.671" width="7.75" height="7.616" transform="matrix(0.986,0.169,-0.169,0.986,4.755,-8.853)" fill="rgb(255,255,255)"/></g><g opacity="0.8"><path d=" M 53.376 26.817 L 53.519 25.98 C 53.071 25.902 52.654 25.7 52.314 25.398 L 52.608 24.876 C 52.959 25.174 53.382 25.374 53.835 25.454 C 54.423 25.555 54.879 25.283 54.96 24.811 C 55.039 24.355 54.764 24.018 54.193 23.664 C 53.405 23.187 53.043 22.733 53.166 22.012 C 53.284 21.324 53.816 20.877 54.6 20.884 L 54.743 20.047 L 55.163 20.119 L 55.025 20.923 C 55.402 20.991 55.756 21.154 56.052 21.398 L 55.751 21.909 C 55.486 21.669 55.156 21.511 54.802 21.456 C 54.164 21.347 53.953 21.703 53.896 22.035 C 53.822 22.465 53.997 22.717 54.667 23.14 C 55.461 23.634 55.913 24.155 55.786 24.893 C 55.674 25.548 55.113 26.083 54.235 26.077 L 54.087 26.939 L 53.376 26.817 Z " fill="rgb(99,103,128)"/></g><g opacity="0.8"><path d=" M 53.246 54.019 C 53.383 54.014 53.492 53.901 53.492 53.763 C 53.492 53.626 53.383 53.513 53.246 53.508 C 53.108 53.513 52.999 53.626 52.999 53.763 C 52.999 53.901 53.108 54.014 53.246 54.019 Z " fill="rgb(101,97,125)"/></g></g><g opacity="0.1"><ellipse vector-effect="non-scaling-stroke" cx="112.89591208821258" cy="76.79904735810725" rx="3.175891970294984" ry="0.5368830166719789" fill="rgb(24,144,255)"/></g><path d=" M 110.763 74.304 C 110.763 74.304 112.575 74.249 113.121 73.86 C 113.121 73.86 115.907 73.007 116.043 73.63 C 116.043 73.63 118.765 76.731 116.72 76.748 C 116.72 76.748 111.968 76.429 111.423 76.097 C 110.878 75.765 110.763 74.304 110.763 74.304 Z " fill="rgb(168,168,168)"/><g opacity="0.2"><path d=" M 116.756 76.531 C 114.711 76.547 112.004 76.212 111.459 75.88 C 111.044 75.627 110.879 74.72 110.824 74.302 C 110.785 74.304 110.763 74.304 110.763 74.304 C 110.763 74.304 110.878 75.765 111.423 76.097 C 111.968 76.429 114.675 76.764 116.72 76.748 C 117.31 76.743 117.514 76.533 117.503 76.222 C 117.421 76.41 117.196 76.527 116.756 76.531 Z " fill="rgb(0,0,0)"/></g><g opacity="0.1"><ellipse vector-effect="non-scaling-stroke" cx="131.31676672690293" cy="70.54319921338895" rx="2.44387074607468" ry="0.413134223347825" fill="rgb(24,144,255)"/></g><path d=" M 129.676 68.623 C 129.676 68.623 131.07 68.581 131.49 68.281 C 131.49 68.281 133.634 67.625 133.738 68.105 C 133.738 68.105 135.833 70.491 134.259 70.504 C 134.259 70.504 130.602 70.259 130.183 70.003 C 129.764 69.748 129.676 68.623 129.676 68.623 Z " fill="rgb(168,168,168)"/><g opacity="0.2"><path d=" M 134.287 70.337 C 132.714 70.349 130.631 70.092 130.211 69.836 C 129.892 69.642 129.765 68.944 129.722 68.622 C 129.693 68.623 129.676 68.623 129.676 68.623 C 129.676 68.623 129.764 69.748 130.183 70.003 C 130.602 70.259 132.686 70.516 134.259 70.504 C 134.714 70.5 134.871 70.338 134.862 70.099 C 134.799 70.244 134.626 70.334 134.287 70.337 Z " fill="rgb(0,0,0)"/></g><g opacity="0.1"><ellipse vector-effect="non-scaling-stroke" cx="120.22835075812912" cy="96.66162908906497" rx="5.8341928324591095" ry="0.98626630254698" fill="rgb(24,144,255)"/></g><path d=" M 116.31 92.079 C 116.31 92.079 119.638 91.976 120.641 91.262 C 120.641 91.262 125.76 89.695 126.009 90.84 C 126.009 90.84 131.01 96.537 127.253 96.568 C 127.253 96.568 118.523 95.982 117.522 95.372 C 116.521 94.763 116.31 92.079 116.31 92.079 Z " fill="rgb(168,168,168)"/><g opacity="0.2"><path d=" M 127.32 96.169 C 123.563 96.199 118.59 95.584 117.589 94.974 C 116.827 94.509 116.523 92.843 116.421 92.074 C 116.351 92.077 116.31 92.079 116.31 92.079 C 116.31 92.079 116.521 94.763 117.522 95.372 C 118.523 95.982 123.496 96.598 127.253 96.567 C 128.338 96.559 128.712 96.173 128.692 95.601 C 128.541 95.947 128.128 96.162 127.32 96.169 Z " fill="rgb(0,0,0)"/></g><path d=" M 181.83 61.944 C 181.83 70.08 175.421 76.771 167.292 77.121 C 159.164 77.47 152.203 71.353 151.505 63.248 C 151.483 63.001 151.467 62.754 151.459 62.504 L 151.459 62.491 Q 151.448 62.217 151.448 61.944 C 151.451 53.556 158.251 46.758 166.639 46.758 C 175.027 46.758 181.827 53.556 181.83 61.944 L 181.83 61.944 Z " fill="rgb(101,97,125)"/><g opacity="0.2"><path d=" M 181.83 61.944 C 181.83 70.08 175.421 76.771 167.292 77.121 C 159.164 77.47 152.203 71.353 151.505 63.248 C 151.483 63.001 151.467 62.754 151.459 62.504 L 151.459 62.491 Q 151.448 62.217 151.448 61.944 C 151.451 53.556 158.251 46.758 166.639 46.758 C 175.027 46.758 181.827 53.556 181.83 61.944 L 181.83 61.944 Z " fill="rgb(0,0,0)"/></g><circle vector-effect="non-scaling-stroke" cx="166.6388109618915" cy="61.94390537704397" r="8.285977597251332" fill="rgb(220,224,237)"/><circle vector-effect="non-scaling-stroke" cx="166.6388109618915" cy="61.94390537704397" r="4.971586898446134" fill="rgb(101,97,125)"/><path d=" M 100.732 61.944 C 100.733 70.08 94.323 76.771 86.194 77.121 C 78.066 77.47 71.106 71.353 70.408 63.248 C 70.386 63.001 70.369 62.754 70.362 62.504 L 70.362 62.491 Q 70.351 62.217 70.351 61.944 C 70.353 53.556 77.154 46.758 85.541 46.758 C 93.929 46.758 100.73 53.556 100.732 61.944 L 100.732 61.944 Z " fill="rgb(101,97,125)"/><g opacity="0.2"><path d=" M 100.732 61.944 C 100.733 70.08 94.323 76.771 86.194 77.121 C 78.066 77.47 71.106 71.353 70.408 63.248 C 70.386 63.001 70.369 62.754 70.362 62.504 L 70.362 62.491 Q 70.351 62.217 70.351 61.944 C 70.353 53.556 77.154 46.758 85.541 46.758 C 93.929 46.758 100.73 53.556 100.732 61.944 L 100.732 61.944 Z " fill="rgb(0,0,0)"/></g><circle vector-effect="non-scaling-stroke" cx="85.54107408202073" cy="61.94390537704397" r="8.285977597251332" fill="rgb(220,224,237)"/><circle vector-effect="non-scaling-stroke" cx="85.54107408202073" cy="61.94390537704397" r="4.971586898446148" fill="rgb(101,97,125)"/><path d=" M 186.568 59.097 L 181.5 58.877 L 176.872 50.282 L 160.564 48.96 L 152.631 59.318 L 153.071 62.183 L 151.969 64.827 L 100.182 65.268 L 100.182 63.946 L 99.741 63.946 L 99.3 61.962 L 103.267 61.962 L 100.402 58.877 L 90.265 50.282 C 90.265 50.282 72.855 50.723 72.635 50.282 C 72.635 50.282 73.626 45.324 73.626 45.324 L 81.119 43.12 L 106.683 41.137 C 112.302 32.212 117.371 28.025 117.371 28.025 L 183.042 28.025 L 186.127 43.892 L 186.127 43.929 L 186.568 59.097 Z " fill="rgb(68,64,83)"/><path d=" M 149.986 60.199 C 149.986 60.199 156.597 47.858 161.666 47.858 L 174.007 47.858 C 174.007 47.858 177.092 47.858 178.414 50.282 L 183.483 60.199 L 179.516 60.199 C 179.516 60.199 176.211 50.944 172.464 50.723 C 172.464 50.723 162.327 50.723 162.327 50.723 C 162.327 50.723 160.123 50.723 158.801 53.368 C 158.801 53.368 153.008 61.773 153.008 61.773 C 153.008 61.773 148.223 63.285 149.986 60.199 Z " fill="rgb(51,50,61)"/><path d=" M 189.433 58.216 L 181.144 58.216 L 181.059 64.827 L 189.433 62.844 L 189.433 58.216 L 189.433 58.216 Z " fill="rgb(51,50,61)"/><path d=" M 69.549 54.249 C 69.549 54.249 69.99 50.944 73.075 49.621 L 93.35 48.519 C 93.35 48.519 96.656 48.74 98.419 52.927 L 104.148 61.522 L 104.148 62.844 L 97.757 62.844 C 97.757 62.844 94.672 51.164 85.857 51.605 L 75.279 51.605 C 75.279 51.605 72.855 51.605 71.974 55.571 L 69.549 54.249 Z " fill="rgb(51,50,61)"/><path d=" M 117.15 29.347 L 117.15 29.347 L 184.805 29.347 L 184.805 29.347 C 184.805 28.008 183.72 26.923 182.381 26.923 L 119.574 26.923 C 118.932 26.923 118.315 27.178 117.86 27.633 C 117.406 28.087 117.15 28.704 117.15 29.347 Z " fill="rgb(51,50,61)"/><g opacity="0.3"><path d=" M 131.649 42.349 L 112.928 42.349 C 112.499 42.349 112.1 42.132 111.866 41.773 C 111.633 41.414 111.597 40.961 111.771 40.569 L 114.733 33.904 C 115.667 31.803 117.751 30.449 120.05 30.449 L 131.424 30.449 C 131.847 30.449 132.252 30.617 132.551 30.915 C 132.849 31.214 133.017 31.619 133.017 32.042 L 133.017 40.981 C 133.017 41.344 132.873 41.692 132.617 41.948 C 132.36 42.205 132.012 42.349 131.649 42.349 L 131.649 42.349 Z " fill="rgb(24,144,255)"/></g><g style="mix-blend-mode:normal;" opacity="0.3"><path d="M 138.812 30.45 L 155.218 30.45 C 155.738 30.45 156.16 30.872 156.16 31.392 L 156.16 41.408 C 156.16 41.928 155.738 42.35 155.218 42.35 L 138.812 42.35 C 138.292 42.35 137.87 41.928 137.87 41.408 L 137.87 31.392 C 137.87 30.872 138.292 30.45 138.812 30.45 Z" style="stroke:none;fill:#1890FF;stroke-miterlimit:10;"/></g><path d=" M 186.128 43.892 L 186.128 43.929 L 157.699 44.332 L 156.959 28.025 L 183.042 28.025 L 186.128 43.892 L 186.128 43.892 Z " fill="rgb(51,50,61)"/><g style="mix-blend-mode:normal;" opacity="0.3"><path d="M 161.062 30.45 L 180.118 30.45 C 180.638 30.45 181.06 30.872 181.06 31.392 L 181.06 41.408 C 181.06 41.928 180.638 42.35 180.118 42.35 L 161.062 42.35 C 160.542 42.35 160.12 41.928 160.12 41.408 L 160.12 31.392 C 160.12 30.872 160.542 30.45 161.062 30.45 Z" style="stroke:none;fill:#1890FF;stroke-miterlimit:10;"/></g><path d="M 127.589 46.54 L 134.041 46.54 C 134.206 46.54 134.34 46.674 134.34 46.839 L 134.34 47.561 C 134.34 47.726 134.206 47.86 134.041 47.86 L 127.589 47.86 C 127.424 47.86 127.29 47.726 127.29 47.561 L 127.29 46.839 C 127.29 46.674 127.424 46.54 127.589 46.54 Z" style="stroke:none;fill:#33323D;stroke-miterlimit:10;"/><path d="M 147.859 46.54 L 154.311 46.54 C 154.476 46.54 154.61 46.674 154.61 46.839 L 154.61 47.561 C 154.61 47.726 154.476 47.86 154.311 47.86 L 147.859 47.86 C 147.694 47.86 147.56 47.726 147.56 47.561 L 147.56 46.839 C 147.56 46.674 147.694 46.54 147.859 46.54 Z" style="stroke:none;fill:#33323D;stroke-miterlimit:10;"/><rect x="161.842" y="29.133" width="8.161" height="8.02" transform="matrix(1,0,0,1,0,0)" fill="rgb(255,255,255)"/><path d=" M 165.521 36.778 L 165.521 35.883 C 165.042 35.882 164.572 35.747 164.166 35.494 L 164.378 34.9 C 164.795 35.147 165.27 35.278 165.755 35.281 C 166.383 35.281 166.808 34.918 166.808 34.413 C 166.808 33.926 166.463 33.625 165.808 33.36 C 164.904 33.005 164.448 32.598 164.448 31.828 C 164.448 31.093 164.92 30.535 165.734 30.402 L 165.734 29.508 L 166.182 29.508 L 166.182 30.367 C 166.586 30.37 166.982 30.477 167.333 30.677 L 167.112 31.261 C 166.794 31.058 166.424 30.954 166.047 30.96 C 165.365 30.96 165.209 31.367 165.209 31.721 C 165.209 32.182 165.436 32.412 166.206 32.731 C 167.118 33.103 167.68 33.563 167.68 34.351 C 167.68 35.051 167.193 35.706 166.281 35.857 L 166.281 36.778 L 165.521 36.778 Z " fill="rgb(99,103,128)"/><path d=" M 63.022 71.099 C 61.969 72.244 61.193 72.695 61.229 71.487 C 61.34 67.83 54.916 51.299 54.916 51.299 L 56.816 51.155 C 60.962 58.306 62.504 65.654 63.022 71.099 Z " fill="none"/><path d=" M 72.087 79.076 C 72.087 83.972 68.23 87.999 63.339 88.209 C 58.448 88.419 54.259 84.738 53.839 79.861 C 53.826 79.712 53.816 79.564 53.812 79.413 L 53.812 79.405 Q 53.805 79.241 53.805 79.076 C 53.811 74.033 57.902 69.947 62.946 69.947 C 67.99 69.947 72.08 74.033 72.087 79.076 L 72.087 79.076 Z " fill="rgb(101,97,125)"/><circle vector-effect="non-scaling-stroke" cx="62.94550655076527" cy="79.07632750003498" r="4.985947424460221" fill="rgb(220,224,237)"/><circle vector-effect="non-scaling-stroke" cx="62.94550655076527" cy="79.07632750003498" r="2.9915687947714815" fill="rgb(101,97,125)"/><path d=" M 38.94 61.717 L 16.929 62.161 L 16.929 58.911 C 17.126 56.299 19.804 55.383 22.248 55.096 C 24.154 54.88 26.083 55.025 27.936 55.523 C 32.606 56.759 35.584 56.999 37.047 57.022 C 37.71 57.032 38.275 57.507 38.398 58.159 C 38.468 58.53 38.537 58.934 38.601 59.333 C 38.65 59.646 38.696 59.954 38.738 60.241 C 38.859 61.073 38.94 61.717 38.94 61.717 Z " fill="rgb(101,97,125)"/><path d=" M 56.501 79.667 L 10.775 79.667 C 10.053 79.674 9.397 79.25 9.107 78.589 C 8.763 77.766 9.245 77.24 9.759 76.932 C 10.811 76.309 11.609 75.333 12.01 74.178 C 12.498 72.743 12.974 70.484 13.162 66.963 C 13.354 63.321 14.673 61.52 16.098 60.648 L 16.099 60.648 C 17.939 59.523 19.957 59.945 19.957 59.945 L 38.497 60.093 C 38.827 60.243 39.132 60.442 39.402 60.684 C 41.054 62.222 38.645 64.229 38.645 64.229 C 33.474 69.695 37.389 75.235 37.389 75.235 L 46.875 75.235 C 48.648 75.244 50.381 74.713 51.845 73.714 C 53.127 72.828 53.623 71.971 53.815 71.452 C 53.961 71.056 54.11 70.66 54.287 70.277 C 56.775 64.88 53.774 56.1 52.479 52.817 C 52.157 52 51.941 51.524 51.941 51.524 L 54.916 51.299 L 56.798 51.156 L 56.816 51.155 C 60.962 58.306 62.504 65.654 63.022 71.099 C 63.071 71.612 63.111 72.109 63.143 72.587 C 63.262 74.423 62.616 76.226 61.357 77.567 C 60.098 78.909 58.34 79.669 56.501 79.667 Z " fill="rgb(24,144,255)"/><g opacity="0.1"><path d=" M 38.738 60.241 L 16.929 60.241 L 16.929 59.333 L 38.601 59.333 C 38.65 59.646 38.696 59.954 38.738 60.241 Z " fill="rgb(0,0,0)"/></g><g opacity="0.1"><path d=" M 39.402 60.684 L 16.274 60.684 C 16.214 60.684 16.154 60.672 16.099 60.648 C 17.939 59.523 19.957 59.945 19.957 59.945 L 38.497 60.093 C 38.827 60.243 39.132 60.442 39.402 60.684 L 39.402 60.684 Z " fill="rgb(0,0,0)"/></g><path d="M 8.183 59.56 L 39.597 59.56 C 39.847 59.56 40.05 59.762 40.05 60.01 L 40.05 60.01 C 40.05 60.258 39.847 60.46 39.597 60.46 L 8.183 60.46 C 7.933 60.46 7.73 60.258 7.73 60.01 L 7.73 60.01 C 7.73 59.762 7.933 59.56 8.183 59.56 Z" style="stroke:none;fill:#DCE0ED;stroke-miterlimit:10;"/><g opacity="0.1"><path d=" M 63.022 71.099 C 61.969 72.244 61.193 72.695 61.229 71.487 C 61.34 67.83 54.916 51.299 54.916 51.299 L 56.816 51.155 C 60.962 58.306 62.504 65.654 63.022 71.099 Z " fill="rgb(0,0,0)"/></g><g opacity="0.1"><path d=" M 72.031 78.075 C 70.94 78.336 69.59 78.602 67.926 78.846 Q 66.999 78.982 65.936 79.107 C 64.238 79.309 62.273 79.485 60.004 79.62 Q 59.04 79.679 58.002 79.726 Q 56.057 79.814 53.839 79.861 L 53.811 79.413 L 53.811 79.405 C 55.878 78.571 59.129 76.345 59.653 70.547 C 62.3 69.527 65.27 69.793 67.693 71.267 C 70.117 72.741 71.719 75.256 72.031 78.075 Z " fill="rgb(0,0,0)"/></g><path d=" M 52.089 79.667 C 52.089 79.667 62.581 78.53 58.969 62.541 C 58.969 62.541 64.154 67.294 67.379 69.935 C 70.604 72.577 76.351 76.219 76.351 76.219 C 76.351 76.219 72.919 79.427 52.089 79.667 Z " fill="rgb(24,144,255)"/><g opacity="0.1"><path d=" M 52.089 79.667 C 52.089 79.667 62.581 78.53 58.969 62.541 C 58.969 62.541 64.154 67.294 67.379 69.935 C 70.604 72.577 76.351 76.219 76.351 76.219 C 76.351 76.219 72.919 79.427 52.089 79.667 Z " fill="rgb(255,255,255)"/></g><circle vector-effect="non-scaling-stroke" cx="24.05647430059954" cy="79.07632750003498" r="9.140905878812717" fill="rgb(101,97,125)"/><circle vector-effect="non-scaling-stroke" cx="24.05647430059954" cy="79.07632750003498" r="4.985947424460221" fill="rgb(220,224,237)"/><circle vector-effect="non-scaling-stroke" cx="24.05647430059954" cy="79.07632750003498" r="2.9915687947714815" fill="rgb(101,97,125)"/><g opacity="0.1"><path d=" M 34.305 76.331 C 34.305 70.428 29.618 65.643 23.835 65.643 C 18.052 65.643 13.364 70.428 13.364 76.331 C 13.364 76.58 13.373 76.827 13.39 77.072 L 34.28 77.072 C 34.296 76.827 34.305 76.58 34.305 76.331 Z " fill="rgb(0,0,0)"/></g><path d=" M 33.918 76.147 C 33.918 70.463 29.403 65.854 23.835 65.854 C 18.266 65.854 13.752 70.463 13.752 76.147 C 13.752 76.387 13.761 76.625 13.777 76.86 L 33.893 76.86 C 33.909 76.625 33.918 76.387 33.918 76.147 Z " fill="rgb(24,144,255)"/><g opacity="0.1"><path d=" M 33.918 76.147 C 33.918 76.312 33.913 76.476 33.905 76.639 C 33.902 76.713 33.898 76.786 33.893 76.86 L 13.777 76.86 C 13.772 76.786 13.768 76.713 13.764 76.639 C 13.757 76.476 13.752 76.312 13.752 76.147 C 13.752 70.463 18.266 65.855 23.835 65.855 C 29.404 65.855 33.918 70.463 33.918 76.147 Z " fill="rgb(255,255,255)"/></g><g opacity="0.1"><path d=" M 33.905 76.639 C 33.902 76.713 33.898 76.786 33.893 76.86 L 13.777 76.86 C 13.772 76.786 13.768 76.713 13.764 76.639 L 33.905 76.639 Z " fill="rgb(0,0,0)"/></g><g opacity="0.1"><path d=" M 58.634 58.943 C 57.874 57.262 57.799 55.653 58.466 55.351 C 59.133 55.049 60.292 56.169 61.052 57.849 C 61.812 59.53 61.887 61.139 61.22 61.441 C 60.553 61.743 59.394 60.623 58.634 58.943 Z " fill="rgb(0,0,0)"/></g><path d=" M 58.745 58.832 C 57.985 57.151 57.91 55.542 58.577 55.24 C 59.244 54.939 60.403 56.058 61.163 57.739 C 61.923 59.419 61.998 61.029 61.331 61.33 C 60.664 61.632 59.505 60.513 58.745 58.832 Z " fill="rgb(220,224,237)"/><g opacity="0.1"><path d=" M 56.798 51.156 L 56.798 52.892 L 53.418 52.892 C 53.103 52.893 52.789 52.867 52.479 52.817 C 52.157 52 51.941 51.524 51.941 51.524 L 54.916 51.299 L 56.798 51.156 Z " fill="rgb(0,0,0)"/></g><path d=" M 56.798 52.671 L 53.418 52.671 C 50.45 52.671 48.044 50.45 48.044 47.711 L 48.044 47.251 C 48.044 44.512 50.45 42.291 53.418 42.291 L 56.798 42.598 L 56.798 52.671 Z " fill="rgb(24,144,255)"/><path d=" M 51.23 45.227 C 51.23 45.227 53.252 46.308 52.089 48.136 C 52.089 48.136 50.662 50.476 48.418 50.255 L 47.601 45.227 C 47.601 45.227 50.288 44.978 51.23 45.227 Z " fill="rgb(24,144,255)"/><g opacity="0.1"><path d=" M 50.454 45.13 C 51.104 45.155 51.708 45.474 52.096 45.996 C 52.456 46.495 52.67 47.222 52.089 48.136 C 52.089 48.136 50.662 50.476 48.418 50.255 L 47.601 45.227 C 48.549 45.14 49.502 45.108 50.454 45.13 L 50.454 45.13 Z " fill="rgb(0,0,0)"/></g><g opacity="0.1"><path d=" M 56.687 42.598 L 56.687 42.598 C 57.407 42.598 58.097 42.884 58.606 43.393 C 59.115 43.902 59.401 44.593 59.401 45.312 L 59.401 49.956 C 59.401 51.455 58.186 52.671 56.687 52.671 L 56.687 52.671 L 56.687 42.598 L 56.687 42.598 Z " fill="rgb(0,0,0)"/></g><path d=" M 56.798 42.598 L 56.798 42.598 C 58.297 42.598 59.512 43.813 59.512 45.312 L 59.512 49.956 C 59.512 51.455 58.297 52.671 56.798 52.671 L 56.798 52.671 L 56.798 42.598 Z " fill="rgb(220,224,237)"/><ellipse vector-effect="non-scaling-stroke" cx="47.36723683879769" cy="47.841992966020705" rx="2.2451309288049046" ry="2.731331236436077" fill="rgb(24,144,255)"/><mask id="_mask_sJ7Qj0bYpekUuoYNcVfkMWjUxCYIh5FX" x="-200%" y="-200%" width="400%" height="400%"><rect x="-200%" y="-200%" width="400%" height="400%" style="fill:white;"/><path d=" M 23.459 60.468 L 24.44 62.653 L 26.079 60.468" fill="black" stroke="none"/></mask><path d=" M 23.459 60.468 L 24.44 62.653 L 26.079 60.468" fill="none"/><path d=" M 23.459 60.468 L 24.44 62.653 L 26.079 60.468" fill="none" mask="url(#_mask_sJ7Qj0bYpekUuoYNcVfkMWjUxCYIh5FX)" vector-effect="non-scaling-stroke" stroke-width="0.34" stroke="rgb(0,0,0)" stroke-linejoin="miter" stroke-linecap="butt" stroke-miterlimit="10"/><rect x="20.355" y="62.744" width="7.999" height="7.862" transform="matrix(1,0,0,1,0,0)" fill="rgb(255,255,255)"/><path d=" M 23.961 70.238 L 23.961 69.361 C 23.491 69.36 23.031 69.228 22.633 68.979 L 22.841 68.398 C 23.25 68.64 23.715 68.768 24.19 68.771 C 24.806 68.771 25.223 68.415 25.223 67.92 C 25.223 67.443 24.885 67.148 24.242 66.888 C 23.357 66.54 22.909 66.141 22.909 65.386 C 22.909 64.665 23.372 64.119 24.17 63.988 L 24.17 63.112 L 24.609 63.112 L 24.609 63.954 C 25.005 63.957 25.394 64.061 25.738 64.258 L 25.521 64.83 C 25.209 64.632 24.846 64.529 24.477 64.535 C 23.808 64.535 23.656 64.935 23.656 65.282 C 23.656 65.733 23.878 65.959 24.633 66.271 C 25.527 66.636 26.077 67.087 26.077 67.86 C 26.077 68.545 25.6 69.188 24.706 69.335 L 24.706 70.238 L 23.961 70.238 Z " fill="rgb(99,103,128)"/><rect x="8.672" y="41.963" width="1.19" height="18.365" transform="matrix(1,0,0,1,0,0)" fill="rgb(220,224,237)"/><path d=" M 8.672 41.963 C 8.672 41.963 4.251 42.133 3.401 42.473 C 3.401 42.473 0 42.643 0 42.643 L 0 47.404 C 0 47.404 2.891 46.724 4.421 47.234 C 4.421 47.234 9.183 46.554 9.183 46.554 L 8.672 41.963 Z " fill="rgb(220,224,237)"/></g></g></svg>