<?xml version="1.0" encoding="UTF-8" standalone="no"?><!-- Generator: Gravit.io --><svg xmlns="http://www.w3.org/2000/svg" xmlns:xlink="http://www.w3.org/1999/xlink" style="isolation:isolate" viewBox="0 0 190 130" width="190pt" height="130pt"><defs><clipPath id="_clipPath_zVIgEiY4StvaHoWQhvYpm5xqh2ZTM4pg"><rect width="190" height="130"/></clipPath></defs><g clip-path="url(#_clipPath_zVIgEiY4StvaHoWQhvYpm5xqh2ZTM4pg)"><g><path d=" M 173.798 45.485 C 173.598 45.651 173.399 45.81 173.195 45.966 L 122.819 45.966 Q 122.256 45.732 121.698 45.485 C 116.38 43.145 111.43 40.029 107.006 36.237 C 104.069 33.721 101.367 31.123 99.408 28.688 C 96.674 25.291 94.157 21.588 92.987 17.37 C 91.818 13.151 92.167 8.316 94.777 4.818 C 95.585 3.742 96.579 2.822 97.71 2.102 C 97.897 1.982 98.087 1.867 98.282 1.759 C 101.412 -0.018 105.361 -0.45 108.885 0.469 C 113.931 1.788 118.124 5.468 121.116 9.785 C 124.109 14.1 126.051 19.055 127.965 23.956 C 129.907 15.209 135.789 7.375 143.735 3.391 C 151.678 -0.592 161.547 -0.544 169.322 3.771 C 171.768 5.137 173.978 6.896 175.864 8.981 C 176.051 9.185 176.234 9.394 176.415 9.605 C 180.207 14.045 182.579 19.73 182.774 25.593 C 183.023 33.147 179.561 40.734 173.798 45.485 Z " fill="rgb(242,242,242)"/><path d=" M 124.833 45.966 L 124.12 45.966 C 124.111 45.805 124.099 45.646 124.085 45.485 C 123.836 42.345 123.315 39.232 122.527 36.184 C 120.72 29.225 117.634 22.671 113.43 16.866 C 109.237 11.042 103.952 6.109 97.876 2.349 C 97.786 2.297 97.725 2.206 97.71 2.102 C 97.686 1.965 97.742 1.827 97.855 1.747 C 97.967 1.667 98.115 1.659 98.235 1.728 C 98.251 1.737 98.267 1.748 98.282 1.759 C 101.725 3.88 104.92 6.387 107.809 9.231 C 112.976 14.327 117.142 20.366 120.088 27.029 C 122.687 32.865 124.279 39.107 124.795 45.485 C 124.809 45.646 124.821 45.807 124.833 45.966 Z " fill="rgb(255,255,255)"/><path d=" M 176.415 9.605 C 176.41 9.608 176.404 9.61 176.398 9.61 C 175.878 9.706 175.356 9.807 174.838 9.915 C 170.588 10.797 166.429 12.074 162.411 13.73 C 158.405 15.383 154.551 17.392 150.894 19.733 C 147.233 22.072 143.781 24.729 140.577 27.675 C 137.372 30.616 134.433 33.84 131.793 37.308 C 129.82 39.906 128.026 42.638 126.424 45.485 C 126.334 45.644 126.246 45.805 126.158 45.966 L 125.343 45.966 C 125.429 45.805 125.517 45.644 125.607 45.485 C 127.545 41.997 129.768 38.678 132.251 35.562 C 134.998 32.114 138.042 28.92 141.348 26.018 C 144.634 23.132 148.16 20.539 151.887 18.268 C 155.63 15.987 159.565 14.046 163.646 12.467 C 167.607 10.936 171.696 9.769 175.864 8.981 C 175.98 8.959 176.094 8.938 176.211 8.916 C 176.654 8.834 176.845 9.512 176.415 9.605 Z " fill="rgb(255,255,255)"/><path d=" M 46.942 47.393 C 48.209 44.975 48.418 41.826 46.842 39.601 C 45.905 38.276 44.441 37.407 42.905 36.917 C 41.368 36.426 39.748 36.282 38.141 36.163 C 36.551 36.045 34.932 35.951 33.379 36.314 C 31.825 36.678 30.32 37.566 29.563 38.986 C 28.285 41.383 29.45 44.457 28.511 47.01 C 27.649 49.353 25.196 50.723 22.785 51.275 C 20.374 51.828 17.858 51.769 15.446 52.317 C 13.033 52.864 10.577 54.221 9.7 56.558 C 9.066 58.248 9.381 60.195 10.216 61.793 C 11.052 63.391 12.361 64.684 13.75 65.822 C 15.823 67.519 18.247 68.972 20.91 69.119 C 23.716 69.274 26.46 67.924 28.479 65.948 C 30.499 63.973 31.874 61.419 32.972 58.804 C 33.669 57.145 34.328 55.36 35.724 54.239 C 36.75 53.416 38.056 53.055 39.321 52.714 L 40.755 52.328 C 43.38 51.634 45.605 49.874 46.904 47.465 Q 46.923 47.429 46.942 47.393 Z " fill="rgb(47,46,65)"/><path d=" M 35.638 126.931 L 32.727 126.931 L 31.342 115.578 L 35.639 115.578 L 35.638 126.931 L 35.638 126.931 Z " fill="rgb(255,184,184)"/><path d=" M 30.648 126.09 L 36.262 126.09 L 36.262 129.665 L 27.113 129.665 L 27.113 129.665 C 27.113 128.717 27.485 127.808 28.148 127.137 C 28.811 126.467 29.71 126.09 30.648 126.09 L 30.648 126.09 Z " fill="rgb(47,46,65)"/><path d=" M 59.86 126.931 L 56.949 126.931 L 55.563 115.578 L 59.86 115.578 L 59.86 126.931 L 59.86 126.931 Z " fill="rgb(255,184,184)"/><path d=" M 54.869 126.09 L 60.484 126.09 L 60.484 129.665 L 51.334 129.665 L 51.334 129.665 C 51.334 128.717 51.706 127.808 52.369 127.137 C 53.032 126.467 53.931 126.09 54.869 126.09 L 54.869 126.09 Z " fill="rgb(47,46,65)"/><path d=" M 41.235 117.907 C 41.194 117.907 41.153 117.905 41.113 117.901 L 29.269 116.618 C 28.951 116.583 28.663 116.412 28.478 116.148 C 28.293 115.883 28.23 115.552 28.304 115.237 L 38.791 74.908 C 38.891 74.489 39.217 74.164 39.633 74.069 L 49.361 71.327 C 49.759 71.239 50.172 71.375 50.441 71.683 C 56.696 78.816 61.41 94.629 64.981 114.561 C 65.035 114.865 64.964 115.178 64.783 115.427 C 64.603 115.676 64.329 115.84 64.026 115.879 L 54.321 117.132 C 53.75 117.207 53.218 116.829 53.093 116.261 L 48.372 94.977 C 48.282 94.573 47.925 94.288 47.516 94.292 C 47.107 94.297 46.757 94.591 46.677 94.996 L 42.324 117.002 C 42.222 117.528 41.765 117.908 41.235 117.907 Z " fill="rgb(47,46,65)"/><ellipse vector-effect="non-scaling-stroke" cx="39.433008466208896" cy="47.03380254885511" rx="5.832355190833397" ry="5.897057751570962" fill="rgb(255,184,184)"/><path d=" M 39.27 75.021 C 38.766 75.02 38.325 74.677 38.196 74.184 L 34.688 60.856 C 34.163 58.873 35.197 56.809 37.089 56.063 C 39.913 54.948 42.604 54.535 45.086 54.833 L 45.086 54.833 C 47.293 55.099 50.015 68.307 49.835 68.589 L 50.706 71.23 C 50.805 71.533 50.773 71.864 50.618 72.142 C 50.462 72.42 50.197 72.618 49.888 72.686 L 39.512 74.994 C 39.433 75.012 39.352 75.021 39.27 75.021 L 39.27 75.021 Z " fill="rgb(204,204,204)"/><path d=" M 42.415 88.651 C 42.516 88.12 42.379 87.57 42.042 87.151 C 41.704 86.732 41.2 86.485 40.665 86.478 L 38.644 80.314 L 36.577 82.964 L 38.814 88.411 C 38.862 89.341 39.59 90.087 40.509 90.148 C 41.428 90.209 42.246 89.566 42.415 88.651 L 42.415 88.651 Z " fill="rgb(255,184,184)"/><path d=" M 68.404 73.838 C 68.159 73.358 67.716 73.011 67.195 72.893 C 66.673 72.774 66.126 72.895 65.701 73.223 L 60.345 69.641 L 60.34 73.015 L 65.427 75.9 C 66.033 76.6 67.062 76.732 67.821 76.206 C 68.581 75.68 68.831 74.663 68.404 73.838 L 68.404 73.838 Z " fill="rgb(255,184,184)"/><path d=" M 38.176 85.803 C 37.696 85.803 37.27 85.492 37.119 85.03 L 32.38 74.894 C 32.185 74.3 32.086 73.679 32.087 73.053 L 33.511 59.878 C 33.511 58.347 34.69 57.081 36.202 56.988 C 37.713 56.896 39.035 58.009 39.218 59.529 L 37.038 74.567 L 40.516 83.796 C 40.63 84.301 40.386 84.819 39.928 85.05 L 38.674 85.684 C 38.52 85.762 38.349 85.803 38.176 85.803 L 38.176 85.803 Z " fill="rgb(204,204,204)"/><path d=" M 63.486 75.169 C 63.312 75.169 63.14 75.128 62.984 75.048 L 53.56 70.235 C 53.007 69.953 52.503 69.583 52.066 69.14 L 42.868 59.809 C 41.799 58.725 41.749 56.986 42.755 55.842 C 43.761 54.697 45.475 54.543 46.665 55.489 L 56.63 66.678 L 64.529 71.749 C 64.962 72.026 65.151 72.566 64.988 73.057 L 64.542 74.401 C 64.39 74.86 63.965 75.169 63.486 75.169 L 63.486 75.169 Z " fill="rgb(204,204,204)"/><path d=" M 32.799 43.985 C 33.79 45.295 35.214 46.201 36.811 46.537 C 38.43 46.876 40.115 46.632 41.574 45.847 C 42.749 45.206 43.689 44.243 44.61 43.294 C 44.994 42.899 45.403 42.442 45.384 41.902 C 45.354 41.066 44.359 40.609 43.506 40.426 C 40.704 39.835 37.789 40.167 35.187 41.372 C 34.028 41.916 32.821 42.901 32.995 44.125" fill="rgb(47,46,65)"/><path d=" M 185.963 45.485 L 71.506 45.485 C 69.277 45.489 67.472 47.314 67.469 49.567 L 67.469 94.225 C 67.472 96.478 69.277 98.304 71.506 98.307 L 185.963 98.307 C 188.191 98.304 189.997 96.478 190 94.225 L 190 49.567 C 189.997 47.314 188.191 45.489 185.963 45.485 L 185.963 45.485 Z  M 189.525 94.225 C 189.523 96.213 187.929 97.824 185.963 97.827 L 71.506 97.827 C 69.539 97.824 67.946 96.213 67.944 94.225 L 67.944 49.567 C 67.946 47.579 69.539 45.968 71.506 45.966 L 185.963 45.966 C 187.929 45.968 189.523 47.579 189.525 49.567 L 189.525 94.225 Z " fill="rgb(63,61,86)"/><path d=" M 92.287 85.822 C 84.68 85.822 78.514 79.587 78.514 71.896 C 78.514 64.205 84.68 57.971 92.287 57.971 C 99.893 57.971 106.06 64.205 106.06 71.896 C 106.051 79.584 99.89 85.813 92.287 85.822 L 92.287 85.822 Z  M 92.287 58.451 C 84.943 58.451 78.989 64.471 78.989 71.896 C 78.989 79.322 84.943 85.342 92.287 85.342 C 99.631 85.342 105.585 79.322 105.585 71.896 C 105.577 64.474 99.628 58.459 92.287 58.451 L 92.287 58.451 Z " fill="rgb(63,61,86)"/><path d=" M 175.749 63.013 L 120.895 63.013 C 119.301 63.014 117.993 64.286 117.931 65.896 C 117.927 65.935 117.926 65.975 117.926 66.014 C 117.929 67.67 119.256 69.013 120.895 69.015 L 175.749 69.015 C 177.388 69.015 178.717 67.671 178.717 66.014 C 178.717 64.356 177.388 63.013 175.749 63.013 Z " fill="rgb(24,144,255)"/><path d=" M 175.749 74.777 L 120.895 74.777 C 119.301 74.778 117.993 76.051 117.931 77.661 C 117.927 77.7 117.926 77.739 117.926 77.779 C 117.929 79.435 119.256 80.778 120.895 80.78 L 175.749 80.78 C 177.388 80.78 178.717 79.436 178.717 77.779 C 178.717 76.121 177.388 74.777 175.749 74.777 L 175.749 74.777 Z " fill="rgb(24,144,255)"/><path d=" M 90.75 77.981 C 90.366 77.981 89.992 77.856 89.684 77.623 L 89.665 77.608 L 85.651 74.501 C 84.87 73.895 84.721 72.763 85.32 71.973 C 85.919 71.182 87.039 71.033 87.821 71.638 L 90.421 73.654 L 96.565 65.552 C 96.853 65.173 97.278 64.924 97.747 64.862 C 98.216 64.799 98.69 64.927 99.065 65.218 L 99.027 65.271 L 99.066 65.219 C 99.847 65.826 99.994 66.957 99.396 67.747 L 92.169 77.277 C 91.83 77.722 91.306 77.982 90.75 77.981 Z " fill="rgb(24,144,255)"/><path d=" M 90.711 130 L 0.237 130 C 0.106 130 0 129.893 0 129.76 C 0 129.627 0.106 129.52 0.237 129.52 L 90.711 129.52 C 90.842 129.52 90.949 129.627 90.949 129.76 C 90.949 129.893 90.842 130 90.711 130 Z " fill="rgb(63,61,86)"/><path d=" M 162.249 34.669 C 157.288 33.979 152.25 34.094 147.326 35.009 C 142.415 35.917 137.674 37.593 133.274 39.976 C 130.801 41.32 128.454 42.888 126.262 44.661 C 125.904 44.95 126.411 45.456 126.766 45.17 C 130.613 42.076 134.925 39.625 139.538 37.91 C 144.115 36.199 148.926 35.212 153.801 34.985 C 156.56 34.857 159.324 34.983 162.06 35.363 C 162.248 35.409 162.44 35.299 162.498 35.112 C 162.549 34.92 162.438 34.723 162.249 34.669 L 162.249 34.669 Z " fill="rgb(255,255,255)"/></g></g></svg>