<?xml version="1.0" encoding="UTF-8" standalone="no"?><!-- Generator: Gravit.io --><svg xmlns="http://www.w3.org/2000/svg" xmlns:xlink="http://www.w3.org/1999/xlink" style="isolation:isolate" viewBox="0 0 105.481 102.962" width="105.481pt" height="102.962pt"><defs><clipPath id="_clipPath_fd0F3U2gP8ss2oWaWIkGMH9VHsBujAKf"><rect width="105.481" height="102.962"/></clipPath></defs><g clip-path="url(#_clipPath_fd0F3U2gP8ss2oWaWIkGMH9VHsBujAKf)"><g><path d=" M 66.964 23.155 L 38.541 23.155 C 37.192 23.156 36.1 24.249 36.098 25.598 L 36.098 88.767 L 35.772 88.867 L 28.8 91.002 C 28.112 91.212 27.384 90.825 27.173 90.137 L 6.433 22.391 C 6.222 21.703 6.609 20.974 7.297 20.764 L 18.042 17.474 L 49.191 7.939 L 59.936 4.649 C 60.266 4.548 60.623 4.582 60.928 4.743 C 61.234 4.905 61.462 5.182 61.563 5.512 L 66.864 22.829 L 66.964 23.155 Z " fill="rgb(242,242,242)"/><path d=" M 73.166 22.829 L 66.776 1.959 C 66.562 1.256 66.077 0.668 65.428 0.324 C 64.78 -0.021 64.021 -0.094 63.319 0.121 L 48.212 4.745 L 17.065 14.281 L 1.959 18.907 C 0.497 19.356 -0.325 20.903 0.121 22.365 L 21.959 93.691 C 22.316 94.854 23.39 95.649 24.607 95.65 C 24.882 95.65 25.155 95.609 25.417 95.528 L 35.772 92.359 L 36.098 92.258 L 36.098 91.917 L 35.772 92.017 L 25.321 95.217 C 24.031 95.61 22.666 94.885 22.27 93.596 L 0.434 22.269 C 0.244 21.649 0.307 20.98 0.612 20.407 C 0.916 19.835 1.435 19.407 2.055 19.218 L 17.161 14.593 L 48.308 5.058 L 63.415 0.433 C 63.647 0.361 63.889 0.325 64.133 0.325 C 65.205 0.327 66.151 1.028 66.465 2.053 L 72.825 22.829 L 72.926 23.155 L 73.265 23.155 L 73.166 22.829 Z " fill="rgb(63,61,86)"/><path d=" M 19.981 20.817 C 19.337 20.817 18.768 20.396 18.578 19.78 L 16.481 12.928 C 16.367 12.556 16.405 12.154 16.588 11.811 C 16.77 11.468 17.081 11.211 17.453 11.097 L 46.108 2.324 C 46.883 2.088 47.702 2.523 47.939 3.297 L 50.037 10.149 C 50.273 10.923 49.838 11.742 49.065 11.98 L 20.409 20.753 C 20.27 20.795 20.126 20.817 19.981 20.817 Z " fill="rgb(255,77,79)"/><circle vector-effect="non-scaling-stroke" cx="30.97028770635711" cy="4.063068811810639" r="3.2574213131321663" fill="rgb(255,77,79)"/><circle vector-effect="non-scaling-stroke" cx="30.970287706357112" cy="4.063068811810639" r="2.0627001555359925" fill="rgb(255,255,255)"/><path d=" M 98.152 94.818 L 43.101 94.818 C 42.337 94.817 41.718 94.198 41.717 93.434 L 41.717 27.471 C 41.718 26.707 42.337 26.087 43.101 26.086 L 98.152 26.086 C 98.916 26.087 99.535 26.707 99.536 27.471 L 99.536 93.434 C 99.535 94.198 98.916 94.817 98.152 94.818 Z " fill="rgb(230,230,230)"/><path d=" M 72.825 22.829 L 38.541 22.829 C 37.013 22.831 35.774 24.069 35.772 25.598 L 35.772 92.017 L 36.098 91.917 L 36.098 25.598 C 36.1 24.249 37.192 23.156 38.541 23.155 L 72.926 23.155 L 72.825 22.829 Z  M 102.712 22.829 L 38.541 22.829 C 37.013 22.831 35.774 24.069 35.772 25.598 L 35.772 100.193 C 35.774 101.721 37.013 102.959 38.541 102.962 L 102.712 102.962 C 104.24 102.959 105.479 101.721 105.481 100.193 L 105.481 25.598 C 105.479 24.069 104.24 22.831 102.712 22.829 L 102.712 22.829 Z  M 105.155 100.193 C 105.154 101.541 104.061 102.634 102.712 102.636 L 38.541 102.636 C 37.192 102.634 36.1 101.541 36.098 100.193 L 36.098 25.598 C 36.1 24.249 37.192 23.156 38.541 23.155 L 102.712 23.155 C 104.061 23.156 105.154 24.249 105.155 25.598 L 105.155 100.193 Z " fill="rgb(63,61,86)"/><path d=" M 85.611 29.995 L 55.642 29.995 C 54.833 29.994 54.178 29.339 54.177 28.529 L 54.177 21.363 C 54.178 20.554 54.833 19.898 55.642 19.897 L 85.611 19.897 C 86.42 19.898 87.076 20.554 87.077 21.363 L 87.077 28.529 C 87.076 29.339 86.42 29.994 85.611 29.995 L 85.611 29.995 Z " fill="rgb(255,77,79)"/><circle vector-effect="non-scaling-stroke" cx="70.62658266785864" cy="17.128452144509914" r="3.25742131313217" fill="rgb(255,77,79)"/><circle vector-effect="non-scaling-stroke" cx="70.62658266785864" cy="17.128452144509914" r="1.9840741485902669" fill="rgb(255,255,255)"/></g></g></svg>