<?xml version="1.0" encoding="UTF-8" standalone="no"?><!-- Generator: Gravit.io --><svg xmlns="http://www.w3.org/2000/svg" xmlns:xlink="http://www.w3.org/1999/xlink" style="isolation:isolate" viewBox="0 0 133.181 130" width="133.181pt" height="130pt"><defs><clipPath id="_clipPath_LldEVSmE9abpNq4o0H4LTf2gxXSfyt9r"><rect width="133.181" height="130"/></clipPath></defs><g clip-path="url(#_clipPath_LldEVSmE9abpNq4o0H4LTf2gxXSfyt9r)"><g><path d=" M 84.549 29.235 L 48.662 29.235 C 46.959 29.237 45.58 30.617 45.578 32.32 L 45.578 112.078 L 45.166 112.204 L 36.363 114.9 C 35.494 115.165 34.575 114.676 34.308 113.808 L 8.122 28.271 C 7.856 27.402 8.345 26.483 9.214 26.216 L 22.78 22.062 L 62.109 10.024 L 75.675 5.87 C 76.092 5.742 76.543 5.785 76.929 5.989 C 77.314 6.194 77.602 6.543 77.73 6.96 L 84.423 28.824 L 84.549 29.235 Z " fill="rgb(242,242,242)"/><path d=" M 92.38 28.824 L 84.312 2.473 C 84.041 1.586 83.429 0.844 82.61 0.409 C 81.791 -0.026 80.833 -0.118 79.946 0.153 L 60.873 5.992 L 21.546 18.032 L 2.473 23.872 C 0.628 24.439 -0.41 26.392 0.153 28.238 L 27.726 118.295 C 28.177 119.764 29.533 120.767 31.069 120.769 C 31.416 120.769 31.76 120.717 32.091 120.614 L 45.166 116.613 L 45.578 116.485 L 45.578 116.055 L 45.166 116.181 L 31.97 120.222 C 30.342 120.718 28.619 119.803 28.118 118.176 L 0.548 28.117 C 0.308 27.334 0.388 26.489 0.772 25.766 C 1.156 25.044 1.812 24.504 2.594 24.265 L 21.667 18.425 L 60.995 6.386 L 80.068 0.546 C 80.362 0.456 80.667 0.411 80.975 0.41 C 82.328 0.413 83.522 1.298 83.92 2.592 L 91.95 28.824 L 92.077 29.235 L 92.505 29.235 L 92.38 28.824 Z " fill="rgb(63,61,86)"/><path d=" M 25.228 26.284 C 24.414 26.283 23.696 25.752 23.457 24.974 L 20.809 16.323 C 20.665 15.853 20.713 15.346 20.944 14.913 C 21.174 14.479 21.567 14.155 22.036 14.011 L 58.217 2.935 C 59.194 2.636 60.228 3.186 60.529 4.162 L 63.177 12.814 C 63.475 13.791 62.926 14.826 61.949 15.126 L 25.769 26.202 C 25.594 26.256 25.411 26.284 25.228 26.284 Z " fill="rgb(24,144,255)"/><circle vector-effect="non-scaling-stroke" cx="39.10332812800179" cy="5.130062544503573" r="4.112845694759486" fill="rgb(24,144,255)"/><circle vector-effect="non-scaling-stroke" cx="39.10332812800179" cy="5.130062544503572" r="2.6043813921382437" fill="rgb(255,255,255)"/><path d=" M 123.927 119.718 L 54.42 119.718 C 53.455 119.717 52.673 118.935 52.672 117.97 L 52.672 34.685 C 52.673 33.72 53.455 32.938 54.42 32.937 L 123.927 32.937 C 124.892 32.938 125.674 33.72 125.675 34.685 L 125.675 117.97 C 125.674 118.935 124.892 119.717 123.927 119.718 Z " fill="rgb(230,230,230)"/><path d=" M 91.95 28.824 L 48.662 28.824 C 46.733 28.827 45.169 30.39 45.166 32.32 L 45.166 116.181 L 45.578 116.055 L 45.578 32.32 C 45.58 30.617 46.959 29.237 48.662 29.235 L 92.077 29.235 L 91.95 28.824 Z  M 129.685 28.824 L 48.662 28.824 C 46.733 28.827 45.169 30.39 45.166 32.32 L 45.166 126.504 C 45.169 128.434 46.733 129.997 48.662 130 L 129.685 130 C 131.615 129.997 133.178 128.434 133.181 126.504 L 133.181 32.32 C 133.178 30.39 131.615 28.827 129.685 28.824 L 129.685 28.824 Z  M 132.77 126.504 C 132.768 128.207 131.388 129.587 129.685 129.589 L 48.662 129.589 C 46.959 129.587 45.58 128.207 45.578 126.504 L 45.578 32.32 C 45.58 30.617 46.959 29.237 48.662 29.235 L 129.685 29.235 C 131.388 29.237 132.768 30.617 132.77 32.32 L 132.77 126.504 Z " fill="rgb(63,61,86)"/><path d=" M 108.093 37.872 L 70.255 37.872 C 69.233 37.871 68.405 37.043 68.404 36.021 L 68.404 26.973 C 68.405 25.952 69.233 25.124 70.255 25.122 L 108.093 25.122 C 109.114 25.124 109.942 25.952 109.944 26.973 L 109.944 36.021 C 109.942 37.043 109.114 37.871 108.093 37.872 L 108.093 37.872 Z " fill="rgb(24,144,255)"/><circle vector-effect="non-scaling-stroke" cx="89.17367713228681" cy="21.62651799951039" r="4.112845694759486" fill="rgb(24,144,255)"/><circle vector-effect="non-scaling-stroke" cx="89.17367713228681" cy="21.62651799951039" r="2.5051075791809865" fill="rgb(255,255,255)"/></g></g></svg>