<?xml version="1.0" encoding="UTF-8" standalone="no"?><!-- Generator: Gravit.io --><svg xmlns="http://www.w3.org/2000/svg" xmlns:xlink="http://www.w3.org/1999/xlink" style="isolation:isolate" viewBox="0 0 712.373 366.824" width="712.373pt" height="366.824pt"><defs><clipPath id="_clipPath_sEX2oiTrPhhWR3P7BGEjnauk2ReMAc1K"><rect width="712.373" height="366.824"/></clipPath></defs><g clip-path="url(#_clipPath_sEX2oiTrPhhWR3P7BGEjnauk2ReMAc1K)"><g><path d=" M 35.763 342.729 L 66.374 294.152 L 35.749 348.021 L 35.733 353.556 Q 32.457 353.518 29.248 353.305 L 31.744 282.201 L 31.712 281.651 L 31.768 281.546 L 32.006 274.827 L 0 221.587 L 32.039 269.796 L 32.134 271.219 L 34.02 217.497 L 6.506 162.413 L 34.235 208.057 L 35.525 96.706 L 35.531 96.336 L 35.536 96.7 L 36.164 184.493 L 62.455 149.366 L 36.14 192.054 L 36.018 240.139 L 60.413 193.699 L 36.005 247.208 L 35.937 273.946 L 71.373 209.284 L 35.91 283.273 L 35.763 342.729 Z " fill="rgb(208,205,225)"/><rect x="456.807" y="137.69" width="8.606" height="61.1" transform="matrix(1,0,0,1,0,0)" fill="rgb(63,61,86)"/><rect x="300.283" y="-95.568" width="8.606" height="343.685" transform="matrix(0.376,-0.927,0.927,0.376,119.36,329.813)" fill="rgb(63,61,86)"/><path d=" M 712.371 350.816 C 699.043 373.084 -0.703 371.215 0.357 350.815 C 13.686 328.548 713.432 330.417 712.371 350.816 Z " fill="rgb(208,205,225)"/><rect x="549.748" y="260.751" width="74.869" height="29.259" transform="matrix(1,0,0,1,0,0)" fill="rgb(63,61,86)"/><rect x="248.551" y="286.568" width="369.182" height="32.701" transform="matrix(1,0,0,1,0,0)" fill="rgb(63,61,86)"/><path d=" M 557.063 302.918 L 468.425 302.918 L 468.425 191.476 L 534.688 191.476 L 557.063 247.682 L 557.063 302.918 L 557.063 302.918 Z " fill="rgb(208,205,225)"/><rect x="482.194" y="198.36" width="37.865" height="37.865" transform="matrix(1,0,0,1,0,0)" fill="rgb(255,255,255)"/><path d=" M 548.457 236.655 L 524.361 236.655 L 524.361 198.791 L 534.688 198.791 L 548.457 236.655 L 548.457 236.655 Z " fill="rgb(255,255,255)"/><rect x="483.915" y="257.739" width="8.606" height="16.351" transform="matrix(1,0,0,1,0,0)" fill="rgb(63,61,86)"/><path d=" M 531.676 222.886 L 532.106 222.886 C 536.621 222.886 540.282 226.546 540.282 231.061 L 540.282 231.061 C 540.282 235.577 536.621 239.237 532.106 239.237 L 531.676 239.237 L 531.676 222.886 Z " fill="rgb(63,61,86)"/><path d=" M 211.546 286.568 L 211.977 286.568 C 214.145 286.568 216.224 287.429 217.757 288.962 C 219.291 290.496 220.152 292.575 220.152 294.743 L 220.152 294.743 C 220.152 296.911 219.291 298.991 217.757 300.524 C 216.224 302.057 214.145 302.919 211.977 302.919 L 211.546 302.919 L 211.546 286.568 Z " fill="rgb(63,61,86)"/><path d=" M 591.485 286.444 C 604.599 286.444 616.395 292.797 624.58 302.919 L 641.398 302.919 L 625.047 257.372 L 548.887 242.352 L 551.039 302.919 L 558.391 302.919 C 566.576 292.797 578.371 286.444 591.485 286.444 Z " fill="rgb(208,205,225)"/><circle vector-effect="non-scaling-stroke" cx="592.3458373911175" cy="313.6755896073329" r="37.434533893864" fill="rgb(63,61,86)"/><circle vector-effect="non-scaling-stroke" cx="592.3458373911175" cy="313.6755896073328" r="19.702390373902404" fill="rgb(208,205,225)"/><circle vector-effect="non-scaling-stroke" cx="254.14417164802563" cy="317.97840886003445" r="32.701434847678684" fill="rgb(63,61,86)"/><circle vector-effect="non-scaling-stroke" cx="254.14417164802563" cy="317.97840886003445" r="17.21127701080661" fill="rgb(208,205,225)"/><rect x="452.934" y="175.985" width="18.072" height="130.375" transform="matrix(1,0,0,1,0,0)" fill="rgb(63,61,86)"/><rect x="211.116" y="282.695" width="259.89" height="7.745" transform="matrix(1,0,0,1,0,0)" fill="rgb(63,61,86)"/><rect x="67.9" y="272.429" width="293.73" height="7.745" transform="matrix(0.965,-0.263,0.263,0.965,-65.002,66.07)" fill="rgb(63,61,86)"/><rect x="345.585" y="240.3" width="6.024" height="50.35" transform="matrix(0.806,-0.592,0.592,0.806,-89.513,257.982)" fill="rgb(63,61,86)"/><rect x="528.234" y="238.376" width="8.606" height="3.442" transform="matrix(1,0,0,1,0,0)" fill="rgb(63,61,86)"/><path d=" M 461.11 264.193 L 348.376 264.193 C 347.949 264.193 347.586 263.879 347.525 263.456 C 347.463 263.033 347.722 262.629 348.131 262.508 L 458.284 229.806 C 458.532 229.732 458.801 229.775 459.016 229.922 C 459.23 230.069 459.366 230.305 459.386 230.564 L 461.968 263.265 C 461.987 263.504 461.905 263.74 461.742 263.917 C 461.579 264.093 461.35 264.193 461.11 264.193 L 461.11 264.193 Z  M 354.298 262.472 L 460.179 262.472 L 457.754 231.759 L 354.298 262.472 Z " fill="rgb(63,61,86)"/><path d=" M 155.833 226.328 L 155.825 226.328 L 131.12 226.096 C 130.877 226.093 130.645 225.988 130.484 225.805 C 130.322 225.622 130.246 225.379 130.273 225.137 L 143.11 113.136 C 143.159 112.702 143.527 112.374 143.965 112.374 L 143.968 112.374 C 144.407 112.376 144.774 112.708 144.821 113.144 L 156.689 225.377 C 156.715 225.62 156.636 225.862 156.473 226.043 C 156.31 226.225 156.077 226.328 155.833 226.328 L 155.833 226.328 Z  M 132.092 224.384 L 154.876 224.598 L 143.93 121.092 L 132.092 224.384 Z " fill="rgb(63,61,86)"/><path d=" M 630.673 273.33 L 630.271 273.482 C 626.047 275.079 621.329 272.95 619.732 268.727 L 619.732 268.727 C 618.135 264.504 620.263 259.786 624.486 258.189 L 624.889 258.036 L 630.673 273.33 Z " fill="rgb(63,61,86)"/><rect x="83.281" y="281.635" width="24.928" height="3.957" transform="matrix(0.963,-0.27,0.27,0.963,-72.902,36.304)" fill="rgb(63,61,86)"/><path d=" M 281.043 230.72 L 276.409 233.25 L 88.177 285.937 L 85.383 282.465 C 80.54 276.524 77.445 269.354 76.443 261.756 C 75.732 256.082 76.252 250.101 80.21 246.462 L 73.021 188.484 L 177.124 159.204 L 226.499 180.45 C 226.499 180.45 245.413 174.799 259.331 184.771 C 263.736 187.93 267.643 192.655 270.285 199.628 L 272.561 206.202 L 281.043 230.72 Z " fill="rgb(24,144,255)"/><circle vector-effect="non-scaling-stroke" cx="239.43354419206497" cy="241.339567423772" r="24.136520570978874" fill="rgb(63,61,86)"/><circle vector-effect="non-scaling-stroke" cx="239.43354419206497" cy="241.339567423772" r="12.703429635476738" fill="rgb(208,205,225)"/><circle vector-effect="non-scaling-stroke" cx="124.74174469515481" cy="273.4421407990695" r="24.13652057097888" fill="rgb(63,61,86)"/><circle vector-effect="non-scaling-stroke" cx="124.74174469515481" cy="273.4421407990695" r="12.703429635476738" fill="rgb(208,205,225)"/><path d=" M 209.43 181.119 L 134.746 202.024 L 128.454 179.543 L 176.083 166.21 L 209.43 181.119 L 209.43 181.119 Z " fill="rgb(255,255,255)"/><rect x="92.163" y="185.829" width="30.863" height="23.345" transform="matrix(0.963,-0.27,0.27,0.963,-49.253,36.311)" fill="rgb(255,255,255)"/><rect x="140.379" y="218.117" width="3.957" height="7.518" transform="matrix(0.963,-0.27,0.27,0.963,-54.536,46.583)" fill="rgb(63,61,86)"/><rect x="198.176" y="188.996" width="3.957" height="7.518" transform="matrix(0.27,0.963,-0.963,0.27,331.825,-51.947)" fill="rgb(63,61,86)"/><path d=" M 194.679 176.866 L 195.099 176.749 C 199.497 175.518 204.06 178.085 205.291 182.483 L 205.291 182.483 C 206.522 186.881 203.955 191.445 199.557 192.676 L 199.138 192.793 L 194.679 176.866 Z " fill="rgb(63,61,86)"/><path d=" M 272.561 206.202 C 266.792 208.511 260.199 206.336 256.935 201.049 C 253.671 195.762 254.682 188.893 259.331 184.771 C 263.736 187.93 267.643 192.655 270.285 199.628 L 272.561 206.202 Z " fill="rgb(63,61,86)"/><rect x="139.259" y="7.745" width="8.606" height="125.642" transform="matrix(1,0,0,1,0,0)" fill="rgb(63,61,86)"/><circle vector-effect="non-scaling-stroke" cx="143.5616962463234" cy="12.047898171137689" r="12.047898171137689" fill="rgb(63,61,86)"/><circle vector-effect="non-scaling-stroke" cx="461.10982531287425" cy="139.41137079016292" r="12.04789817113766" fill="rgb(63,61,86)"/></g></g></svg>