<?xml version="1.0" encoding="UTF-8" standalone="no"?><!-- Generator: Gravit.io --><svg xmlns="http://www.w3.org/2000/svg" xmlns:xlink="http://www.w3.org/1999/xlink" style="isolation:isolate" viewBox="0 0 189.433 190" width="189.433pt" height="190pt"><defs><clipPath id="_clipPath_3SZ4AFCJGpQwrCdzEYVYmH6DdL5Bgv6p"><rect width="189.433" height="190"/></clipPath></defs><g clip-path="url(#_clipPath_3SZ4AFCJGpQwrCdzEYVYmH6DdL5Bgv6p)"><g><path d=" M 18.217 160.058 L 16.549 153.478 C 13.591 152.225 10.564 151.139 7.484 150.226 L 7.273 153.284 L 6.419 149.915 C 2.599 148.823 0 148.343 0 148.343 C 0 148.343 3.51 161.692 10.873 171.897 L 19.453 173.405 L 12.788 174.366 C 13.714 175.48 14.709 176.535 15.768 177.525 C 26.479 187.467 38.409 192.028 42.414 187.713 C 46.42 183.398 40.984 171.84 30.273 161.899 C 26.953 158.817 22.781 156.344 18.606 154.397 L 18.217 160.058 Z " fill="rgb(242,242,242)"/><path d=" M 34.083 152.911 L 36.056 146.416 C 34.172 143.814 32.143 141.32 29.978 138.947 L 28.217 141.456 L 29.227 138.13 C 26.521 135.222 24.545 133.467 24.545 133.467 C 24.545 133.467 20.65 146.709 21.677 159.251 L 28.242 164.976 L 22.039 162.354 C 22.256 163.787 22.563 165.205 22.958 166.599 C 26.988 180.647 34.843 190.718 40.502 189.095 C 46.161 187.471 47.482 174.767 43.452 160.72 C 42.203 156.365 39.911 152.092 37.343 148.267 L 34.083 152.911 Z " fill="rgb(242,242,242)"/><path d=" M 132.185 45.011 L 131.145 45.011 L 131.145 16.501 C 131.145 12.125 129.406 7.928 126.312 4.833 C 123.217 1.739 119.02 0 114.643 0 L 54.24 0 C 45.126 0 37.738 7.388 37.738 16.501 L 37.738 172.911 C 37.738 177.287 39.477 181.485 42.571 184.579 C 45.666 187.674 49.863 189.412 54.24 189.412 L 114.643 189.412 C 123.757 189.412 131.144 182.024 131.144 172.911 L 131.144 65.305 L 132.185 65.305 L 132.185 45.011 Z " fill="rgb(230,230,230)"/><path d=" M 115.309 4.291 L 107.425 4.291 C 108.162 6.097 107.951 8.15 106.863 9.768 C 105.776 11.387 103.954 12.357 102.004 12.357 L 67.399 12.357 C 65.45 12.357 63.628 11.386 62.54 9.768 C 61.453 8.15 61.242 6.097 61.979 4.291 L 54.614 4.291 C 51.346 4.291 48.212 5.59 45.901 7.901 C 43.59 10.212 42.291 13.346 42.291 16.615 L 42.291 172.797 C 42.291 179.603 47.809 185.12 54.614 185.12 L 115.309 185.12 C 122.115 185.12 127.632 179.603 127.632 172.797 L 127.632 172.797 L 127.632 16.614 C 127.632 9.809 122.115 4.291 115.309 4.291 L 115.309 4.291 Z " fill="rgb(255,255,255)"/><path d=" M 77.228 66.507 C 77.227 64.285 78.413 62.232 80.338 61.122 C 77.725 59.612 74.405 60.197 72.465 62.509 C 70.525 64.821 70.525 68.192 72.465 70.503 C 74.405 72.815 77.725 73.4 80.338 71.891 C 78.413 70.781 77.227 68.728 77.228 66.507 Z " fill="rgb(204,204,204)"/><path d=" M 85.045 66.507 C 85.044 64.285 86.23 62.231 88.155 61.122 C 85.542 59.612 82.222 60.197 80.282 62.509 C 78.342 64.821 78.342 68.192 80.282 70.503 C 82.222 72.815 85.542 73.4 88.155 71.891 C 86.23 70.781 85.045 68.728 85.045 66.507 Z " fill="rgb(204,204,204)"/><circle vector-effect="non-scaling-stroke" cx="92.68450370330628" cy="66.50637248226924" r="6.218234449484669" fill="rgb(24,144,255)"/><path d=" M 103.077 85.928 L 66.835 85.928 C 66.117 85.928 65.535 85.345 65.534 84.627 L 65.534 48.386 C 65.535 47.667 66.117 47.085 66.835 47.084 L 103.077 47.084 C 103.795 47.085 104.377 47.667 104.378 48.386 L 104.378 84.627 C 104.377 85.345 103.795 85.928 103.077 85.928 L 103.077 85.928 Z  M 66.835 47.605 C 66.404 47.606 66.055 47.955 66.055 48.386 L 66.055 84.627 C 66.055 85.058 66.404 85.408 66.835 85.408 L 103.077 85.408 C 103.508 85.408 103.857 85.058 103.857 84.627 L 103.857 48.386 C 103.857 47.955 103.508 47.606 103.077 47.605 L 66.835 47.605 Z " fill="rgb(204,204,204)"/><rect x="55.586" y="113.709" width="55.583" height="0.521" transform="matrix(1,0,0,1,0,0)" fill="rgb(204,204,204)"/><circle vector-effect="non-scaling-stroke" cx="57.341025525601424" cy="108.70338012409185" r="1.7553478188279428" fill="rgb(24,144,255)"/><rect x="55.586" y="131.261" width="55.583" height="0.521" transform="matrix(1,0,0,1,0,0)" fill="rgb(204,204,204)"/><circle vector-effect="non-scaling-stroke" cx="57.341025525601424" cy="126.2561029685547" r="1.7553478188279428" fill="rgb(24,144,255)"/><path d=" M 110.152 151.249 L 92.586 151.249 C 91.954 151.249 91.442 150.737 91.441 150.105 L 91.441 143.948 C 91.442 143.317 91.954 142.805 92.586 142.804 L 110.152 142.804 C 110.783 142.805 111.295 143.316 111.296 143.948 L 111.296 150.105 C 111.295 150.737 110.783 151.249 110.152 151.249 Z " fill="rgb(24,144,255)"/><circle vector-effect="non-scaling-stroke" cx="63.066882622984195" cy="108.70338012409185" r="1.7553478188279428" fill="rgb(24,144,255)"/><circle vector-effect="non-scaling-stroke" cx="68.79274735010249" cy="108.70338012409185" r="1.7553478188279428" fill="rgb(24,144,255)"/><circle vector-effect="non-scaling-stroke" cx="63.066882622984195" cy="126.2561029685547" r="1.7553478188279428" fill="rgb(24,144,255)"/><circle vector-effect="non-scaling-stroke" cx="68.79274735010249" cy="126.2561029685547" r="1.7553478188279428" fill="rgb(24,144,255)"/><path d=" M 188.726 190 L 6.124 190 C 5.733 190 5.417 189.861 5.417 189.69 C 5.417 189.519 5.733 189.38 6.124 189.38 L 188.726 189.38 C 189.116 189.38 189.433 189.519 189.433 189.69 C 189.433 189.861 189.116 190 188.726 190 Z " fill="rgb(63,61,86)"/><path d=" M 143.611 124.482 C 143.736 124.539 143.856 124.606 143.97 124.682 L 155.377 119.814 L 155.784 116.809 L 160.342 116.781 L 160.073 123.673 L 145.017 127.654 C 144.985 127.759 144.947 127.862 144.903 127.962 C 144.295 129.258 142.754 129.821 141.455 129.22 C 140.155 128.62 139.584 127.082 140.177 125.779 C 140.77 124.476 142.305 123.896 143.611 124.482 L 143.611 124.482 Z " fill="rgb(255,184,184)"/><path d=" M 162 186.934 L 158.882 186.934 L 157.398 174.907 L 162 174.908 L 162 186.934 L 162 186.934 Z " fill="rgb(255,184,184)"/><path d=" M 156.654 186.043 L 162.668 186.043 L 162.668 189.829 L 152.868 189.829 L 152.868 189.829 C 152.868 187.738 154.563 186.043 156.654 186.043 L 156.654 186.043 Z " fill="rgb(47,46,65)"/><path d=" M 174.126 186.053 L 171.023 186.359 L 168.367 174.536 L 172.947 174.084 L 174.126 186.053 L 174.126 186.053 Z " fill="rgb(255,184,184)"/><path d=" M 168.719 185.69 L 174.703 185.101 L 175.075 188.869 L 165.322 189.829 L 165.322 189.829 C 165.224 188.83 165.527 187.832 166.164 187.056 C 166.801 186.28 167.72 185.789 168.719 185.69 L 168.719 185.69 Z " fill="rgb(47,46,65)"/><circle vector-effect="non-scaling-stroke" cx="162.86751348431937" cy="97.80653081534389" r="6.246472100647281" fill="rgb(255,184,184)"/><path d=" M 158.185 184.502 C 157.632 184.503 157.158 184.106 157.062 183.561 C 155.448 174.603 150.173 145.31 150.047 144.498 C 150.044 144.48 150.043 144.461 150.043 144.442 L 150.043 142.258 C 150.043 142.178 150.067 142.101 150.114 142.036 L 150.811 141.06 C 150.878 140.965 150.985 140.906 151.102 140.901 C 155.075 140.715 168.086 140.169 168.715 140.954 L 168.715 140.954 C 169.346 141.743 169.123 144.135 169.072 144.606 L 169.075 144.656 L 174.92 182.04 C 175.016 182.66 174.595 183.242 173.976 183.346 L 170.324 183.947 C 169.762 184.038 169.219 183.703 169.046 183.161 C 167.917 179.552 164.13 167.414 162.818 162.717 C 162.801 162.655 162.741 162.616 162.678 162.625 C 162.615 162.633 162.568 162.688 162.569 162.752 C 162.634 167.229 162.793 178.653 162.847 182.599 L 162.853 183.023 C 162.858 183.62 162.406 184.121 161.812 184.177 L 158.292 184.497 C 158.256 184.5 158.22 184.502 158.185 184.502 Z " fill="rgb(47,46,65)"/><path d=" M 158.903 106.509 C 157.813 107.157 157.161 108.348 156.787 109.56 C 156.093 111.803 155.676 114.123 155.544 116.467 L 155.149 123.487 L 150.252 142.095 C 154.496 145.687 156.944 144.87 162.658 141.933 C 168.371 138.995 169.024 142.912 169.024 142.912 L 170.167 127.079 L 171.799 109.776 C 171.432 109.335 171.018 108.936 170.563 108.588 C 167.505 106.21 163.527 105.367 159.768 106.3 L 158.903 106.509 Z " fill="rgb(24,144,255)"/><path d=" M 157.313 128.24 C 157.444 128.29 157.572 128.35 157.694 128.419 L 168.973 122.774 L 169.16 119.716 L 173.813 119.395 L 174.062 126.367 L 158.989 131.351 C 158.737 132.432 157.843 133.244 156.743 133.391 C 155.643 133.538 154.567 132.989 154.04 132.012 C 153.513 131.035 153.646 129.834 154.374 128.996 C 155.101 128.157 156.271 127.857 157.313 128.24 Z " fill="rgb(255,184,184)"/><path d=" M 171.717 109.855 C 174.492 110.835 174.981 121.446 174.981 121.446 C 171.716 119.65 167.799 122.589 167.799 122.589 C 167.799 122.589 166.982 119.814 166.003 116.222 C 165.402 114.169 165.895 111.951 167.309 110.346 C 167.309 110.346 168.942 108.875 171.717 109.855 Z " fill="rgb(24,144,255)"/><path d=" M 168.468 99.458 C 167.69 98.836 166.628 99.968 166.628 99.968 L 166.006 94.364 C 166.006 94.364 162.114 94.83 159.624 94.208 C 159.624 94.208 156.744 96.465 156.744 96.465 C 156.616 95.303 156.59 94.131 156.666 92.963 C 156.822 91.562 158.846 90.161 162.426 89.227 C 166.006 88.293 167.873 92.341 167.873 92.341 C 170.364 93.586 169.247 100.081 168.468 99.458 Z " fill="rgb(47,46,65)"/></g></g></svg>