<?xml version="1.0" encoding="UTF-8" standalone="no"?><!-- Generator: Gravit.io --><svg xmlns="http://www.w3.org/2000/svg" xmlns:xlink="http://www.w3.org/1999/xlink" style="isolation:isolate" viewBox="0 0 200 90" width="200pt" height="90pt"><defs><clipPath id="_clipPath_cRMPFgfPScGOP6sUBn6VYZwZQm5UgXSz"><rect width="200" height="90"/></clipPath></defs><g clip-path="url(#_clipPath_cRMPFgfPScGOP6sUBn6VYZwZQm5UgXSz)"><g><path d=" M 6.818 41.584 C 11.364 41.584 11.364 18.813 40.909 18.813 C 70.455 18.813 69.239 39.967 76.057 42.245 L 76.057 52.97 L 6.818 52.97 L 6.818 41.584 Z " fill="rgb(24,144,255)"/><path d=" M 100 62.648 C 100 62.648 100 66.633 95.455 66.633 L 6.818 66.633 C 3.053 66.633 0 63.575 0 59.802 L 0 48.416 C 0 48.416 0 41.584 6.818 41.584 L 65.909 41.584 C 88.636 41.584 100 50.693 100 55.247 L 100 62.648 Z " fill="rgb(24,144,255)"/><path d=" M 88.636 59.802 C 88.636 66.09 83.549 71.188 77.273 71.188 C 70.997 71.188 65.909 66.09 65.909 59.802 C 65.909 53.513 70.997 48.416 77.273 48.416 C 83.549 48.416 88.636 53.513 88.636 59.802 Z  M 34.091 59.802 C 34.091 66.09 29.003 71.188 22.727 71.188 C 16.451 71.188 11.364 66.09 11.364 59.802 C 11.364 53.513 16.451 48.416 22.727 48.416 C 29.003 48.416 34.091 53.513 34.091 59.802 Z " fill="rgb(69,90,100)"/><path d=" M 81.818 59.802 C 81.818 62.317 79.783 64.356 77.273 64.356 C 74.762 64.356 72.727 62.317 72.727 59.802 C 72.727 57.286 74.762 55.247 77.273 55.247 C 79.783 55.247 81.818 57.286 81.818 59.802 Z  M 27.273 59.802 C 27.273 62.317 25.238 64.356 22.727 64.356 C 20.217 64.356 18.182 62.317 18.182 59.802 C 18.182 57.286 20.217 55.247 22.727 55.247 C 25.238 55.247 27.273 57.286 27.273 59.802 Z " fill="rgb(176,190,197)"/><path d=" M 3.409 48.416 L 0 48.416 L 0 57.524 L 3.409 57.524 C 5.292 57.524 6.818 55.995 6.818 54.109 L 6.818 51.832 C 6.818 49.945 5.292 48.416 3.409 48.416 Z  M 93.182 47.632 L 93.182 54.109 C 93.182 55.995 94.708 57.524 96.591 57.524 L 100 57.524 L 100 55.247 C 100 53.209 97.718 50.274 93.182 47.632 Z " fill="rgb(255,193,7)"/><path d=" M 68.927 41.584 C 68.253 40.51 67.617 39.412 67.018 38.294 C 63.53 31.94 59.198 24.114 43.182 23.437 L 43.182 41.584 L 68.927 41.584 Z  M 38.636 41.584 L 38.636 23.437 C 22.089 24.203 17.47 33.195 14.391 39.255 C 13.991 40.036 13.584 40.828 13.141 41.584 L 38.636 41.584 Z " fill="rgb(16,70,121)"/></g><g clip-path="url(#_clipPath_iAUEU3MuMBvIZ9vVFXPW23VSLZA01Tdi)"><text transform="matrix(1,0,0,1,129.059,59.906)" style="font-family:'Segoe UI';font-weight:700;font-size:36px;font-style:normal;fill:#000000;stroke:none;">VCC</text></g><defs><clipPath id="_clipPath_iAUEU3MuMBvIZ9vVFXPW23VSLZA01Tdi"><rect x="0" y="0" width="72" height="90" transform="matrix(1,0,0,1,128,0)"/></clipPath></defs><line x1="114" y1="2.25" x2="114" y2="87.75" vector-effect="non-scaling-stroke" stroke-width="1" stroke="rgb(0,0,0)" stroke-linejoin="miter" stroke-linecap="square" stroke-miterlimit="3"/></g></svg>