<?xml version="1.0" encoding="UTF-8" standalone="no"?><!-- Generator: Gravit.io --><svg xmlns="http://www.w3.org/2000/svg" xmlns:xlink="http://www.w3.org/1999/xlink" style="isolation:isolate" viewBox="0 0 114 90" width="114pt" height="90pt"><defs><clipPath id="_clipPath_LoaszUFlRl2Jhngni89dPaKUA3nnVUKl"><rect width="114" height="90"/></clipPath></defs><g clip-path="url(#_clipPath_LoaszUFlRl2Jhngni89dPaKUA3nnVUKl)"><g><path d=" M 7.773 41.13 C 12.955 41.13 12.955 17 46.636 17 C 80.318 17 78.932 39.417 86.705 41.83 L 86.705 53.196 L 7.773 53.196 L 7.773 41.13 Z " fill="rgb(24,144,255)"/><path d=" M 114 63.451 C 114 63.451 114 67.674 108.818 67.674 L 7.773 67.674 C 3.48 67.674 0 64.433 0 60.435 L 0 48.37 C 0 48.37 0 41.13 7.773 41.13 L 75.136 41.13 C 101.045 41.13 114 50.783 114 55.609 L 114 63.451 Z " fill="rgb(24,144,255)"/><path d=" M 101.045 60.435 C 101.045 67.098 95.246 72.5 88.091 72.5 C 80.936 72.5 75.136 67.098 75.136 60.435 C 75.136 53.771 80.936 48.37 88.091 48.37 C 95.246 48.37 101.045 53.771 101.045 60.435 Z  M 38.864 60.435 C 38.864 67.098 33.064 72.5 25.909 72.5 C 18.754 72.5 12.955 67.098 12.955 60.435 C 12.955 53.771 18.754 48.37 25.909 48.37 C 33.064 48.37 38.864 53.771 38.864 60.435 Z " fill="rgb(69,90,100)"/><path d=" M 93.273 60.435 C 93.273 63.1 90.953 65.261 88.091 65.261 C 85.229 65.261 82.909 63.1 82.909 60.435 C 82.909 57.769 85.229 55.609 88.091 55.609 C 90.953 55.609 93.273 57.769 93.273 60.435 Z  M 31.091 60.435 C 31.091 63.1 28.771 65.261 25.909 65.261 C 23.047 65.261 20.727 63.1 20.727 60.435 C 20.727 57.769 23.047 55.609 25.909 55.609 C 28.771 55.609 31.091 57.769 31.091 60.435 Z " fill="rgb(176,190,197)"/><path d=" M 3.886 48.37 L 0 48.37 L 0 58.022 L 3.886 58.022 C 6.033 58.022 7.773 56.401 7.773 54.402 L 7.773 51.989 C 7.773 49.99 6.033 48.37 3.886 48.37 Z  M 106.227 47.539 L 106.227 54.402 C 106.227 56.401 107.967 58.022 110.114 58.022 L 114 58.022 L 114 55.609 C 114 53.449 111.399 50.339 106.227 47.539 Z " fill="rgb(255,193,7)"/><path d=" M 78.577 41.13 C 77.809 39.992 77.083 38.829 76.401 37.644 C 72.424 30.911 67.485 22.618 49.227 21.901 L 49.227 41.13 L 78.577 41.13 Z  M 44.045 41.13 L 44.045 21.901 C 25.181 22.712 19.916 32.241 16.406 38.662 C 15.95 39.49 15.486 40.329 14.981 41.13 L 44.045 41.13 Z " fill="rgb(16,70,121)"/></g></g></svg>