<?xml version="1.0" encoding="UTF-8" standalone="no"?><!-- Generator: Gravit.io --><svg xmlns="http://www.w3.org/2000/svg" xmlns:xlink="http://www.w3.org/1999/xlink" style="isolation:isolate" viewBox="0 0 800 90" width="800pt" height="90pt"><defs><clipPath id="_clipPath_TYmg13tKOolGuUkB2Shv2HbDx1m18oUN"><rect width="800" height="90"/></clipPath></defs><g clip-path="url(#_clipPath_TYmg13tKOolGuUkB2Shv2HbDx1m18oUN)"><g><path d=" M 9 41.038 C 15 41.038 15 14.625 54 14.625 C 93 14.625 91.395 39.163 100.395 41.804 L 100.395 54.245 L 9 54.245 L 9 41.038 Z " fill="rgb(24,144,255)"/><path d=" M 132 65.47 C 132 65.47 132 70.092 126 70.092 L 9 70.092 C 4.029 70.092 0 66.545 0 62.168 L 0 48.962 C 0 48.962 0 41.038 9 41.038 L 87 41.038 C 117 41.038 132 51.603 132 56.886 L 132 65.47 Z " fill="rgb(24,144,255)"/><path d=" M 117 62.168 C 117 69.462 110.284 75.375 102 75.375 C 93.716 75.375 87 69.462 87 62.168 C 87 54.875 93.716 48.962 102 48.962 C 110.284 48.962 117 54.875 117 62.168 Z  M 45 62.168 C 45 69.462 38.284 75.375 30 75.375 C 21.716 75.375 15 69.462 15 62.168 C 15 54.875 21.716 48.962 30 48.962 C 38.284 48.962 45 54.875 45 62.168 Z " fill="rgb(69,90,100)"/><path d=" M 108 62.168 C 108 65.086 105.314 67.451 102 67.451 C 98.686 67.451 96 65.086 96 62.168 C 96 59.251 98.686 56.886 102 56.886 C 105.314 56.886 108 59.251 108 62.168 Z  M 36 62.168 C 36 65.086 33.314 67.451 30 67.451 C 26.686 67.451 24 65.086 24 62.168 C 24 59.251 26.686 56.886 30 56.886 C 33.314 56.886 36 59.251 36 62.168 Z " fill="rgb(176,190,197)"/><path d=" M 4.5 48.962 L 0 48.962 L 0 59.527 L 4.5 59.527 C 6.985 59.527 9 57.753 9 55.565 L 9 52.924 C 9 50.736 6.985 48.962 4.5 48.962 Z  M 123 48.053 L 123 55.565 C 123 57.753 125.015 59.527 127.5 59.527 L 132 59.527 L 132 56.886 C 132 54.522 128.988 51.117 123 48.053 Z " fill="rgb(255,193,7)"/><path d=" M 90.984 41.038 C 90.094 39.792 89.254 38.519 88.464 37.221 C 83.859 29.852 78.141 20.774 57 19.989 L 57 41.038 L 90.984 41.038 Z  M 51 41.038 L 51 19.989 C 29.157 20.877 23.061 31.307 18.996 38.336 C 18.468 39.242 17.931 40.161 17.346 41.038 L 51 41.038 Z " fill="rgb(16,70,121)"/></g><g clip-path="url(#_clipPath_dL9zDMmKlrwgIXKJ0vBs6eT3xDvGKjVO)"><text transform="matrix(1,0,0,1,304.195,64.875)" style="font-family:'Segoe UI';font-weight:700;font-size:48px;font-style:normal;fill:#000000;stroke:none;">Vehicle Cost Calulator</text></g><defs><clipPath id="_clipPath_dL9zDMmKlrwgIXKJ0vBs6eT3xDvGKjVO"><rect x="0" y="0" width="499" height="90" transform="matrix(1,0,0,1,301,0)"/></clipPath></defs><line x1="216.5" y1="2.25" x2="216.5" y2="87.75" vector-effect="non-scaling-stroke" stroke-width="1" stroke="rgb(0,0,0)" stroke-linejoin="miter" stroke-linecap="square" stroke-miterlimit="3"/></g></svg>