<?xml version="1.0" encoding="UTF-8" standalone="no"?><!-- Generator: Gravit.io --><svg xmlns="http://www.w3.org/2000/svg" xmlns:xlink="http://www.w3.org/1999/xlink" style="isolation:isolate" viewBox="0 0 712.373 575.65" width="712.373pt" height="575.65pt"><defs><clipPath id="_clipPath_JSJZdmd6u5cfCVxDb8YgjuyPQEKDNGJ1"><rect width="712.373" height="575.65"/></clipPath></defs><g clip-path="url(#_clipPath_JSJZdmd6u5cfCVxDb8YgjuyPQEKDNGJ1)"><g><path d=" M 46.56 560.646 C 46.226 551.921 179.567 540.945 344.14 536.152 C 508.713 531.359 642.596 534.551 642.93 543.276 C 643.264 552.002 509.923 562.977 345.35 567.771 C 180.777 572.564 46.894 569.372 46.56 560.646 Z " fill="rgb(183,220,255)"/><path d=" M 441.101 287.715 L 360.952 287.715 L 360.952 272.594 C 360.952 270.596 359.096 268.977 356.806 268.977 L 333.27 268.977 L 333.27 252.869 C 333.27 251.611 332.102 250.592 330.66 250.592 L 300.343 250.592 C 299.651 250.592 298.987 250.832 298.497 251.259 C 298.008 251.686 297.733 252.265 297.733 252.869 L 297.733 268.982 L 270.063 268.982 C 267.773 268.982 265.917 270.601 265.917 272.599 L 265.917 287.721 L 189.49 287.721 C 189.027 287.724 188.653 288.052 188.653 288.456 L 188.653 489.196 C 188.653 489.6 189.027 489.928 189.49 489.931 L 240.283 489.931 C 240.507 489.931 240.721 489.853 240.879 489.716 C 241.037 489.578 241.126 489.391 241.126 489.196 L 241.126 462.188 C 241.129 461.783 241.505 461.455 241.969 461.452 L 263.425 461.452 C 263.889 461.455 264.265 461.783 264.268 462.188 L 264.268 489.196 C 264.268 489.6 264.642 489.928 265.105 489.931 L 365.473 489.931 C 365.938 489.928 366.313 489.6 366.316 489.196 L 366.316 462.188 C 366.316 461.784 366.69 461.455 367.153 461.452 L 388.609 461.452 C 388.833 461.452 389.047 461.53 389.206 461.668 C 389.364 461.806 389.452 461.993 389.452 462.188 L 389.452 489.196 C 389.456 489.6 389.831 489.928 390.295 489.931 L 441.089 489.931 C 441.553 489.928 441.928 489.6 441.932 489.196 L 441.932 288.451 C 441.928 288.05 441.56 287.724 441.101 287.715 L 441.101 287.715 Z  M 232.034 452.072 C 232.034 452.266 231.946 452.451 231.789 452.588 C 231.632 452.725 231.419 452.802 231.197 452.802 L 199.825 452.802 C 199.602 452.803 199.387 452.727 199.229 452.59 C 199.071 452.453 198.982 452.267 198.982 452.072 L 198.982 442.752 C 198.982 442.557 199.07 442.37 199.229 442.232 C 199.387 442.094 199.601 442.016 199.825 442.016 L 231.216 442.016 C 231.679 442.019 232.053 442.348 232.053 442.752 L 232.034 452.072 Z  M 232.034 427.919 C 232.036 428.113 231.948 428.3 231.791 428.438 C 231.634 428.576 231.42 428.654 231.197 428.654 L 199.825 428.654 C 199.601 428.655 199.385 428.578 199.227 428.44 C 199.068 428.302 198.98 428.114 198.982 427.919 L 198.982 418.576 C 198.98 418.381 199.068 418.193 199.227 418.055 C 199.385 417.917 199.601 417.84 199.825 417.841 L 231.216 417.841 C 231.439 417.841 231.653 417.919 231.81 418.057 C 231.967 418.195 232.054 418.382 232.053 418.576 L 232.034 427.919 Z  M 232.034 403.771 C 232.034 404.175 231.66 404.503 231.197 404.506 L 199.825 404.506 C 199.601 404.506 199.387 404.429 199.229 404.291 C 199.07 404.153 198.982 403.966 198.982 403.771 L 198.982 394.423 C 198.982 394.228 199.07 394.041 199.229 393.903 C 199.387 393.765 199.601 393.688 199.825 393.688 L 231.216 393.688 C 231.679 393.691 232.053 394.019 232.053 394.423 L 232.034 403.771 Z  M 232.034 379.617 C 232.036 379.812 231.948 379.999 231.791 380.137 C 231.634 380.275 231.42 380.353 231.197 380.353 L 199.825 380.353 C 199.601 380.354 199.385 380.277 199.227 380.139 C 199.068 380.001 198.98 379.813 198.982 379.617 L 198.982 370.302 C 198.98 370.107 199.068 369.919 199.227 369.781 C 199.385 369.642 199.601 369.565 199.825 369.567 L 231.216 369.567 C 231.439 369.567 231.653 369.645 231.81 369.783 C 231.967 369.921 232.054 370.108 232.053 370.302 L 232.034 379.617 Z  M 232.034 355.469 C 232.034 355.873 231.66 356.202 231.197 356.205 L 199.825 356.205 C 199.601 356.205 199.387 356.127 199.229 355.989 C 199.07 355.851 198.982 355.664 198.982 355.469 L 198.982 346.122 C 198.982 345.927 199.071 345.741 199.229 345.604 C 199.387 345.466 199.602 345.39 199.825 345.392 L 231.216 345.392 C 231.678 345.392 232.053 345.718 232.053 346.122 L 232.034 355.469 Z  M 232.034 331.321 C 232.034 331.724 231.659 332.051 231.197 332.051 L 199.825 332.051 C 199.602 332.053 199.387 331.976 199.229 331.839 C 199.071 331.702 198.982 331.516 198.982 331.321 L 198.982 321.974 C 198.982 321.779 199.07 321.592 199.229 321.454 C 199.387 321.316 199.601 321.238 199.825 321.238 L 231.216 321.238 C 231.679 321.241 232.053 321.57 232.053 321.974 L 232.034 331.321 Z  M 232.034 307.168 C 232.036 307.362 231.948 307.549 231.791 307.687 C 231.634 307.826 231.42 307.903 231.197 307.903 L 199.825 307.903 C 199.601 307.905 199.385 307.828 199.227 307.689 C 199.068 307.551 198.98 307.363 198.982 307.168 L 198.982 297.853 C 198.98 297.657 199.068 297.469 199.227 297.331 C 199.385 297.193 199.601 297.116 199.825 297.117 L 231.216 297.117 C 231.439 297.117 231.653 297.195 231.81 297.333 C 231.967 297.471 232.054 297.658 232.053 297.853 L 232.034 307.168 Z  M 306.413 452.067 C 306.413 452.261 306.324 452.448 306.165 452.585 C 306.007 452.722 305.793 452.798 305.57 452.797 L 274.197 452.797 C 273.734 452.797 273.357 452.471 273.354 452.067 L 273.354 442.752 C 273.357 442.347 273.733 442.019 274.197 442.016 L 305.57 442.016 C 305.793 442.016 306.008 442.094 306.166 442.232 C 306.324 442.37 306.413 442.557 306.413 442.752 L 306.413 452.067 Z  M 306.413 427.913 C 306.414 428.109 306.326 428.297 306.168 428.435 C 306.009 428.573 305.794 428.65 305.57 428.649 L 274.197 428.649 C 273.973 428.649 273.759 428.571 273.601 428.433 C 273.443 428.295 273.354 428.108 273.354 427.913 L 273.354 418.576 C 273.354 418.381 273.443 418.194 273.601 418.056 C 273.759 417.919 273.973 417.841 274.197 417.841 L 305.57 417.841 C 305.794 417.84 306.009 417.917 306.168 418.055 C 306.326 418.193 306.414 418.381 306.413 418.576 L 306.413 427.913 Z  M 306.413 403.765 C 306.413 403.96 306.324 404.147 306.166 404.285 C 306.008 404.423 305.793 404.501 305.57 404.501 L 274.197 404.501 C 273.733 404.498 273.357 404.17 273.354 403.765 L 273.354 394.423 C 273.357 394.018 273.733 393.691 274.197 393.688 L 305.57 393.688 C 305.793 393.688 306.008 393.765 306.166 393.903 C 306.324 394.041 306.413 394.228 306.413 394.423 L 306.413 403.765 Z  M 306.413 379.612 C 306.414 379.807 306.326 379.995 306.168 380.133 C 306.009 380.272 305.794 380.349 305.57 380.347 L 274.197 380.347 C 273.973 380.347 273.759 380.27 273.601 380.132 C 273.443 379.994 273.354 379.807 273.354 379.612 L 273.354 370.302 C 273.354 370.107 273.443 369.92 273.601 369.782 C 273.759 369.644 273.973 369.567 274.197 369.567 L 305.57 369.567 C 305.794 369.565 306.009 369.642 306.168 369.781 C 306.326 369.919 306.414 370.107 306.413 370.302 L 306.413 379.612 Z  M 306.413 355.464 C 306.413 355.659 306.324 355.846 306.166 355.984 C 306.008 356.122 305.793 356.199 305.57 356.199 L 274.197 356.199 C 273.733 356.196 273.357 355.869 273.354 355.464 L 273.354 346.122 C 273.357 345.718 273.734 345.392 274.197 345.392 L 305.57 345.392 C 305.793 345.39 306.007 345.466 306.165 345.604 C 306.324 345.741 306.413 345.927 306.413 346.122 L 306.413 355.464 Z  M 306.413 331.316 C 306.413 331.51 306.324 331.697 306.165 331.834 C 306.007 331.971 305.793 332.047 305.57 332.046 L 274.197 332.046 C 273.734 332.046 273.357 331.72 273.354 331.316 L 273.354 321.974 C 273.357 321.569 273.733 321.241 274.197 321.238 L 305.57 321.238 C 305.793 321.238 306.008 321.316 306.166 321.454 C 306.324 321.592 306.413 321.779 306.413 321.974 L 306.413 331.316 Z  M 306.413 307.162 C 306.414 307.358 306.326 307.546 306.168 307.684 C 306.009 307.822 305.794 307.899 305.57 307.898 L 274.197 307.898 C 273.973 307.898 273.759 307.82 273.601 307.682 C 273.443 307.544 273.354 307.357 273.354 307.162 L 273.354 297.853 C 273.354 297.658 273.443 297.471 273.601 297.333 C 273.759 297.195 273.973 297.117 274.197 297.117 L 305.57 297.117 C 305.794 297.116 306.009 297.193 306.168 297.331 C 306.326 297.469 306.414 297.657 306.413 297.853 L 306.413 307.162 Z  M 357.237 452.061 C 357.237 452.256 357.148 452.442 356.99 452.579 C 356.831 452.716 356.617 452.793 356.394 452.791 L 325.021 452.791 C 324.558 452.791 324.182 452.465 324.178 452.061 L 324.178 442.752 C 324.182 442.347 324.557 442.019 325.021 442.016 L 356.394 442.016 C 356.617 442.016 356.832 442.094 356.99 442.232 C 357.148 442.37 357.237 442.557 357.237 442.752 L 357.237 452.061 Z  M 357.237 427.908 C 357.239 428.103 357.15 428.291 356.992 428.429 C 356.833 428.568 356.618 428.645 356.394 428.643 L 325.021 428.643 C 324.798 428.643 324.583 428.566 324.425 428.428 C 324.267 428.29 324.178 428.103 324.178 427.908 L 324.178 418.576 C 324.178 418.381 324.267 418.194 324.425 418.056 C 324.583 417.919 324.798 417.841 325.021 417.841 L 356.394 417.841 C 356.618 417.84 356.833 417.917 356.992 418.055 C 357.15 418.193 357.239 418.381 357.237 418.576 L 357.237 427.908 Z  M 357.237 403.76 C 357.237 403.955 357.148 404.142 356.99 404.28 C 356.832 404.418 356.617 404.495 356.394 404.495 L 325.021 404.495 C 324.557 404.492 324.182 404.165 324.178 403.76 L 324.178 394.423 C 324.182 394.018 324.557 393.691 325.021 393.688 L 356.394 393.688 C 356.617 393.688 356.832 393.765 356.99 393.903 C 357.148 394.041 357.237 394.228 357.237 394.423 L 357.237 403.76 Z  M 357.237 379.606 C 357.239 379.802 357.15 379.99 356.992 380.128 C 356.833 380.266 356.618 380.343 356.394 380.342 L 325.021 380.342 C 324.798 380.342 324.583 380.264 324.425 380.126 C 324.267 379.988 324.178 379.801 324.178 379.606 L 324.178 370.302 C 324.178 370.107 324.267 369.92 324.425 369.782 C 324.583 369.644 324.798 369.567 325.021 369.567 L 356.394 369.567 C 356.618 369.565 356.833 369.642 356.992 369.781 C 357.15 369.919 357.239 370.107 357.237 370.302 L 357.237 379.606 Z  M 357.237 355.458 C 357.237 355.653 357.148 355.84 356.99 355.978 C 356.832 356.116 356.617 356.194 356.394 356.194 L 325.021 356.194 C 324.557 356.191 324.182 355.863 324.178 355.458 L 324.178 346.122 C 324.182 345.718 324.558 345.392 325.021 345.392 L 356.394 345.392 C 356.617 345.39 356.831 345.466 356.99 345.604 C 357.148 345.741 357.237 345.927 357.237 346.122 L 357.237 355.458 Z  M 357.237 331.31 C 357.237 331.505 357.148 331.691 356.99 331.828 C 356.831 331.965 356.617 332.042 356.394 332.04 L 325.021 332.04 C 324.558 332.04 324.182 331.714 324.178 331.31 L 324.178 321.974 C 324.182 321.569 324.557 321.241 325.021 321.238 L 356.394 321.238 C 356.617 321.238 356.832 321.316 356.99 321.454 C 357.148 321.592 357.237 321.779 357.237 321.974 L 357.237 331.31 Z  M 357.237 307.157 C 357.239 307.352 357.15 307.54 356.992 307.679 C 356.833 307.817 356.618 307.894 356.394 307.892 L 325.021 307.892 C 324.798 307.892 324.583 307.815 324.425 307.677 C 324.267 307.539 324.178 307.352 324.178 307.157 L 324.178 297.853 C 324.178 297.658 324.267 297.471 324.425 297.333 C 324.583 297.195 324.798 297.117 325.021 297.117 L 356.394 297.117 C 356.618 297.116 356.833 297.193 356.992 297.331 C 357.15 297.469 357.239 297.657 357.237 297.853 L 357.237 307.157 Z  M 431.616 452.056 C 431.612 452.46 431.236 452.786 430.773 452.786 L 399.4 452.786 C 399.177 452.787 398.963 452.711 398.804 452.574 C 398.646 452.437 398.557 452.25 398.557 452.056 L 398.557 442.752 C 398.557 442.557 398.646 442.37 398.804 442.232 C 398.962 442.094 399.176 442.016 399.4 442.016 L 430.773 442.016 C 431.237 442.019 431.612 442.347 431.616 442.752 L 431.616 452.056 Z  M 431.616 427.902 C 431.616 428.097 431.527 428.284 431.369 428.422 C 431.211 428.56 430.996 428.638 430.773 428.638 L 399.4 428.638 C 399.176 428.639 398.96 428.562 398.802 428.424 C 398.644 428.286 398.555 428.098 398.557 427.902 L 398.557 418.576 C 398.555 418.381 398.644 418.193 398.802 418.055 C 398.96 417.917 399.176 417.84 399.4 417.841 L 430.773 417.841 C 430.996 417.841 431.211 417.919 431.369 418.056 C 431.527 418.194 431.616 418.381 431.616 418.576 L 431.616 427.902 Z  M 431.616 403.754 C 431.612 404.159 431.237 404.487 430.773 404.49 L 399.4 404.49 C 399.176 404.49 398.962 404.412 398.804 404.274 C 398.646 404.136 398.557 403.949 398.557 403.754 L 398.557 394.423 C 398.557 394.228 398.646 394.041 398.804 393.903 C 398.962 393.765 399.176 393.688 399.4 393.688 L 430.773 393.688 C 431.237 393.691 431.612 394.018 431.616 394.423 L 431.616 403.754 Z  M 431.616 379.601 C 431.616 379.796 431.527 379.983 431.369 380.121 C 431.211 380.259 430.996 380.336 430.773 380.336 L 399.4 380.336 C 398.945 380.333 398.576 380.014 398.569 379.617 L 398.569 370.302 C 398.568 370.107 398.656 369.919 398.815 369.781 C 398.973 369.642 399.188 369.565 399.412 369.567 L 430.785 369.567 C 431.009 369.567 431.223 369.644 431.381 369.782 C 431.539 369.92 431.628 370.107 431.628 370.302 L 431.616 379.601 Z  M 431.616 355.453 C 431.612 355.858 431.237 356.185 430.773 356.188 L 399.4 356.188 C 399.176 356.188 398.962 356.111 398.804 355.973 C 398.646 355.835 398.557 355.648 398.557 355.453 L 398.557 346.122 C 398.557 345.927 398.646 345.741 398.804 345.604 C 398.963 345.466 399.177 345.39 399.4 345.392 L 430.773 345.392 C 431.236 345.392 431.612 345.718 431.616 346.122 L 431.616 355.453 Z  M 431.616 331.305 C 431.612 331.709 431.236 332.035 430.773 332.035 L 399.4 332.035 C 399.177 332.036 398.963 331.96 398.804 331.823 C 398.646 331.686 398.557 331.499 398.557 331.305 L 398.557 321.974 C 398.557 321.779 398.646 321.592 398.804 321.454 C 398.962 321.316 399.176 321.238 399.4 321.238 L 430.773 321.238 C 431.237 321.241 431.612 321.569 431.616 321.974 L 431.616 331.305 Z  M 431.616 307.151 C 431.616 307.346 431.527 307.534 431.369 307.671 C 431.211 307.809 430.996 307.887 430.773 307.887 L 399.4 307.887 C 398.945 307.884 398.576 307.565 398.569 307.168 L 398.569 297.853 C 398.568 297.657 398.656 297.469 398.815 297.331 C 398.973 297.193 399.188 297.116 399.412 297.117 L 430.785 297.117 C 431.009 297.117 431.223 297.195 431.381 297.333 C 431.539 297.471 431.628 297.658 431.628 297.853 L 431.616 307.151 Z " fill="rgb(242,242,242)"/><path d=" M 199.231 204.099 L 189.54 209.459 L 195.422 200.122 C 193.757 198.963 191.696 198.321 189.565 198.298 L 189.409 198.298 C 188.735 198.306 188.062 198.263 187.398 198.167 L 184.113 199.981 L 185.518 197.747 C 183.189 197.039 181.177 195.704 179.773 193.934 L 173.897 197.203 L 177.607 191.314 C 174.172 187.713 169.539 185.507 164.437 185.507 C 158.323 185.507 152.878 188.678 149.363 193.618 C 147.246 196.639 143.427 198.429 139.371 198.303 L 139.047 198.303 C 132.296 198.303 126.826 204.981 126.826 213.212 C 126.826 221.443 132.321 228.127 139.072 228.127 C 140.554 228.12 142.013 227.801 143.324 227.196 C 147.974 225.222 153.383 225.13 158.117 226.945 C 162.119 228.506 166.693 228.506 170.694 226.945 C 175.389 225.169 180.738 225.26 185.35 227.196 C 186.649 227.796 188.095 228.115 189.565 228.127 C 196.315 228.127 201.785 221.449 201.785 213.212 C 201.826 210.036 200.947 206.901 199.231 204.099 L 199.231 204.099 Z " fill="rgb(242,242,242)"/><g opacity="0.03"><path d=" M 180.966 225.915 C 177.44 225.33 173.794 225.675 170.494 226.907 C 166.494 228.465 161.924 228.465 157.924 226.907 C 153.188 225.098 147.782 225.189 143.131 227.157 C 141.819 227.766 140.357 228.086 138.872 228.089 C 132.877 228.089 127.888 222.821 126.851 215.871 C 128.049 215.107 129.067 214.149 129.848 213.049 C 133.364 208.108 138.809 204.938 144.923 204.938 C 151.036 204.938 156.413 208.07 159.91 212.962 C 162.04 215.967 165.82 217.778 169.87 217.734 L 170.026 217.734 C 174.822 217.706 178.955 221.046 180.966 225.915 Z " fill="rgb(0,0,0)"/></g><path d=" M 540.795 189.277 L 535.949 191.951 L 538.884 187.294 C 538.053 186.716 537.025 186.396 535.962 186.384 L 535.887 186.384 C 535.55 186.39 535.213 186.368 534.881 186.319 L 533.245 187.229 L 533.945 186.139 C 532.785 185.784 531.783 185.121 531.078 184.243 L 528.15 185.878 L 530.023 182.942 C 528.457 181.147 526.045 180.066 523.46 180 C 520.413 180 517.696 181.585 515.967 184.047 C 514.907 185.556 512.998 186.449 510.971 186.384 L 510.809 186.384 C 507.443 186.384 504.714 189.713 504.714 193.82 C 504.714 197.927 507.443 201.255 510.809 201.255 C 511.549 201.253 512.278 201.094 512.932 200.792 C 515.25 199.81 517.946 199.764 520.307 200.667 C 522.304 201.445 524.585 201.445 526.582 200.667 C 528.926 199.783 531.593 199.828 533.895 200.792 C 534.542 201.088 535.262 201.243 535.993 201.245 C 539.359 201.245 542.088 197.916 542.088 193.809 C 542.097 192.228 541.653 190.67 540.795 189.277 L 540.795 189.277 Z " fill="rgb(242,242,242)"/><g opacity="0.03"><path d=" M 531.684 200.155 C 529.924 199.866 528.105 200.039 526.458 200.651 C 525.475 201.032 524.411 201.229 523.335 201.228 C 522.259 201.223 521.196 201.023 520.213 200.64 C 517.85 199.736 515.152 199.782 512.832 200.765 C 512.178 201.068 511.449 201.227 510.709 201.228 C 507.718 201.228 505.232 198.603 504.714 195.133 C 505.312 194.752 505.821 194.275 506.213 193.727 C 507.961 191.265 510.678 189.68 513.706 189.68 C 516.735 189.68 519.439 191.243 521.2 193.684 C 522.267 195.19 524.165 196.094 526.195 196.064 L 526.276 196.064 C 528.618 196.064 530.679 197.731 531.684 200.155 Z " fill="rgb(0,0,0)"/></g><path d=" M 419.457 238.265 L 413.775 241.408 L 417.222 235.96 C 416.248 235.274 415.039 234.89 413.787 234.871 L 413.694 234.871 C 413.298 234.876 412.904 234.85 412.514 234.795 L 410.59 235.884 L 411.414 234.571 C 410.05 234.157 408.87 233.377 408.042 232.343 L 404.595 234.25 L 406.775 230.796 C 404.919 228.704 402.082 227.452 399.05 227.386 C 395.466 227.386 392.269 229.249 390.208 232.147 C 388.962 233.905 386.731 234.945 384.363 234.871 L 384.17 234.871 C 380.211 234.871 377.007 238.788 377.007 243.587 C 377.007 248.386 380.211 252.33 384.17 252.33 C 385.041 252.328 385.898 252.141 386.667 251.785 C 389.394 250.629 392.565 250.575 395.341 251.638 C 397.688 252.549 400.369 252.549 402.716 251.638 C 405.471 250.597 408.608 250.651 411.315 251.785 C 412.085 252.139 412.942 252.326 413.812 252.33 C 417.771 252.33 420.981 248.418 420.981 243.587 C 420.991 241.729 420.467 239.9 419.457 238.265 L 419.457 238.265 Z " fill="rgb(242,242,242)"/><g opacity="0.03"><path d=" M 408.748 251.06 C 406.679 250.719 404.54 250.922 402.603 251.643 C 400.256 252.555 397.576 252.555 395.229 251.643 C 392.452 250.581 389.282 250.635 386.555 251.79 C 385.785 252.146 384.928 252.333 384.057 252.335 C 380.541 252.335 377.613 249.246 377.007 245.172 C 377.707 244.731 378.303 244.176 378.762 243.538 C 380.822 240.64 384.02 238.782 387.604 238.782 C 391.188 238.782 394.348 240.618 396.409 243.483 C 397.656 245.247 399.872 246.31 402.247 246.283 L 402.316 246.283 C 405.139 246.245 407.568 248.206 408.748 251.06 Z " fill="rgb(0,0,0)"/></g><path d=" M 623.922 490.062 C 623.922 490.999 623.922 491.936 623.854 492.862 C 623.694 496.466 623.197 500.053 622.367 503.587 C 618.265 521.079 606.419 534.675 591.538 538.69 C 588.578 539.494 585.496 539.904 582.396 539.905 C 559.46 539.905 540.87 517.571 540.87 490.062 C 540.87 462.553 559.46 440.219 582.396 440.219 C 603.909 440.219 621.606 459.862 623.71 485.023 C 623.854 486.679 623.922 488.362 623.922 490.062 Z " fill="rgb(54,51,74)"/><g opacity="0.1"><path d=" M 623.854 492.867 C 623.694 496.472 623.197 500.059 622.367 503.593 C 618.265 521.084 606.419 534.681 591.538 538.695 C 580.017 534.071 571.468 516.737 571.468 496.059 C 571.468 471.84 583.208 452.208 597.695 452.208 C 609.853 452.208 620.082 466.055 623.048 484.843 C 623.46 487.42 623.729 490.111 623.854 492.867 Z " fill="rgb(0,0,0)"/></g><path d=" M 415.355 379.753 C 415.355 379.753 527.756 359.598 587.079 378.119 C 587.079 378.119 595.822 381.932 587.079 388.469 C 587.079 388.469 595.347 396.095 580.91 398.819 L 523.554 401.897 L 415.355 392.282 L 415.355 379.753 Z " fill="rgb(63,61,86)"/><g opacity="0.1"><path d=" M 435.025 382.286 C 435.025 382.286 531.26 365.029 582.053 380.886 C 582.053 380.886 589.546 384.155 582.053 389.749 C 582.053 389.749 589.128 396.286 576.77 398.612 L 527.663 401.243 L 435.025 393.023 L 435.025 382.286 Z " fill="rgb(0,0,0)"/></g><path d=" M 544.617 412.437 L 537.123 399.364 C 537.123 399.364 540.408 386.138 513.706 382.248 C 512.226 376.48 505.52 372.127 497.47 372.127 C 489.615 372.127 483.046 376.267 481.347 381.823 C 477.513 382.112 473.429 382.504 469.058 383.022 L 462.951 411.588 L 462.189 410.258 C 462.189 410.258 466.067 394.635 431.116 392.353 C 433.021 390.339 434.071 387.812 434.088 385.201 C 434.088 378.277 426.676 372.672 417.54 372.672 C 408.405 372.672 400.992 378.277 400.992 385.201 C 401.016 388.045 402.254 390.779 404.464 392.871 Q 399.562 393.279 394.123 393.916 L 387.254 426.056 L 419.101 429.869 L 469.682 423.332 L 465.205 415.515 L 494.036 418.969 L 544.617 412.437 Z " fill="rgb(24,144,255)"/><g opacity="0.2"><path d=" M 544.617 412.437 L 537.123 399.364 C 537.123 399.364 540.408 386.138 513.706 382.248 C 512.226 376.48 505.52 372.127 497.47 372.127 C 489.615 372.127 483.046 376.267 481.347 381.823 C 477.513 382.112 473.429 382.504 469.058 383.022 L 462.951 411.588 L 462.189 410.258 C 462.189 410.258 466.067 394.635 431.116 392.353 C 433.021 390.339 434.071 387.812 434.088 385.201 C 434.088 378.277 426.676 372.672 417.54 372.672 C 408.405 372.672 400.992 378.277 400.992 385.201 C 401.016 388.045 402.254 390.779 404.464 392.871 Q 399.562 393.279 394.123 393.916 L 387.254 426.056 L 419.101 429.869 L 469.682 423.332 L 465.205 415.515 L 494.036 418.969 L 544.617 412.437 Z " fill="rgb(0,0,0)"/></g><path d=" M 437.198 383.501 C 437.198 383.501 432.203 359.054 455.307 358.509 C 455.307 358.509 470.919 393.916 470.919 393.916 C 470.919 393.916 488.403 397.185 489.652 403.177 C 489.652 403.177 429.08 410.803 429.08 410.803 L 437.198 383.501 Z " fill="rgb(24,144,255)"/><path d=" M 396.621 512.668 C 396.621 541.539 372.018 564.962 341.669 564.962 C 311.321 564.962 286.717 541.539 286.717 512.668 C 286.717 483.797 311.627 455.744 341.981 455.744 C 372.336 455.744 396.621 483.786 396.621 512.668 Z " fill="rgb(54,51,74)"/><g opacity="0.1"><ellipse vector-effect="non-scaling-stroke" cx="341.669249906727" cy="514.8470194820383" rx="43.71174429804137" ry="44.11787892495332" fill="rgb(0,0,0)"/></g><ellipse vector-effect="non-scaling-stroke" cx="100.00574928755566" cy="507.7600506610279" rx="54.9519071175377" ry="52.294312591622685" fill="rgb(54,51,74)"/><path d=" M 193.674 383.022 C 193.674 383.022 168.071 384.111 169.32 396.095 C 169.32 396.095 191.176 399.364 191.176 399.364 L 193.674 383.022 Z " fill="rgb(54,51,74)"/><path d=" M 406.687 402.986 L 417.228 341.622 C 417.228 341.622 419.726 333.996 386.005 333.996 C 386.005 333.996 277.975 328.004 250.499 337.809 C 250.499 337.809 218.652 348.159 174.316 401.543 C 174.316 401.543 402.316 406.255 406.687 402.986 Z " fill="rgb(63,61,86)"/><path d=" M 402.866 338.898 L 383.508 405.901 L 371.368 405.645 L 313.919 404.424 L 185.787 401.701 C 185.431 396.406 246.109 341.622 246.109 341.622 L 402.866 338.898 Z " fill="rgb(54,51,74)"/><g opacity="0.2"><path d=" M 313.937 404.424 L 319.17 386.775 C 319.17 386.775 314.175 362.322 337.279 361.777 C 337.279 361.777 352.891 397.185 352.891 397.185 C 352.891 397.185 368.814 400.165 371.35 405.645 L 313.937 404.424 Z " fill="rgb(24,144,255)"/></g><path d=" M 624.234 486.249 C 620.488 454.654 597.071 447.845 597.071 447.845 C 574.59 446.755 559.604 521.384 559.604 521.384 L 386.63 535.002 C 386.63 535.002 392.562 471.541 350.724 461.191 C 350.724 461.191 297.958 525.197 296.084 535.547 C 296.084 535.547 43.805 534.457 36.936 530.1 C 36.936 530.1 32.565 483.797 34.438 480.529 C 34.438 480.529 41.307 462.553 41.307 462.553 C 41.307 459.045 43.23 454.611 44.829 451.533 C 45.953 449.354 46.927 447.845 46.927 447.845 C 52.354 421.001 80.529 414.502 82.421 414.072 L 82.521 414.072 C 90.014 407.535 159.329 403.177 159.329 403.177 L 185.556 398.819 L 398.788 402.474 L 407.861 402.632 L 516.266 398.084 L 589.577 395.006 C 606.438 395.006 615.18 432.048 615.18 432.048 C 630.791 464.732 624.234 486.249 624.234 486.249 Z " fill="rgb(63,61,86)"/><g opacity="0.1"><path d=" M 235.36 448.349 C 231.213 439.359 241.21 427.37 257.669 421.592 C 274.129 415.815 290.859 418.422 295.005 427.411 C 299.152 436.4 289.156 448.389 272.696 454.167 C 256.236 459.945 239.507 457.338 235.36 448.349 Z " fill="rgb(0,0,0)"/></g><path d=" M 234.112 446.167 C 229.965 437.178 239.962 425.189 256.421 419.411 C 272.881 413.633 289.611 416.241 293.757 425.23 C 297.904 434.219 287.908 446.208 271.448 451.986 C 254.988 457.764 238.258 455.157 234.112 446.167 Z " fill="rgb(242,242,242)"/><g opacity="0.1"><path d=" M 83.67 415.183 C 83.352 421.175 80.273 428.736 74.734 436.019 C 65.823 447.741 53.603 454.643 46.078 452.622 C 47.202 450.443 48.176 448.934 48.176 448.934 C 53.603 422.09 81.778 415.591 83.67 415.183 Z " fill="rgb(0,0,0)"/></g><path d=" M 81.797 414.093 C 81.478 420.085 78.4 427.646 72.861 434.929 C 63.95 446.652 51.729 453.554 44.205 451.533 C 45.329 449.354 46.303 447.845 46.303 447.845 C 51.729 421.001 79.905 414.502 81.797 414.093 Z " fill="rgb(242,242,242)"/><path d=" M 169.32 430.408 L 119.988 430.408 L 117.49 424.416 L 177.438 424.416 L 169.32 430.408 L 169.32 430.408 Z " fill="rgb(54,51,74)"/><rect x="76.901" y="474.531" width="81.179" height="20.7" transform="matrix(1,0,0,1,0,0)" fill="rgb(54,51,74)"/><g opacity="0.1"><ellipse vector-effect="non-scaling-stroke" cx="245.5034124510364" cy="505.5811209697101" rx="11.240162819496348" ry="9.805183610929276" fill="rgb(0,0,0)"/></g><ellipse vector-effect="non-scaling-stroke" cx="244.25450547109222" cy="503.94692370122175" rx="11.240162819496362" ry="9.805183610929276" fill="rgb(242,242,242)"/><g opacity="0.1"><ellipse vector-effect="non-scaling-stroke" cx="41.307121230185544" cy="497.9548670500985" rx="5.620081409748174" ry="10.349916033758632" fill="rgb(0,0,0)"/></g><ellipse vector-effect="non-scaling-stroke" cx="39.43376076026961" cy="497.41013462726914" rx="5.620081409748174" ry="10.349916033758632" fill="rgb(242,242,242)"/><path d=" M 534.625 453.837 C 527.756 472.358 527.132 501.229 527.132 501.229 L 524.634 508.855 L 402.866 520.839 C 402.866 520.839 403.49 467.455 405.364 442.398 C 406.681 424.721 401.792 409.757 398.788 402.474 L 407.861 402.632 L 516.266 398.084 C 534.376 409.158 540.789 437.206 534.625 453.837 Z " fill="rgb(54,51,74)"/><path d=" M 506.862 420.445 C 506 420.495 505.202 420.86 504.665 421.45 C 504.128 422.04 503.901 422.801 504.04 423.544 C 504.16 424.17 504.628 424.702 505.289 424.966 C 507.306 425.843 520.731 423.877 525.821 423.092 C 527.37 422.873 528.555 421.77 528.706 420.407 C 528.768 419.633 528.443 418.974 527.144 418.974 L 506.862 420.445 Z " fill="rgb(242,242,242)"/><path d=" M 398.495 400.453 C 398.495 400.453 401.617 412.437 416.604 408.624 L 421.599 391.737 L 411.608 386.835 L 398.495 400.453 Z " fill="rgb(54,51,74)"/><path d=" M 416.847 376.12 C 423.716 372.568 434.613 369.463 445.391 376.921 C 450.009 380.101 451.529 385.626 449.069 390.289 C 445.541 396.951 437.167 404.179 417.615 395.523 C 415.696 394.674 414.058 393.41 412.857 391.852 L 412.757 391.721 C 410.845 389.199 410.201 386.104 410.974 383.157 C 411.746 380.209 413.869 377.666 416.847 376.12 Z " fill="rgb(54,51,74)"/><ellipse vector-effect="non-scaling-stroke" cx="341.98147665171314" cy="512.3902762550774" rx="12.489069799440358" ry="10.894648456588044" fill="rgb(242,242,242)"/><ellipse vector-effect="non-scaling-stroke" cx="599.8807680101575" cy="492.779909033219" rx="6.868988389692163" ry="10.894648456588072" fill="rgb(242,242,242)"/><path d="M 340.551 478.89 L 342.789 478.89 C 346.653 478.89 349.79 482.025 349.79 485.887 L 349.79 490.953 C 349.79 494.815 346.653 497.95 342.789 497.95 L 340.551 497.95 C 336.687 497.95 333.55 494.815 333.55 490.953 L 333.55 485.887 C 333.55 482.025 336.687 478.89 340.551 478.89 Z" style="stroke:none;fill:#36334A;stroke-miterlimit:10;"/><path d=" M 599.881 457.917 L 599.881 457.917 C 601.04 457.917 602.152 458.319 602.972 459.034 C 603.791 459.749 604.252 460.719 604.252 461.73 L 604.252 470.446 C 604.252 474.056 600.897 476.983 596.759 476.983 L 596.759 476.983 C 594.344 476.983 592.387 475.275 592.387 473.17 L 592.387 464.454 C 592.387 460.844 595.742 457.917 599.881 457.917 L 599.881 457.917 Z " fill="rgb(54,51,74)"/><path d=" M 599.881 527.648 L 599.881 527.648 C 595.742 527.648 592.387 524.722 592.387 521.111 L 592.387 515.119 C 592.387 511.509 595.742 508.583 599.881 508.583 L 599.881 508.583 C 604.002 508.583 603.627 511.524 603.627 515.119 L 603.627 521.111 C 603.621 524.707 604.015 527.648 599.881 527.648 Z " fill="rgb(54,51,74)"/><path d=" M 581.147 482.975 L 581.147 482.975 C 585.286 482.975 588.641 485.901 588.641 489.512 L 588.641 497.683 C 588.641 500.089 586.404 502.04 583.645 502.04 L 583.645 502.04 C 579.506 502.04 576.152 499.114 576.152 495.504 L 576.152 487.333 C 576.152 484.926 578.388 482.975 581.147 482.975 Z " fill="rgb(54,51,74)"/><path d=" M 623.922 490.062 C 623.922 490.999 623.922 491.936 623.854 492.862 C 623.694 496.466 623.197 500.053 622.367 503.587 C 621.955 503.648 621.537 503.679 621.118 503.68 C 616.98 503.68 613.625 500.753 613.625 497.143 L 613.625 491.151 C 613.625 487.541 616.98 484.614 621.118 484.614 C 621.772 484.613 622.423 484.688 623.054 484.838 C 623.279 484.892 623.504 484.952 623.716 485.023 C 623.854 486.679 623.922 488.362 623.922 490.062 Z " fill="rgb(54,51,74)"/><path d="M 372.086 502.04 L 374.324 502.04 C 378.185 502.04 381.32 505.177 381.32 509.04 L 381.32 514.11 C 381.32 517.973 378.185 521.11 374.324 521.11 L 372.086 521.11 C 368.225 521.11 365.09 517.973 365.09 514.11 L 365.09 509.04 C 365.09 505.177 368.225 502.04 372.086 502.04 Z" style="stroke:none;fill:#36334A;stroke-miterlimit:10;"/><path d="M 310.891 502.04 L 313.129 502.04 C 316.993 502.04 320.13 505.177 320.13 509.04 L 320.13 514.11 C 320.13 517.973 316.993 521.11 313.129 521.11 L 310.891 521.11 C 307.027 521.11 303.89 517.973 303.89 514.11 L 303.89 509.04 C 303.89 505.177 307.027 502.04 310.891 502.04 Z" style="stroke:none;fill:#36334A;stroke-miterlimit:10;"/><path d="M 340.861 530.37 L 343.099 530.37 C 346.963 530.37 350.1 533.505 350.1 537.367 L 350.1 542.433 C 350.1 546.295 346.963 549.43 343.099 549.43 L 340.861 549.43 C 336.997 549.43 333.86 546.295 333.86 542.433 L 333.86 537.367 C 333.86 533.505 336.997 530.37 340.861 530.37 Z" style="stroke:none;fill:#36334A;stroke-miterlimit:10;"/><path d=" M 560.078 292.22 C 560.074 293.259 559.863 294.29 559.454 295.265 C 557.996 298.816 554.165 301.204 549.842 301.257 C 545.519 301.311 541.612 299.018 540.039 295.505 C 539.569 294.464 539.327 293.355 539.327 292.237 C 539.327 287.243 543.969 283.194 549.693 283.194 C 555.418 283.194 560.059 287.243 560.059 292.237 L 560.078 292.22 Z " fill="rgb(255,101,132)"/><path d=" M 541.432 294.476 C 540.098 292.379 539.773 289.905 540.53 287.599 C 541.286 285.294 543.062 283.345 545.466 282.181 C 546.622 281.61 547.895 281.24 549.213 281.091 C 545.319 280.971 541.677 282.765 539.784 285.736 C 537.892 288.707 538.069 292.352 540.242 295.173 C 542.416 297.994 546.219 299.513 550.087 299.106 C 546.473 298.986 543.193 297.231 541.432 294.476 Z " fill="rgb(255,101,132)"/><rect x="536.755" y="304.815" width="27.769" height="37.788" transform="matrix(1,0,0,1,0,0)" fill="rgb(255,101,132)"/><g opacity="0.1"><rect x="537.379" y="303.725" width="27.769" height="37.788" transform="matrix(1,0,0,1,0,0)" fill="rgb(0,0,0)"/></g><path d=" M 492.862 441.913 C 492.862 441.913 489.902 448.994 482.871 449.986 C 475.839 450.977 471.78 452.557 471.78 452.557 L 488.441 461.921 L 497.327 460.951 C 497.327 460.951 498.432 450.939 502.135 448.678 C 505.838 446.418 492.862 441.913 492.862 441.913 Z " fill="rgb(251,190,190)"/><path d=" M 613.207 441.913 C 613.207 441.913 616.167 448.994 623.198 449.986 C 623.198 449.986 634.301 452.573 634.301 452.573 L 617.64 461.937 L 608.754 460.968 C 608.754 460.968 607.649 450.955 603.946 448.695 C 600.243 446.434 613.207 441.913 613.207 441.913 Z " fill="rgb(251,190,190)"/><path d=" M 532.128 379.258 C 532.128 379.258 527.681 381.197 526.202 385.07 C 526.202 385.07 518.084 387.331 513.613 393.47 C 513.613 393.47 508.061 398.634 507.318 401.221 C 506.575 403.809 498.064 419.328 498.064 419.328 C 498.064 419.328 489.552 443.547 485.106 446.134 C 485.106 446.134 499.175 443.547 501.767 455.82 C 501.767 455.82 505.101 455.82 508.804 444.517 C 512.507 433.213 521.387 419.328 521.387 419.328 C 521.387 419.328 524.353 409.637 526.945 408.025 C 529.536 406.413 533.608 398.982 537.311 400.916 C 541.014 402.85 565.448 400.595 565.448 400.595 C 565.448 400.595 579.886 406.407 580.254 410.286 C 580.623 414.164 583.22 414.48 583.589 417.71 C 583.957 420.941 597.658 446.456 597.658 446.456 C 597.658 446.456 600.249 453.537 600.986 455.172 C 600.986 455.172 609.135 438.056 619.87 447.741 C 619.87 447.741 619.501 441.281 616.167 437.392 C 612.832 433.502 598.395 403.155 598.395 403.155 C 598.395 403.155 596.915 398.634 595.435 397.343 C 593.955 396.052 582.477 385.718 578.412 385.718 C 578.412 385.718 576.189 380.87 573.598 380.227 L 532.128 379.258 Z " fill="rgb(105,104,128)"/><path d=" M 498.807 458.707 C 492.922 460.767 486.229 459.982 481.178 456.637 C 478.766 455.022 476.123 453.687 473.317 452.666 C 469.395 451.282 464.693 450.253 463.263 452.573 C 460.671 456.768 494.735 467.107 494.735 467.107 C 494.735 467.107 499.175 464.841 498.807 458.707 Z " fill="rgb(105,104,128)"/><path d=" M 607.281 458.707 C 613.165 460.767 619.858 459.982 624.909 456.637 C 627.321 455.022 629.964 453.687 632.771 452.666 C 636.692 451.282 641.394 450.253 642.824 452.573 C 645.416 456.768 611.352 467.107 611.352 467.107 C 611.352 467.107 606.912 464.841 607.281 458.707 Z " fill="rgb(105,104,128)"/><path d=" M 544.229 326.135 C 544.086 327.258 543.667 328.472 542.568 329.071 C 541.669 329.562 540.533 329.518 539.496 329.709 C 537.287 330.187 535.471 331.554 534.607 333.391 C 533.778 335.22 533.616 337.227 534.145 339.138 C 534.387 340.076 534.702 340.999 535.087 341.9 C 536.18 344.58 537.492 347.233 539.515 349.466 C 541.247 351.236 543.194 352.836 545.322 354.238 C 546.64 355.175 548.001 356.134 549.625 356.575 C 550.727 356.829 551.863 356.959 553.003 356.962 C 554.408 357.022 555.901 357.06 557.118 356.45 C 558.992 355.507 559.554 353.421 560.565 351.754 C 561.433 350.332 562.72 349.134 563.525 347.685 C 564.095 346.548 564.514 345.359 564.774 344.139 L 566.504 337.433 C 567.128 335.004 567.703 332.258 566.129 330.172 C 566.019 330 565.86 329.855 565.667 329.752 C 565.368 329.647 565.041 329.617 564.724 329.665 C 562.733 329.782 560.746 329.386 559.01 328.527 C 558.735 328.408 558.491 328.241 558.292 328.036 C 558.037 327.691 557.885 327.296 557.849 326.887 C 557.68 326.055 557.412 325.241 557.049 324.458 C 556.946 324.178 556.759 323.928 556.506 323.733 C 556.243 323.588 555.943 323.5 555.632 323.477 C 552.959 323.097 550.263 322.85 547.558 322.736 C 546.665 322.704 545.329 322.393 544.723 323.074 C 544.117 323.755 544.329 325.318 544.229 326.135 Z " fill="rgb(251,190,190)"/><g opacity="0.1"><path d=" M 544.229 326.135 C 544.086 327.258 543.667 328.472 542.568 329.071 C 541.669 329.562 540.533 329.518 539.496 329.709 C 537.287 330.187 535.471 331.554 534.607 333.391 C 533.778 335.22 533.616 337.227 534.145 339.138 C 534.387 340.076 534.702 340.999 535.087 341.9 C 536.18 344.58 537.492 347.233 539.515 349.466 C 541.247 351.236 543.194 352.836 545.322 354.238 C 546.64 355.175 548.001 356.134 549.625 356.575 C 550.727 356.829 551.863 356.959 553.003 356.962 C 554.408 357.022 555.901 357.06 557.118 356.45 C 558.992 355.507 559.554 353.421 560.565 351.754 C 561.433 350.332 562.72 349.134 563.525 347.685 C 564.095 346.548 564.514 345.359 564.774 344.139 L 566.504 337.433 C 567.128 335.004 567.703 332.258 566.129 330.172 C 566.019 330 565.86 329.855 565.667 329.752 C 565.368 329.647 565.041 329.617 564.724 329.665 C 562.733 329.782 560.746 329.386 559.01 328.527 C 558.735 328.408 558.491 328.241 558.292 328.036 C 558.037 327.691 557.885 327.296 557.849 326.887 C 557.68 326.055 557.412 325.241 557.049 324.458 C 556.946 324.178 556.759 323.928 556.506 323.733 C 556.243 323.588 555.943 323.5 555.632 323.477 C 552.959 323.097 550.263 322.85 547.558 322.736 C 546.665 322.704 545.329 322.393 544.723 323.074 C 544.117 323.755 544.329 325.318 544.229 326.135 Z " fill="rgb(0,0,0)"/></g><path d=" M 539.215 329.992 C 537.767 329.616 536.267 329.409 534.757 329.377 C 531.185 329.3 527.369 330.379 525.302 332.923 C 523.904 334.757 523.39 336.998 523.872 339.16 C 524.372 341.306 525.49 343.306 527.119 344.972 C 528.062 345.846 528.899 346.803 529.617 347.827 C 530.604 349.461 530.629 351.411 530.866 353.274 C 531.491 357.692 533.651 361.853 534.513 366.244 C 535.375 370.635 534.625 375.733 530.648 378.533 C 529.979 379.002 529.174 379.492 529.118 380.238 C 529.024 381.431 530.804 381.943 532.171 382.052 C 536.261 382.395 540.458 382.728 544.429 381.807 C 546.078 381.426 547.658 380.832 549.331 380.56 C 553.584 379.868 557.855 381.284 562.101 381.97 C 565.179 382.411 568.293 382.631 571.412 382.63 C 572.14 382.686 572.873 382.602 573.56 382.384 C 574.256 382.146 574.696 381.543 574.647 380.892 C 574.511 380.48 574.257 380.105 573.91 379.802 C 571.762 377.482 571.106 374.41 570.519 371.473 L 568.583 361.587 C 567.528 356.314 566.547 350.588 569.407 345.849 C 571.468 342.445 575.252 340.048 577.425 336.698 C 578.194 335.684 578.542 334.471 578.412 333.26 C 578.087 331.577 576.345 330.373 574.559 329.665 C 571.127 328.327 567.234 328.204 563.7 329.322 C 563.762 331.681 563.075 334.067 562.626 336.404 L 561.87 340.217 C 561.487 342.464 560.924 344.684 560.184 346.862 C 559.909 347.732 559.45 348.549 558.829 349.27 C 558.162 349.917 557.348 350.435 556.438 350.79 C 554.465 351.631 552.295 352.062 550.099 352.048 C 549.149 352.065 548.203 351.94 547.302 351.678 C 545.816 351.209 544.61 350.245 543.449 349.308 C 543.067 349.025 542.725 348.703 542.431 348.35 C 542.125 347.895 541.892 347.405 541.738 346.895 C 541.232 345.563 540.836 344.202 540.551 342.821 C 540.358 341.764 540.302 340.691 540.214 339.623 C 539.939 336.529 539.946 333.026 539.215 329.992 Z " fill="rgb(242,242,242)"/><path d=" M 535.456 392.5 C 535.456 392.5 533.976 409.616 543.23 412.524 C 543.23 412.524 544.342 398.312 544.342 398.312 L 541.382 393.143 L 535.456 392.5 Z " fill="rgb(251,190,190)"/><path d=" M 566.928 392.5 C 566.928 392.5 568.408 409.616 559.154 412.524 C 559.154 412.524 558.042 398.312 558.042 398.312 L 561.002 393.143 L 566.928 392.5 Z " fill="rgb(251,190,190)"/><g opacity="0.1"><path d=" M 527.313 335.336 L 524.353 339.536 C 524.353 339.536 526.945 354.069 527.313 356.651 C 527.63 358.511 528.125 360.344 528.793 362.131 C 528.793 362.131 529.161 369.883 529.161 372.786 C 529.161 372.786 531.035 380.538 531.035 380.538 C 531.294 383.284 531.923 385.993 532.908 388.611 C 534.388 392.168 535.874 396.362 535.874 396.362 C 535.874 396.362 537.748 391.841 545.129 398.623 C 546.846 397.099 546.846 394.656 545.129 393.132 C 545.129 393.132 542.906 384.416 542.906 379.895 C 542.906 379.895 538.834 353.748 538.834 353.748 C 538.834 353.748 536.199 329.197 527.313 335.336 Z " fill="rgb(0,0,0)"/></g><path d=" M 526.582 335.015 L 523.623 339.209 C 523.623 339.209 526.214 353.742 526.582 356.33 C 526.902 358.191 527.4 360.026 528.069 361.815 C 528.069 361.815 528.456 369.567 528.456 372.481 C 528.456 375.396 530.329 380.233 530.329 380.233 C 530.59 382.978 531.219 385.688 532.202 388.306 C 533.682 391.857 535.162 396.057 535.162 396.057 C 535.162 396.057 537.036 391.536 544.417 398.318 C 546.137 396.795 546.137 394.35 544.417 392.827 C 544.417 392.827 542.194 384.111 542.194 379.585 C 542.194 379.585 538.122 353.437 538.122 353.437 C 538.122 353.437 535.456 328.903 526.582 335.015 Z " fill="rgb(242,242,242)"/><g opacity="0.1"><path d=" M 575.44 332.748 L 577.313 334.671 C 577.313 334.671 579.499 345.669 574.684 359.555 L 573.204 372.154 C 573.204 372.154 570.613 382.809 570.238 385.397 C 570.238 385.397 569.87 388.3 569.133 389.27 C 568.664 389.738 568.664 390.436 569.133 390.904 L 566.91 398.013 C 566.91 398.013 563.575 394.461 556.918 398.982 C 556.918 398.982 555.045 396.395 556.55 394.134 C 558.055 391.874 558.03 390.904 557.661 390.261 C 557.293 389.618 559.141 386.383 559.141 385.74 C 559.141 385.097 561.733 370.237 561.733 370.237 C 561.733 370.237 562.844 355.703 563.956 350.861 C 564.637 347.881 564.618 341.235 564.505 336.562 C 564.387 331.697 571.137 329.055 575.121 332.482 C 575.227 332.552 575.334 332.65 575.44 332.748 Z " fill="rgb(0,0,0)"/></g><path d=" M 576.539 332.106 L 578.412 334.029 C 578.412 334.029 580.591 345.021 575.783 358.912 L 574.303 371.506 C 574.303 371.506 571.712 382.167 571.337 384.749 C 571.337 384.749 570.969 387.657 570.225 388.622 C 569.765 389.092 569.765 389.785 570.225 390.256 L 568.009 397.337 C 568.009 397.337 564.674 393.786 558.017 398.307 C 558.017 398.307 556.144 395.725 557.649 393.464 C 559.154 391.204 559.129 390.234 558.754 389.586 C 558.38 388.938 560.24 385.713 560.24 385.065 C 560.24 384.416 562.832 369.561 562.832 369.561 C 562.832 369.561 563.943 355.028 565.049 350.185 C 566.154 345.343 565.423 330.809 565.423 330.809 C 565.423 330.809 571.368 327.268 576.539 332.106 Z " fill="rgb(242,242,242)"/><ellipse vector-effect="non-scaling-stroke" cx="551.7478930031133" cy="314.66330141646097" rx="14.81203678213626" ry="12.921053069513448" fill="rgb(251,190,190)"/><g opacity="0.1"><path d=" M 559.472 295.265 C 558.014 298.816 554.183 301.204 549.861 301.257 C 545.538 301.311 541.631 299.018 540.058 295.505 C 545.834 293.479 551.748 295.287 551.748 295.287 C 554.683 294.377 557.256 294.465 559.472 295.265 Z " fill="rgb(0,0,0)"/></g><path d=" M 551.748 295.935 C 551.748 295.935 523.242 287.22 530.273 329.524 C 530.273 329.524 536.567 333.075 541.382 330.815 C 541.382 330.815 538.047 301.399 551.005 302.717 C 563.962 304.036 561.745 330.166 561.745 330.166 C 561.745 330.166 569.151 332.106 571.368 328.532 C 573.585 324.959 570.631 290.118 551.748 295.935 Z " fill="rgb(255,101,132)"/><g opacity="0.1"><path d=" M 551.005 300.778 C 542.113 299.89 540.895 313.449 541.014 322.05 C 541.126 313.503 542.774 301.895 551.005 302.717 C 560.259 303.638 561.77 317.234 561.883 324.937 C 561.983 317.872 561.096 301.786 551.005 300.778 Z " fill="rgb(0,0,0)"/></g><g opacity="0.1"><path d=" M 530.273 327.584 C 529.63 323.872 529.261 320.127 529.168 316.374 C 529.137 320.768 529.506 325.158 530.273 329.502 C 530.273 329.502 536.567 333.053 541.382 330.793 C 541.382 330.793 541.301 330.096 541.213 328.924 C 536.424 331.082 530.273 327.584 530.273 327.584 Z " fill="rgb(0,0,0)"/></g><g opacity="0.1"><path d=" M 571.368 326.615 C 569.301 329.921 562.738 328.472 561.845 328.249 C 561.802 329.447 561.745 330.161 561.745 330.161 C 561.745 330.161 569.151 332.1 571.368 328.527 C 571.83 327.791 572.068 325.727 571.993 322.965 C 571.93 324.768 571.712 326.065 571.368 326.615 Z " fill="rgb(0,0,0)"/></g><mask id="_mask_31RaT6eNWCwrDez75JCBfH3L1rPFKyBR" x="-200%" y="-200%" width="400%" height="400%"><rect x="-200%" y="-200%" width="400%" height="400%" style="fill:white;"/><path d=" M 647.283 535.65 C 648.994 532.889 647.052 529.5 644.823 527.038 C 642.593 524.576 639.871 522.01 639.927 518.867 C 640.014 514.357 645.503 511.693 649.918 509.302 C 653.174 507.525 656.178 505.419 658.867 503.026 C 659.99 502.105 660.919 501.019 661.614 499.818 C 662.52 498.053 662.495 496.043 662.439 494.109 Q 662.158 484.451 661.346 474.809" fill="black" stroke="none"/></mask><path d=" M 647.283 535.65 C 648.994 532.889 647.052 529.5 644.823 527.038 C 642.593 524.576 639.871 522.01 639.927 518.867 C 640.014 514.357 645.503 511.693 649.918 509.302 C 653.174 507.525 656.178 505.419 658.867 503.026 C 659.99 502.105 660.919 501.019 661.614 499.818 C 662.52 498.053 662.495 496.043 662.439 494.109 Q 662.158 484.451 661.346 474.809" fill="none"/><path d=" M 647.283 535.65 C 648.994 532.889 647.052 529.5 644.823 527.038 C 642.593 524.576 639.871 522.01 639.927 518.867 C 640.014 514.357 645.503 511.693 649.918 509.302 C 653.174 507.525 656.178 505.419 658.867 503.026 C 659.99 502.105 660.919 501.019 661.614 499.818 C 662.52 498.053 662.495 496.043 662.439 494.109 Q 662.158 484.451 661.346 474.809" fill="none" mask="url(#_mask_31RaT6eNWCwrDez75JCBfH3L1rPFKyBR)" vector-effect="non-scaling-stroke" stroke-width="8" stroke="rgb(63,61,86)" stroke-linejoin="miter" stroke-linecap="butt" stroke-miterlimit="10"/><path d=" M 669.651 474.461 C 669.525 472.064 668.007 469.889 665.623 468.692 L 663.819 471.808 L 663.875 468.033 C 663.012 467.813 662.113 467.719 661.215 467.755 C 656.764 467.937 653.325 471.23 653.532 475.113 C 653.74 478.995 657.515 481.996 661.965 481.816 C 666.416 481.636 669.856 478.343 669.651 474.461 L 669.651 474.461 Z " fill="rgb(24,144,255)"/><path d=" M 655.264 522.097 C 653.591 524.929 649.947 526.427 646.379 525.751 C 642.81 525.075 640.208 522.392 640.033 519.21 C 639.976 518.235 640.154 517.261 640.558 516.35 C 641.765 513.62 644.783 511.825 648.137 511.842 C 651.492 511.859 654.486 513.684 655.657 516.427 L 650.618 520.006 L 656.157 518.883 C 656.159 520.002 655.853 521.104 655.264 522.097 L 655.264 522.097 Z " fill="rgb(24,144,255)"/><path d=" M 651.279 508.43 C 649.141 508.517 647.051 507.86 645.469 506.602 C 643.886 505.344 642.942 503.59 642.843 501.724 C 642.782 500.623 643.021 499.526 643.543 498.521 C 644.525 496.62 646.419 495.193 648.719 494.621 L 648.682 497.525 L 650.505 494.365 L 650.505 494.365 C 654.956 494.186 658.73 497.188 658.935 501.071 C 658.984 501.883 658.868 502.696 658.592 503.473 C 657.592 506.303 654.67 508.284 651.279 508.43 Z " fill="rgb(24,144,255)"/><path d=" M 670.869 497.062 C 668.73 497.149 666.64 496.491 665.058 495.234 C 663.475 493.976 662.531 492.221 662.432 490.356 C 662.364 489.207 662.626 488.061 663.194 487.022 C 664.148 485.256 665.901 483.916 668.033 483.322 C 670.164 482.728 672.483 482.934 674.434 483.89 L 673.011 487.294 L 675.939 484.838 C 677.511 486.093 678.45 487.84 678.549 489.697 C 678.586 490.348 678.517 491.001 678.343 491.636 C 677.521 494.698 674.47 496.913 670.869 497.062 Z " fill="rgb(24,144,255)"/><g opacity="0.1"><path d=" M 668.571 476.334 C 666.697 476.514 664.893 477.015 663.026 477.119 C 661.158 477.222 659.104 476.83 657.924 475.561 C 657.374 474.825 656.876 474.061 656.431 473.273 C 655.921 472.58 655.224 472.006 654.402 471.601 C 653.765 472.685 653.465 473.897 653.534 475.114 C 653.715 478.65 656.879 481.519 660.923 481.813 C 664.967 482.107 668.632 479.736 669.482 476.275 C 669.176 476.285 668.87 476.307 668.571 476.334 Z " fill="rgb(0,0,0)"/></g><g opacity="0.1"><path d=" M 670.869 497.062 C 668.73 497.149 666.64 496.491 665.058 495.234 C 663.475 493.976 662.531 492.221 662.432 490.356 C 662.364 489.207 662.626 488.061 663.194 487.022 C 663.835 487.399 664.386 487.879 664.818 488.438 C 665.392 489.196 665.736 490.073 666.416 490.764 C 667.665 492.05 669.82 492.475 671.768 492.399 C 673.716 492.322 675.59 491.854 677.532 491.685 C 677.8 491.685 678.075 491.647 678.343 491.641 C 677.519 494.702 674.468 496.914 670.869 497.062 Z " fill="rgb(0,0,0)"/></g><g opacity="0.1"><path d=" M 651.279 508.43 C 649.141 508.517 647.051 507.86 645.469 506.602 C 643.886 505.344 642.942 503.59 642.843 501.724 C 642.782 500.623 643.021 499.526 643.543 498.521 C 644.197 498.906 644.768 499.389 645.229 499.949 C 645.853 500.722 646.246 501.583 646.977 502.324 C 648.338 503.647 650.63 504.11 652.691 504.072 C 654.751 504.034 656.612 503.604 658.598 503.473 C 657.598 506.304 654.672 508.286 651.279 508.43 L 651.279 508.43 Z " fill="rgb(0,0,0)"/></g><g opacity="0.1"><path d=" M 655.264 522.097 C 653.591 524.929 649.947 526.427 646.379 525.751 C 642.81 525.075 640.208 522.392 640.033 519.21 C 639.976 518.235 640.154 517.261 640.558 516.35 C 641.221 516.732 641.816 517.196 642.325 517.729 C 643.093 518.546 643.574 519.472 644.486 520.229 C 646.134 521.645 648.8 522.228 651.167 522.283 C 652.536 522.29 653.903 522.228 655.264 522.097 Z " fill="rgb(0,0,0)"/></g><path d=" M 635.119 532.469 C 635.119 532.469 641.482 532.3 643.405 531.107 C 643.405 531.107 653.197 528.493 653.677 530.405 C 653.677 530.405 663.244 539.916 656.057 539.965 C 656.057 539.965 639.352 538.99 637.435 537.971 C 635.518 536.952 635.119 532.469 635.119 532.469 Z " fill="rgb(101,99,128)"/><g opacity="0.2"><path d=" M 656.182 539.3 C 648.994 539.349 639.477 538.32 637.56 537.306 C 636.105 536.527 635.525 533.749 635.331 532.464 L 635.119 532.464 C 635.119 532.464 635.518 536.947 637.435 537.965 C 637.435 537.965 648.869 540.008 656.057 539.959 C 658.13 539.959 658.848 539.3 658.81 538.325 C 658.523 538.93 657.718 539.289 656.182 539.3 Z " fill="rgb(0,0,0)"/></g></g><g clip-path="url(#_clipPath_X7t0XWdJr2DDqTfcbTUWfawArpdNExM9)"><text transform="matrix(1,0,0,1,227.264,74.941)" style="font-family:'Segoe UI';font-weight:400;font-size:48px;font-style:normal;fill:#1890ff;stroke:none;">Welcome to</text><text transform="matrix(1,0,0,1,32.159,154.746)" style="font-family:'Segoe UI';font-weight:700;font-size:60px;font-style:normal;fill:#1890ff;stroke:none;">Vehicle Cost Calculator</text></g><defs><clipPath id="_clipPath_X7t0XWdJr2DDqTfcbTUWfawArpdNExM9"><rect x="0" y="0" width="712.373" height="180" transform="matrix(1,0,0,1,0,0)"/></clipPath></defs></g></svg>