<?xml version="1.0" encoding="UTF-8" standalone="no"?><!-- Generator: Gravit.io --><svg xmlns="http://www.w3.org/2000/svg" xmlns:xlink="http://www.w3.org/1999/xlink" style="isolation:isolate" viewBox="0 0 1643.903 395.65" width="1643.903pt" height="395.65pt"><defs><clipPath id="_clipPath_5vwAsTjm4UL02e0Q2a0lsfnaQq1kpgXS"><rect width="1643.903" height="395.65"/></clipPath></defs><g clip-path="url(#_clipPath_5vwAsTjm4UL02e0Q2a0lsfnaQq1kpgXS)"><g><path d=" M 988.001 380.646 C 987.667 371.921 1121.008 360.945 1285.581 356.152 C 1450.154 351.359 1584.037 354.551 1584.371 363.276 C 1584.705 372.002 1451.364 382.977 1286.791 387.771 C 1122.218 392.564 988.335 389.372 988.001 380.646 Z " fill="rgb(183,220,255)"/><path d=" M 1382.542 107.715 L 1302.393 107.715 L 1302.393 92.594 C 1302.393 90.596 1300.537 88.977 1298.247 88.977 L 1274.711 88.977 L 1274.711 72.869 C 1274.711 71.611 1273.543 70.592 1272.101 70.592 L 1241.784 70.592 C 1241.092 70.592 1240.428 70.832 1239.938 71.259 C 1239.449 71.686 1239.174 72.265 1239.174 72.869 L 1239.174 88.982 L 1211.504 88.982 C 1209.214 88.982 1207.358 90.601 1207.358 92.599 L 1207.358 107.721 L 1130.931 107.721 C 1130.468 107.724 1130.094 108.052 1130.094 108.456 L 1130.094 309.196 C 1130.094 309.6 1130.468 309.928 1130.931 309.931 L 1181.724 309.931 C 1181.948 309.931 1182.162 309.853 1182.32 309.716 C 1182.478 309.578 1182.567 309.391 1182.567 309.196 L 1182.567 282.188 C 1182.57 281.783 1182.946 281.455 1183.41 281.452 L 1204.866 281.452 C 1205.33 281.455 1205.706 281.783 1205.709 282.188 L 1205.709 309.196 C 1205.709 309.6 1206.083 309.928 1206.546 309.931 L 1306.914 309.931 C 1307.379 309.928 1307.754 309.6 1307.757 309.196 L 1307.757 282.188 C 1307.757 281.784 1308.131 281.455 1308.594 281.452 L 1330.05 281.452 C 1330.274 281.452 1330.488 281.53 1330.647 281.668 C 1330.805 281.806 1330.893 281.993 1330.893 282.188 L 1330.893 309.196 C 1330.897 309.6 1331.272 309.928 1331.736 309.931 L 1382.53 309.931 C 1382.994 309.928 1383.369 309.6 1383.373 309.196 L 1383.373 108.451 C 1383.369 108.05 1383.001 107.724 1382.542 107.715 L 1382.542 107.715 Z  M 1173.475 272.072 C 1173.475 272.266 1173.387 272.451 1173.23 272.588 C 1173.073 272.725 1172.86 272.802 1172.638 272.802 L 1141.266 272.802 C 1141.043 272.803 1140.828 272.727 1140.67 272.59 C 1140.512 272.453 1140.423 272.267 1140.423 272.072 L 1140.423 262.752 C 1140.423 262.557 1140.511 262.37 1140.67 262.232 C 1140.828 262.094 1141.042 262.016 1141.266 262.016 L 1172.657 262.016 C 1173.12 262.019 1173.494 262.348 1173.494 262.752 L 1173.475 272.072 Z  M 1173.475 247.919 C 1173.477 248.113 1173.389 248.3 1173.232 248.438 C 1173.075 248.576 1172.861 248.654 1172.638 248.654 L 1141.266 248.654 C 1141.042 248.655 1140.826 248.578 1140.668 248.44 C 1140.509 248.302 1140.421 248.114 1140.423 247.919 L 1140.423 238.576 C 1140.421 238.381 1140.509 238.193 1140.668 238.055 C 1140.826 237.917 1141.042 237.84 1141.266 237.841 L 1172.657 237.841 C 1172.88 237.841 1173.094 237.919 1173.251 238.057 C 1173.408 238.195 1173.495 238.382 1173.494 238.576 L 1173.475 247.919 Z  M 1173.475 223.771 C 1173.475 224.175 1173.101 224.503 1172.638 224.506 L 1141.266 224.506 C 1141.042 224.506 1140.828 224.429 1140.67 224.291 C 1140.511 224.153 1140.423 223.966 1140.423 223.771 L 1140.423 214.423 C 1140.423 214.228 1140.511 214.041 1140.67 213.903 C 1140.828 213.765 1141.042 213.688 1141.266 213.688 L 1172.657 213.688 C 1173.12 213.691 1173.494 214.019 1173.494 214.423 L 1173.475 223.771 Z  M 1173.475 199.617 C 1173.477 199.812 1173.389 199.999 1173.232 200.137 C 1173.075 200.275 1172.861 200.353 1172.638 200.353 L 1141.266 200.353 C 1141.042 200.354 1140.826 200.277 1140.668 200.139 C 1140.509 200.001 1140.421 199.813 1140.423 199.617 L 1140.423 190.302 C 1140.421 190.107 1140.509 189.919 1140.668 189.781 C 1140.826 189.642 1141.042 189.565 1141.266 189.567 L 1172.657 189.567 C 1172.88 189.567 1173.094 189.645 1173.251 189.783 C 1173.408 189.921 1173.495 190.108 1173.494 190.302 L 1173.475 199.617 Z  M 1173.475 175.469 C 1173.475 175.873 1173.101 176.202 1172.638 176.205 L 1141.266 176.205 C 1141.042 176.205 1140.828 176.127 1140.67 175.989 C 1140.511 175.851 1140.423 175.664 1140.423 175.469 L 1140.423 166.122 C 1140.423 165.927 1140.512 165.741 1140.67 165.604 C 1140.828 165.466 1141.043 165.39 1141.266 165.392 L 1172.657 165.392 C 1173.119 165.392 1173.494 165.718 1173.494 166.122 L 1173.475 175.469 Z  M 1173.475 151.321 C 1173.475 151.724 1173.1 152.051 1172.638 152.051 L 1141.266 152.051 C 1141.043 152.053 1140.828 151.976 1140.67 151.839 C 1140.512 151.702 1140.423 151.516 1140.423 151.321 L 1140.423 141.974 C 1140.423 141.779 1140.511 141.592 1140.67 141.454 C 1140.828 141.316 1141.042 141.238 1141.266 141.238 L 1172.657 141.238 C 1173.12 141.241 1173.494 141.57 1173.494 141.974 L 1173.475 151.321 Z  M 1173.475 127.168 C 1173.477 127.362 1173.389 127.549 1173.232 127.687 C 1173.075 127.826 1172.861 127.903 1172.638 127.903 L 1141.266 127.903 C 1141.042 127.905 1140.826 127.828 1140.668 127.689 C 1140.509 127.551 1140.421 127.363 1140.423 127.168 L 1140.423 117.853 C 1140.421 117.657 1140.509 117.469 1140.668 117.331 C 1140.826 117.193 1141.042 117.116 1141.266 117.117 L 1172.657 117.117 C 1172.88 117.117 1173.094 117.195 1173.251 117.333 C 1173.408 117.471 1173.495 117.658 1173.494 117.853 L 1173.475 127.168 Z  M 1247.854 272.067 C 1247.854 272.261 1247.765 272.448 1247.606 272.585 C 1247.448 272.722 1247.234 272.798 1247.011 272.797 L 1215.638 272.797 C 1215.175 272.797 1214.799 272.471 1214.795 272.067 L 1214.795 262.752 C 1214.798 262.347 1215.174 262.019 1215.638 262.016 L 1247.011 262.016 C 1247.234 262.016 1247.449 262.094 1247.607 262.232 C 1247.765 262.37 1247.854 262.557 1247.854 262.752 L 1247.854 272.067 Z  M 1247.854 247.913 C 1247.855 248.109 1247.767 248.297 1247.609 248.435 C 1247.45 248.573 1247.235 248.65 1247.011 248.649 L 1215.638 248.649 C 1215.415 248.649 1215.2 248.571 1215.042 248.433 C 1214.884 248.295 1214.795 248.108 1214.795 247.913 L 1214.795 238.576 C 1214.795 238.381 1214.884 238.194 1215.042 238.056 C 1215.2 237.919 1215.415 237.841 1215.638 237.841 L 1247.011 237.841 C 1247.235 237.84 1247.45 237.917 1247.609 238.055 C 1247.767 238.193 1247.855 238.381 1247.854 238.576 L 1247.854 247.913 Z  M 1247.854 223.765 C 1247.854 223.96 1247.765 224.147 1247.607 224.285 C 1247.449 224.423 1247.234 224.501 1247.011 224.501 L 1215.638 224.501 C 1215.174 224.498 1214.798 224.17 1214.795 223.765 L 1214.795 214.423 C 1214.798 214.018 1215.174 213.691 1215.638 213.688 L 1247.011 213.688 C 1247.234 213.688 1247.449 213.765 1247.607 213.903 C 1247.765 214.041 1247.854 214.228 1247.854 214.423 L 1247.854 223.765 Z  M 1247.854 199.612 C 1247.855 199.807 1247.767 199.995 1247.609 200.133 C 1247.45 200.272 1247.235 200.349 1247.011 200.347 L 1215.638 200.347 C 1215.415 200.347 1215.2 200.27 1215.042 200.132 C 1214.884 199.994 1214.795 199.807 1214.795 199.612 L 1214.795 190.302 C 1214.795 190.107 1214.884 189.92 1215.042 189.782 C 1215.2 189.644 1215.415 189.567 1215.638 189.567 L 1247.011 189.567 C 1247.235 189.565 1247.45 189.642 1247.609 189.781 C 1247.767 189.919 1247.855 190.107 1247.854 190.302 L 1247.854 199.612 Z  M 1247.854 175.464 C 1247.854 175.659 1247.765 175.846 1247.607 175.984 C 1247.449 176.122 1247.234 176.199 1247.011 176.199 L 1215.638 176.199 C 1215.174 176.196 1214.798 175.869 1214.795 175.464 L 1214.795 166.122 C 1214.799 165.718 1215.175 165.392 1215.638 165.392 L 1247.011 165.392 C 1247.234 165.39 1247.448 165.466 1247.606 165.604 C 1247.765 165.741 1247.854 165.927 1247.854 166.122 L 1247.854 175.464 Z  M 1247.854 151.316 C 1247.854 151.51 1247.765 151.697 1247.606 151.834 C 1247.448 151.971 1247.234 152.047 1247.011 152.046 L 1215.638 152.046 C 1215.175 152.046 1214.799 151.72 1214.795 151.316 L 1214.795 141.974 C 1214.798 141.569 1215.174 141.241 1215.638 141.238 L 1247.011 141.238 C 1247.234 141.238 1247.449 141.316 1247.607 141.454 C 1247.765 141.592 1247.854 141.779 1247.854 141.974 L 1247.854 151.316 Z  M 1247.854 127.162 C 1247.855 127.358 1247.767 127.546 1247.609 127.684 C 1247.45 127.822 1247.235 127.899 1247.011 127.898 L 1215.638 127.898 C 1215.415 127.898 1215.2 127.82 1215.042 127.682 C 1214.884 127.544 1214.795 127.357 1214.795 127.162 L 1214.795 117.853 C 1214.795 117.658 1214.884 117.471 1215.042 117.333 C 1215.2 117.195 1215.415 117.117 1215.638 117.117 L 1247.011 117.117 C 1247.235 117.116 1247.45 117.193 1247.609 117.331 C 1247.767 117.469 1247.855 117.657 1247.854 117.853 L 1247.854 127.162 Z  M 1298.678 272.061 C 1298.678 272.256 1298.589 272.442 1298.431 272.579 C 1298.272 272.716 1298.058 272.793 1297.835 272.791 L 1266.462 272.791 C 1265.999 272.791 1265.623 272.465 1265.619 272.061 L 1265.619 262.752 C 1265.623 262.347 1265.998 262.019 1266.462 262.016 L 1297.835 262.016 C 1298.058 262.016 1298.273 262.094 1298.431 262.232 C 1298.589 262.37 1298.678 262.557 1298.678 262.752 L 1298.678 272.061 Z  M 1298.678 247.908 C 1298.68 248.103 1298.591 248.291 1298.433 248.429 C 1298.274 248.568 1298.059 248.645 1297.835 248.643 L 1266.462 248.643 C 1266.239 248.643 1266.024 248.566 1265.866 248.428 C 1265.708 248.29 1265.619 248.103 1265.619 247.908 L 1265.619 238.576 C 1265.619 238.381 1265.708 238.194 1265.866 238.056 C 1266.024 237.919 1266.239 237.841 1266.462 237.841 L 1297.835 237.841 C 1298.059 237.84 1298.274 237.917 1298.433 238.055 C 1298.591 238.193 1298.68 238.381 1298.678 238.576 L 1298.678 247.908 Z  M 1298.678 223.76 C 1298.678 223.955 1298.589 224.142 1298.431 224.28 C 1298.273 224.418 1298.058 224.495 1297.835 224.495 L 1266.462 224.495 C 1265.998 224.492 1265.623 224.165 1265.619 223.76 L 1265.619 214.423 C 1265.623 214.018 1265.998 213.691 1266.462 213.688 L 1297.835 213.688 C 1298.058 213.688 1298.273 213.765 1298.431 213.903 C 1298.589 214.041 1298.678 214.228 1298.678 214.423 L 1298.678 223.76 Z  M 1298.678 199.606 C 1298.68 199.802 1298.591 199.99 1298.433 200.128 C 1298.274 200.266 1298.059 200.343 1297.835 200.342 L 1266.462 200.342 C 1266.239 200.342 1266.024 200.264 1265.866 200.126 C 1265.708 199.988 1265.619 199.801 1265.619 199.606 L 1265.619 190.302 C 1265.619 190.107 1265.708 189.92 1265.866 189.782 C 1266.024 189.644 1266.239 189.567 1266.462 189.567 L 1297.835 189.567 C 1298.059 189.565 1298.274 189.642 1298.433 189.781 C 1298.591 189.919 1298.68 190.107 1298.678 190.302 L 1298.678 199.606 Z  M 1298.678 175.458 C 1298.678 175.653 1298.589 175.84 1298.431 175.978 C 1298.273 176.116 1298.058 176.194 1297.835 176.194 L 1266.462 176.194 C 1265.998 176.191 1265.623 175.863 1265.619 175.458 L 1265.619 166.122 C 1265.623 165.718 1265.999 165.392 1266.462 165.392 L 1297.835 165.392 C 1298.058 165.39 1298.272 165.466 1298.431 165.604 C 1298.589 165.741 1298.678 165.927 1298.678 166.122 L 1298.678 175.458 Z  M 1298.678 151.31 C 1298.678 151.505 1298.589 151.691 1298.431 151.828 C 1298.272 151.965 1298.058 152.042 1297.835 152.04 L 1266.462 152.04 C 1265.999 152.04 1265.623 151.714 1265.619 151.31 L 1265.619 141.974 C 1265.623 141.569 1265.998 141.241 1266.462 141.238 L 1297.835 141.238 C 1298.058 141.238 1298.273 141.316 1298.431 141.454 C 1298.589 141.592 1298.678 141.779 1298.678 141.974 L 1298.678 151.31 Z  M 1298.678 127.157 C 1298.68 127.352 1298.591 127.54 1298.433 127.679 C 1298.274 127.817 1298.059 127.894 1297.835 127.892 L 1266.462 127.892 C 1266.239 127.892 1266.024 127.815 1265.866 127.677 C 1265.708 127.539 1265.619 127.352 1265.619 127.157 L 1265.619 117.853 C 1265.619 117.658 1265.708 117.471 1265.866 117.333 C 1266.024 117.195 1266.239 117.117 1266.462 117.117 L 1297.835 117.117 C 1298.059 117.116 1298.274 117.193 1298.433 117.331 C 1298.591 117.469 1298.68 117.657 1298.678 117.853 L 1298.678 127.157 Z  M 1373.057 272.056 C 1373.053 272.46 1372.677 272.786 1372.214 272.786 L 1340.841 272.786 C 1340.618 272.787 1340.404 272.711 1340.245 272.574 C 1340.087 272.437 1339.998 272.25 1339.998 272.056 L 1339.998 262.752 C 1339.998 262.557 1340.087 262.37 1340.245 262.232 C 1340.403 262.094 1340.617 262.016 1340.841 262.016 L 1372.214 262.016 C 1372.678 262.019 1373.053 262.347 1373.057 262.752 L 1373.057 272.056 Z  M 1373.057 247.902 C 1373.057 248.097 1372.968 248.284 1372.81 248.422 C 1372.652 248.56 1372.437 248.638 1372.214 248.638 L 1340.841 248.638 C 1340.617 248.639 1340.402 248.562 1340.243 248.424 C 1340.085 248.286 1339.996 248.098 1339.998 247.902 L 1339.998 238.576 C 1339.996 238.381 1340.085 238.193 1340.243 238.055 C 1340.402 237.917 1340.617 237.84 1340.841 237.841 L 1372.214 237.841 C 1372.437 237.841 1372.652 237.919 1372.81 238.056 C 1372.968 238.194 1373.057 238.381 1373.057 238.576 L 1373.057 247.902 Z  M 1373.057 223.754 C 1373.053 224.159 1372.678 224.487 1372.214 224.49 L 1340.841 224.49 C 1340.617 224.49 1340.403 224.412 1340.245 224.274 C 1340.087 224.136 1339.998 223.949 1339.998 223.754 L 1339.998 214.423 C 1339.998 214.228 1340.087 214.041 1340.245 213.903 C 1340.403 213.765 1340.617 213.688 1340.841 213.688 L 1372.214 213.688 C 1372.678 213.691 1373.053 214.018 1373.057 214.423 L 1373.057 223.754 Z  M 1373.057 199.601 C 1373.057 199.796 1372.968 199.983 1372.81 200.121 C 1372.652 200.259 1372.437 200.336 1372.214 200.336 L 1340.841 200.336 C 1340.386 200.333 1340.017 200.014 1340.01 199.617 L 1340.01 190.302 C 1340.009 190.107 1340.097 189.919 1340.256 189.781 C 1340.414 189.642 1340.629 189.565 1340.853 189.567 L 1372.226 189.567 C 1372.45 189.567 1372.664 189.644 1372.822 189.782 C 1372.98 189.92 1373.069 190.107 1373.069 190.302 L 1373.057 199.601 Z  M 1373.057 175.453 C 1373.053 175.858 1372.678 176.185 1372.214 176.188 L 1340.841 176.188 C 1340.617 176.188 1340.403 176.111 1340.245 175.973 C 1340.087 175.835 1339.998 175.648 1339.998 175.453 L 1339.998 166.122 C 1339.998 165.927 1340.087 165.741 1340.245 165.604 C 1340.404 165.466 1340.618 165.39 1340.841 165.392 L 1372.214 165.392 C 1372.677 165.392 1373.053 165.718 1373.057 166.122 L 1373.057 175.453 Z  M 1373.057 151.305 C 1373.053 151.709 1372.677 152.035 1372.214 152.035 L 1340.841 152.035 C 1340.618 152.036 1340.404 151.96 1340.245 151.823 C 1340.087 151.686 1339.998 151.499 1339.998 151.305 L 1339.998 141.974 C 1339.998 141.779 1340.087 141.592 1340.245 141.454 C 1340.403 141.316 1340.617 141.238 1340.841 141.238 L 1372.214 141.238 C 1372.678 141.241 1373.053 141.569 1373.057 141.974 L 1373.057 151.305 Z  M 1373.057 127.151 C 1373.057 127.346 1372.968 127.534 1372.81 127.671 C 1372.652 127.809 1372.437 127.887 1372.214 127.887 L 1340.841 127.887 C 1340.386 127.884 1340.017 127.565 1340.01 127.168 L 1340.01 117.853 C 1340.009 117.657 1340.097 117.469 1340.256 117.331 C 1340.414 117.193 1340.629 117.116 1340.853 117.117 L 1372.226 117.117 C 1372.45 117.117 1372.664 117.195 1372.822 117.333 C 1372.98 117.471 1373.069 117.658 1373.069 117.853 L 1373.057 127.151 Z " fill="rgb(242,242,242)"/><path d=" M 1140.672 24.099 L 1130.981 29.459 L 1136.863 20.122 C 1135.198 18.963 1133.137 18.321 1131.006 18.298 L 1130.85 18.298 C 1130.176 18.306 1129.503 18.263 1128.839 18.167 L 1125.554 19.981 L 1126.959 17.747 C 1124.63 17.039 1122.618 15.704 1121.214 13.934 L 1115.338 17.203 L 1119.048 11.314 C 1115.613 7.713 1110.98 5.507 1105.878 5.507 C 1099.764 5.507 1094.319 8.678 1090.804 13.618 C 1088.687 16.639 1084.868 18.429 1080.812 18.303 L 1080.488 18.303 C 1073.737 18.303 1068.267 24.981 1068.267 33.212 C 1068.267 41.443 1073.762 48.127 1080.513 48.127 C 1081.995 48.12 1083.454 47.801 1084.765 47.196 C 1089.415 45.222 1094.824 45.13 1099.558 46.945 C 1103.56 48.506 1108.134 48.506 1112.135 46.945 C 1116.83 45.169 1122.179 45.26 1126.791 47.196 C 1128.09 47.796 1129.536 48.115 1131.006 48.127 C 1137.756 48.127 1143.226 41.449 1143.226 33.212 C 1143.267 30.036 1142.388 26.901 1140.672 24.099 L 1140.672 24.099 Z " fill="rgb(242,242,242)"/><g opacity="0.03"><path d=" M 1122.407 45.915 C 1118.881 45.33 1115.235 45.675 1111.935 46.907 C 1107.935 48.465 1103.365 48.465 1099.365 46.907 C 1094.629 45.098 1089.223 45.189 1084.572 47.157 C 1083.26 47.766 1081.798 48.086 1080.313 48.089 C 1074.318 48.089 1069.329 42.821 1068.292 35.871 C 1069.49 35.107 1070.508 34.149 1071.289 33.049 C 1074.805 28.108 1080.25 24.938 1086.364 24.938 C 1092.477 24.938 1097.854 28.07 1101.351 32.962 C 1103.481 35.967 1107.261 37.778 1111.311 37.734 L 1111.467 37.734 C 1116.263 37.706 1120.396 41.046 1122.407 45.915 Z " fill="rgb(0,0,0)"/></g><path d=" M 1482.236 9.277 L 1477.39 11.951 L 1480.325 7.294 C 1479.494 6.716 1478.466 6.396 1477.403 6.384 L 1477.328 6.384 C 1476.991 6.39 1476.654 6.368 1476.322 6.319 L 1474.686 7.229 L 1475.386 6.139 C 1474.226 5.784 1473.224 5.121 1472.52 4.243 L 1469.591 5.878 L 1471.464 2.942 C 1469.898 1.147 1467.486 0.066 1464.901 0 C 1461.854 0 1459.137 1.585 1457.408 4.047 C 1456.348 5.556 1454.439 6.449 1452.412 6.384 L 1452.25 6.384 C 1448.884 6.384 1446.155 9.713 1446.155 13.82 C 1446.155 17.927 1448.884 21.255 1452.25 21.255 C 1452.99 21.253 1453.719 21.094 1454.373 20.792 C 1456.691 19.81 1459.387 19.764 1461.748 20.667 C 1463.745 21.445 1466.026 21.445 1468.023 20.667 C 1470.367 19.783 1473.034 19.828 1475.336 20.792 C 1475.983 21.088 1476.703 21.243 1477.434 21.245 C 1480.8 21.245 1483.529 17.916 1483.529 13.809 C 1483.538 12.228 1483.094 10.67 1482.236 9.277 L 1482.236 9.277 Z " fill="rgb(242,242,242)"/><g opacity="0.03"><path d=" M 1473.125 20.155 C 1471.365 19.866 1469.546 20.039 1467.899 20.651 C 1466.916 21.032 1465.852 21.229 1464.776 21.228 C 1463.7 21.223 1462.637 21.023 1461.654 20.64 C 1459.291 19.736 1456.593 19.782 1454.273 20.765 C 1453.619 21.068 1452.89 21.227 1452.15 21.228 C 1449.159 21.228 1446.673 18.603 1446.155 15.133 C 1446.753 14.752 1447.262 14.275 1447.654 13.727 C 1449.402 11.265 1452.119 9.68 1455.147 9.68 C 1458.176 9.68 1460.88 11.243 1462.641 13.684 C 1463.708 15.19 1465.606 16.094 1467.636 16.064 L 1467.717 16.064 C 1470.059 16.064 1472.12 17.731 1473.125 20.155 Z " fill="rgb(0,0,0)"/></g><path d=" M 1360.898 58.265 L 1355.216 61.408 L 1358.663 55.96 C 1357.689 55.274 1356.48 54.89 1355.228 54.871 L 1355.135 54.871 C 1354.74 54.876 1354.345 54.85 1353.955 54.795 L 1352.031 55.884 L 1352.856 54.571 C 1351.491 54.157 1350.311 53.377 1349.483 52.343 L 1346.036 54.25 L 1348.216 50.796 C 1346.36 48.704 1343.523 47.452 1340.491 47.386 C 1336.907 47.386 1333.71 49.249 1331.649 52.147 C 1330.403 53.905 1328.172 54.945 1325.804 54.871 L 1325.611 54.871 C 1321.652 54.871 1318.448 58.788 1318.448 63.587 C 1318.448 68.386 1321.652 72.33 1325.611 72.33 C 1326.482 72.328 1327.339 72.141 1328.108 71.785 C 1330.835 70.629 1334.006 70.575 1336.782 71.638 C 1339.129 72.549 1341.81 72.549 1344.157 71.638 C 1346.912 70.597 1350.049 70.651 1352.756 71.785 C 1353.526 72.139 1354.383 72.326 1355.253 72.33 C 1359.212 72.33 1362.422 68.418 1362.422 63.587 C 1362.432 61.729 1361.908 59.9 1360.898 58.265 L 1360.898 58.265 Z " fill="rgb(242,242,242)"/><g opacity="0.03"><path d=" M 1350.189 71.06 C 1348.12 70.719 1345.981 70.922 1344.044 71.643 C 1341.697 72.555 1339.017 72.555 1336.67 71.643 C 1333.893 70.581 1330.723 70.635 1327.996 71.79 C 1327.226 72.146 1326.369 72.333 1325.498 72.335 C 1321.983 72.335 1319.054 69.246 1318.448 65.172 C 1319.148 64.731 1319.744 64.176 1320.203 63.538 C 1322.264 60.64 1325.461 58.782 1329.045 58.782 C 1332.629 58.782 1335.789 60.618 1337.85 63.483 C 1339.097 65.247 1341.313 66.31 1343.689 66.283 L 1343.757 66.283 C 1346.58 66.245 1349.009 68.206 1350.189 71.06 Z " fill="rgb(0,0,0)"/></g><path d=" M 1565.363 310.062 C 1565.363 310.999 1565.363 311.936 1565.295 312.862 C 1565.135 316.466 1564.638 320.053 1563.808 323.587 C 1559.706 341.079 1547.86 354.675 1532.979 358.69 C 1530.019 359.494 1526.937 359.904 1523.837 359.905 C 1500.901 359.905 1482.311 337.571 1482.311 310.062 C 1482.311 282.553 1500.901 260.219 1523.837 260.219 C 1545.35 260.219 1563.047 279.862 1565.151 305.023 C 1565.295 306.679 1565.363 308.362 1565.363 310.062 Z " fill="rgb(54,51,74)"/><g opacity="0.1"><path d=" M 1565.295 312.867 C 1565.135 316.472 1564.638 320.059 1563.808 323.593 C 1559.706 341.084 1547.86 354.681 1532.979 358.695 C 1521.458 354.071 1512.909 336.737 1512.909 316.059 C 1512.909 291.84 1524.649 272.208 1539.136 272.208 C 1551.294 272.208 1561.523 286.055 1564.489 304.843 C 1564.901 307.42 1565.17 310.111 1565.295 312.867 Z " fill="rgb(0,0,0)"/></g><path d=" M 1356.796 199.753 C 1356.796 199.753 1469.197 179.598 1528.521 198.119 C 1528.521 198.119 1537.263 201.932 1528.521 208.469 C 1528.521 208.469 1536.788 216.095 1522.351 218.819 L 1464.995 221.897 L 1356.796 212.282 L 1356.796 199.753 Z " fill="rgb(63,61,86)"/><g opacity="0.1"><path d=" M 1376.466 202.286 C 1376.466 202.286 1472.701 185.029 1523.494 200.886 C 1523.494 200.886 1530.987 204.155 1523.494 209.749 C 1523.494 209.749 1530.569 216.286 1518.211 218.612 L 1469.104 221.243 L 1376.466 213.023 L 1376.466 202.286 Z " fill="rgb(0,0,0)"/></g><path d=" M 1486.058 232.437 L 1478.564 219.364 C 1478.564 219.364 1481.849 206.138 1455.147 202.248 C 1453.667 196.48 1446.961 192.127 1438.911 192.127 C 1431.056 192.127 1424.487 196.267 1422.788 201.823 C 1418.954 202.112 1414.87 202.504 1410.499 203.022 L 1404.392 231.588 L 1403.63 230.258 C 1403.63 230.258 1407.508 214.635 1372.557 212.353 C 1374.462 210.339 1375.512 207.812 1375.529 205.201 C 1375.529 198.277 1368.117 192.672 1358.981 192.672 C 1349.846 192.672 1342.433 198.277 1342.433 205.201 C 1342.457 208.045 1343.695 210.779 1345.905 212.871 Q 1341.003 213.279 1335.564 213.916 L 1328.695 246.056 L 1360.543 249.869 L 1411.123 243.332 L 1406.646 235.515 L 1435.477 238.969 L 1486.058 232.437 Z " fill="rgb(24,144,255)"/><g opacity="0.2"><path d=" M 1486.058 232.437 L 1478.564 219.364 C 1478.564 219.364 1481.849 206.138 1455.147 202.248 C 1453.667 196.48 1446.961 192.127 1438.911 192.127 C 1431.056 192.127 1424.487 196.267 1422.788 201.823 C 1418.954 202.112 1414.87 202.504 1410.499 203.022 L 1404.392 231.588 L 1403.63 230.258 C 1403.63 230.258 1407.508 214.635 1372.557 212.353 C 1374.462 210.339 1375.512 207.812 1375.529 205.201 C 1375.529 198.277 1368.117 192.672 1358.981 192.672 C 1349.846 192.672 1342.433 198.277 1342.433 205.201 C 1342.457 208.045 1343.695 210.779 1345.905 212.871 Q 1341.003 213.279 1335.564 213.916 L 1328.695 246.056 L 1360.543 249.869 L 1411.123 243.332 L 1406.646 235.515 L 1435.477 238.969 L 1486.058 232.437 Z " fill="rgb(0,0,0)"/></g><path d=" M 1378.639 203.501 C 1378.639 203.501 1373.644 179.054 1396.748 178.509 C 1396.748 178.509 1412.36 213.916 1412.36 213.916 C 1412.36 213.916 1429.844 217.185 1431.093 223.177 C 1431.093 223.177 1370.521 230.803 1370.521 230.803 L 1378.639 203.501 Z " fill="rgb(24,144,255)"/><path d=" M 1338.062 332.668 C 1338.062 361.539 1313.459 384.962 1283.11 384.962 C 1252.762 384.962 1228.158 361.539 1228.158 332.668 C 1228.158 303.797 1253.068 275.744 1283.423 275.744 C 1313.777 275.744 1338.062 303.786 1338.062 332.668 Z " fill="rgb(54,51,74)"/><g opacity="0.1"><ellipse vector-effect="non-scaling-stroke" cx="1283.1102879582913" cy="334.84701948203843" rx="43.71174429804137" ry="44.117878924953345" fill="rgb(0,0,0)"/></g><ellipse vector-effect="non-scaling-stroke" cx="1041.4467873391204" cy="327.7600506610276" rx="54.95190711753776" ry="52.294312591622656" fill="rgb(54,51,74)"/><path d=" M 1135.115 203.022 C 1135.115 203.022 1109.512 204.111 1110.761 216.095 C 1110.761 216.095 1132.617 219.364 1132.617 219.364 L 1135.115 203.022 Z " fill="rgb(54,51,74)"/><path d=" M 1348.128 222.986 L 1358.669 161.622 C 1358.669 161.622 1361.167 153.996 1327.446 153.996 C 1327.446 153.996 1219.416 148.004 1191.94 157.809 C 1191.94 157.809 1160.093 168.159 1115.757 221.543 C 1115.757 221.543 1343.757 226.255 1348.128 222.986 Z " fill="rgb(63,61,86)"/><path d=" M 1344.307 158.898 L 1324.949 225.901 L 1312.809 225.645 L 1255.36 224.424 L 1127.228 221.701 C 1126.872 216.406 1187.55 161.622 1187.55 161.622 L 1344.307 158.898 Z " fill="rgb(54,51,74)"/><g opacity="0.2"><path d=" M 1255.378 224.424 L 1260.611 206.775 C 1260.611 206.775 1255.616 182.322 1278.72 181.777 C 1278.72 181.777 1294.332 217.185 1294.332 217.185 C 1294.332 217.185 1310.255 220.165 1312.791 225.645 L 1255.378 224.424 Z " fill="rgb(24,144,255)"/></g><path d=" M 1565.675 306.249 C 1561.929 274.654 1538.512 267.845 1538.512 267.845 C 1516.031 266.755 1501.045 341.384 1501.045 341.384 L 1328.071 355.002 C 1328.071 355.002 1334.003 291.541 1292.165 281.191 C 1292.165 281.191 1239.399 345.197 1237.525 355.547 C 1237.525 355.547 985.246 354.457 978.377 350.1 C 978.377 350.1 974.006 303.797 975.879 300.529 C 975.879 300.529 982.748 282.553 982.748 282.553 C 982.748 279.045 984.671 274.611 986.27 271.533 C 987.394 269.354 988.368 267.845 988.368 267.845 C 993.795 241.001 1021.97 234.502 1023.862 234.072 L 1023.962 234.072 C 1031.456 227.535 1100.77 223.177 1100.77 223.177 L 1126.997 218.819 L 1340.229 222.474 L 1349.302 222.632 L 1457.707 218.084 L 1531.018 215.006 C 1547.879 215.006 1556.621 252.048 1556.621 252.048 C 1572.232 284.732 1565.675 306.249 1565.675 306.249 Z " fill="rgb(63,61,86)"/><g opacity="0.1"><path d=" M 1176.801 268.349 C 1172.654 259.359 1182.651 247.37 1199.11 241.592 C 1215.57 235.815 1232.3 238.422 1236.447 247.411 C 1240.593 256.4 1230.597 268.389 1214.137 274.167 C 1197.677 279.945 1180.948 277.338 1176.801 268.349 Z " fill="rgb(0,0,0)"/></g><path d=" M 1175.553 266.167 C 1171.406 257.178 1181.403 245.189 1197.862 239.411 C 1214.322 233.633 1231.052 236.241 1235.198 245.23 C 1239.345 254.219 1229.349 266.208 1212.889 271.986 C 1196.429 277.764 1179.699 275.157 1175.553 266.167 Z " fill="rgb(242,242,242)"/><g opacity="0.1"><path d=" M 1025.111 235.183 C 1024.793 241.175 1021.714 248.736 1016.175 256.019 C 1007.264 267.741 995.044 274.643 987.519 272.622 C 988.643 270.443 989.617 268.934 989.617 268.934 C 995.044 242.09 1023.219 235.591 1025.111 235.183 Z " fill="rgb(0,0,0)"/></g><path d=" M 1023.238 234.093 C 1022.919 240.085 1019.841 247.646 1014.302 254.929 C 1005.391 266.652 993.17 273.554 985.646 271.533 C 986.77 269.354 987.744 267.845 987.744 267.845 C 993.17 241.001 1021.346 234.502 1023.238 234.093 Z " fill="rgb(242,242,242)"/><path d=" M 1110.761 250.408 L 1061.429 250.408 L 1058.931 244.416 L 1118.879 244.416 L 1110.761 250.408 L 1110.761 250.408 Z " fill="rgb(54,51,74)"/><rect x="1018.342" y="294.531" width="81.179" height="20.7" transform="matrix(1,0,0,1,0,0)" fill="rgb(54,51,74)"/><g opacity="0.1"><ellipse vector-effect="non-scaling-stroke" cx="1186.9444505026008" cy="325.58112096971007" rx="11.24016281949639" ry="9.805183610929248" fill="rgb(0,0,0)"/></g><ellipse vector-effect="non-scaling-stroke" cx="1185.6955435226566" cy="323.9469237012217" rx="11.24016281949639" ry="9.805183610929248" fill="rgb(242,242,242)"/><g opacity="0.1"><ellipse vector-effect="non-scaling-stroke" cx="982.74815928175" cy="317.95486705009847" rx="5.620081409748195" ry="10.349916033758632" fill="rgb(0,0,0)"/></g><ellipse vector-effect="non-scaling-stroke" cx="980.874798811834" cy="317.4101346272691" rx="5.620081409748195" ry="10.349916033758632" fill="rgb(242,242,242)"/><path d=" M 1476.066 273.837 C 1469.197 292.358 1468.573 321.229 1468.573 321.229 L 1466.075 328.855 L 1344.307 340.839 C 1344.307 340.839 1344.931 287.455 1346.805 262.398 C 1348.122 244.721 1343.233 229.757 1340.229 222.474 L 1349.302 222.632 L 1457.707 218.084 C 1475.817 229.158 1482.23 257.206 1476.066 273.837 Z " fill="rgb(54,51,74)"/><path d=" M 1448.303 240.445 C 1447.441 240.495 1446.643 240.86 1446.106 241.45 C 1445.569 242.04 1445.342 242.801 1445.481 243.544 C 1445.601 244.17 1446.069 244.702 1446.73 244.966 C 1448.747 245.843 1462.172 243.877 1467.262 243.092 C 1468.811 242.873 1469.996 241.77 1470.147 240.407 C 1470.209 239.633 1469.884 238.974 1468.585 238.974 L 1448.303 240.445 Z " fill="rgb(242,242,242)"/><path d=" M 1339.936 220.453 C 1339.936 220.453 1343.058 232.437 1358.045 228.624 L 1363.04 211.737 L 1353.049 206.835 L 1339.936 220.453 Z " fill="rgb(54,51,74)"/><path d=" M 1358.288 196.12 C 1365.157 192.568 1376.054 189.463 1386.832 196.921 C 1391.45 200.101 1392.97 205.626 1390.51 210.289 C 1386.982 216.951 1378.608 224.179 1359.056 215.523 C 1357.137 214.674 1355.499 213.41 1354.298 211.852 L 1354.198 211.721 C 1352.286 209.199 1351.642 206.104 1352.415 203.157 C 1353.187 200.209 1355.31 197.666 1358.288 196.12 Z " fill="rgb(54,51,74)"/><ellipse vector-effect="non-scaling-stroke" cx="1283.4225147032776" cy="332.3902762550774" rx="12.489069799440358" ry="10.894648456588072" fill="rgb(242,242,242)"/><ellipse vector-effect="non-scaling-stroke" cx="1541.3218060617219" cy="312.77990903321887" rx="6.8689883896922765" ry="10.894648456588072" fill="rgb(242,242,242)"/><path d="M 1281.991 298.89 L 1284.229 298.89 C 1288.093 298.89 1291.23 302.025 1291.23 305.887 L 1291.23 310.953 C 1291.23 314.815 1288.093 317.95 1284.229 317.95 L 1281.991 317.95 C 1278.127 317.95 1274.99 314.815 1274.99 310.953 L 1274.99 305.887 C 1274.99 302.025 1278.127 298.89 1281.991 298.89 Z" style="stroke:none;fill:#36334A;stroke-miterlimit:10;"/><path d=" M 1541.322 277.917 L 1541.322 277.917 C 1542.481 277.917 1543.593 278.319 1544.413 279.034 C 1545.232 279.749 1545.693 280.719 1545.693 281.73 L 1545.693 290.446 C 1545.693 294.056 1542.338 296.983 1538.2 296.983 L 1538.2 296.983 C 1535.785 296.983 1533.828 295.275 1533.828 293.17 L 1533.828 284.454 C 1533.828 280.844 1537.183 277.917 1541.322 277.917 L 1541.322 277.917 Z " fill="rgb(54,51,74)"/><path d=" M 1541.322 347.648 L 1541.322 347.648 C 1537.183 347.648 1533.828 344.722 1533.828 341.111 L 1533.828 335.119 C 1533.828 331.509 1537.183 328.583 1541.322 328.583 L 1541.322 328.583 C 1545.443 328.583 1545.069 331.524 1545.069 335.119 L 1545.069 341.111 C 1545.062 344.707 1545.456 347.648 1541.322 347.648 Z " fill="rgb(54,51,74)"/><path d=" M 1522.588 302.975 L 1522.588 302.975 C 1526.727 302.975 1530.082 305.901 1530.082 309.512 L 1530.082 317.683 C 1530.082 320.089 1527.845 322.04 1525.086 322.04 L 1525.086 322.04 C 1520.947 322.04 1517.593 319.114 1517.593 315.504 L 1517.593 307.333 C 1517.593 304.926 1519.829 302.975 1522.588 302.975 Z " fill="rgb(54,51,74)"/><path d=" M 1565.363 310.062 C 1565.363 310.999 1565.363 311.936 1565.295 312.862 C 1565.135 316.466 1564.638 320.053 1563.808 323.587 C 1563.396 323.648 1562.978 323.679 1562.559 323.68 C 1558.421 323.68 1555.066 320.753 1555.066 317.143 L 1555.066 311.151 C 1555.066 307.541 1558.421 304.614 1562.559 304.614 C 1563.213 304.613 1563.864 304.688 1564.495 304.838 C 1564.72 304.892 1564.945 304.952 1565.157 305.023 C 1565.295 306.679 1565.363 308.362 1565.363 310.062 Z " fill="rgb(54,51,74)"/><path d="M 1313.526 322.04 L 1315.764 322.04 C 1319.625 322.04 1322.76 325.177 1322.76 329.04 L 1322.76 334.11 C 1322.76 337.973 1319.625 341.11 1315.764 341.11 L 1313.526 341.11 C 1309.665 341.11 1306.53 337.973 1306.53 334.11 L 1306.53 329.04 C 1306.53 325.177 1309.665 322.04 1313.526 322.04 Z" style="stroke:none;fill:#36334A;stroke-miterlimit:10;"/><path d="M 1252.331 322.04 L 1254.569 322.04 C 1258.433 322.04 1261.57 325.177 1261.57 329.04 L 1261.57 334.11 C 1261.57 337.973 1258.433 341.11 1254.569 341.11 L 1252.331 341.11 C 1248.467 341.11 1245.33 337.973 1245.33 334.11 L 1245.33 329.04 C 1245.33 325.177 1248.467 322.04 1252.331 322.04 Z" style="stroke:none;fill:#36334A;stroke-miterlimit:10;"/><path d="M 1282.301 350.37 L 1284.539 350.37 C 1288.403 350.37 1291.54 353.505 1291.54 357.367 L 1291.54 362.433 C 1291.54 366.295 1288.403 369.43 1284.539 369.43 L 1282.301 369.43 C 1278.437 369.43 1275.3 366.295 1275.3 362.433 L 1275.3 357.367 C 1275.3 353.505 1278.437 350.37 1282.301 350.37 Z" style="stroke:none;fill:#36334A;stroke-miterlimit:10;"/><path d=" M 1501.519 112.22 C 1501.515 113.259 1501.304 114.29 1500.895 115.265 C 1499.437 118.816 1495.606 121.204 1491.283 121.257 C 1486.96 121.311 1483.053 119.018 1481.48 115.505 C 1481.01 114.464 1480.768 113.355 1480.769 112.237 C 1480.769 107.243 1485.41 103.194 1491.134 103.194 C 1496.859 103.194 1501.5 107.243 1501.5 112.237 L 1501.519 112.22 Z " fill="rgb(255,101,132)"/><path d=" M 1482.873 114.476 C 1481.539 112.379 1481.214 109.905 1481.971 107.599 C 1482.727 105.294 1484.503 103.345 1486.907 102.181 C 1488.063 101.61 1489.336 101.24 1490.654 101.091 C 1486.76 100.971 1483.118 102.765 1481.225 105.736 C 1479.333 108.707 1479.51 112.352 1481.683 115.173 C 1483.857 117.994 1487.66 119.513 1491.528 119.106 C 1487.914 118.986 1484.634 117.231 1482.873 114.476 Z " fill="rgb(255,101,132)"/><rect x="1478.196" y="124.815" width="27.769" height="37.788" transform="matrix(1,0,0,1,0,0)" fill="rgb(255,101,132)"/><g opacity="0.1"><rect x="1478.82" y="123.725" width="27.769" height="37.788" transform="matrix(1,0,0,1,0,0)" fill="rgb(0,0,0)"/></g><path d=" M 1434.303 261.913 C 1434.303 261.913 1431.343 268.994 1424.312 269.986 C 1417.28 270.977 1413.221 272.557 1413.221 272.557 L 1429.882 281.921 L 1438.768 280.951 C 1438.768 280.951 1439.873 270.939 1443.576 268.678 C 1447.279 266.418 1434.303 261.913 1434.303 261.913 Z " fill="rgb(251,190,190)"/><path d=" M 1554.648 261.913 C 1554.648 261.913 1557.608 268.994 1564.639 269.986 C 1564.639 269.986 1575.742 272.573 1575.742 272.573 L 1559.081 281.937 L 1550.195 280.968 C 1550.195 280.968 1549.09 270.955 1545.387 268.695 C 1541.684 266.434 1554.648 261.913 1554.648 261.913 Z " fill="rgb(251,190,190)"/><path d=" M 1473.569 199.258 C 1473.569 199.258 1469.122 201.197 1467.643 205.07 C 1467.643 205.07 1459.525 207.331 1455.054 213.47 C 1455.054 213.47 1449.502 218.634 1448.759 221.221 C 1448.016 223.809 1439.505 239.328 1439.505 239.328 C 1439.505 239.328 1430.993 263.547 1426.547 266.134 C 1426.547 266.134 1440.616 263.547 1443.208 275.82 C 1443.208 275.82 1446.542 275.82 1450.245 264.517 C 1453.948 253.213 1462.828 239.328 1462.828 239.328 C 1462.828 239.328 1465.794 229.637 1468.386 228.025 C 1470.977 226.413 1475.049 218.982 1478.752 220.916 C 1482.455 222.85 1506.889 220.595 1506.889 220.595 C 1506.889 220.595 1521.327 226.407 1521.695 230.286 C 1522.064 234.164 1524.661 234.48 1525.03 237.71 C 1525.398 240.941 1539.099 266.456 1539.099 266.456 C 1539.099 266.456 1541.69 273.537 1542.427 275.172 C 1542.427 275.172 1550.576 258.056 1561.311 267.741 C 1561.311 267.741 1560.942 261.281 1557.608 257.392 C 1554.273 253.502 1539.836 223.155 1539.836 223.155 C 1539.836 223.155 1538.356 218.634 1536.876 217.343 C 1535.396 216.052 1523.918 205.718 1519.853 205.718 C 1519.853 205.718 1517.63 200.87 1515.039 200.227 L 1473.569 199.258 Z " fill="rgb(105,104,128)"/><path d=" M 1440.248 278.707 C 1434.363 280.767 1427.67 279.982 1422.619 276.637 C 1420.207 275.022 1417.564 273.687 1414.758 272.666 C 1410.836 271.282 1406.134 270.253 1404.704 272.573 C 1402.112 276.768 1436.176 287.107 1436.176 287.107 C 1436.176 287.107 1440.616 284.841 1440.248 278.707 Z " fill="rgb(105,104,128)"/><path d=" M 1548.722 278.707 C 1554.606 280.767 1561.299 279.982 1566.35 276.637 C 1568.762 275.022 1571.405 273.687 1574.212 272.666 C 1578.133 271.282 1582.835 270.253 1584.265 272.573 C 1586.857 276.768 1552.793 287.107 1552.793 287.107 C 1552.793 287.107 1548.353 284.841 1548.722 278.707 Z " fill="rgb(105,104,128)"/><path d=" M 1485.671 146.135 C 1485.527 147.258 1485.108 148.472 1484.009 149.071 C 1483.11 149.562 1481.974 149.518 1480.937 149.709 C 1478.728 150.187 1476.912 151.554 1476.048 153.391 C 1475.219 155.22 1475.057 157.227 1475.586 159.138 C 1475.828 160.076 1476.143 160.999 1476.529 161.9 C 1477.621 164.58 1478.933 167.233 1480.956 169.466 C 1482.688 171.236 1484.635 172.836 1486.763 174.238 C 1488.081 175.175 1489.442 176.134 1491.066 176.575 C 1492.168 176.829 1493.304 176.959 1494.444 176.962 C 1495.849 177.022 1497.342 177.06 1498.559 176.45 C 1500.433 175.507 1500.995 173.421 1502.006 171.754 C 1502.874 170.332 1504.161 169.134 1504.966 167.685 C 1505.537 166.548 1505.956 165.359 1506.215 164.139 L 1507.945 157.433 C 1508.569 155.004 1509.144 152.258 1507.57 150.172 C 1507.46 150 1507.301 149.855 1507.108 149.752 C 1506.809 149.647 1506.483 149.617 1506.165 149.665 C 1504.174 149.782 1502.187 149.386 1500.451 148.527 C 1500.176 148.408 1499.932 148.241 1499.733 148.036 C 1499.478 147.691 1499.326 147.296 1499.29 146.887 C 1499.121 146.055 1498.853 145.241 1498.491 144.458 C 1498.387 144.178 1498.2 143.928 1497.947 143.733 C 1497.684 143.588 1497.384 143.5 1497.073 143.477 C 1494.4 143.097 1491.704 142.85 1488.999 142.736 C 1488.106 142.704 1486.77 142.393 1486.164 143.074 C 1485.558 143.755 1485.77 145.318 1485.671 146.135 Z " fill="rgb(251,190,190)"/><g opacity="0.1"><path d=" M 1485.671 146.135 C 1485.527 147.258 1485.108 148.472 1484.009 149.071 C 1483.11 149.562 1481.974 149.518 1480.937 149.709 C 1478.728 150.187 1476.912 151.554 1476.048 153.391 C 1475.219 155.22 1475.057 157.227 1475.586 159.138 C 1475.828 160.076 1476.143 160.999 1476.529 161.9 C 1477.621 164.58 1478.933 167.233 1480.956 169.466 C 1482.688 171.236 1484.635 172.836 1486.763 174.238 C 1488.081 175.175 1489.442 176.134 1491.066 176.575 C 1492.168 176.829 1493.304 176.959 1494.444 176.962 C 1495.849 177.022 1497.342 177.06 1498.559 176.45 C 1500.433 175.507 1500.995 173.421 1502.006 171.754 C 1502.874 170.332 1504.161 169.134 1504.966 167.685 C 1505.537 166.548 1505.956 165.359 1506.215 164.139 L 1507.945 157.433 C 1508.569 155.004 1509.144 152.258 1507.57 150.172 C 1507.46 150 1507.301 149.855 1507.108 149.752 C 1506.809 149.647 1506.483 149.617 1506.165 149.665 C 1504.174 149.782 1502.187 149.386 1500.451 148.527 C 1500.176 148.408 1499.932 148.241 1499.733 148.036 C 1499.478 147.691 1499.326 147.296 1499.29 146.887 C 1499.121 146.055 1498.853 145.241 1498.491 144.458 C 1498.387 144.178 1498.2 143.928 1497.947 143.733 C 1497.684 143.588 1497.384 143.5 1497.073 143.477 C 1494.4 143.097 1491.704 142.85 1488.999 142.736 C 1488.106 142.704 1486.77 142.393 1486.164 143.074 C 1485.558 143.755 1485.77 145.318 1485.671 146.135 Z " fill="rgb(0,0,0)"/></g><path d=" M 1480.656 149.992 C 1479.208 149.616 1477.708 149.409 1476.198 149.377 C 1472.626 149.3 1468.81 150.379 1466.743 152.923 C 1465.345 154.757 1464.831 156.998 1465.313 159.16 C 1465.813 161.306 1466.931 163.306 1468.56 164.972 C 1469.503 165.846 1470.34 166.803 1471.058 167.827 C 1472.045 169.461 1472.07 171.411 1472.307 173.274 C 1472.932 177.692 1475.092 181.853 1475.954 186.244 C 1476.816 190.635 1476.066 195.733 1472.089 198.533 C 1471.42 199.002 1470.615 199.492 1470.559 200.238 C 1470.465 201.431 1472.245 201.943 1473.612 202.052 C 1477.702 202.395 1481.899 202.728 1485.87 201.807 C 1487.519 201.426 1489.099 200.832 1490.772 200.56 C 1495.025 199.868 1499.296 201.284 1503.542 201.97 C 1506.62 202.411 1509.734 202.631 1512.853 202.63 C 1513.581 202.686 1514.314 202.602 1515.001 202.384 C 1515.697 202.146 1516.137 201.543 1516.088 200.892 C 1515.952 200.48 1515.698 200.105 1515.351 199.802 C 1513.203 197.482 1512.547 194.41 1511.96 191.473 L 1510.024 181.587 C 1508.969 176.314 1507.988 170.588 1510.848 165.849 C 1512.909 162.445 1516.693 160.048 1518.866 156.698 C 1519.635 155.684 1519.983 154.471 1519.853 153.26 C 1519.528 151.577 1517.786 150.373 1516 149.665 C 1512.568 148.327 1508.675 148.204 1505.141 149.322 C 1505.203 151.681 1504.517 154.067 1504.067 156.404 L 1503.311 160.217 C 1502.928 162.464 1502.365 164.684 1501.625 166.862 C 1501.35 167.732 1500.891 168.549 1500.27 169.27 C 1499.603 169.917 1498.789 170.435 1497.879 170.79 C 1495.906 171.631 1493.736 172.062 1491.54 172.048 C 1490.59 172.065 1489.644 171.94 1488.743 171.678 C 1487.257 171.209 1486.051 170.245 1484.89 169.308 C 1484.508 169.025 1484.166 168.703 1483.872 168.35 C 1483.566 167.895 1483.333 167.405 1483.179 166.895 C 1482.673 165.563 1482.277 164.202 1481.992 162.821 C 1481.799 161.764 1481.743 160.691 1481.655 159.623 C 1481.381 156.529 1481.387 153.026 1480.656 149.992 Z " fill="rgb(242,242,242)"/><path d=" M 1476.897 212.5 C 1476.897 212.5 1475.417 229.616 1484.671 232.524 C 1484.671 232.524 1485.783 218.312 1485.783 218.312 L 1482.823 213.143 L 1476.897 212.5 Z " fill="rgb(251,190,190)"/><path d=" M 1508.369 212.5 C 1508.369 212.5 1509.849 229.616 1500.595 232.524 C 1500.595 232.524 1499.483 218.312 1499.483 218.312 L 1502.443 213.143 L 1508.369 212.5 Z " fill="rgb(251,190,190)"/><g opacity="0.1"><path d=" M 1468.754 155.336 L 1465.794 159.536 C 1465.794 159.536 1468.386 174.069 1468.754 176.651 C 1469.071 178.511 1469.566 180.344 1470.234 182.131 C 1470.234 182.131 1470.602 189.883 1470.602 192.786 C 1470.602 192.786 1472.476 200.538 1472.476 200.538 C 1472.735 203.284 1473.364 205.993 1474.349 208.611 C 1475.829 212.168 1477.315 216.362 1477.315 216.362 C 1477.315 216.362 1479.189 211.841 1486.57 218.623 C 1488.287 217.099 1488.287 214.656 1486.57 213.132 C 1486.57 213.132 1484.347 204.416 1484.347 199.895 C 1484.347 199.895 1480.275 173.748 1480.275 173.748 C 1480.275 173.748 1477.64 149.197 1468.754 155.336 Z " fill="rgb(0,0,0)"/></g><path d=" M 1468.023 155.015 L 1465.064 159.209 C 1465.064 159.209 1467.655 173.742 1468.023 176.33 C 1468.343 178.191 1468.841 180.026 1469.51 181.815 C 1469.51 181.815 1469.897 189.567 1469.897 192.481 C 1469.897 195.396 1471.77 200.233 1471.77 200.233 C 1472.031 202.978 1472.66 205.688 1473.644 208.306 C 1475.123 211.857 1476.603 216.057 1476.603 216.057 C 1476.603 216.057 1478.477 211.536 1485.858 218.318 C 1487.578 216.795 1487.578 214.35 1485.858 212.827 C 1485.858 212.827 1483.635 204.111 1483.635 199.585 C 1483.635 199.585 1479.563 173.437 1479.563 173.437 C 1479.563 173.437 1476.897 148.903 1468.023 155.015 Z " fill="rgb(242,242,242)"/><g opacity="0.1"><path d=" M 1516.881 152.748 L 1518.754 154.671 C 1518.754 154.671 1520.94 165.669 1516.125 179.555 L 1514.645 192.154 C 1514.645 192.154 1512.054 202.809 1511.679 205.397 C 1511.679 205.397 1511.311 208.3 1510.574 209.27 C 1510.105 209.738 1510.105 210.436 1510.574 210.904 L 1508.351 218.013 C 1508.351 218.013 1505.016 214.461 1498.359 218.982 C 1498.359 218.982 1496.486 216.395 1497.991 214.134 C 1499.496 211.874 1499.471 210.904 1499.103 210.261 C 1498.734 209.618 1500.582 206.383 1500.582 205.74 C 1500.582 205.097 1503.174 190.237 1503.174 190.237 C 1503.174 190.237 1504.285 175.703 1505.397 170.861 C 1506.078 167.881 1506.059 161.235 1505.947 156.562 C 1505.828 151.697 1512.578 149.055 1516.562 152.482 C 1516.668 152.552 1516.775 152.65 1516.881 152.748 Z " fill="rgb(0,0,0)"/></g><path d=" M 1517.98 152.106 L 1519.853 154.029 C 1519.853 154.029 1522.032 165.021 1517.224 178.912 L 1515.744 191.506 C 1515.744 191.506 1513.153 202.167 1512.778 204.749 C 1512.778 204.749 1512.41 207.657 1511.667 208.622 C 1511.206 209.092 1511.206 209.785 1511.667 210.256 L 1509.45 217.337 C 1509.45 217.337 1506.115 213.786 1499.458 218.307 C 1499.458 218.307 1497.585 215.725 1499.09 213.464 C 1500.595 211.204 1500.57 210.234 1500.195 209.586 C 1499.821 208.938 1501.682 205.713 1501.682 205.065 C 1501.682 204.416 1504.273 189.561 1504.273 189.561 C 1504.273 189.561 1505.385 175.028 1506.49 170.185 C 1507.595 165.343 1506.864 150.809 1506.864 150.809 C 1506.864 150.809 1512.809 147.268 1517.98 152.106 Z " fill="rgb(242,242,242)"/><ellipse vector-effect="non-scaling-stroke" cx="1493.1889310546776" cy="134.6633014164609" rx="14.812036782136374" ry="12.921053069513427" fill="rgb(251,190,190)"/><g opacity="0.1"><path d=" M 1500.913 115.265 C 1499.455 118.816 1495.624 121.204 1491.302 121.257 C 1486.979 121.311 1483.072 119.018 1481.499 115.505 C 1487.275 113.479 1493.189 115.287 1493.189 115.287 C 1496.124 114.377 1498.697 114.465 1500.913 115.265 Z " fill="rgb(0,0,0)"/></g><path d=" M 1493.189 115.935 C 1493.189 115.935 1464.683 107.22 1471.714 149.524 C 1471.714 149.524 1478.008 153.075 1482.823 150.815 C 1482.823 150.815 1479.488 121.399 1492.446 122.717 C 1505.403 124.036 1503.186 150.166 1503.186 150.166 C 1503.186 150.166 1510.592 152.106 1512.809 148.532 C 1515.026 144.959 1512.072 110.118 1493.189 115.935 Z " fill="rgb(255,101,132)"/><g opacity="0.1"><path d=" M 1492.446 120.778 C 1483.554 119.89 1482.336 133.449 1482.455 142.05 C 1482.567 133.503 1484.216 121.895 1492.446 122.717 C 1501.7 123.638 1503.211 137.234 1503.324 144.937 C 1503.424 137.872 1502.537 121.786 1492.446 120.778 Z " fill="rgb(0,0,0)"/></g><g opacity="0.1"><path d=" M 1471.714 147.584 C 1471.071 143.872 1470.702 140.127 1470.609 136.374 C 1470.578 140.768 1470.947 145.158 1471.714 149.502 C 1471.714 149.502 1478.008 153.053 1482.823 150.793 C 1482.823 150.793 1482.742 150.096 1482.654 148.924 C 1477.865 151.082 1471.714 147.584 1471.714 147.584 Z " fill="rgb(0,0,0)"/></g><g opacity="0.1"><path d=" M 1512.809 146.615 C 1510.742 149.921 1504.179 148.472 1503.286 148.249 C 1503.243 149.447 1503.186 150.161 1503.186 150.161 C 1503.186 150.161 1510.592 152.1 1512.809 148.527 C 1513.271 147.791 1513.509 145.727 1513.434 142.965 C 1513.371 144.768 1513.153 146.065 1512.809 146.615 Z " fill="rgb(0,0,0)"/></g><mask id="_mask_Q8ROu5ocUXekXk0U3biqFttwTj5QVdWc" x="-200%" y="-200%" width="400%" height="400%"><rect x="-200%" y="-200%" width="400%" height="400%" style="fill:white;"/><path d=" M 1588.724 355.65 C 1590.435 352.889 1588.493 349.5 1586.264 347.038 C 1584.034 344.576 1581.312 342.01 1581.368 338.867 C 1581.455 334.357 1586.944 331.693 1591.359 329.302 C 1594.615 327.525 1597.619 325.419 1600.308 323.026 C 1601.431 322.105 1602.361 321.019 1603.055 319.818 C 1603.961 318.053 1603.936 316.043 1603.88 314.109 Q 1603.599 304.451 1602.787 294.809" fill="black" stroke="none"/></mask><path d=" M 1588.724 355.65 C 1590.435 352.889 1588.493 349.5 1586.264 347.038 C 1584.034 344.576 1581.312 342.01 1581.368 338.867 C 1581.455 334.357 1586.944 331.693 1591.359 329.302 C 1594.615 327.525 1597.619 325.419 1600.308 323.026 C 1601.431 322.105 1602.361 321.019 1603.055 319.818 C 1603.961 318.053 1603.936 316.043 1603.88 314.109 Q 1603.599 304.451 1602.787 294.809" fill="none"/><path d=" M 1588.724 355.65 C 1590.435 352.889 1588.493 349.5 1586.264 347.038 C 1584.034 344.576 1581.312 342.01 1581.368 338.867 C 1581.455 334.357 1586.944 331.693 1591.359 329.302 C 1594.615 327.525 1597.619 325.419 1600.308 323.026 C 1601.431 322.105 1602.361 321.019 1603.055 319.818 C 1603.961 318.053 1603.936 316.043 1603.88 314.109 Q 1603.599 304.451 1602.787 294.809" fill="none" mask="url(#_mask_Q8ROu5ocUXekXk0U3biqFttwTj5QVdWc)" vector-effect="non-scaling-stroke" stroke-width="8" stroke="rgb(63,61,86)" stroke-linejoin="miter" stroke-linecap="butt" stroke-miterlimit="10"/><path d=" M 1611.092 294.461 C 1610.966 292.064 1609.448 289.889 1607.064 288.692 L 1605.26 291.808 L 1605.316 288.033 C 1604.453 287.813 1603.554 287.719 1602.656 287.755 C 1598.205 287.937 1594.766 291.23 1594.973 295.113 C 1595.181 298.995 1598.956 301.996 1603.406 301.816 C 1607.857 301.636 1611.297 298.343 1611.092 294.461 L 1611.092 294.461 Z " fill="rgb(24,144,255)"/><path d=" M 1596.705 342.097 C 1595.032 344.929 1591.388 346.427 1587.82 345.751 C 1584.251 345.075 1581.649 342.392 1581.474 339.21 C 1581.417 338.235 1581.595 337.261 1581.999 336.35 C 1583.206 333.62 1586.224 331.825 1589.579 331.842 C 1592.933 331.859 1595.927 333.684 1597.098 336.427 L 1592.059 340.006 L 1597.598 338.883 C 1597.6 340.002 1597.294 341.104 1596.705 342.097 L 1596.705 342.097 Z " fill="rgb(24,144,255)"/><path d=" M 1592.721 328.43 C 1590.582 328.517 1588.492 327.86 1586.91 326.602 C 1585.327 325.344 1584.383 323.59 1584.284 321.724 C 1584.223 320.623 1584.462 319.526 1584.984 318.521 C 1585.966 316.62 1587.86 315.193 1590.16 314.621 L 1590.123 317.525 L 1591.946 314.365 L 1591.946 314.365 C 1596.397 314.186 1600.171 317.188 1600.376 321.071 C 1600.425 321.883 1600.309 322.696 1600.033 323.473 C 1599.034 326.303 1596.111 328.284 1592.721 328.43 Z " fill="rgb(24,144,255)"/><path d=" M 1612.31 317.062 C 1610.171 317.149 1608.081 316.491 1606.499 315.234 C 1604.917 313.976 1603.972 312.221 1603.873 310.356 C 1603.805 309.207 1604.067 308.061 1604.635 307.022 C 1605.589 305.256 1607.342 303.916 1609.474 303.322 C 1611.606 302.728 1613.924 302.934 1615.875 303.89 L 1614.452 307.294 L 1617.38 304.838 C 1618.952 306.093 1619.891 307.84 1619.99 309.697 C 1620.027 310.348 1619.958 311.001 1619.784 311.636 C 1618.962 314.698 1615.911 316.913 1612.31 317.062 Z " fill="rgb(24,144,255)"/><g opacity="0.1"><path d=" M 1610.012 296.334 C 1608.138 296.514 1606.334 297.015 1604.467 297.119 C 1602.599 297.222 1600.545 296.83 1599.365 295.561 C 1598.815 294.825 1598.317 294.061 1597.872 293.273 C 1597.362 292.58 1596.665 292.006 1595.843 291.601 C 1595.206 292.685 1594.906 293.897 1594.975 295.114 C 1595.156 298.65 1598.32 301.519 1602.364 301.813 C 1606.408 302.107 1610.073 299.736 1610.923 296.275 C 1610.617 296.285 1610.311 296.307 1610.012 296.334 Z " fill="rgb(0,0,0)"/></g><g opacity="0.1"><path d=" M 1612.31 317.062 C 1610.171 317.149 1608.081 316.491 1606.499 315.234 C 1604.917 313.976 1603.972 312.221 1603.873 310.356 C 1603.805 309.207 1604.067 308.061 1604.635 307.022 C 1605.276 307.399 1605.827 307.879 1606.259 308.438 C 1606.833 309.196 1607.177 310.073 1607.857 310.764 C 1609.106 312.05 1611.261 312.475 1613.209 312.399 C 1615.157 312.322 1617.031 311.854 1618.973 311.685 C 1619.241 311.685 1619.516 311.647 1619.784 311.641 C 1618.96 314.702 1615.909 316.914 1612.31 317.062 Z " fill="rgb(0,0,0)"/></g><g opacity="0.1"><path d=" M 1592.721 328.43 C 1590.582 328.517 1588.492 327.86 1586.91 326.602 C 1585.327 325.344 1584.383 323.59 1584.284 321.724 C 1584.223 320.623 1584.462 319.526 1584.984 318.521 C 1585.638 318.906 1586.209 319.389 1586.67 319.949 C 1587.294 320.722 1587.687 321.583 1588.418 322.324 C 1589.779 323.647 1592.071 324.11 1594.132 324.072 C 1596.193 324.034 1598.053 323.604 1600.039 323.473 C 1599.039 326.304 1596.113 328.286 1592.721 328.43 L 1592.721 328.43 Z " fill="rgb(0,0,0)"/></g><g opacity="0.1"><path d=" M 1596.705 342.097 C 1595.032 344.929 1591.388 346.427 1587.82 345.751 C 1584.251 345.075 1581.649 342.392 1581.474 339.21 C 1581.417 338.235 1581.595 337.261 1581.999 336.35 C 1582.662 336.732 1583.257 337.196 1583.766 337.729 C 1584.534 338.546 1585.015 339.472 1585.927 340.229 C 1587.575 341.645 1590.241 342.228 1592.608 342.283 C 1593.977 342.29 1595.344 342.228 1596.705 342.097 Z " fill="rgb(0,0,0)"/></g><path d=" M 1576.56 352.469 C 1576.56 352.469 1582.923 352.3 1584.846 351.107 C 1584.846 351.107 1594.638 348.493 1595.118 350.405 C 1595.118 350.405 1604.685 359.916 1597.498 359.965 C 1597.498 359.965 1580.793 358.99 1578.876 357.971 C 1576.959 356.952 1576.56 352.469 1576.56 352.469 Z " fill="rgb(101,99,128)"/><g opacity="0.2"><path d=" M 1597.623 359.3 C 1590.435 359.349 1580.918 358.32 1579.001 357.306 C 1577.546 356.527 1576.966 353.749 1576.772 352.464 L 1576.56 352.464 C 1576.56 352.464 1576.959 356.947 1578.876 357.965 C 1578.876 357.965 1590.31 360.008 1597.498 359.959 C 1599.571 359.959 1600.289 359.3 1600.251 358.325 C 1599.964 358.93 1599.159 359.289 1597.623 359.3 Z " fill="rgb(0,0,0)"/></g></g><g clip-path="url(#_clipPath_KVtZrsca8iu24pOP9AAaSJmRy7qu06Er)"><text transform="matrix(1,0,0,1,331.078,179.941)" style="font-family:'Segoe UI';font-weight:400;font-size:48px;font-style:normal;fill:#1890ff;stroke:none;">Welcome to</text><text transform="matrix(1,0,0,1,135.973,259.746)" style="font-family:'Segoe UI';font-weight:700;font-size:60px;font-style:normal;fill:#1890ff;stroke:none;">Vehicle Cost Calculator</text></g><defs><clipPath id="_clipPath_KVtZrsca8iu24pOP9AAaSJmRy7qu06Er"><rect x="0" y="0" width="920" height="390" transform="matrix(1,0,0,1,0,0)"/></clipPath></defs></g></svg>