<?xml version="1.0" encoding="UTF-8" standalone="no"?><!-- Generator: Gravit.io --><svg xmlns="http://www.w3.org/2000/svg" xmlns:xlink="http://www.w3.org/1999/xlink" style="isolation:isolate" viewBox="0 0 230 190" width="230pt" height="190pt"><defs><clipPath id="_clipPath_G0rDl41N2UWDFlKAKpCWeN64IYwLvKDM"><rect width="230" height="190"/></clipPath></defs><g clip-path="url(#_clipPath_G0rDl41N2UWDFlKAKpCWeN64IYwLvKDM)"><g><path d=" M 220.886 0.001 L 151.846 0.001 C 144.984 0.001 139.038 4.866 137.528 11.715 L 102.644 170.033 C 101.874 173.528 102.653 177.193 104.772 180.046 C 106.891 182.899 110.134 184.648 113.632 184.824 L 184.606 188.402 C 192.468 188.798 199.397 183.166 200.798 175.241 L 220.587 63.309 L 222.06 63.74 L 225.847 42.524 L 224.332 42.137 L 229.855 10.892 C 230.335 8.183 229.609 5.395 227.875 3.289 C 226.141 1.183 223.58 -0.022 220.889 0 L 220.886 0.001 Z " fill="rgb(63,61,86)"/><path d=" M 160.934 3.414 L 152.876 3.414 C 148.108 3.414 143.983 6.813 142.966 11.579 L 109.481 168.606 C 109.091 170.435 109.5 172.348 110.601 173.844 C 111.701 175.34 113.385 176.27 115.211 176.392 L 185.955 181.137 C 190.087 181.414 193.763 178.473 194.497 174.303 L 223.07 12.001 C 223.444 9.875 222.878 7.688 221.524 6.03 C 220.169 4.372 218.166 3.414 216.054 3.414 L 208.409 3.414 C 206.888 3.414 205.556 4.458 205.16 5.961 L 205.16 5.961 C 204.811 7.289 203.635 8.211 202.291 8.211 L 165.998 8.211 C 163.344 8.21 161.138 6.121 160.934 3.414 Z " fill="rgb(255,255,255)"/><path d=" M 200.041 113.189 C 200.326 113.199 200.574 112.994 200.625 112.708 L 216.27 24.365 C 216.3 24.195 216.256 24.02 216.15 23.886 C 216.045 23.752 215.887 23.674 215.72 23.672 L 144.544 22.811 L 144.537 22.811 C 144.271 22.814 144.042 23.004 143.985 23.27 L 125.542 108.746 C 125.505 108.914 125.543 109.091 125.644 109.229 C 125.744 109.367 125.899 109.451 126.067 109.46 L 200.041 113.189 Z " fill="rgb(230,230,230)"/><path d=" M 138.275 118.901 C 138.142 118.901 138.026 118.995 137.996 119.127 L 137.329 122.05 C 137.31 122.134 137.328 122.222 137.377 122.291 C 137.427 122.36 137.504 122.404 137.587 122.41 L 175.241 125.148 C 175.386 125.158 175.515 125.056 175.544 124.911 L 176.185 121.53 C 176.2 121.446 176.18 121.361 176.13 121.294 C 176.079 121.227 176.003 121.186 175.92 121.181 L 138.292 118.901 L 138.275 118.901 Z " fill="rgb(230,230,230)"/><path d=" M 184.022 136.005 C 184.163 136.017 184.29 135.922 184.324 135.782 L 185.14 132.394 C 185.16 132.31 185.143 132.221 185.093 132.151 C 185.044 132.081 184.966 132.037 184.882 132.031 L 136.795 128.589 C 136.661 128.579 136.537 128.666 136.5 128.799 L 135.652 131.727 C 135.628 131.812 135.642 131.904 135.691 131.977 C 135.739 132.049 135.818 132.096 135.904 132.103 L 184.022 136.005 Z " fill="rgb(230,230,230)"/><path d=" M 181.44 146.867 C 181.58 146.879 181.708 146.785 181.742 146.645 L 182.558 143.256 C 182.578 143.172 182.561 143.083 182.511 143.013 C 182.461 142.943 182.384 142.899 182.299 142.893 L 134.213 139.452 C 134.078 139.441 133.955 139.529 133.917 139.661 L 133.07 142.59 C 133.045 142.674 133.059 142.766 133.108 142.839 C 133.157 142.912 133.235 142.958 133.322 142.965 L 181.44 146.867 Z " fill="rgb(230,230,230)"/><path d=" M 98.067 185.108 C 98.067 187.565 76.087 187.827 49.034 189.557 C 22.005 191.285 0 187.565 0 185.108 C 0 182.652 22.107 177.708 49.034 180.66 C 76.087 183.626 98.067 182.652 98.067 185.108 Z " fill="rgb(230,230,230)"/><path d=" M 159.293 165.437 C 159.435 165.452 159.565 165.357 159.598 165.216 L 161.324 158.155 C 161.344 158.071 161.328 157.983 161.279 157.913 C 161.23 157.842 161.153 157.798 161.07 157.791 L 131.54 155.249 C 131.397 155.239 131.269 155.336 131.236 155.478 L 129.764 162.255 C 129.746 162.337 129.763 162.423 129.812 162.491 C 129.86 162.56 129.935 162.603 130.017 162.611 L 159.293 165.437 Z " fill="rgb(24,144,255)"/><path d=" M 40.058 136.664 C 40.811 136.136 41.297 135.295 41.384 134.365 C 41.472 133.436 41.152 132.515 40.512 131.849 L 41.708 104.541 L 35.621 105.24 L 35.974 131.952 C 34.929 133.152 34.928 134.962 35.97 136.164 C 37.012 137.367 38.769 137.581 40.059 136.663 L 40.058 136.664 Z " fill="rgb(160,97,106)"/><path d=" M 51.163 182.891 L 54.628 183.514 L 58.052 170.137 L 53.513 169.218 L 51.163 182.891 Z " fill="rgb(160,97,106)"/><path d=" M 60.745 188.007 L 49.857 186.049 L 50.596 181.744 L 57.278 182.946 C 59.601 183.364 61.154 185.63 60.745 188.008 L 60.745 188.007 Z " fill="rgb(47,46,65)"/><path d=" M 41.654 184.665 L 45.172 184.665 L 46.845 170.782 L 41.653 170.782 L 41.654 184.665 Z " fill="rgb(160,97,106)"/><path d=" M 51.955 188.008 L 40.899 188.008 L 40.899 183.638 L 47.683 183.637 C 50.042 183.637 51.955 185.594 51.955 188.008 L 51.955 188.008 L 51.955 188.008 Z " fill="rgb(47,46,65)"/><path d=" M 56.33 179.689 C 56.275 179.689 56.221 179.686 56.166 179.679 L 52.026 179.331 C 51.645 179.285 51.299 179.081 51.069 178.767 C 50.839 178.453 50.744 178.056 50.808 177.669 L 54.919 156.919 L 52.336 142.981 C 52.293 142.747 52.087 142.582 51.854 142.593 C 51.622 142.605 51.433 142.791 51.412 143.028 L 47.607 178.442 C 47.534 179.217 46.873 179.793 46.113 179.745 L 42.212 179.596 C 41.504 179.545 40.946 178.961 40.91 178.236 L 41.222 135.442 L 61.445 132.855 L 62.858 155.18 L 62.852 155.203 L 57.69 178.594 C 57.537 179.236 56.976 179.688 56.33 179.689 L 56.33 179.689 Z " fill="rgb(47,46,65)"/><ellipse vector-effect="non-scaling-stroke" cx="47.890961739134326" cy="79.63574528029349" rx="7.047337207396211" ry="7.210600145022553" fill="rgb(160,97,106)"/><path d=" M 54.531 138.699 C 53.429 138.705 52.348 138.389 51.416 137.787 C 48.001 135.604 44.125 136.471 42.117 137.183 C 41.714 137.327 41.268 137.275 40.906 137.042 C 40.549 136.812 40.314 136.428 40.268 135.999 L 36.618 102.641 C 36.006 97.052 39.297 91.797 44.442 90.146 L 44.442 90.146 Q 44.732 90.053 45.032 89.97 C 48.273 89.071 51.737 89.686 54.492 91.65 C 57.299 93.636 59.103 96.791 59.418 100.268 L 62.491 133.849 C 62.534 134.29 62.372 134.726 62.053 135.026 C 60.976 136.045 57.849 138.698 54.531 138.699 Z " fill="rgb(24,144,255)"/><path d=" M 43.415 109.794 L 35.18 108.868 C 34.706 108.814 34.278 108.552 34.008 108.15 C 33.737 107.748 33.652 107.245 33.773 106.773 L 35.869 98.598 C 36.037 96.931 37.067 95.484 38.567 94.809 C 40.066 94.134 41.805 94.335 43.119 95.335 C 44.434 96.335 45.123 97.981 44.924 99.644 L 45.235 108.063 C 45.253 108.551 45.062 109.022 44.713 109.355 C 44.364 109.688 43.891 109.848 43.416 109.795 L 43.415 109.794 Z " fill="rgb(24,144,255)"/><path d=" M 62.458 135.495 C 63.143 134.878 63.525 133.983 63.503 133.05 C 63.48 132.117 63.055 131.242 62.341 130.66 L 60.312 103.404 L 54.347 104.778 L 57.848 131.321 C 56.952 132.642 57.163 134.439 58.339 135.504 C 59.516 136.569 61.285 136.565 62.457 135.495 L 62.458 135.495 Z " fill="rgb(160,97,106)"/><path d=" M 52.06 108.081 C 51.711 107.749 51.521 107.277 51.539 106.789 L 51.85 98.371 C 51.568 95.813 53.366 93.505 55.866 93.216 C 58.366 92.927 60.622 94.767 60.904 97.325 L 63.001 105.5 C 63.122 105.972 63.036 106.475 62.766 106.877 C 62.496 107.279 62.068 107.541 61.593 107.594 L 53.358 108.521 C 52.884 108.574 52.411 108.413 52.062 108.08 L 52.06 108.081 Z " fill="rgb(24,144,255)"/><path d=" M 47.472 87.118 C 47.346 87.118 47.221 87.103 47.099 87.074 L 47.063 87.065 C 40.867 86.096 39.497 82.423 39.197 80.889 C 38.886 79.302 39.24 77.769 40.041 77.174 C 39.604 75.765 39.674 74.514 40.249 73.456 C 41.253 71.613 43.429 70.99 43.721 70.913 C 45.459 69.601 47.539 70.477 47.917 70.654 C 51.28 69.382 52.566 70.441 52.797 70.677 C 54.3 70.954 55.217 71.548 55.521 72.444 C 56.092 74.126 54.286 76.219 54.208 76.307 L 54.168 76.353 L 51.477 76.484 C 50.96 76.51 50.479 76.758 50.151 77.168 C 49.824 77.577 49.682 78.11 49.761 78.633 L 49.761 78.633 C 49.833 78.966 49.925 79.295 50.036 79.618 C 50.495 81.087 50.839 82.343 50.396 82.82 C 50.191 83.009 49.898 83.061 49.643 82.954 C 49.222 82.839 48.936 82.863 48.794 83.026 C 48.573 83.278 48.64 83.917 48.984 84.824 C 49.204 85.409 49.088 86.07 48.684 86.54 C 48.382 86.905 47.938 87.116 47.471 87.118 L 47.472 87.118 Z " fill="rgb(47,46,65)"/></g></g></svg>