<?xml version="1.0" encoding="UTF-8" standalone="no"?><!-- Generator: Gravit.io --><svg xmlns="http://www.w3.org/2000/svg" xmlns:xlink="http://www.w3.org/1999/xlink" style="isolation:isolate" viewBox="0 0 341.824 222.646" width="341.824pt" height="222.646pt"><defs><clipPath id="_clipPath_ZJ8RPIHECZvqcZVybc4Gu0MX0VcriLUP"><rect width="341.824" height="222.646"/></clipPath></defs><g clip-path="url(#_clipPath_ZJ8RPIHECZvqcZVybc4Gu0MX0VcriLUP)"><g><path d=" M 67.115 141.873 L 65.225 140.699 C 65.045 140.588 64.868 140.468 64.688 140.353 C 72.973 138.931 79.168 131.958 79.603 123.563 C 80.039 115.167 74.599 107.59 66.505 105.319 L 66.598 112.729 L 62.528 104.67 L 62.471 104.67 C 57.707 104.447 53.051 106.126 49.525 109.337 C 45.999 112.548 43.894 117.029 43.672 121.792 C 43.654 122.135 43.672 122.474 43.672 122.814 C 42.257 121.197 40.969 119.464 40.119 117.566 C 38.397 113.724 38.364 109.368 38.5 104.078 C 38.77 93.591 39.223 83.026 39.812 72.495 C 48.593 71.517 55.362 64.305 55.781 55.48 C 55.805 54.931 55.796 54.387 55.781 53.849 C 55.781 53.714 55.781 53.579 55.76 53.447 C 55.724 52.924 55.676 52.407 55.595 51.897 C 55.595 51.813 55.565 51.732 55.55 51.65 C 55.478 51.218 55.388 50.791 55.285 50.368 C 55.246 50.212 55.207 50.067 55.165 49.896 C 55.039 49.44 54.901 48.995 54.739 48.541 C 54.685 48.394 54.622 48.241 54.565 48.103 C 54.438 47.775 54.3 47.451 54.153 47.133 C 54.075 46.964 54 46.796 53.919 46.631 C 53.895 46.589 53.88 46.544 53.856 46.502 L 53.856 46.502 C 49.939 38.762 41.05 34.927 32.732 37.388 L 32.852 47.03 L 28.827 39.064 C 22.033 42.956 18.559 50.813 20.251 58.457 L 20.233 58.457 C 20.26 58.587 20.299 58.707 20.329 58.836 C 20.386 59.073 20.446 59.307 20.512 59.542 C 20.596 59.842 20.692 60.143 20.791 60.443 C 20.866 60.662 20.939 60.885 21.023 61.104 C 21.146 61.422 21.284 61.732 21.422 62.041 C 21.503 62.221 21.575 62.408 21.662 62.585 Q 22.005 63.285 22.407 63.946 C 22.501 64.102 22.606 64.246 22.708 64.399 C 22.9 64.7 23.092 65 23.309 65.279 C 23.438 65.456 23.576 65.625 23.711 65.799 C 23.909 66.048 24.111 66.295 24.312 66.532 C 24.459 66.703 24.612 66.865 24.766 67.031 C 24.988 67.262 25.213 67.487 25.447 67.709 C 25.601 67.857 25.748 68.01 25.919 68.148 C 26.183 68.382 26.46 68.608 26.739 68.827 C 26.88 68.935 27.018 69.052 27.163 69.16 C 27.589 69.461 28.028 69.761 28.481 70.062 C 28.566 70.116 28.659 70.158 28.743 70.209 C 29.124 70.431 29.509 70.641 29.905 70.837 C 30.076 70.921 30.251 70.993 30.425 71.071 C 30.749 71.218 31.077 71.371 31.413 71.485 C 31.609 71.56 31.807 71.63 32.014 71.699 C 32.344 71.81 32.681 71.912 33.02 71.999 C 33.219 72.053 33.42 72.11 33.621 72.158 C 33.988 72.245 34.363 72.317 34.742 72.384 L 34.814 72.399 Q 34.444 79.061 34.153 85.733 C 31.989 81.282 28.085 77.921 23.362 76.443 C 18.638 74.964 13.515 75.5 9.199 77.923 L 12.377 86.634 L 5.832 80.326 C 2.327 83.531 0.237 87.996 0.022 92.741 C -0.062 94.406 0.092 96.074 0.479 97.695 C 2.161 104.872 8.053 110.294 15.345 111.375 C 22.637 112.455 29.849 108.975 33.54 102.594 C 33.54 103.045 33.51 103.495 33.498 103.949 C 33.378 108.617 33.228 114.427 35.556 119.614 C 37.133 123.129 39.668 125.983 42.164 128.542 C 43.795 130.209 45.487 131.819 47.22 133.378 C 48.925 135.671 51.151 137.524 53.714 138.785 C 56.562 140.981 59.512 143.045 62.561 144.95 L 64.465 146.133 C 66.178 147.193 67.932 148.284 69.65 149.416 C 69.35 149.386 69.049 149.353 68.749 149.338 C 60.927 148.974 53.767 153.711 51.044 161.054 L 62.279 170.195 L 49.92 167.329 C 49.928 173.509 53.108 179.253 58.341 182.54 C 63.575 185.828 70.129 186.199 75.7 183.523 Q 75.286 184.046 74.865 184.562 Q 74.036 185.593 73.228 186.611 C 65.916 195.869 63.883 204.662 67.502 211.363 L 71.906 208.984 C 68.383 202.463 73.682 194.112 77.154 189.714 Q 77.947 188.708 78.764 187.701 C 83.441 181.883 88.734 175.31 88.605 167.236 C 88.41 155.073 76.589 147.755 67.115 141.873 Z " fill="rgb(242,242,242)"/><path d=" M 241.046 105.226 L 242.935 104.051 C 243.115 103.94 243.292 103.82 243.473 103.706 C 235.189 102.279 228.998 95.304 228.566 86.909 C 228.134 78.514 233.576 70.94 241.67 68.671 L 241.577 76.081 L 245.648 68.022 L 245.699 68.022 C 250.462 67.799 255.119 69.478 258.645 72.689 C 262.17 75.9 264.275 80.381 264.497 85.144 C 264.515 85.487 264.497 85.826 264.497 86.166 C 265.912 84.549 267.201 82.816 268.051 80.918 C 269.772 77.076 269.805 72.72 269.67 67.43 C 269.4 56.943 268.946 46.379 268.357 35.847 C 259.577 34.869 252.808 27.657 252.388 18.832 C 252.364 18.283 252.373 17.739 252.388 17.201 C 252.388 17.066 252.388 16.931 252.409 16.799 C 252.445 16.276 252.494 15.759 252.575 15.249 C 252.575 15.165 252.605 15.084 252.62 15.002 C 252.692 14.57 252.782 14.143 252.884 13.72 C 252.923 13.564 252.962 13.419 253.004 13.248 C 253.13 12.792 253.269 12.347 253.431 11.893 C 253.485 11.746 253.548 11.593 253.605 11.455 C 253.731 11.127 253.869 10.803 254.017 10.485 C 254.095 10.316 254.17 10.148 254.254 9.983 C 254.275 9.941 254.29 9.896 254.314 9.854 L 254.314 9.854 C 258.229 2.118 267.11 -1.717 275.426 0.737 L 275.305 10.379 L 279.331 2.413 C 286.127 6.305 289.603 14.163 287.91 21.809 L 287.928 21.809 C 287.901 21.939 287.862 22.059 287.832 22.188 C 287.775 22.425 287.715 22.659 287.649 22.894 C 287.564 23.194 287.468 23.495 287.369 23.795 C 287.294 24.014 287.222 24.237 287.138 24.456 C 287.015 24.774 286.877 25.084 286.738 25.393 C 286.657 25.573 286.585 25.76 286.498 25.937 Q 286.156 26.637 285.753 27.298 C 285.66 27.454 285.555 27.598 285.453 27.751 C 285.26 28.052 285.068 28.352 284.852 28.631 C 284.723 28.809 284.585 28.977 284.449 29.151 C 284.251 29.4 284.05 29.647 283.849 29.884 C 283.701 30.055 283.548 30.217 283.395 30.383 C 283.176 30.614 282.947 30.839 282.713 31.061 C 282.56 31.209 282.413 31.362 282.241 31.5 C 281.977 31.734 281.701 31.96 281.421 32.179 C 281.28 32.287 281.142 32.404 280.998 32.512 C 280.571 32.813 280.133 33.113 279.679 33.399 C 279.595 33.453 279.502 33.495 279.418 33.546 C 279.036 33.768 278.652 33.978 278.255 34.174 C 278.084 34.258 277.91 34.33 277.736 34.408 C 277.411 34.555 277.084 34.708 276.747 34.822 C 276.552 34.898 276.354 34.967 276.146 35.036 C 275.816 35.147 275.48 35.249 275.14 35.336 C 274.942 35.39 274.741 35.447 274.539 35.495 C 274.173 35.582 273.797 35.655 273.419 35.721 L 273.347 35.721 Q 273.716 42.386 274.008 49.055 C 276.172 44.604 280.076 41.243 284.799 39.765 C 289.522 38.286 294.646 38.822 298.961 41.245 L 295.783 49.956 L 302.323 43.678 C 305.828 46.883 307.917 51.348 308.132 56.093 C 308.216 57.758 308.062 59.426 307.676 61.047 C 305.994 68.224 300.101 73.646 292.809 74.727 C 285.518 75.807 278.305 72.327 274.614 65.946 C 274.614 66.397 274.648 66.847 274.657 67.301 C 274.777 71.969 274.927 77.779 272.599 82.966 C 271.022 86.481 268.486 89.335 265.99 91.894 C 264.359 93.561 262.668 95.171 260.935 96.73 C 259.23 99.023 257.004 100.876 254.44 102.137 C 251.592 104.333 248.642 106.397 245.593 108.302 L 243.689 109.485 C 241.977 110.545 240.222 111.636 238.504 112.768 C 238.805 112.738 239.105 112.705 239.405 112.69 C 247.228 112.326 254.388 117.063 257.111 124.406 L 245.876 133.547 L 258.234 130.681 C 258.226 136.861 255.047 142.605 249.813 145.892 C 244.58 149.18 238.025 149.551 232.454 146.875 Q 232.869 147.398 233.289 147.914 Q 234.118 148.945 234.927 149.963 C 242.238 159.221 244.272 168.014 240.652 174.715 L 236.248 172.336 C 239.772 165.815 234.473 157.464 231 153.066 Q 230.207 152.06 229.39 151.053 C 224.719 145.25 219.426 138.671 219.555 130.603 C 219.751 118.425 231.559 111.107 241.046 105.226 Z " fill="rgb(242,242,242)"/><ellipse vector-effect="non-scaling-stroke" cx="193.07577911915496" cy="212.7332046875713" rx="148.74863509243482" ry="9.912970956117675" fill="rgb(242,242,242)"/><path d=" M 198.071 213.034 L 144.544 212.349 L 144.7 210.976 L 147.29 188.329 L 194.298 188.329 L 197.756 210.976 L 198.02 212.691 L 198.071 213.034 L 198.071 213.034 Z " fill="rgb(47,46,65)"/><g opacity="0.1"><path d=" M 198.02 212.691 L 171.306 212.691 L 144.544 212.349 L 144.7 210.976 L 197.756 210.976 L 198.02 212.691 L 198.02 212.691 Z " fill="rgb(0,0,0)"/></g><rect x="135.623" y="211.318" width="71.028" height="1.715" transform="matrix(1,0,0,1,0,0)" fill="rgb(63,61,86)"/><path d=" M 274.419 52.308 C 274.425 51.124 273.96 49.985 273.126 49.144 C 272.292 48.302 271.158 47.826 269.973 47.82 L 71.618 47.82 C 70.433 47.826 69.299 48.302 68.465 49.144 C 67.632 49.985 67.166 51.124 67.172 52.308 L 67.172 172.544 L 274.419 172.544 L 274.419 52.308 Z " fill="rgb(63,61,86)"/><path d=" M 67.172 171.345 L 67.172 185.427 C 67.172 187.883 69.162 189.873 71.618 189.873 L 269.973 189.873 C 272.429 189.873 274.419 187.883 274.419 185.427 L 274.419 171.345 L 67.172 171.345 Z " fill="rgb(63,61,86)"/><rect x="75.748" y="55.369" width="191.119" height="108.084" transform="matrix(1,0,0,1,0,0)" fill="rgb(47,46,65)"/><path d=" M 171.814 184.529 C 173.236 184.531 174.58 183.878 175.458 182.76 L 175.458 182.76 C 175.59 182.591 175.711 182.414 175.818 182.228 L 173.277 181.811 L 176.025 181.832 C 176.557 180.672 176.59 179.345 176.116 178.161 L 172.427 180.074 L 175.827 177.575 C 174.957 176.079 173.325 175.193 171.596 175.278 C 169.867 175.363 168.33 176.405 167.611 177.979 C 166.891 179.553 167.109 181.397 168.176 182.76 L 168.176 182.76 C 169.053 183.877 170.394 184.529 171.814 184.529 L 171.814 184.529 Z " fill="rgb(24,144,255)"/><g opacity="0.1"><path d=" M 176.455 189.873 L 197.81 211.318 L 194.533 189.873 L 176.455 189.873 L 176.455 189.873 Z " fill="rgb(0,0,0)"/></g><path d=" M 233.809 204.508 L 239.562 201.144 C 238.782 199.817 237.789 198.628 236.621 197.626 L 225.774 201 L 234.272 196.001 C 229.99 193.656 224.789 193.744 220.589 196.232 C 216.389 198.721 213.814 203.24 213.815 208.122 C 213.815 215.755 220.003 216.02 227.633 216.02 C 235.263 216.02 241.451 215.755 241.451 208.122 C 241.453 206.191 241.05 204.282 240.268 202.517 L 233.809 204.508 Z " fill="rgb(87,184,148)"/><g opacity="0.1"><path d=" M 235.275 211.928 C 234.661 211.315 233.977 210.777 233.235 210.327 C 232.193 209.633 231.112 208.927 229.88 208.69 C 228.802 208.483 227.684 208.657 226.576 208.597 C 224.663 208.48 222.863 207.654 221.526 206.281 C 220.739 205.47 220.123 204.478 219.177 203.851 C 218.159 203.184 216.867 203.04 215.662 203.205 C 215.311 203.257 214.963 203.329 214.62 203.421 C 214.078 204.924 213.801 206.51 213.803 208.107 C 213.803 215.74 219.991 216.004 227.621 216.004 C 231.325 216.004 234.689 215.941 237.17 215.004 L 236.756 214.229 C 236.361 213.403 235.864 212.63 235.275 211.928 Z " fill="rgb(0,0,0)"/></g><g opacity="0.3"><rect x="84.237" y="97.067" width="6.353" height="1.929" transform="matrix(1,0,0,1,0,0)" fill="rgb(24,144,255)"/></g><g opacity="0.3"><rect x="253.764" y="97.124" width="6.353" height="1.929" transform="matrix(1,0,0,1,0,0)" fill="rgb(24,144,255)"/></g><g opacity="0.3"><rect x="84.294" y="110.624" width="6.353" height="1.929" transform="matrix(1,0,0,1,0,0)" fill="rgb(24,144,255)"/></g><g opacity="0.3"><rect x="84.352" y="124.18" width="6.353" height="1.929" transform="matrix(1,0,0,1,0,0)" fill="rgb(24,144,255)"/></g><g opacity="0.3"><rect x="84.409" y="137.734" width="6.353" height="1.929" transform="matrix(1,0,0,1,0,0)" fill="rgb(24,144,255)"/></g><g style="opacity:0.2;"><g opacity="0.2"><rect x="90.591" y="97.995" width="1.802" height="0.075" transform="matrix(1,0,0,1,0,0)" fill="rgb(242,242,242)"/></g><g opacity="0.2"><path d=" M 248.306 98.07 L 244.764 98.07 L 244.764 97.995 L 248.306 97.995 L 248.306 98.07 Z  M 241.22 98.07 L 237.678 98.07 L 237.678 97.995 L 241.22 97.995 L 241.22 98.07 Z  M 234.134 98.07 L 230.589 98.07 L 230.589 97.995 L 234.134 97.995 L 234.134 98.07 Z  M 227.047 98.07 L 223.503 98.07 L 223.503 97.995 L 227.047 97.995 L 227.047 98.07 Z  M 219.961 98.07 L 216.416 98.07 L 216.416 97.995 L 219.961 97.995 L 219.961 98.07 Z  M 212.872 98.07 L 209.33 98.07 L 209.33 97.995 L 212.872 97.995 L 212.872 98.07 Z  M 205.785 98.07 L 202.241 98.07 L 202.241 97.995 L 205.785 97.995 L 205.785 98.07 Z  M 198.699 98.07 L 195.154 98.07 L 195.154 97.995 L 198.699 97.995 L 198.699 98.07 Z  M 191.613 98.07 L 188.068 98.07 L 188.068 97.995 L 191.613 97.995 L 191.613 98.07 Z  M 184.524 98.07 L 180.982 98.07 L 180.982 97.995 L 184.524 97.995 L 184.524 98.07 Z  M 177.437 98.07 L 173.893 98.07 L 173.893 97.995 L 177.437 97.995 L 177.437 98.07 Z  M 170.351 98.07 L 166.806 98.07 L 166.806 97.995 L 170.351 97.995 L 170.351 98.07 Z  M 163.265 98.07 L 159.72 98.07 L 159.72 97.995 L 163.265 97.995 L 163.265 98.07 Z  M 156.175 98.07 L 152.634 98.07 L 152.634 97.995 L 156.175 97.995 L 156.175 98.07 Z  M 149.089 98.07 L 145.548 98.07 L 145.548 97.995 L 149.089 97.995 L 149.089 98.07 Z  M 142.003 98.07 L 138.47 98.07 L 138.47 97.995 L 142.015 97.995 L 142.003 98.07 Z  M 134.917 98.07 L 131.372 98.07 L 131.372 97.995 L 134.917 97.995 L 134.917 98.07 Z  M 127.827 98.07 L 124.286 98.07 L 124.286 97.995 L 127.827 97.995 L 127.827 98.07 Z  M 120.741 98.07 L 117.199 98.07 L 117.199 97.995 L 120.747 97.995 L 120.741 98.07 Z  M 113.655 98.07 L 110.11 98.07 L 110.11 97.995 L 113.655 97.995 L 113.655 98.07 Z  M 106.569 98.07 L 103.024 98.07 L 103.024 97.995 L 106.569 97.995 L 106.569 98.07 Z  M 99.479 98.07 L 95.938 98.07 L 95.938 97.995 L 99.479 97.995 L 99.479 98.07 Z " fill="rgb(242,242,242)"/></g><g opacity="0.2"><rect x="251.851" y="97.995" width="1.802" height="0.075" transform="matrix(1,0,0,1,0,0)" fill="rgb(242,242,242)"/></g><g opacity="0.2"><rect x="90.591" y="97.995" width="1.802" height="0.075" transform="matrix(1,0,0,1,0,0)" fill="rgb(242,242,242)"/></g><g opacity="0.2"><path d=" M 248.306 98.07 L 244.764 98.07 L 244.764 97.995 L 248.306 97.995 L 248.306 98.07 Z  M 241.22 98.07 L 237.678 98.07 L 237.678 97.995 L 241.22 97.995 L 241.22 98.07 Z  M 234.134 98.07 L 230.589 98.07 L 230.589 97.995 L 234.134 97.995 L 234.134 98.07 Z  M 227.047 98.07 L 223.503 98.07 L 223.503 97.995 L 227.047 97.995 L 227.047 98.07 Z  M 219.961 98.07 L 216.416 98.07 L 216.416 97.995 L 219.961 97.995 L 219.961 98.07 Z  M 212.872 98.07 L 209.33 98.07 L 209.33 97.995 L 212.872 97.995 L 212.872 98.07 Z  M 205.785 98.07 L 202.241 98.07 L 202.241 97.995 L 205.785 97.995 L 205.785 98.07 Z  M 198.699 98.07 L 195.154 98.07 L 195.154 97.995 L 198.699 97.995 L 198.699 98.07 Z  M 191.613 98.07 L 188.068 98.07 L 188.068 97.995 L 191.613 97.995 L 191.613 98.07 Z  M 184.524 98.07 L 180.982 98.07 L 180.982 97.995 L 184.524 97.995 L 184.524 98.07 Z  M 177.437 98.07 L 173.893 98.07 L 173.893 97.995 L 177.437 97.995 L 177.437 98.07 Z  M 170.351 98.07 L 166.806 98.07 L 166.806 97.995 L 170.351 97.995 L 170.351 98.07 Z  M 163.265 98.07 L 159.72 98.07 L 159.72 97.995 L 163.265 97.995 L 163.265 98.07 Z  M 156.175 98.07 L 152.634 98.07 L 152.634 97.995 L 156.175 97.995 L 156.175 98.07 Z  M 149.089 98.07 L 145.548 98.07 L 145.548 97.995 L 149.089 97.995 L 149.089 98.07 Z  M 142.003 98.07 L 138.47 98.07 L 138.47 97.995 L 142.015 97.995 L 142.003 98.07 Z  M 134.917 98.07 L 131.372 98.07 L 131.372 97.995 L 134.917 97.995 L 134.917 98.07 Z  M 127.827 98.07 L 124.286 98.07 L 124.286 97.995 L 127.827 97.995 L 127.827 98.07 Z  M 120.741 98.07 L 117.199 98.07 L 117.199 97.995 L 120.747 97.995 L 120.741 98.07 Z  M 113.655 98.07 L 110.11 98.07 L 110.11 97.995 L 113.655 97.995 L 113.655 98.07 Z  M 106.569 98.07 L 103.024 98.07 L 103.024 97.995 L 106.569 97.995 L 106.569 98.07 Z  M 99.479 98.07 L 95.938 98.07 L 95.938 97.995 L 99.479 97.995 L 99.479 98.07 Z " fill="rgb(242,242,242)"/></g><g opacity="0.2"><rect x="251.851" y="97.995" width="1.802" height="0.075" transform="matrix(1,0,0,1,0,0)" fill="rgb(242,242,242)"/></g></g><g opacity="0.3"><rect x="84.237" y="83.549" width="6.353" height="1.929" transform="matrix(1,0,0,1,0,0)" fill="rgb(24,144,255)"/></g><g opacity="0.3"><rect x="253.764" y="83.606" width="6.353" height="1.929" transform="matrix(1,0,0,1,0,0)" fill="rgb(24,144,255)"/></g><g style="opacity:0.2;"><g opacity="0.2"><rect x="90.591" y="84.477" width="1.802" height="0.075" transform="matrix(1,0,0,1,0,0)" fill="rgb(242,242,242)"/></g><g opacity="0.2"><path d=" M 248.306 84.552 L 244.764 84.552 L 244.764 84.477 L 248.306 84.477 L 248.306 84.552 Z  M 241.22 84.552 L 237.678 84.552 L 237.678 84.477 L 241.22 84.477 L 241.22 84.552 Z  M 234.134 84.552 L 230.589 84.552 L 230.589 84.477 L 234.134 84.477 L 234.134 84.552 Z  M 227.047 84.552 L 223.503 84.552 L 223.503 84.477 L 227.047 84.477 L 227.047 84.552 Z  M 219.961 84.552 L 216.416 84.552 L 216.416 84.477 L 219.961 84.477 L 219.961 84.552 Z  M 212.872 84.552 L 209.33 84.552 L 209.33 84.477 L 212.872 84.477 L 212.872 84.552 Z  M 205.785 84.552 L 202.241 84.552 L 202.241 84.477 L 205.785 84.477 L 205.785 84.552 Z  M 198.699 84.552 L 195.154 84.552 L 195.154 84.477 L 198.699 84.477 L 198.699 84.552 Z  M 191.613 84.552 L 188.068 84.552 L 188.068 84.477 L 191.613 84.477 L 191.613 84.552 Z  M 184.524 84.552 L 180.982 84.552 L 180.982 84.477 L 184.524 84.477 L 184.524 84.552 Z  M 177.437 84.552 L 173.893 84.552 L 173.893 84.477 L 177.437 84.477 L 177.437 84.552 Z  M 170.351 84.552 L 166.806 84.552 L 166.806 84.477 L 170.351 84.477 L 170.351 84.552 Z  M 163.265 84.552 L 159.72 84.552 L 159.72 84.477 L 163.265 84.477 L 163.265 84.552 Z  M 156.175 84.552 L 152.634 84.552 L 152.634 84.477 L 156.175 84.477 L 156.175 84.552 Z  M 149.089 84.552 L 145.548 84.552 L 145.548 84.477 L 149.089 84.477 L 149.089 84.552 Z  M 142.003 84.552 L 138.47 84.552 L 138.47 84.477 L 142.015 84.477 L 142.003 84.552 Z  M 134.917 84.552 L 131.372 84.552 L 131.372 84.477 L 134.917 84.477 L 134.917 84.552 Z  M 127.827 84.552 L 124.286 84.552 L 124.286 84.477 L 127.827 84.477 L 127.827 84.552 Z  M 120.741 84.552 L 117.199 84.552 L 117.199 84.477 L 120.747 84.477 L 120.741 84.552 Z  M 113.655 84.552 L 110.11 84.552 L 110.11 84.477 L 113.655 84.477 L 113.655 84.552 Z  M 106.569 84.552 L 103.024 84.552 L 103.024 84.477 L 106.569 84.477 L 106.569 84.552 Z  M 99.479 84.552 L 95.938 84.552 L 95.938 84.477 L 99.479 84.477 L 99.479 84.552 Z " fill="rgb(242,242,242)"/></g><g opacity="0.2"><rect x="251.851" y="84.477" width="1.802" height="0.075" transform="matrix(1,0,0,1,0,0)" fill="rgb(242,242,242)"/></g></g><g opacity="0.3"><rect x="253.764" y="110.624" width="6.353" height="1.929" transform="matrix(1,0,0,1,0,0)" fill="rgb(24,144,255)"/></g><g style="opacity:0.2;"><g opacity="0.2"><rect x="90.591" y="111.495" width="1.802" height="0.075" transform="matrix(1,0,0,1,0,0)" fill="rgb(242,242,242)"/></g><g opacity="0.2"><path d=" M 248.306 111.567 L 244.764 111.567 L 244.764 111.492 L 248.306 111.492 L 248.306 111.567 Z  M 241.22 111.567 L 237.678 111.567 L 237.678 111.492 L 241.22 111.492 L 241.22 111.567 Z  M 234.134 111.567 L 230.589 111.567 L 230.589 111.492 L 234.134 111.492 L 234.134 111.567 Z  M 227.047 111.567 L 223.503 111.567 L 223.503 111.492 L 227.047 111.492 L 227.047 111.567 Z  M 219.961 111.567 L 216.416 111.567 L 216.416 111.492 L 219.961 111.492 L 219.961 111.567 Z  M 212.872 111.567 L 209.33 111.567 L 209.33 111.492 L 212.872 111.492 L 212.872 111.567 Z  M 205.785 111.567 L 202.241 111.567 L 202.241 111.492 L 205.785 111.492 L 205.785 111.567 Z  M 198.699 111.567 L 195.154 111.567 L 195.154 111.492 L 198.699 111.492 L 198.699 111.567 Z  M 191.613 111.567 L 188.068 111.567 L 188.068 111.492 L 191.613 111.492 L 191.613 111.567 Z  M 184.524 111.567 L 180.982 111.567 L 180.982 111.492 L 184.524 111.492 L 184.524 111.567 Z  M 177.437 111.567 L 173.893 111.567 L 173.893 111.492 L 177.437 111.492 L 177.437 111.567 Z  M 170.351 111.567 L 166.806 111.567 L 166.806 111.492 L 170.351 111.492 L 170.351 111.567 Z  M 163.265 111.567 L 159.72 111.567 L 159.72 111.492 L 163.265 111.492 L 163.265 111.567 Z  M 156.175 111.567 L 152.634 111.567 L 152.634 111.492 L 156.175 111.492 L 156.175 111.567 Z  M 149.089 111.567 L 145.548 111.567 L 145.548 111.492 L 149.089 111.492 L 149.089 111.567 Z  M 142.003 111.567 L 138.47 111.567 L 138.47 111.492 L 142.015 111.492 L 142.003 111.567 Z  M 134.917 111.567 L 131.372 111.567 L 131.372 111.492 L 134.917 111.492 L 134.917 111.567 Z  M 127.827 111.567 L 124.286 111.567 L 124.286 111.492 L 127.827 111.492 L 127.827 111.567 Z  M 120.741 111.567 L 117.199 111.567 L 117.199 111.492 L 120.747 111.492 L 120.741 111.567 Z  M 113.655 111.567 L 110.11 111.567 L 110.11 111.492 L 113.655 111.492 L 113.655 111.567 Z  M 106.569 111.567 L 103.024 111.567 L 103.024 111.492 L 106.569 111.492 L 106.569 111.567 Z  M 99.479 111.567 L 95.938 111.567 L 95.938 111.492 L 99.479 111.492 L 99.479 111.567 Z " fill="rgb(242,242,242)"/></g><g opacity="0.2"><rect x="251.851" y="111.495" width="1.802" height="0.075" transform="matrix(1,0,0,1,0,0)" fill="rgb(242,242,242)"/></g><g opacity="0.2"><rect x="90.591" y="111.495" width="1.802" height="0.075" transform="matrix(1,0,0,1,0,0)" fill="rgb(242,242,242)"/></g><g opacity="0.2"><path d=" M 248.306 111.567 L 244.764 111.567 L 244.764 111.492 L 248.306 111.492 L 248.306 111.567 Z  M 241.22 111.567 L 237.678 111.567 L 237.678 111.492 L 241.22 111.492 L 241.22 111.567 Z  M 234.134 111.567 L 230.589 111.567 L 230.589 111.492 L 234.134 111.492 L 234.134 111.567 Z  M 227.047 111.567 L 223.503 111.567 L 223.503 111.492 L 227.047 111.492 L 227.047 111.567 Z  M 219.961 111.567 L 216.416 111.567 L 216.416 111.492 L 219.961 111.492 L 219.961 111.567 Z  M 212.872 111.567 L 209.33 111.567 L 209.33 111.492 L 212.872 111.492 L 212.872 111.567 Z  M 205.785 111.567 L 202.241 111.567 L 202.241 111.492 L 205.785 111.492 L 205.785 111.567 Z  M 198.699 111.567 L 195.154 111.567 L 195.154 111.492 L 198.699 111.492 L 198.699 111.567 Z  M 191.613 111.567 L 188.068 111.567 L 188.068 111.492 L 191.613 111.492 L 191.613 111.567 Z  M 184.524 111.567 L 180.982 111.567 L 180.982 111.492 L 184.524 111.492 L 184.524 111.567 Z  M 177.437 111.567 L 173.893 111.567 L 173.893 111.492 L 177.437 111.492 L 177.437 111.567 Z  M 170.351 111.567 L 166.806 111.567 L 166.806 111.492 L 170.351 111.492 L 170.351 111.567 Z  M 163.265 111.567 L 159.72 111.567 L 159.72 111.492 L 163.265 111.492 L 163.265 111.567 Z  M 156.175 111.567 L 152.634 111.567 L 152.634 111.492 L 156.175 111.492 L 156.175 111.567 Z  M 149.089 111.567 L 145.548 111.567 L 145.548 111.492 L 149.089 111.492 L 149.089 111.567 Z  M 142.003 111.567 L 138.47 111.567 L 138.47 111.492 L 142.015 111.492 L 142.003 111.567 Z  M 134.917 111.567 L 131.372 111.567 L 131.372 111.492 L 134.917 111.492 L 134.917 111.567 Z  M 127.827 111.567 L 124.286 111.567 L 124.286 111.492 L 127.827 111.492 L 127.827 111.567 Z  M 120.741 111.567 L 117.199 111.567 L 117.199 111.492 L 120.747 111.492 L 120.741 111.567 Z  M 113.655 111.567 L 110.11 111.567 L 110.11 111.492 L 113.655 111.492 L 113.655 111.567 Z  M 106.569 111.567 L 103.024 111.567 L 103.024 111.492 L 106.569 111.492 L 106.569 111.567 Z  M 99.479 111.567 L 95.938 111.567 L 95.938 111.492 L 99.479 111.492 L 99.479 111.567 Z " fill="rgb(242,242,242)"/></g><g opacity="0.2"><rect x="251.851" y="111.495" width="1.802" height="0.075" transform="matrix(1,0,0,1,0,0)" fill="rgb(242,242,242)"/></g></g><g opacity="0.3"><rect x="253.764" y="124.123" width="6.353" height="1.929" transform="matrix(1,0,0,1,0,0)" fill="rgb(24,144,255)"/></g><g style="opacity:0.2;"><g opacity="0.2"><rect x="90.591" y="124.991" width="1.802" height="0.075" transform="matrix(1,0,0,1,0,0)" fill="rgb(242,242,242)"/></g><g opacity="0.2"><path d=" M 248.306 125.066 L 244.764 125.066 L 244.764 124.991 L 248.306 124.991 L 248.306 125.066 Z  M 241.22 125.066 L 237.678 125.066 L 237.678 124.991 L 241.22 124.991 L 241.22 125.066 Z  M 234.134 125.066 L 230.589 125.066 L 230.589 124.991 L 234.134 124.991 L 234.134 125.066 Z  M 227.047 125.066 L 223.503 125.066 L 223.503 124.991 L 227.047 124.991 L 227.047 125.066 Z  M 219.961 125.066 L 216.416 125.066 L 216.416 124.991 L 219.961 124.991 L 219.961 125.066 Z  M 212.872 125.066 L 209.33 125.066 L 209.33 124.991 L 212.872 124.991 L 212.872 125.066 Z  M 205.785 125.066 L 202.241 125.066 L 202.241 124.991 L 205.785 124.991 L 205.785 125.066 Z  M 198.699 125.066 L 195.154 125.066 L 195.154 124.991 L 198.699 124.991 L 198.699 125.066 Z  M 191.613 125.066 L 188.068 125.066 L 188.068 124.991 L 191.613 124.991 L 191.613 125.066 Z  M 184.524 125.066 L 180.982 125.066 L 180.982 124.991 L 184.524 124.991 L 184.524 125.066 Z  M 177.437 125.066 L 173.893 125.066 L 173.893 124.991 L 177.437 124.991 L 177.437 125.066 Z  M 170.351 125.066 L 166.806 125.066 L 166.806 124.991 L 170.351 124.991 L 170.351 125.066 Z  M 163.265 125.066 L 159.72 125.066 L 159.72 124.991 L 163.265 124.991 L 163.265 125.066 Z  M 156.175 125.066 L 152.634 125.066 L 152.634 124.991 L 156.175 124.991 L 156.175 125.066 Z  M 149.089 125.066 L 145.548 125.066 L 145.548 124.991 L 149.089 124.991 L 149.089 125.066 Z  M 142.003 125.066 L 138.47 125.066 L 138.47 124.991 L 142.015 124.991 L 142.003 125.066 Z  M 134.917 125.066 L 131.372 125.066 L 131.372 124.991 L 134.917 124.991 L 134.917 125.066 Z  M 127.827 125.066 L 124.286 125.066 L 124.286 124.991 L 127.827 124.991 L 127.827 125.066 Z  M 120.741 125.066 L 117.199 125.066 L 117.199 124.991 L 120.747 124.991 L 120.741 125.066 Z  M 113.655 125.066 L 110.11 125.066 L 110.11 124.991 L 113.655 124.991 L 113.655 125.066 Z  M 106.569 125.066 L 103.024 125.066 L 103.024 124.991 L 106.569 124.991 L 106.569 125.066 Z  M 99.479 125.066 L 95.938 125.066 L 95.938 124.991 L 99.479 124.991 L 99.479 125.066 Z " fill="rgb(242,242,242)"/></g><g opacity="0.2"><rect x="251.851" y="124.991" width="1.802" height="0.075" transform="matrix(1,0,0,1,0,0)" fill="rgb(242,242,242)"/></g><g opacity="0.2"><rect x="90.591" y="124.991" width="1.802" height="0.075" transform="matrix(1,0,0,1,0,0)" fill="rgb(242,242,242)"/></g><g opacity="0.2"><path d=" M 248.306 125.066 L 244.764 125.066 L 244.764 124.991 L 248.306 124.991 L 248.306 125.066 Z  M 241.22 125.066 L 237.678 125.066 L 237.678 124.991 L 241.22 124.991 L 241.22 125.066 Z  M 234.134 125.066 L 230.589 125.066 L 230.589 124.991 L 234.134 124.991 L 234.134 125.066 Z  M 227.047 125.066 L 223.503 125.066 L 223.503 124.991 L 227.047 124.991 L 227.047 125.066 Z  M 219.961 125.066 L 216.416 125.066 L 216.416 124.991 L 219.961 124.991 L 219.961 125.066 Z  M 212.872 125.066 L 209.33 125.066 L 209.33 124.991 L 212.872 124.991 L 212.872 125.066 Z  M 205.785 125.066 L 202.241 125.066 L 202.241 124.991 L 205.785 124.991 L 205.785 125.066 Z  M 198.699 125.066 L 195.154 125.066 L 195.154 124.991 L 198.699 124.991 L 198.699 125.066 Z  M 191.613 125.066 L 188.068 125.066 L 188.068 124.991 L 191.613 124.991 L 191.613 125.066 Z  M 184.524 125.066 L 180.982 125.066 L 180.982 124.991 L 184.524 124.991 L 184.524 125.066 Z  M 177.437 125.066 L 173.893 125.066 L 173.893 124.991 L 177.437 124.991 L 177.437 125.066 Z  M 170.351 125.066 L 166.806 125.066 L 166.806 124.991 L 170.351 124.991 L 170.351 125.066 Z  M 163.265 125.066 L 159.72 125.066 L 159.72 124.991 L 163.265 124.991 L 163.265 125.066 Z  M 156.175 125.066 L 152.634 125.066 L 152.634 124.991 L 156.175 124.991 L 156.175 125.066 Z  M 149.089 125.066 L 145.548 125.066 L 145.548 124.991 L 149.089 124.991 L 149.089 125.066 Z  M 142.003 125.066 L 138.47 125.066 L 138.47 124.991 L 142.015 124.991 L 142.003 125.066 Z  M 134.917 125.066 L 131.372 125.066 L 131.372 124.991 L 134.917 124.991 L 134.917 125.066 Z  M 127.827 125.066 L 124.286 125.066 L 124.286 124.991 L 127.827 124.991 L 127.827 125.066 Z  M 120.741 125.066 L 117.199 125.066 L 117.199 124.991 L 120.747 124.991 L 120.741 125.066 Z  M 113.655 125.066 L 110.11 125.066 L 110.11 124.991 L 113.655 124.991 L 113.655 125.066 Z  M 106.569 125.066 L 103.024 125.066 L 103.024 124.991 L 106.569 124.991 L 106.569 125.066 Z  M 99.479 125.066 L 95.938 125.066 L 95.938 124.991 L 99.479 124.991 L 99.479 125.066 Z " fill="rgb(242,242,242)"/></g><g opacity="0.2"><rect x="251.851" y="124.991" width="1.802" height="0.075" transform="matrix(1,0,0,1,0,0)" fill="rgb(242,242,242)"/></g></g><g opacity="0.3"><rect x="253.764" y="137.62" width="6.353" height="1.929" transform="matrix(1,0,0,1,0,0)" fill="rgb(24,144,255)"/></g><g style="opacity:0.2;"><g opacity="0.2"><rect x="90.591" y="138.491" width="1.802" height="0.075" transform="matrix(1,0,0,1,0,0)" fill="rgb(242,242,242)"/></g><g opacity="0.2"><path d=" M 248.306 138.566 L 244.764 138.566 L 244.764 138.491 L 248.306 138.491 L 248.306 138.566 Z  M 241.22 138.566 L 237.678 138.566 L 237.678 138.491 L 241.22 138.491 L 241.22 138.566 Z  M 234.134 138.566 L 230.589 138.566 L 230.589 138.491 L 234.134 138.491 L 234.134 138.566 Z  M 227.047 138.566 L 223.503 138.566 L 223.503 138.491 L 227.047 138.491 L 227.047 138.566 Z  M 219.961 138.566 L 216.416 138.566 L 216.416 138.491 L 219.961 138.491 L 219.961 138.566 Z  M 212.872 138.566 L 209.33 138.566 L 209.33 138.491 L 212.872 138.491 L 212.872 138.566 Z  M 205.785 138.566 L 202.241 138.566 L 202.241 138.491 L 205.785 138.491 L 205.785 138.566 Z  M 198.699 138.566 L 195.154 138.566 L 195.154 138.491 L 198.699 138.491 L 198.699 138.566 Z  M 191.613 138.566 L 188.068 138.566 L 188.068 138.491 L 191.613 138.491 L 191.613 138.566 Z  M 184.524 138.566 L 180.982 138.566 L 180.982 138.491 L 184.524 138.491 L 184.524 138.566 Z  M 177.437 138.566 L 173.893 138.566 L 173.893 138.491 L 177.437 138.491 L 177.437 138.566 Z  M 170.351 138.566 L 166.806 138.566 L 166.806 138.491 L 170.351 138.491 L 170.351 138.566 Z  M 163.265 138.566 L 159.72 138.566 L 159.72 138.491 L 163.265 138.491 L 163.265 138.566 Z  M 156.175 138.566 L 152.634 138.566 L 152.634 138.491 L 156.175 138.491 L 156.175 138.566 Z  M 149.089 138.566 L 145.548 138.566 L 145.548 138.491 L 149.089 138.491 L 149.089 138.566 Z  M 142.003 138.566 L 138.47 138.566 L 138.47 138.491 L 142.015 138.491 L 142.003 138.566 Z  M 134.917 138.566 L 131.372 138.566 L 131.372 138.491 L 134.917 138.491 L 134.917 138.566 Z  M 127.827 138.566 L 124.286 138.566 L 124.286 138.491 L 127.827 138.491 L 127.827 138.566 Z  M 120.741 138.566 L 117.199 138.566 L 117.199 138.491 L 120.747 138.491 L 120.741 138.566 Z  M 113.655 138.566 L 110.11 138.566 L 110.11 138.491 L 113.655 138.491 L 113.655 138.566 Z  M 106.569 138.566 L 103.024 138.566 L 103.024 138.491 L 106.569 138.491 L 106.569 138.566 Z  M 99.479 138.566 L 95.938 138.566 L 95.938 138.491 L 99.479 138.491 L 99.479 138.566 Z " fill="rgb(242,242,242)"/></g><g opacity="0.2"><rect x="251.851" y="138.491" width="1.802" height="0.075" transform="matrix(1,0,0,1,0,0)" fill="rgb(242,242,242)"/></g><g opacity="0.2"><rect x="90.591" y="138.491" width="1.802" height="0.075" transform="matrix(1,0,0,1,0,0)" fill="rgb(242,242,242)"/></g><g opacity="0.2"><path d=" M 248.306 138.566 L 244.764 138.566 L 244.764 138.491 L 248.306 138.491 L 248.306 138.566 Z  M 241.22 138.566 L 237.678 138.566 L 237.678 138.491 L 241.22 138.491 L 241.22 138.566 Z  M 234.134 138.566 L 230.589 138.566 L 230.589 138.491 L 234.134 138.491 L 234.134 138.566 Z  M 227.047 138.566 L 223.503 138.566 L 223.503 138.491 L 227.047 138.491 L 227.047 138.566 Z  M 219.961 138.566 L 216.416 138.566 L 216.416 138.491 L 219.961 138.491 L 219.961 138.566 Z  M 212.872 138.566 L 209.33 138.566 L 209.33 138.491 L 212.872 138.491 L 212.872 138.566 Z  M 205.785 138.566 L 202.241 138.566 L 202.241 138.491 L 205.785 138.491 L 205.785 138.566 Z  M 198.699 138.566 L 195.154 138.566 L 195.154 138.491 L 198.699 138.491 L 198.699 138.566 Z  M 191.613 138.566 L 188.068 138.566 L 188.068 138.491 L 191.613 138.491 L 191.613 138.566 Z  M 184.524 138.566 L 180.982 138.566 L 180.982 138.491 L 184.524 138.491 L 184.524 138.566 Z  M 177.437 138.566 L 173.893 138.566 L 173.893 138.491 L 177.437 138.491 L 177.437 138.566 Z  M 170.351 138.566 L 166.806 138.566 L 166.806 138.491 L 170.351 138.491 L 170.351 138.566 Z  M 163.265 138.566 L 159.72 138.566 L 159.72 138.491 L 163.265 138.491 L 163.265 138.566 Z  M 156.175 138.566 L 152.634 138.566 L 152.634 138.491 L 156.175 138.491 L 156.175 138.566 Z  M 149.089 138.566 L 145.548 138.566 L 145.548 138.491 L 149.089 138.491 L 149.089 138.566 Z  M 142.003 138.566 L 138.47 138.566 L 138.47 138.491 L 142.015 138.491 L 142.003 138.566 Z  M 134.917 138.566 L 131.372 138.566 L 131.372 138.491 L 134.917 138.491 L 134.917 138.566 Z  M 127.827 138.566 L 124.286 138.566 L 124.286 138.491 L 127.827 138.491 L 127.827 138.566 Z  M 120.741 138.566 L 117.199 138.566 L 117.199 138.491 L 120.747 138.491 L 120.741 138.566 Z  M 113.655 138.566 L 110.11 138.566 L 110.11 138.491 L 113.655 138.491 L 113.655 138.566 Z  M 106.569 138.566 L 103.024 138.566 L 103.024 138.491 L 106.569 138.491 L 106.569 138.566 Z  M 99.479 138.566 L 95.938 138.566 L 95.938 138.491 L 99.479 138.491 L 99.479 138.566 Z " fill="rgb(242,242,242)"/></g><g opacity="0.2"><rect x="251.851" y="138.491" width="1.802" height="0.075" transform="matrix(1,0,0,1,0,0)" fill="rgb(242,242,242)"/></g></g><mask id="_mask_8taAVm0tX1dfYB1XLVaMf41EgskYPPCM" x="-200%" y="-200%" width="400%" height="400%"><rect x="-200%" y="-200%" width="400%" height="400%" style="fill:white;"/><line x1="111.303" y1="84.571" x2="111.303" y2="138.698" fill="black" stroke="none"/></mask><line x1="111.303" y1="84.571" x2="111.303" y2="138.698" mask="url(#_mask_8taAVm0tX1dfYB1XLVaMf41EgskYPPCM)" vector-effect="non-scaling-stroke" stroke-width="0.06" stroke="rgb(242,242,242)" stroke-linejoin="miter" stroke-linecap="butt" stroke-miterlimit="10"/><mask id="_mask_tBeVdRMO6DInflaXuIYJO5dgi0OW7ICn" x="-200%" y="-200%" width="400%" height="400%"><rect x="-200%" y="-200%" width="400%" height="400%" style="fill:white;"/><line x1="133.231" y1="84.571" x2="133.231" y2="138.698" fill="black" stroke="none"/></mask><line x1="133.231" y1="84.571" x2="133.231" y2="138.698" mask="url(#_mask_tBeVdRMO6DInflaXuIYJO5dgi0OW7ICn)" vector-effect="non-scaling-stroke" stroke-width="0.06" stroke="rgb(242,242,242)" stroke-linejoin="miter" stroke-linecap="butt" stroke-miterlimit="10"/><mask id="_mask_ZlqyPc3FH0bKBFA5cWA3hkHkGYQUf2lQ" x="-200%" y="-200%" width="400%" height="400%"><rect x="-200%" y="-200%" width="400%" height="400%" style="fill:white;"/><line x1="155.16" y1="84.571" x2="155.16" y2="138.698" fill="black" stroke="none"/></mask><line x1="155.16" y1="84.571" x2="155.16" y2="138.698" mask="url(#_mask_ZlqyPc3FH0bKBFA5cWA3hkHkGYQUf2lQ)" vector-effect="non-scaling-stroke" stroke-width="0.06" stroke="rgb(242,242,242)" stroke-linejoin="miter" stroke-linecap="butt" stroke-miterlimit="10"/><mask id="_mask_Z40zncZtsXQBtdNw44j2KiSMduFFLjsT" x="-200%" y="-200%" width="400%" height="400%"><rect x="-200%" y="-200%" width="400%" height="400%" style="fill:white;"/><line x1="177.089" y1="84.571" x2="177.089" y2="138.698" fill="black" stroke="none"/></mask><line x1="177.089" y1="84.571" x2="177.089" y2="138.698" mask="url(#_mask_Z40zncZtsXQBtdNw44j2KiSMduFFLjsT)" vector-effect="non-scaling-stroke" stroke-width="0.06" stroke="rgb(242,242,242)" stroke-linejoin="miter" stroke-linecap="butt" stroke-miterlimit="10"/><mask id="_mask_ENgH2I6C8XMwhjN4B5NGl7MTldd6H3YT" x="-200%" y="-200%" width="400%" height="400%"><rect x="-200%" y="-200%" width="400%" height="400%" style="fill:white;"/><line x1="199.018" y1="84.571" x2="199.018" y2="138.698" fill="black" stroke="none"/></mask><line x1="199.018" y1="84.571" x2="199.018" y2="138.698" mask="url(#_mask_ENgH2I6C8XMwhjN4B5NGl7MTldd6H3YT)" vector-effect="non-scaling-stroke" stroke-width="0.06" stroke="rgb(242,242,242)" stroke-linejoin="miter" stroke-linecap="butt" stroke-miterlimit="10"/><mask id="_mask_xFASdjrGclh5Rjd3yI5Hjbt9KwJmOdSk" x="-200%" y="-200%" width="400%" height="400%"><rect x="-200%" y="-200%" width="400%" height="400%" style="fill:white;"/><line x1="220.946" y1="84.571" x2="220.946" y2="138.698" fill="black" stroke="none"/></mask><line x1="220.946" y1="84.571" x2="220.946" y2="138.698" mask="url(#_mask_xFASdjrGclh5Rjd3yI5Hjbt9KwJmOdSk)" vector-effect="non-scaling-stroke" stroke-width="0.06" stroke="rgb(242,242,242)" stroke-linejoin="miter" stroke-linecap="butt" stroke-miterlimit="10"/><mask id="_mask_PYTOg3j1R9MlI1mXnwTZoAIBMPJsKTno" x="-200%" y="-200%" width="400%" height="400%"><rect x="-200%" y="-200%" width="400%" height="400%" style="fill:white;"/><line x1="242.875" y1="84.571" x2="242.875" y2="138.698" fill="black" stroke="none"/></mask><line x1="242.875" y1="84.571" x2="242.875" y2="138.698" mask="url(#_mask_PYTOg3j1R9MlI1mXnwTZoAIBMPJsKTno)" vector-effect="non-scaling-stroke" stroke-width="0.06" stroke="rgb(242,242,242)" stroke-linejoin="miter" stroke-linecap="butt" stroke-miterlimit="10"/><g opacity="0.3"><path d=" M 247.618 80.918 L 245.11 83.531 C 245.059 83.586 245.017 83.647 244.984 83.714 L 243.428 86.92 C 243.301 87.183 243.025 87.342 242.734 87.319 L 242.235 87.28 C 241.939 87.259 241.687 87.055 241.604 86.769 L 241.124 85.105 C 241.038 84.807 240.768 84.598 240.457 84.591 C 240.146 84.583 239.866 84.778 239.766 85.072 L 238.958 87.439 C 238.86 87.729 238.588 87.924 238.282 87.923 L 235.197 87.923 C 234.847 87.922 234.55 87.667 234.494 87.322 L 233.623 81.87 C 233.575 81.564 233.336 81.324 233.03 81.276 C 232.724 81.228 232.422 81.383 232.283 81.66 L 227.816 90.476 C 227.723 90.661 227.554 90.796 227.353 90.846 C 227.153 90.896 226.94 90.857 226.771 90.738 L 224.115 88.863 C 223.815 88.652 223.405 88.702 223.163 88.977 L 222.157 90.14 C 222.127 90.174 222.101 90.211 222.079 90.251 L 219.393 94.898 C 219.254 95.141 218.984 95.279 218.705 95.249 L 217.068 95.087 C 216.954 95.076 216.838 95.093 216.732 95.135 L 215.266 95.721 C 214.913 95.854 214.518 95.689 214.365 95.346 L 214.043 94.61 C 213.925 94.34 213.653 94.171 213.358 94.183 L 211.682 94.261 C 211.472 94.27 211.277 94.373 211.15 94.541 L 210.676 95.159 C 210.517 95.367 210.256 95.471 209.998 95.43 C 209.739 95.388 209.524 95.208 209.438 94.961 L 208.837 93.264 C 208.762 93.05 208.589 92.884 208.372 92.818 C 208.155 92.752 207.919 92.794 207.738 92.93 L 204.884 95.069 L 201.73 97.614 C 201.51 97.79 201.206 97.821 200.955 97.692 L 198.507 96.421 C 198.375 96.354 198.227 96.329 198.08 96.349 L 193.121 97.043 C 192.826 97.083 192.587 97.3 192.52 97.59 L 191.64 101.414 C 191.584 101.656 191.406 101.852 191.169 101.93 C 190.933 102.008 190.673 101.957 190.483 101.795 L 190.483 101.795 C 190.316 101.653 190.093 101.595 189.878 101.638 C 189.663 101.682 189.48 101.821 189.381 102.017 L 188.705 103.372 C 188.602 103.575 188.41 103.718 188.185 103.757 L 186.65 104.012 C 186.551 104.029 186.457 104.067 186.374 104.123 L 183.956 105.733 C 183.84 105.811 183.703 105.853 183.562 105.853 L 182.43 105.853 C 182.145 105.854 181.888 105.685 181.775 105.424 L 181.475 104.706 C 181.397 104.53 181.252 104.393 181.072 104.326 C 180.893 104.258 180.693 104.267 180.519 104.348 L 177.894 105.577 C 177.679 105.678 177.428 105.666 177.224 105.544 L 176.022 104.82 C 175.912 104.754 175.785 104.718 175.656 104.718 L 173.004 104.718 C 172.863 104.718 172.726 104.76 172.61 104.838 L 169.964 106.595 C 169.756 106.733 169.492 106.752 169.267 106.646 L 168.065 106.079 C 167.777 105.944 167.436 106.017 167.227 106.256 L 166.656 106.908 C 166.505 107.083 166.277 107.173 166.047 107.149 C 165.816 107.125 165.612 106.99 165.5 106.788 L 165.328 106.487 C 165.235 106.32 165.077 106.197 164.892 106.147 C 164.706 106.097 164.508 106.125 164.343 106.223 L 162.261 107.457 C 162.042 107.583 161.772 107.583 161.553 107.457 L 160.693 106.98 C 160.497 106.869 160.259 106.859 160.054 106.953 L 159.237 107.325 C 159.051 107.409 158.838 107.409 158.652 107.327 C 158.466 107.244 158.323 107.086 158.26 106.893 L 157.732 105.319 C 157.639 105.022 157.363 104.821 157.053 104.823 L 156.284 104.823 C 156.163 104.823 156.044 104.792 155.938 104.733 L 152.985 103.114 C 152.74 102.981 152.44 103.003 152.216 103.171 L 150.05 104.793 C 149.927 104.885 149.778 104.935 149.624 104.934 L 146.899 104.934 C 146.759 104.934 146.622 104.976 146.506 105.054 L 145.995 105.394 C 145.825 105.508 145.614 105.543 145.417 105.491 C 145.219 105.438 145.053 105.303 144.962 105.12 L 144.839 104.877 C 144.719 104.634 144.472 104.48 144.202 104.481 L 142.835 104.481 C 142.615 104.481 142.408 104.583 142.273 104.757 L 141.426 105.841 C 141.284 106.024 141.061 106.126 140.83 106.114 C 140.599 106.103 140.388 105.98 140.264 105.784 L 140.023 105.409 C 139.817 105.082 139.387 104.98 139.056 105.18 L 138.353 105.601 C 138.109 105.747 137.801 105.734 137.569 105.568 L 134.736 103.516 C 134.686 103.48 134.631 103.45 134.574 103.426 L 132.36 102.576 C 132.002 102.446 131.605 102.621 131.459 102.973 L 129.918 106.727 C 129.896 106.78 129.881 106.836 129.873 106.893 L 129.374 110.275 C 129.352 110.418 129.287 110.551 129.188 110.657 L 128.134 111.789 C 127.909 112.027 127.552 112.082 127.266 111.924 L 125.436 110.909 C 125.252 110.806 125.031 110.79 124.834 110.865 C 124.637 110.941 124.483 111.1 124.415 111.299 L 123.255 114.691 C 123.229 114.765 123.216 114.843 123.216 114.922 L 123.216 117.061 C 123.216 117.344 123.047 117.6 122.787 117.713 L 120.927 118.536 C 120.718 118.626 120.478 118.611 120.282 118.494 L 118.882 117.671 C 118.742 117.589 118.579 117.557 118.419 117.581 L 115.965 117.932 C 115.678 117.973 115.395 117.835 115.25 117.584 L 114.835 116.875 C 114.746 116.722 114.602 116.608 114.433 116.556 L 113.318 116.208 C 113.053 116.123 112.763 116.202 112.576 116.409 L 111.029 118.127 C 110.907 118.262 110.739 118.346 110.558 118.362 L 108.275 118.554 C 108.169 118.56 108.066 118.591 107.974 118.644 L 103.994 120.933 C 103.74 121.077 103.424 121.052 103.195 120.87 L 102.066 119.969 C 101.939 119.868 101.783 119.813 101.621 119.813 L 97.344 119.813 C 97.127 119.813 96.922 119.715 96.788 119.545 L 95.709 118.2 C 95.579 118.037 95.383 117.94 95.174 117.934 C 94.965 117.928 94.765 118.014 94.625 118.169 L 93.327 119.611 C 93.21 119.742 93.145 119.911 93.144 120.086 L 93.144 138.001 C 93.144 138.19 93.219 138.371 93.353 138.505 C 93.486 138.638 93.667 138.713 93.856 138.713 L 248.177 138.713 C 248.366 138.713 248.548 138.638 248.681 138.504 C 248.815 138.37 248.89 138.188 248.889 137.998 L 248.847 81.425 C 248.851 81.132 248.676 80.866 248.405 80.754 C 248.134 80.642 247.822 80.707 247.618 80.918 Z " fill="rgb(24,144,255)"/></g><g opacity="0.3"><path d=" M 247.48 104.117 L 245.155 105.667 C 245.073 105.722 245.001 105.79 244.942 105.868 L 243.497 107.776 C 243.319 108.005 243.042 108.135 242.752 108.124 L 242.28 108.1 C 241.95 108.084 241.657 107.884 241.52 107.584 L 241.22 106.944 C 241.083 106.637 240.783 106.436 240.447 106.425 C 240.112 106.414 239.799 106.596 239.643 106.893 L 239.042 108.043 C 238.889 108.331 238.59 108.51 238.264 108.509 L 235.284 108.509 C 234.88 108.511 234.527 108.235 234.431 107.842 L 233.716 104.979 C 233.635 104.654 233.376 104.403 233.048 104.332 C 232.72 104.261 232.38 104.383 232.172 104.646 L 227.876 110.077 C 227.627 110.395 227.192 110.5 226.825 110.332 L 224.064 109.086 C 223.77 108.948 223.423 108.984 223.163 109.179 L 222.175 109.909 C 222.128 109.944 222.084 109.984 222.046 110.029 L 219.438 112.916 C 219.261 113.119 218.999 113.23 218.729 113.216 L 217.026 113.108 C 216.933 113.102 216.84 113.11 216.75 113.132 L 215.215 113.525 C 214.856 113.619 214.477 113.477 214.269 113.171 L 214.094 112.913 C 213.925 112.666 213.642 112.522 213.343 112.531 L 211.631 112.582 C 211.433 112.585 211.243 112.658 211.093 112.786 L 210.673 113.138 C 210.471 113.307 210.204 113.377 209.946 113.329 C 209.687 113.281 209.463 113.119 209.336 112.889 L 208.891 112.084 C 208.666 111.675 208.162 111.513 207.741 111.714 L 204.86 113.099 L 201.673 114.745 C 201.463 114.853 201.218 114.871 200.994 114.796 L 198.456 113.955 C 198.342 113.917 198.221 113.903 198.101 113.913 L 193.187 114.33 C 192.847 114.366 192.556 114.59 192.436 114.91 L 191.724 116.899 C 191.637 117.141 191.449 117.332 191.208 117.424 C 190.968 117.515 190.7 117.496 190.474 117.373 L 190.444 117.358 C 190.067 117.149 189.594 117.246 189.33 117.587 L 188.771 118.302 C 188.623 118.488 188.407 118.608 188.17 118.635 L 186.632 118.8 C 186.546 118.809 186.461 118.83 186.38 118.863 L 183.944 119.906 C 183.834 119.951 183.717 119.974 183.598 119.975 L 182.427 119.975 C 182.136 119.975 181.864 119.831 181.7 119.59 L 181.532 119.344 C 181.315 119.028 180.919 118.888 180.552 118.999 L 177.822 119.825 C 177.634 119.881 177.434 119.874 177.251 119.804 L 175.983 119.317 C 175.888 119.279 175.786 119.259 175.683 119.257 L 172.961 119.257 C 172.844 119.257 172.727 119.281 172.619 119.329 L 169.915 120.476 C 169.725 120.559 169.513 120.57 169.315 120.51 L 167.978 120.11 C 167.714 120.031 167.429 120.08 167.206 120.242 L 166.62 120.672 C 166.253 120.941 165.74 120.885 165.44 120.543 L 165.353 120.443 C 165.111 120.167 164.723 120.07 164.379 120.2 L 162.201 121.032 C 162.007 121.103 161.795 121.103 161.601 121.032 L 160.645 120.69 C 160.471 120.63 160.282 120.624 160.105 120.675 L 159.203 120.936 C 158.796 121.053 158.363 120.864 158.173 120.486 L 157.837 119.81 C 157.687 119.512 157.383 119.324 157.05 119.323 L 156.269 119.323 C 156.166 119.325 156.065 119.308 155.968 119.275 L 152.937 118.212 C 152.717 118.133 152.475 118.146 152.264 118.248 L 150.05 119.311 C 149.931 119.368 149.801 119.397 149.669 119.398 L 146.872 119.398 C 146.754 119.399 146.636 119.422 146.527 119.467 L 145.956 119.713 C 145.589 119.869 145.163 119.76 144.917 119.446 L 144.917 119.446 C 144.75 119.232 144.494 119.106 144.223 119.107 L 142.811 119.107 C 142.607 119.106 142.41 119.176 142.252 119.305 L 141.432 119.978 C 141.083 120.267 140.57 120.241 140.252 119.918 L 140.065 119.732 C 139.82 119.484 139.451 119.405 139.125 119.53 L 138.308 119.846 C 138.085 119.929 137.837 119.92 137.62 119.822 L 134.745 118.488 C 134.695 118.464 134.641 118.445 134.586 118.434 L 132.33 117.878 C 131.965 117.787 131.583 117.939 131.381 118.257 L 129.963 120.467 C 129.909 120.552 129.869 120.646 129.846 120.744 L 129.416 122.621 C 129.365 122.836 129.237 123.024 129.056 123.15 L 128.119 123.793 C 127.887 123.952 127.593 123.99 127.329 123.895 L 125.4 123.21 C 124.983 123.063 124.522 123.248 124.322 123.643 L 123.306 125.541 C 123.24 125.669 123.205 125.811 123.204 125.956 L 123.204 126.812 C 123.203 127.207 122.939 127.553 122.559 127.659 L 120.87 128.127 C 120.691 128.178 120.501 128.17 120.327 128.103 L 118.855 127.548 C 118.73 127.5 118.597 127.481 118.464 127.494 L 115.926 127.725 C 115.652 127.752 115.381 127.647 115.196 127.443 L 114.895 127.109 C 114.77 126.969 114.602 126.874 114.418 126.839 L 113.261 126.605 C 113.023 126.559 112.776 126.612 112.576 126.752 L 111.053 127.836 C 110.917 127.932 110.757 127.988 110.591 127.998 L 108.257 128.121 C 108.169 128.127 108.082 128.145 107.998 128.176 L 103.946 129.678 C 103.717 129.765 103.461 129.749 103.243 129.635 L 102.072 129.035 C 101.948 128.972 101.811 128.939 101.672 128.939 L 97.316 128.939 C 97.115 128.939 96.92 128.87 96.764 128.743 L 95.709 127.899 C 95.402 127.653 94.969 127.641 94.649 127.869 L 93.52 128.674 C 93.288 128.84 93.15 129.107 93.15 129.392 L 93.15 137.836 C 93.15 138.322 93.544 138.716 94.03 138.716 L 248.009 138.716 C 248.495 138.716 248.889 138.322 248.889 137.836 L 248.847 104.862 C 248.851 104.536 248.674 104.234 248.388 104.078 C 248.101 103.921 247.752 103.937 247.48 104.117 Z " fill="rgb(24,144,255)"/></g><circle vector-effect="non-scaling-stroke" cx="248.1017797173863" cy="103.89479145058476" r="2.102751414934062" fill="rgb(24,144,255)"/><g opacity="0.3"><path d=" M 247.967 124.697 L 245.11 125.649 C 245.055 125.668 245.003 125.693 244.954 125.724 L 243.386 126.761 C 243.271 126.835 243.137 126.873 243.001 126.869 L 242.025 126.845 C 241.841 126.841 241.667 126.762 241.544 126.626 L 240.943 125.965 C 240.823 125.831 240.654 125.752 240.474 125.745 C 240.294 125.737 240.119 125.803 239.988 125.926 L 238.976 126.875 C 238.853 126.992 238.689 127.058 238.519 127.058 L 235.011 127.058 C 234.755 127.06 234.522 126.915 234.41 126.686 L 233.608 125.085 C 233.523 124.916 233.371 124.79 233.189 124.739 C 233.007 124.688 232.813 124.717 232.653 124.817 L 227.687 127.962 C 227.537 128.056 227.356 128.088 227.182 128.049 L 223.782 127.283 C 223.656 127.254 223.524 127.262 223.403 127.307 L 222.163 127.767 C 222.13 127.777 222.099 127.791 222.07 127.809 L 219.327 129.329 C 219.221 129.387 219.102 129.416 218.982 129.413 L 216.951 129.347 C 216.916 129.344 216.881 129.344 216.846 129.347 L 214.893 129.596 C 214.723 129.617 214.552 129.573 214.413 129.473 L 214.016 129.173 C 213.899 129.086 213.756 129.041 213.611 129.044 L 211.469 129.074 C 211.383 129.074 211.298 129.091 211.22 129.125 L 210.258 129.53 C 210.018 129.63 209.742 129.582 209.549 129.407 L 208.762 128.71 C 208.599 128.564 208.375 128.506 208.162 128.557 L 204.875 129.35 L 201.496 130.224 C 201.405 130.244 201.311 130.244 201.219 130.224 L 198.366 129.75 C 198.32 129.747 198.274 129.747 198.228 129.75 L 192.95 129.987 C 192.745 129.996 192.555 130.099 192.436 130.266 L 191.64 131.363 C 191.477 131.591 191.189 131.693 190.919 131.618 L 190.069 131.384 C 189.886 131.336 189.691 131.366 189.531 131.468 L 188.681 132.012 C 188.583 132.072 188.472 132.107 188.357 132.114 L 186.554 132.213 C 186.52 132.21 186.486 132.21 186.452 132.213 L 183.851 132.769 C 183.804 132.778 183.757 132.783 183.71 132.784 L 182.184 132.784 C 182.042 132.784 181.904 132.738 181.79 132.654 L 181.393 132.354 C 181.252 132.249 181.075 132.204 180.901 132.231 L 177.654 132.718 C 177.579 132.73 177.503 132.73 177.428 132.718 L 175.902 132.417 C 175.86 132.413 175.818 132.413 175.776 132.417 L 172.847 132.417 C 172.801 132.413 172.755 132.413 172.709 132.417 L 169.738 133.048 C 169.659 133.063 169.577 133.063 169.498 133.048 L 167.729 132.781 C 167.617 132.765 167.504 132.778 167.398 132.817 L 166.263 133.231 C 166.078 133.3 165.872 133.283 165.701 133.183 L 165.163 132.883 C 165.027 132.802 164.865 132.774 164.71 132.805 L 162.006 133.318 C 161.926 133.333 161.843 133.333 161.763 133.318 L 160.462 133.087 C 160.391 133.077 160.32 133.077 160.249 133.087 L 158.813 133.294 C 158.605 133.326 158.394 133.257 158.245 133.108 L 157.771 132.654 C 157.644 132.53 157.473 132.46 157.296 132.459 L 156.157 132.459 C 156.119 132.462 156.081 132.462 156.043 132.459 L 152.721 131.876 C 152.631 131.857 152.538 131.857 152.448 131.876 L 149.936 132.477 C 149.885 132.489 149.833 132.495 149.78 132.495 L 146.755 132.495 C 146.709 132.491 146.663 132.491 146.617 132.495 L 145.593 132.715 C 145.42 132.762 145.236 132.741 145.079 132.654 L 144.797 132.471 C 144.689 132.403 144.564 132.366 144.436 132.366 L 142.607 132.366 C 142.52 132.366 142.434 132.384 142.354 132.417 L 141.075 132.94 C 140.896 133.014 140.694 133.007 140.522 132.919 L 139.843 132.576 C 139.711 132.51 139.561 132.489 139.417 132.516 L 138.077 132.775 C 137.986 132.794 137.892 132.794 137.8 132.775 L 134.694 132.054 L 134.625 132.054 L 131.985 131.726 C 131.809 131.706 131.632 131.756 131.492 131.864 L 129.99 133.03 C 129.906 133.095 129.839 133.179 129.795 133.276 L 129.459 134.024 C 129.382 134.19 129.241 134.318 129.068 134.379 L 127.915 134.772 C 127.808 134.811 127.693 134.82 127.581 134.799 L 125.016 134.343 C 124.808 134.307 124.596 134.37 124.442 134.514 L 123.424 135.466 C 123.289 135.593 123.212 135.77 123.213 135.956 L 123.213 135.956 C 123.213 136.289 122.967 136.572 122.637 136.617 L 120.711 136.884 C 120.639 136.896 120.566 136.896 120.495 136.884 L 118.753 136.554 C 118.701 136.547 118.648 136.547 118.596 136.554 L 115.686 136.686 C 115.563 136.69 115.442 136.662 115.334 136.605 L 114.823 136.325 C 114.745 136.28 114.658 136.253 114.568 136.244 L 113.039 136.091 C 112.937 136.08 112.835 136.093 112.739 136.127 L 110.936 136.767 C 110.87 136.79 110.8 136.804 110.729 136.806 L 108.167 136.875 C 108.132 136.872 108.097 136.872 108.062 136.875 L 103.721 137.677 C 103.627 137.697 103.53 137.697 103.435 137.677 L 101.958 137.298 C 101.902 137.285 101.846 137.278 101.789 137.277 L 97.13 137.277 C 97.045 137.278 96.96 137.262 96.881 137.229 L 95.421 136.647 C 95.268 136.588 95.099 136.588 94.946 136.647 L 93.589 137.13 C 93.322 137.224 93.144 137.476 93.144 137.758 L 93.144 138.058 C 93.143 138.236 93.213 138.406 93.338 138.532 C 93.463 138.658 93.634 138.728 93.811 138.728 L 248.213 138.728 C 248.39 138.728 248.56 138.658 248.686 138.532 C 248.811 138.406 248.881 138.236 248.88 138.058 L 248.841 125.361 C 248.849 125.142 248.751 124.934 248.577 124.801 C 248.402 124.669 248.175 124.63 247.967 124.697 Z " fill="rgb(24,144,255)"/></g><circle vector-effect="non-scaling-stroke" cx="132.45045189601348" cy="118.01326523657053" r="2.102751414934062" fill="rgb(24,144,255)"/><circle vector-effect="non-scaling-stroke" cx="233.38251981284796" cy="104.79597062841364" r="2.102751414934062" fill="rgb(24,144,255)"/><circle vector-effect="non-scaling-stroke" cx="181.11412749877294" cy="118.91444441439944" r="2.102751414934062" fill="rgb(24,144,255)"/><circle vector-effect="non-scaling-stroke" cx="208.44989589291563" cy="111.4046179324921" r="2.102751414934062" fill="rgb(24,144,255)"/><mask id="_mask_4yLlZyy0tYb1L4VSVrqqtwX2czNZojDv" x="-200%" y="-200%" width="400%" height="400%"><rect x="-200%" y="-200%" width="400%" height="400%" style="fill:white;"/><path d=" M 249.147 104.844 C 249.146 104.52 248.967 104.224 248.682 104.071 C 248.396 103.919 248.05 103.935 247.78 104.114 L 245.455 105.664 C 245.374 105.719 245.302 105.787 245.242 105.865 L 243.797 107.773 C 243.619 108.002 243.342 108.132 243.052 108.121 L 242.581 108.097 C 242.251 108.081 241.957 107.881 241.821 107.581 L 241.52 106.941 C 241.383 106.634 241.083 106.433 240.748 106.422 C 240.412 106.411 240.1 106.593 239.943 106.89 L 239.342 108.04 C 239.19 108.328 238.89 108.507 238.564 108.506 L 235.584 108.506 C 235.18 108.508 234.827 108.232 234.731 107.839 L 234.016 104.976 C 233.935 104.651 233.676 104.4 233.348 104.329 C 233.02 104.258 232.681 104.38 232.472 104.643 L 228.177 110.074 C 227.927 110.392 227.493 110.497 227.125 110.329 L 224.365 109.083 C 224.07 108.945 223.724 108.981 223.464 109.176 L 222.475 109.906 C 222.428 109.941 222.385 109.981 222.346 110.026 L 219.739 112.913 C 219.561 113.116 219.3 113.227 219.03 113.213 L 217.327 113.105 C 217.234 113.099 217.141 113.107 217.05 113.129 L 215.515 113.522 C 215.157 113.616 214.778 113.474 214.569 113.168 L 214.395 112.91 C 214.225 112.663 213.943 112.519 213.644 112.528 L 211.931 112.579 C 211.734 112.582 211.544 112.655 211.394 112.783 L 210.973 113.135 C 210.772 113.304 210.505 113.374 210.246 113.326 C 209.987 113.278 209.764 113.116 209.636 112.886 L 209.192 112.081 C 208.967 111.672 208.462 111.51 208.041 111.711 L 205.161 113.096 L 201.973 114.742 C 201.763 114.85 201.518 114.868 201.295 114.793 L 198.756 113.952 C 198.642 113.914 198.522 113.9 198.402 113.91 L 193.487 114.33 C 193.147 114.366 192.856 114.59 192.736 114.91 L 192.024 116.899 C 191.937 117.141 191.749 117.332 191.509 117.424 C 191.269 117.515 191 117.496 190.775 117.373 L 190.745 117.358 C 190.368 117.149 189.895 117.246 189.63 117.587 L 189.072 118.302 C 188.923 118.488 188.707 118.608 188.471 118.635 L 186.933 118.8 C 186.846 118.809 186.761 118.83 186.68 118.863 L 184.244 119.906 C 184.135 119.951 184.017 119.974 183.899 119.975 L 182.727 119.975 C 182.436 119.975 182.164 119.831 182 119.59 L 181.832 119.344 C 181.616 119.028 181.22 118.888 180.853 118.999 L 178.122 119.825 C 177.935 119.881 177.734 119.874 177.551 119.804 L 176.284 119.317 C 176.188 119.279 176.086 119.259 175.983 119.257 L 173.262 119.257 C 173.144 119.257 173.027 119.281 172.919 119.329 L 170.216 120.476 C 170.026 120.559 169.813 120.57 169.615 120.51 L 168.278 120.11 C 168.014 120.031 167.729 120.08 167.506 120.242 L 166.921 120.672 C 166.553 120.941 166.041 120.885 165.74 120.543 L 165.653 120.443 C 165.411 120.167 165.023 120.07 164.68 120.2 L 162.502 121.032 C 162.308 121.103 162.095 121.103 161.901 121.032 L 160.946 120.69 C 160.771 120.63 160.583 120.624 160.405 120.675 L 159.504 120.936 C 159.097 121.053 158.664 120.864 158.474 120.486 L 158.137 119.81 C 157.987 119.512 157.683 119.324 157.35 119.323 L 156.569 119.323 C 156.467 119.325 156.365 119.308 156.269 119.275 L 153.238 118.212 C 153.018 118.133 152.775 118.146 152.565 118.248 L 150.351 119.311 C 150.232 119.368 150.101 119.397 149.969 119.398 L 147.173 119.398 C 147.054 119.399 146.937 119.422 146.827 119.467 L 146.257 119.713 C 145.889 119.869 145.464 119.76 145.217 119.446 L 145.217 119.446 C 145.051 119.232 144.795 119.106 144.523 119.107 L 143.111 119.107 C 142.908 119.106 142.711 119.176 142.553 119.305 L 141.733 119.978 C 141.383 120.267 140.87 120.241 140.552 119.918 L 140.366 119.732 C 140.12 119.484 139.751 119.405 139.426 119.53 L 138.609 119.846 C 138.385 119.929 138.138 119.92 137.921 119.822 L 135.046 118.488 C 134.995 118.464 134.942 118.445 134.887 118.434 L 132.631 117.878 C 132.266 117.787 131.883 117.939 131.681 118.257 L 130.264 120.467 C 130.209 120.552 130.17 120.646 130.146 120.744 L 129.717 122.621 C 129.665 122.836 129.537 123.024 129.356 123.15 L 128.419 123.793 C 128.188 123.952 127.894 123.99 127.629 123.895 L 125.701 123.21 C 125.284 123.063 124.822 123.248 124.622 123.643 L 123.607 125.541 C 123.54 125.669 123.505 125.811 123.505 125.956 L 123.505 126.812 C 123.503 127.207 123.239 127.553 122.859 127.659 L 121.171 128.127 C 120.992 128.178 120.801 128.17 120.627 128.103 L 119.155 127.548 C 119.031 127.5 118.897 127.481 118.765 127.494 L 116.226 127.725 C 115.952 127.752 115.681 127.647 115.496 127.443 L 115.196 127.109 C 115.071 126.969 114.903 126.874 114.718 126.839 L 113.562 126.605 C 113.323 126.559 113.076 126.612 112.877 126.752 L 111.354 127.836 C 111.218 127.932 111.057 127.988 110.891 127.998 L 108.557 128.121 C 108.469 128.127 108.382 128.145 108.299 128.176 L 104.247 129.678 C 104.017 129.765 103.761 129.749 103.544 129.635 L 102.372 129.035 C 102.248 128.972 102.111 128.939 101.973 128.939 L 97.617 128.939 C 97.416 128.939 97.221 128.87 97.064 128.743 L 96.01 127.899 C 95.703 127.653 95.27 127.641 94.949 127.869 L 93.82 128.674 C 93.588 128.84 93.451 129.107 93.45 129.392" fill="black" stroke="none"/></mask><path d=" M 249.147 104.844 C 249.146 104.52 248.967 104.224 248.682 104.071 C 248.396 103.919 248.05 103.935 247.78 104.114 L 245.455 105.664 C 245.374 105.719 245.302 105.787 245.242 105.865 L 243.797 107.773 C 243.619 108.002 243.342 108.132 243.052 108.121 L 242.581 108.097 C 242.251 108.081 241.957 107.881 241.821 107.581 L 241.52 106.941 C 241.383 106.634 241.083 106.433 240.748 106.422 C 240.412 106.411 240.1 106.593 239.943 106.89 L 239.342 108.04 C 239.19 108.328 238.89 108.507 238.564 108.506 L 235.584 108.506 C 235.18 108.508 234.827 108.232 234.731 107.839 L 234.016 104.976 C 233.935 104.651 233.676 104.4 233.348 104.329 C 233.02 104.258 232.681 104.38 232.472 104.643 L 228.177 110.074 C 227.927 110.392 227.493 110.497 227.125 110.329 L 224.365 109.083 C 224.07 108.945 223.724 108.981 223.464 109.176 L 222.475 109.906 C 222.428 109.941 222.385 109.981 222.346 110.026 L 219.739 112.913 C 219.561 113.116 219.3 113.227 219.03 113.213 L 217.327 113.105 C 217.234 113.099 217.141 113.107 217.05 113.129 L 215.515 113.522 C 215.157 113.616 214.778 113.474 214.569 113.168 L 214.395 112.91 C 214.225 112.663 213.943 112.519 213.644 112.528 L 211.931 112.579 C 211.734 112.582 211.544 112.655 211.394 112.783 L 210.973 113.135 C 210.772 113.304 210.505 113.374 210.246 113.326 C 209.987 113.278 209.764 113.116 209.636 112.886 L 209.192 112.081 C 208.967 111.672 208.462 111.51 208.041 111.711 L 205.161 113.096 L 201.973 114.742 C 201.763 114.85 201.518 114.868 201.295 114.793 L 198.756 113.952 C 198.642 113.914 198.522 113.9 198.402 113.91 L 193.487 114.33 C 193.147 114.366 192.856 114.59 192.736 114.91 L 192.024 116.899 C 191.937 117.141 191.749 117.332 191.509 117.424 C 191.269 117.515 191 117.496 190.775 117.373 L 190.745 117.358 C 190.368 117.149 189.895 117.246 189.63 117.587 L 189.072 118.302 C 188.923 118.488 188.707 118.608 188.471 118.635 L 186.933 118.8 C 186.846 118.809 186.761 118.83 186.68 118.863 L 184.244 119.906 C 184.135 119.951 184.017 119.974 183.899 119.975 L 182.727 119.975 C 182.436 119.975 182.164 119.831 182 119.59 L 181.832 119.344 C 181.616 119.028 181.22 118.888 180.853 118.999 L 178.122 119.825 C 177.935 119.881 177.734 119.874 177.551 119.804 L 176.284 119.317 C 176.188 119.279 176.086 119.259 175.983 119.257 L 173.262 119.257 C 173.144 119.257 173.027 119.281 172.919 119.329 L 170.216 120.476 C 170.026 120.559 169.813 120.57 169.615 120.51 L 168.278 120.11 C 168.014 120.031 167.729 120.08 167.506 120.242 L 166.921 120.672 C 166.553 120.941 166.041 120.885 165.74 120.543 L 165.653 120.443 C 165.411 120.167 165.023 120.07 164.68 120.2 L 162.502 121.032 C 162.308 121.103 162.095 121.103 161.901 121.032 L 160.946 120.69 C 160.771 120.63 160.583 120.624 160.405 120.675 L 159.504 120.936 C 159.097 121.053 158.664 120.864 158.474 120.486 L 158.137 119.81 C 157.987 119.512 157.683 119.324 157.35 119.323 L 156.569 119.323 C 156.467 119.325 156.365 119.308 156.269 119.275 L 153.238 118.212 C 153.018 118.133 152.775 118.146 152.565 118.248 L 150.351 119.311 C 150.232 119.368 150.101 119.397 149.969 119.398 L 147.173 119.398 C 147.054 119.399 146.937 119.422 146.827 119.467 L 146.257 119.713 C 145.889 119.869 145.464 119.76 145.217 119.446 L 145.217 119.446 C 145.051 119.232 144.795 119.106 144.523 119.107 L 143.111 119.107 C 142.908 119.106 142.711 119.176 142.553 119.305 L 141.733 119.978 C 141.383 120.267 140.87 120.241 140.552 119.918 L 140.366 119.732 C 140.12 119.484 139.751 119.405 139.426 119.53 L 138.609 119.846 C 138.385 119.929 138.138 119.92 137.921 119.822 L 135.046 118.488 C 134.995 118.464 134.942 118.445 134.887 118.434 L 132.631 117.878 C 132.266 117.787 131.883 117.939 131.681 118.257 L 130.264 120.467 C 130.209 120.552 130.17 120.646 130.146 120.744 L 129.717 122.621 C 129.665 122.836 129.537 123.024 129.356 123.15 L 128.419 123.793 C 128.188 123.952 127.894 123.99 127.629 123.895 L 125.701 123.21 C 125.284 123.063 124.822 123.248 124.622 123.643 L 123.607 125.541 C 123.54 125.669 123.505 125.811 123.505 125.956 L 123.505 126.812 C 123.503 127.207 123.239 127.553 122.859 127.659 L 121.171 128.127 C 120.992 128.178 120.801 128.17 120.627 128.103 L 119.155 127.548 C 119.031 127.5 118.897 127.481 118.765 127.494 L 116.226 127.725 C 115.952 127.752 115.681 127.647 115.496 127.443 L 115.196 127.109 C 115.071 126.969 114.903 126.874 114.718 126.839 L 113.562 126.605 C 113.323 126.559 113.076 126.612 112.877 126.752 L 111.354 127.836 C 111.218 127.932 111.057 127.988 110.891 127.998 L 108.557 128.121 C 108.469 128.127 108.382 128.145 108.299 128.176 L 104.247 129.678 C 104.017 129.765 103.761 129.749 103.544 129.635 L 102.372 129.035 C 102.248 128.972 102.111 128.939 101.973 128.939 L 97.617 128.939 C 97.416 128.939 97.221 128.87 97.064 128.743 L 96.01 127.899 C 95.703 127.653 95.27 127.641 94.949 127.869 L 93.82 128.674 C 93.588 128.84 93.451 129.107 93.45 129.392" fill="none"/><path d=" M 249.147 104.844 C 249.146 104.52 248.967 104.224 248.682 104.071 C 248.396 103.919 248.05 103.935 247.78 104.114 L 245.455 105.664 C 245.374 105.719 245.302 105.787 245.242 105.865 L 243.797 107.773 C 243.619 108.002 243.342 108.132 243.052 108.121 L 242.581 108.097 C 242.251 108.081 241.957 107.881 241.821 107.581 L 241.52 106.941 C 241.383 106.634 241.083 106.433 240.748 106.422 C 240.412 106.411 240.1 106.593 239.943 106.89 L 239.342 108.04 C 239.19 108.328 238.89 108.507 238.564 108.506 L 235.584 108.506 C 235.18 108.508 234.827 108.232 234.731 107.839 L 234.016 104.976 C 233.935 104.651 233.676 104.4 233.348 104.329 C 233.02 104.258 232.681 104.38 232.472 104.643 L 228.177 110.074 C 227.927 110.392 227.493 110.497 227.125 110.329 L 224.365 109.083 C 224.07 108.945 223.724 108.981 223.464 109.176 L 222.475 109.906 C 222.428 109.941 222.385 109.981 222.346 110.026 L 219.739 112.913 C 219.561 113.116 219.3 113.227 219.03 113.213 L 217.327 113.105 C 217.234 113.099 217.141 113.107 217.05 113.129 L 215.515 113.522 C 215.157 113.616 214.778 113.474 214.569 113.168 L 214.395 112.91 C 214.225 112.663 213.943 112.519 213.644 112.528 L 211.931 112.579 C 211.734 112.582 211.544 112.655 211.394 112.783 L 210.973 113.135 C 210.772 113.304 210.505 113.374 210.246 113.326 C 209.987 113.278 209.764 113.116 209.636 112.886 L 209.192 112.081 C 208.967 111.672 208.462 111.51 208.041 111.711 L 205.161 113.096 L 201.973 114.742 C 201.763 114.85 201.518 114.868 201.295 114.793 L 198.756 113.952 C 198.642 113.914 198.522 113.9 198.402 113.91 L 193.487 114.33 C 193.147 114.366 192.856 114.59 192.736 114.91 L 192.024 116.899 C 191.937 117.141 191.749 117.332 191.509 117.424 C 191.269 117.515 191 117.496 190.775 117.373 L 190.745 117.358 C 190.368 117.149 189.895 117.246 189.63 117.587 L 189.072 118.302 C 188.923 118.488 188.707 118.608 188.471 118.635 L 186.933 118.8 C 186.846 118.809 186.761 118.83 186.68 118.863 L 184.244 119.906 C 184.135 119.951 184.017 119.974 183.899 119.975 L 182.727 119.975 C 182.436 119.975 182.164 119.831 182 119.59 L 181.832 119.344 C 181.616 119.028 181.22 118.888 180.853 118.999 L 178.122 119.825 C 177.935 119.881 177.734 119.874 177.551 119.804 L 176.284 119.317 C 176.188 119.279 176.086 119.259 175.983 119.257 L 173.262 119.257 C 173.144 119.257 173.027 119.281 172.919 119.329 L 170.216 120.476 C 170.026 120.559 169.813 120.57 169.615 120.51 L 168.278 120.11 C 168.014 120.031 167.729 120.08 167.506 120.242 L 166.921 120.672 C 166.553 120.941 166.041 120.885 165.74 120.543 L 165.653 120.443 C 165.411 120.167 165.023 120.07 164.68 120.2 L 162.502 121.032 C 162.308 121.103 162.095 121.103 161.901 121.032 L 160.946 120.69 C 160.771 120.63 160.583 120.624 160.405 120.675 L 159.504 120.936 C 159.097 121.053 158.664 120.864 158.474 120.486 L 158.137 119.81 C 157.987 119.512 157.683 119.324 157.35 119.323 L 156.569 119.323 C 156.467 119.325 156.365 119.308 156.269 119.275 L 153.238 118.212 C 153.018 118.133 152.775 118.146 152.565 118.248 L 150.351 119.311 C 150.232 119.368 150.101 119.397 149.969 119.398 L 147.173 119.398 C 147.054 119.399 146.937 119.422 146.827 119.467 L 146.257 119.713 C 145.889 119.869 145.464 119.76 145.217 119.446 L 145.217 119.446 C 145.051 119.232 144.795 119.106 144.523 119.107 L 143.111 119.107 C 142.908 119.106 142.711 119.176 142.553 119.305 L 141.733 119.978 C 141.383 120.267 140.87 120.241 140.552 119.918 L 140.366 119.732 C 140.12 119.484 139.751 119.405 139.426 119.53 L 138.609 119.846 C 138.385 119.929 138.138 119.92 137.921 119.822 L 135.046 118.488 C 134.995 118.464 134.942 118.445 134.887 118.434 L 132.631 117.878 C 132.266 117.787 131.883 117.939 131.681 118.257 L 130.264 120.467 C 130.209 120.552 130.17 120.646 130.146 120.744 L 129.717 122.621 C 129.665 122.836 129.537 123.024 129.356 123.15 L 128.419 123.793 C 128.188 123.952 127.894 123.99 127.629 123.895 L 125.701 123.21 C 125.284 123.063 124.822 123.248 124.622 123.643 L 123.607 125.541 C 123.54 125.669 123.505 125.811 123.505 125.956 L 123.505 126.812 C 123.503 127.207 123.239 127.553 122.859 127.659 L 121.171 128.127 C 120.992 128.178 120.801 128.17 120.627 128.103 L 119.155 127.548 C 119.031 127.5 118.897 127.481 118.765 127.494 L 116.226 127.725 C 115.952 127.752 115.681 127.647 115.496 127.443 L 115.196 127.109 C 115.071 126.969 114.903 126.874 114.718 126.839 L 113.562 126.605 C 113.323 126.559 113.076 126.612 112.877 126.752 L 111.354 127.836 C 111.218 127.932 111.057 127.988 110.891 127.998 L 108.557 128.121 C 108.469 128.127 108.382 128.145 108.299 128.176 L 104.247 129.678 C 104.017 129.765 103.761 129.749 103.544 129.635 L 102.372 129.035 C 102.248 128.972 102.111 128.939 101.973 128.939 L 97.617 128.939 C 97.416 128.939 97.221 128.87 97.064 128.743 L 96.01 127.899 C 95.703 127.653 95.27 127.641 94.949 127.869 L 93.82 128.674 C 93.588 128.84 93.451 129.107 93.45 129.392" fill="none" mask="url(#_mask_4yLlZyy0tYb1L4VSVrqqtwX2czNZojDv)" vector-effect="non-scaling-stroke" stroke-width="0.601" stroke="rgb(108,99,255)" stroke-linejoin="miter" stroke-linecap="butt" stroke-miterlimit="10"/><g opacity="0.2"><rect x="84.388" y="151.041" width="175.73" height="0.03" transform="matrix(1,0,0,1,0,0)" fill="rgb(242,242,242)"/></g><g opacity="0.3"><circle vector-effect="non-scaling-stroke" cx="111.42293774667297" cy="151.0565017569628" r="1.5019652963814707" fill="rgb(24,144,255)"/></g><g opacity="0.3"><circle vector-effect="non-scaling-stroke" cx="133.35163107384236" cy="151.0565017569628" r="1.5019652963814565" fill="rgb(24,144,255)"/></g><g opacity="0.3"><circle vector-effect="non-scaling-stroke" cx="155.28032440101174" cy="151.0565017569628" r="1.5019652963814565" fill="rgb(24,144,255)"/></g><g opacity="0.3"><circle vector-effect="non-scaling-stroke" cx="177.20901772818115" cy="151.0565017569628" r="1.5019652963814565" fill="rgb(24,144,255)"/></g><g opacity="0.3"><circle vector-effect="non-scaling-stroke" cx="199.13771105535054" cy="151.0565017569628" r="1.5019652963814565" fill="rgb(24,144,255)"/></g><g opacity="0.3"><circle vector-effect="non-scaling-stroke" cx="221.06640438251995" cy="151.0565017569628" r="1.5019652963814565" fill="rgb(24,144,255)"/></g><g opacity="0.3"><circle vector-effect="non-scaling-stroke" cx="242.99509770968933" cy="151.0565017569628" r="1.5019652963814565" fill="rgb(24,144,255)"/></g><mask id="_mask_nTP2dJQta13qORZetfoMAD9CKt7czVdd" x="-200%" y="-200%" width="400%" height="400%"><rect x="-200%" y="-200%" width="400%" height="400%" style="fill:white;"/><path d=" M 72.002 208.978 C 71.101 207.323 72.123 205.295 73.291 203.821 C 74.46 202.346 75.877 200.817 75.847 198.927 C 75.802 196.224 72.934 194.626 70.642 193.193 C 68.939 192.128 67.37 190.865 65.967 189.429 C 65.38 188.877 64.894 188.226 64.532 187.506 C 64.057 186.449 64.069 185.247 64.099 184.091 Q 64.252 178.299 64.673 172.529" fill="black" stroke="none"/></mask><path d=" M 72.002 208.978 C 71.101 207.323 72.123 205.295 73.291 203.821 C 74.46 202.346 75.877 200.817 75.847 198.927 C 75.802 196.224 72.934 194.626 70.642 193.193 C 68.939 192.128 67.37 190.865 65.967 189.429 C 65.38 188.877 64.894 188.226 64.532 187.506 C 64.057 186.449 64.069 185.247 64.099 184.091 Q 64.252 178.299 64.673 172.529" fill="none"/><path d=" M 72.002 208.978 C 71.101 207.323 72.123 205.295 73.291 203.821 C 74.46 202.346 75.877 200.817 75.847 198.927 C 75.802 196.224 72.934 194.626 70.642 193.193 C 68.939 192.128 67.37 190.865 65.967 189.429 C 65.38 188.877 64.894 188.226 64.532 187.506 C 64.057 186.449 64.069 185.247 64.099 184.091 Q 64.252 178.299 64.673 172.529" fill="none" mask="url(#_mask_nTP2dJQta13qORZetfoMAD9CKt7czVdd)" vector-effect="non-scaling-stroke" stroke-width="2.403" stroke="rgb(63,61,86)" stroke-linejoin="miter" stroke-linecap="butt" stroke-miterlimit="10"/><path d=" M 60.314 172.324 C 60.379 170.889 61.172 169.587 62.417 168.87 L 63.36 170.735 L 63.33 168.476 C 63.781 168.344 64.251 168.287 64.721 168.308 C 67.037 168.423 68.824 170.392 68.713 172.709 C 68.603 175.025 66.637 176.816 64.32 176.71 C 62.003 176.604 60.21 174.642 60.311 172.324 L 60.314 172.324 Z " fill="rgb(87,184,148)"/><path d=" M 67.833 200.859 C 68.744 202.625 70.768 203.512 72.685 202.986 C 74.601 202.459 75.888 200.662 75.768 198.678 C 75.649 196.694 74.156 195.064 72.19 194.771 C 70.224 194.478 68.322 195.601 67.629 197.464 L 70.263 199.606 L 67.364 198.936 C 67.365 199.605 67.526 200.264 67.833 200.859 L 67.833 200.859 Z " fill="rgb(87,184,148)"/><path d=" M 69.915 192.673 C 72.086 192.826 74.015 191.298 74.363 189.149 C 74.71 187 73.36 184.942 71.251 184.403 L 71.275 186.139 L 70.32 184.25 L 70.32 184.25 C 69.203 184.195 68.11 184.588 67.283 185.341 C 66.456 186.094 65.963 187.146 65.913 188.263 C 65.889 188.75 65.95 189.237 66.094 189.702 C 66.613 191.399 68.142 192.588 69.915 192.673 L 69.915 192.673 Z " fill="rgb(87,184,148)"/><path d=" M 59.68 185.863 C 61.454 185.928 63.078 184.872 63.738 183.225 C 64.399 181.577 63.953 179.692 62.625 178.514 C 61.297 177.336 59.372 177.119 57.815 177.972 L 58.56 180.014 L 57.028 178.542 C 56.207 179.294 55.717 180.341 55.667 181.453 C 55.647 181.844 55.682 182.235 55.772 182.616 C 56.204 184.449 57.799 185.774 59.68 185.863 L 59.68 185.863 Z " fill="rgb(87,184,148)"/><g opacity="0.1"><path d=" M 60.882 173.448 C 61.855 173.553 62.801 173.856 63.778 173.916 C 64.754 173.976 65.826 173.742 66.445 172.985 C 66.776 172.577 66.944 172.057 67.223 171.612 C 67.49 171.197 67.855 170.853 68.286 170.612 C 68.98 172.063 68.786 173.782 67.787 175.042 C 66.787 176.301 65.156 176.88 63.586 176.534 C 62.016 176.187 60.781 174.975 60.404 173.412 Q 60.644 173.421 60.882 173.448 Z " fill="rgb(0,0,0)"/></g><g opacity="0.1"><path d=" M 59.68 185.863 C 61.159 185.938 62.569 185.23 63.391 183.998 C 64.213 182.766 64.327 181.192 63.69 179.855 C 63.356 180.08 63.068 180.368 62.843 180.702 C 62.543 181.156 62.36 181.679 62.008 182.096 C 61.35 182.868 60.23 183.12 59.212 183.075 C 58.193 183.03 57.211 182.739 56.208 182.646 C 56.067 182.646 55.925 182.625 55.781 182.622 C 56.215 184.45 57.804 185.771 59.68 185.863 Z " fill="rgb(0,0,0)"/></g><g opacity="0.1"><path d=" M 69.915 192.673 C 71.383 192.749 72.784 192.053 73.611 190.837 C 74.437 189.622 74.569 188.062 73.958 186.725 C 73.608 186.954 73.303 187.244 73.057 187.581 C 72.729 188.044 72.525 188.576 72.156 189.002 C 71.444 189.795 70.248 190.075 69.173 190.048 C 68.097 190.02 67.121 189.771 66.085 189.69 C 66.601 191.395 68.135 192.59 69.915 192.673 L 69.915 192.673 Z " fill="rgb(0,0,0)"/></g><g opacity="0.1"><path d=" M 67.833 200.859 C 68.783 202.981 71.273 203.932 73.396 202.982 C 75.519 202.033 76.47 199.542 75.52 197.419 C 75.172 197.646 74.86 197.923 74.595 198.242 C 74.192 198.732 73.928 199.288 73.465 199.744 C 72.603 200.591 71.212 200.946 69.972 200.973 C 69.257 200.976 68.543 200.938 67.833 200.859 L 67.833 200.859 Z " fill="rgb(0,0,0)"/></g><path d=" M 78.362 207.074 C 78.362 207.074 75.033 206.972 74.03 206.257 C 74.03 206.257 68.923 204.692 68.665 205.836 C 68.665 205.836 63.663 211.544 67.418 211.562 C 67.418 211.562 76.148 210.976 77.151 210.36 C 78.154 209.744 78.362 207.074 78.362 207.074 Z " fill="rgb(101,99,128)"/><g opacity="0.2"><path d=" M 67.352 211.162 C 71.11 211.192 76.082 210.579 77.082 209.961 C 77.845 209.495 78.148 207.828 78.251 207.062 L 78.362 207.062 C 78.362 207.062 78.151 209.744 77.16 210.366 C 77.16 210.366 71.185 211.592 67.427 211.568 C 66.343 211.568 65.97 211.174 65.991 210.603 C 66.133 210.94 66.544 211.156 67.352 211.162 Z " fill="rgb(0,0,0)"/></g><path d=" M 288.066 170.098 C 287.847 170.726 287.764 171.392 287.823 172.054 C 287.969 172.715 288.279 173.328 288.724 173.838 C 288.947 174.194 289.294 174.454 289.697 174.568 C 290.124 174.608 290.537 174.408 290.77 174.049 C 290.995 173.693 291.129 173.288 291.16 172.868 C 291.245 171.75 291.189 170.626 290.995 169.522 C 290.869 168.593 290.836 167.572 290.589 166.674 C 289.953 166.674 289.217 166.557 288.862 167.164 C 288.409 167.954 288.3 169.215 288.066 170.098 Z " fill="rgb(255,192,198)"/><path d=" M 291.551 153.562 C 291.394 154.003 291.175 154.424 291.031 154.871 C 290.893 155.337 290.793 155.814 290.731 156.295 C 290.285 159.124 289.683 161.926 288.928 164.688 C 288.66 165.5 288.508 166.345 288.478 167.2 L 290.196 167.14 C 290.357 167.114 290.523 167.15 290.658 167.242 C 290.806 167.374 290.905 167.665 291.091 167.59 C 291.413 165.94 291.639 164.271 291.767 162.595 C 291.836 161.393 291.803 160.215 291.881 159.029 C 292.031 156.665 292.734 153.97 291.815 151.684 C 291.849 152.321 291.76 152.959 291.551 153.562 L 291.551 153.562 Z " fill="rgb(63,61,86)"/><g opacity="0.1"><path d=" M 291.551 153.562 C 291.394 154.003 291.175 154.424 291.031 154.871 C 290.893 155.337 290.793 155.814 290.731 156.295 C 290.285 159.124 289.683 161.926 288.928 164.688 C 288.66 165.5 288.508 166.345 288.478 167.2 L 290.196 167.14 C 290.357 167.114 290.523 167.15 290.658 167.242 C 290.806 167.374 290.905 167.665 291.091 167.59 C 291.413 165.94 291.639 164.271 291.767 162.595 C 291.836 161.393 291.803 160.215 291.881 159.029 C 292.031 156.665 292.734 153.97 291.815 151.684 C 291.849 152.321 291.76 152.959 291.551 153.562 L 291.551 153.562 Z " fill="rgb(0,0,0)"/></g><path d=" M 293.686 139.401 C 293.266 139.762 293.122 140.338 292.999 140.879 L 292.001 145.271 C 291.773 146.274 291.545 147.278 291.4 148.296 C 290.77 152.549 291.5 156.923 290.8 161.165 C 290.597 162.11 290.463 163.069 290.397 164.033 C 290.367 165.8 291.049 167.557 290.767 169.299 C 290.672 169.609 290.672 169.939 290.767 170.249 C 290.911 170.549 291.397 170.645 291.533 170.354 C 291.557 170.3 291.572 170.244 291.578 170.186 L 292.617 163.628 C 292.866 162.069 293.113 160.486 292.941 158.915 C 292.824 157.845 292.512 156.776 292.683 155.713 C 292.796 155.186 292.95 154.669 293.143 154.166 C 294.146 151.162 294.008 147.896 293.443 144.79 C 293.329 144.339 293.296 143.871 293.347 143.408 C 293.485 142.649 294.074 142.066 294.47 141.405 C 294.771 140.906 295.288 139.81 295.071 139.209 C 294.849 138.506 294.11 139.038 293.686 139.401 Z " fill="rgb(63,61,86)"/><path d=" M 295.351 202.898 C 295.212 202.884 295.073 202.909 294.948 202.97 C 294.843 203.047 294.761 203.151 294.711 203.271 C 294.377 203.959 294.143 204.755 293.509 205.199 C 293.19 205.399 292.84 205.543 292.473 205.626 L 289.649 206.431 C 289.286 206.533 288.871 206.683 288.748 207.032 C 288.625 207.38 288.889 207.807 289.229 208.011 C 289.734 208.252 290.293 208.355 290.851 208.311 L 294.939 208.371 C 295.327 208.399 295.718 208.359 296.093 208.254 C 296.57 208.086 296.973 207.705 297.474 207.654 C 297.883 207.608 298.276 207.786 298.676 207.876 C 299.508 208.059 300.37 207.876 301.196 207.666 C 301.346 207.645 301.486 207.578 301.596 207.473 C 301.685 207.343 301.729 207.187 301.719 207.029 C 301.752 206.329 301.764 205.632 301.761 204.926 C 301.761 204.292 301.686 203.556 301.16 203.208 C 300.918 203.069 300.648 202.986 300.37 202.964 C 298.694 202.751 297.039 202.91 295.351 202.898 Z " fill="rgb(87,90,136)"/><path d=" M 306.168 211.793 C 306.052 212.066 305.906 212.325 305.732 212.565 L 304.011 215.172 C 303.308 216.233 302.581 217.368 302.533 218.639 C 303.68 219.081 304.912 219.258 306.138 219.159 C 306.751 219.143 307.348 218.957 307.862 218.621 C 308.601 218.077 308.892 217.119 309.133 216.242 C 309.15 216.125 309.208 216.018 309.298 215.941 C 309.451 215.836 309.658 215.941 309.845 215.902 C 310.226 215.854 310.358 215.374 310.385 215.001 C 310.461 213.813 310.36 212.621 310.085 211.463 C 310.064 211.318 310 211.183 309.902 211.075 C 309.787 210.989 309.651 210.938 309.508 210.928 C 308.649 210.781 307.79 210.609 306.928 210.483 C 305.789 210.3 306.489 210.973 306.168 211.793 Z " fill="rgb(87,90,136)"/><path d=" M 291.953 165.331 C 291.121 166.389 290.854 167.8 290.917 169.143 C 290.98 170.486 291.349 171.796 291.659 173.105 C 292.166 175.237 292.534 177.399 292.758 179.579 C 292.794 180.189 292.894 180.793 293.059 181.381 C 293.206 181.838 293.434 182.264 293.566 182.724 C 293.728 183.283 293.744 183.877 293.894 184.439 C 294.097 185.046 294.356 185.632 294.669 186.19 C 296.042 188.996 296.336 192.198 296.36 195.322 C 296.36 196.167 296.36 197.008 296.438 197.846 C 296.612 199.546 297.138 201.45 296.12 202.82 C 296.378 203.751 297.622 203.929 298.571 203.806 C 299.686 203.667 300.777 203.374 301.812 202.934 C 301.512 202.298 301.073 201.556 301.094 200.832 C 301.158 200.265 301.301 199.711 301.521 199.185 C 302.064 197.533 302.121 195.767 302.152 194.028 C 302.174 193.491 302.166 192.953 302.127 192.418 C 302.074 191.923 301.994 191.432 301.887 190.946 L 300.725 185.121 C 300.521 184.098 300.493 183.047 300.644 182.015 C 300.862 180.791 301.277 179.61 301.872 178.518 C 303.263 175.71 303.744 172.544 304.017 169.42 C 304.164 167.713 304.2 165.815 303.116 164.49 C 302.445 163.725 301.538 163.207 300.538 163.018 C 299.548 162.837 298.536 162.798 297.534 162.901 C 295.525 163.069 293.2 163.751 291.953 165.331 Z " fill="rgb(63,61,86)"/><path d=" M 292.196 166.079 C 291.812 167.371 292.767 168.629 293.26 169.885 C 293.542 170.609 293.683 171.387 294.116 172.045 C 294.651 172.847 295.57 173.322 296.15 174.094 C 296.729 174.866 296.898 175.77 297.351 176.572 C 297.805 177.374 298.553 178.041 298.973 178.876 C 299.61 180.123 299.517 181.618 299.965 182.946 C 300.283 183.898 300.881 184.749 301.112 185.731 C 301.214 186.172 301.241 186.632 301.355 187.065 C 301.623 188.098 302.356 188.999 302.431 190.069 C 302.479 190.768 302.245 191.537 302.614 192.132 C 302.836 192.496 303.239 192.709 303.515 193.033 C 303.717 193.329 303.863 193.659 303.945 194.007 L 304.546 195.974 C 305.125 197.885 305.191 199.858 305.747 201.778 C 306.303 203.697 306.696 205.773 306.048 207.666 C 305.786 208.45 305.351 209.255 305.57 210.051 C 305.759 210.62 306.19 211.078 306.748 211.3 C 307.302 211.513 307.89 211.624 308.484 211.628 C 309.28 211.67 310.136 211.628 310.794 211.186 C 310.471 208.773 310.342 206.338 310.409 203.905 C 310.484 202.319 310.71 200.739 310.71 199.149 C 310.676 198.143 310.581 197.14 310.424 196.145 C 310.245 194.657 309.927 193.189 309.475 191.76 C 309.223 191.121 309.013 190.467 308.844 189.801 C 308.748 189.348 308.718 188.882 308.652 188.422 C 308.586 187.963 308.487 187.521 308.388 187.05 L 307.985 185.193 C 307.895 184.785 307.649 184.427 307.631 184.01 L 307.508 181.306 C 307.309 176.878 307.117 172.378 308.183 168.089 C 307.562 166.244 306.513 164.301 304.726 163.529 C 303.99 163.235 303.205 163.085 302.413 163.087 C 298.763 162.973 295.495 164.538 292.196 166.079 Z " fill="rgb(63,61,86)"/><path d=" M 294.924 135.8 C 295.095 135.912 295.253 136.044 295.393 136.193 C 295.559 136.397 295.691 136.628 295.783 136.875 C 296.123 137.698 296.326 138.57 296.384 139.458 C 298.333 138.09 300.126 136.511 301.731 134.751 C 301.013 134.805 300.352 134.292 300.01 133.661 C 299.708 133.007 299.535 132.301 299.499 131.582 C 299.481 131.447 297.628 132.234 297.477 132.315 C 296.817 132.675 296.198 133.105 295.552 133.49 C 295.242 133.679 294.922 133.853 294.594 134.009 C 294.293 134.147 293.819 134.21 293.569 134.409 C 292.905 134.943 294.516 135.514 294.924 135.8 Z " fill="rgb(255,192,198)"/><path d=" M 294.624 137.833 C 294.549 138.413 294.648 139.005 294.561 139.581 C 294.437 140.414 293.96 141.138 293.599 141.901 C 292.614 144.042 292.698 146.497 292.653 148.852 C 292.608 151.429 292.395 153.997 292.178 156.566 L 291.785 161.267 C 291.716 162.078 291.647 162.895 291.485 163.697 C 291.399 164.035 291.357 164.382 291.361 164.73 C 291.412 165.149 291.536 165.556 291.728 165.932 C 291.907 166.432 292.193 166.888 292.566 167.266 C 292.956 167.646 293.546 167.732 294.029 167.479 L 294.383 166.413 C 294.41 167.297 295.11 168.014 295.993 168.062 C 296.3 168.051 296.603 167.998 296.895 167.906 L 299.673 167.152 C 300.274 167.016 300.859 166.814 301.416 166.551 C 302.617 165.911 303.422 164.709 303.855 163.424 C 304.287 162.138 304.374 160.771 304.425 159.419 C 304.537 156.298 304.453 153.147 303.792 150.107 C 303.515 148.831 303.137 147.575 302.908 146.289 C 302.643 144.555 302.512 142.802 302.518 141.047 L 302.422 136.704 C 302.448 136.165 302.356 135.627 302.155 135.127 C 301.936 134.621 301.418 134.312 300.869 134.361 C 300.037 134.517 299.841 135.589 299.391 136.307 C 299.006 136.923 298.361 137.32 297.739 137.695 C 297.33 137.941 296.82 138.194 296.399 137.965 C 295.978 137.737 295.981 137.001 295.549 136.812 C 294.975 136.502 294.675 137.389 294.624 137.833 Z " fill="rgb(242,242,242)"/><path d=" M 298.604 139.053 C 297.817 141.065 297.402 143.201 297.006 145.328 C 296.588 147.62 296.213 149.972 296.594 152.27 C 297.315 156.617 300.613 160.128 301.737 164.388 C 301.932 165.127 302.061 165.89 302.338 166.605 C 302.767 167.806 303.539 168.828 304.299 169.84 C 304.708 170.384 305.312 170.994 305.954 170.774 C 306.432 170.609 306.642 170.065 307.006 169.711 C 307.514 169.215 308.292 169.128 309 169.161 C 309.709 169.194 310.436 169.323 311.124 169.161 C 311.812 168.999 312.467 168.383 312.398 167.659 C 312.353 167.206 312.034 166.836 311.797 166.458 C 311.106 165.424 310.842 164.169 310.641 162.94 C 309.484 155.854 310.001 148.569 308.772 141.495 C 308.619 140.594 308.427 139.693 307.919 138.954 C 307.669 138.64 307.438 138.312 307.225 137.971 C 307.033 137.602 306.949 137.172 306.696 136.839 C 306.336 136.364 305.717 136.187 305.149 136.004 C 304.377 135.754 303.627 135.442 302.905 135.07 C 302.359 134.787 301.584 134.006 301.031 134.379 C 300.478 134.751 300.061 136.052 299.763 136.617 C 299.331 137.406 298.944 138.219 298.604 139.053 L 298.604 139.053 Z " fill="rgb(63,61,86)"/><path d=" M 300.983 168.338 C 300.556 168.437 300.103 168.302 299.673 168.398 C 298.967 168.56 298.562 169.278 298.243 169.927 C 298.126 170.128 298.053 170.351 298.03 170.582 C 298.013 170.819 298.152 171.039 298.373 171.126 C 298.615 171.161 298.858 171.058 299 170.858 C 299.138 170.662 299.299 170.483 299.481 170.327 C 299.98 169.993 300.659 170.348 301.046 170.804 C 301.434 171.261 301.725 171.835 302.248 172.108 C 302.55 172.243 302.875 172.323 303.206 172.342 C 303.553 172.399 303.907 172.399 304.254 172.342 C 304.608 172.286 304.914 172.062 305.074 171.742 C 305.151 171.534 305.185 171.313 305.173 171.093 L 305.225 168.089 C 305.245 167.913 305.21 167.735 305.122 167.581 C 305.017 167.459 304.878 167.371 304.723 167.329 C 304.164 167.116 302.954 166.392 302.392 166.755 C 301.764 167.2 301.884 168.131 300.983 168.338 Z " fill="rgb(255,192,198)"/><circle vector-effect="non-scaling-stroke" cx="295.21242320368737" cy="130.42851037645977" r="5.322965010375924" fill="rgb(255,192,198)"/><path d=" M 294.69 129.849 C 294.608 129.457 294.313 129.145 293.927 129.041 C 293.779 129.029 293.633 129.008 293.488 128.978 C 292.987 128.806 292.999 128.04 292.569 127.734 C 292.242 127.503 291.791 127.623 291.433 127.797 C 291.076 127.971 290.716 128.206 290.319 128.185 C 289.81 128.118 289.404 127.729 289.316 127.223 C 289.241 126.727 289.336 126.22 289.586 125.784 C 290.385 124.216 292.058 123.318 293.677 122.633 C 294.379 122.307 295.123 122.081 295.888 121.963 C 296.659 121.847 297.446 122.015 298.102 122.435 C 298.309 122.579 298.49 122.753 298.703 122.889 C 298.913 123.012 299.129 123.124 299.352 123.222 C 301.491 124.294 302.605 126.986 302.019 129.308 C 301.815 130.116 301.419 130.876 301.295 131.696 C 301.278 131.919 301.221 132.137 301.127 132.339 C 300.854 132.82 300.19 132.865 299.625 132.85 C 299.475 132.863 299.324 132.827 299.196 132.748 C 299.078 132.63 299.003 132.477 298.982 132.312 C 298.76 131.411 298.412 130.489 297.682 129.909 C 297.291 129.608 296.66 129.452 296.342 129.834 C 296.215 130.035 296.114 130.252 296.042 130.48 C 295.885 130.801 295.405 131.164 295.017 131.08 C 294.473 130.951 294.819 130.35 294.69 129.849 Z " fill="rgb(63,61,86)"/><g opacity="0.1"><path d=" M 307.799 136.956 C 307.159 136.881 307.036 140.233 306.39 140.236 C 306.207 140.236 306.24 139.53 306.09 139.636 C 305.939 139.741 306.477 142.039 306.39 142.219 C 306.063 142.895 306.714 140.023 306.39 140.699 C 305.96 141.582 306.156 141.87 305.933 142.829 C 305.441 144.931 302.987 146.457 303.485 148.554 C 304.066 150.849 304.49 153.18 304.753 155.532 C 304.841 156.283 304.854 157.041 304.792 157.794 C 304.621 159.428 303.873 160.939 303.119 162.402 C 302.458 163.682 301.785 164.956 301.247 166.289 C 301.076 166.614 301.023 166.988 301.097 167.347 C 301.319 168.023 302.215 168.095 302.899 168.29 C 304.302 168.69 305.501 170.092 306.925 169.765 C 307.562 167.83 307.486 165.791 308.042 163.829 C 308.613 161.82 309.947 160.071 310.379 158.029 C 310.53 157.184 310.602 156.327 310.596 155.469 L 310.806 145.992 C 310.833 145.429 310.814 144.864 310.749 144.304 C 310.645 143.728 310.494 143.162 310.295 142.612 L 309.196 139.308 C 308.907 138.425 308.703 137.064 307.799 136.956 Z " fill="rgb(0,0,0)"/></g><path d=" M 308.255 136.956 C 307.614 136.881 306.969 136.845 306.324 136.848 C 305.933 136.782 305.556 137.026 305.456 137.41 L 304.474 139.431 C 304.014 140.3 303.65 141.217 303.389 142.165 C 302.896 144.268 303.443 146.451 303.942 148.548 C 304.523 150.843 304.946 153.174 305.21 155.526 C 305.298 156.277 305.311 157.035 305.249 157.788 C 305.077 159.422 304.329 160.933 303.575 162.396 C 302.915 163.676 302.242 164.95 301.704 166.283 C 301.531 166.607 301.478 166.982 301.554 167.341 C 301.776 168.017 302.671 168.089 303.356 168.284 C 304.759 168.684 305.957 170.086 307.381 169.759 C 308.018 167.824 307.943 165.785 308.499 163.823 C 309.07 161.814 310.403 160.065 310.836 158.023 C 310.986 157.178 311.059 156.321 311.052 155.463 L 311.259 145.986 C 311.29 145.423 311.271 144.858 311.202 144.298 C 311.101 143.722 310.951 143.156 310.752 142.606 L 309.652 139.302 C 309.364 138.425 309.16 137.064 308.255 136.956 Z " fill="rgb(63,61,86)"/></g></g></svg>