<?xml version="1.0" encoding="UTF-8" standalone="no"?><!-- Generator: Gravit.io --><svg xmlns="http://www.w3.org/2000/svg" xmlns:xlink="http://www.w3.org/1999/xlink" style="isolation:isolate" viewBox="0 0 189.433 123.859" width="189.433pt" height="123.859pt"><defs><clipPath id="_clipPath_1n8X0rMNn18zZ0jw96uN5xyw8TXuzOTv"><rect width="189.433" height="123.859"/></clipPath></defs><g clip-path="url(#_clipPath_1n8X0rMNn18zZ0jw96uN5xyw8TXuzOTv)"><g><g><rect x="90.92" y="8.175" width="20.935" height="0.399" transform="matrix(1,0,0,1,0,0)" fill="rgb(204,204,204)"/><rect x="8.175" y="8.175" width="66.395" height="0.399" transform="matrix(1,0,0,1,0,0)" fill="rgb(204,204,204)"/><circle vector-effect="non-scaling-stroke" cx="8.174699397143636" cy="8.374246160440029" r="8.174699397143636" fill="rgb(24,144,255)"/><circle vector-effect="non-scaling-stroke" cx="45.45965464891169" cy="8.374246160440029" r="8.174699397143634" fill="rgb(63,61,86)"/><path d=" M 82.744 16.749 C 79.357 16.749 76.303 14.708 75.007 11.579 C 73.711 8.45 74.427 4.848 76.822 2.453 C 79.217 0.058 82.819 -0.658 85.948 0.638 C 89.078 1.934 91.118 4.987 91.118 8.374 C 91.118 12.999 87.369 16.749 82.744 16.749 Z  M 82.744 0.399 C 79.518 0.399 76.61 2.342 75.375 5.322 C 74.141 8.303 74.823 11.733 77.104 14.014 C 79.385 16.295 82.816 16.977 85.796 15.743 C 88.776 14.508 90.719 11.6 90.719 8.374 C 90.719 3.97 87.148 0.399 82.744 0.399 L 82.744 0.399 Z " fill="rgb(204,204,204)"/><path d=" M 120.029 16.749 C 116.642 16.749 113.588 14.708 112.292 11.579 C 110.996 8.45 111.712 4.848 114.107 2.453 C 116.502 0.058 120.104 -0.658 123.233 0.638 C 126.363 1.934 128.403 4.987 128.403 8.374 C 128.403 12.999 124.654 16.749 120.029 16.749 Z  M 120.029 0.399 C 115.624 0.399 112.053 3.97 112.053 8.374 C 112.053 12.779 115.624 16.35 120.029 16.35 C 124.433 16.35 128.004 12.779 128.004 8.374 C 128.004 6.259 127.164 4.231 125.668 2.735 C 124.172 1.239 122.144 0.399 120.029 0.399 L 120.029 0.399 Z " fill="rgb(204,204,204)"/><path d=" M 7.545 10.812 C 7.402 10.812 7.262 10.765 7.147 10.679 L 7.14 10.674 L 5.64 9.526 C 5.348 9.302 5.292 8.883 5.516 8.591 C 5.74 8.299 6.159 8.244 6.451 8.468 L 7.423 9.213 L 9.719 6.217 C 9.943 5.925 10.361 5.87 10.653 6.094 L 10.653 6.094 L 10.639 6.113 L 10.654 6.094 C 10.946 6.318 11.001 6.736 10.777 7.028 L 8.076 10.55 C 7.949 10.715 7.753 10.811 7.545 10.81 L 7.545 10.812 Z " fill="rgb(255,255,255)"/></g><g><path d=" M 145.236 43.347 C 145.389 43.417 145.536 43.499 145.676 43.592 L 159.645 37.63 L 160.144 33.95 L 165.726 33.915 L 165.396 42.356 L 146.957 47.233 C 146.918 47.361 146.872 47.486 146.818 47.609 C 146.073 49.197 144.186 49.885 142.594 49.15 C 141.002 48.414 140.303 46.531 141.03 44.935 C 141.757 43.339 143.636 42.63 145.236 43.347 L 145.236 43.347 Z " fill="rgb(254,184,184)"/><path d=" M 167.756 119.829 L 163.937 119.829 L 162.121 105.101 L 167.756 105.101 L 167.756 119.829 Z " fill="rgb(254,184,184)"/><path d=" M 161.21 118.738 L 168.574 118.738 L 168.574 123.374 L 156.573 123.374 C 156.573 120.813 158.649 118.737 161.21 118.737 L 161.21 118.737 L 161.21 118.738 Z " fill="rgb(47,46,65)"/><path d=" M 182.606 118.751 L 178.806 119.124 L 175.555 104.645 L 181.163 104.094 L 182.606 118.751 Z " fill="rgb(254,184,184)"/><path d=" M 175.983 118.307 L 183.31 117.586 L 183.764 122.199 L 171.824 123.375 C 171.573 120.827 173.435 118.559 175.982 118.307 L 175.983 118.307 Z " fill="rgb(47,46,65)"/><circle vector-effect="non-scaling-stroke" cx="168.81851411422903" cy="10.67783203342016" r="7.649789729716929" fill="rgb(254,184,184)"/><path d=" M 163.084 116.851 C 162.406 116.852 161.826 116.366 161.708 115.698 C 159.733 104.729 153.272 68.854 153.117 67.86 C 153.114 67.837 153.112 67.814 153.112 67.791 L 153.112 65.115 C 153.112 65.018 153.142 64.923 153.199 64.844 L 154.052 63.649 C 154.134 63.533 154.266 63.461 154.409 63.455 C 159.275 63.227 175.209 62.558 175.979 63.52 L 175.979 63.52 C 176.752 64.485 176.478 67.415 176.415 67.992 L 176.418 68.052 L 183.578 113.837 C 183.694 114.597 183.179 115.31 182.42 115.436 L 177.949 116.173 C 177.261 116.284 176.595 115.874 176.384 115.21 C 175.001 110.79 170.363 95.924 168.756 90.172 C 168.738 90.093 168.663 90.042 168.583 90.053 C 168.503 90.065 168.446 90.136 168.451 90.216 C 168.531 95.7 168.725 109.69 168.793 114.522 L 168.8 115.042 C 168.806 115.773 168.253 116.386 167.526 116.455 L 163.214 116.846 C 163.171 116.85 163.127 116.851 163.084 116.851 Z " fill="rgb(47,46,65)"/><path d=" M 163.964 21.336 C 162.629 22.129 161.83 23.588 161.371 25.074 C 160.523 27.822 160.012 30.662 159.85 33.533 L 159.365 42.129 L 153.368 64.919 C 158.566 69.317 161.564 68.317 168.561 64.72 C 175.559 61.122 176.358 65.919 176.358 65.919 L 177.757 46.528 L 179.756 25.338 C 179.307 24.798 178.799 24.31 178.242 23.883 C 174.498 20.971 169.626 19.938 165.023 21.079 L 163.964 21.336 Z " fill="rgb(230,230,230)"/><path d=" M 162.016 47.949 C 162.177 48.01 162.333 48.083 162.483 48.167 L 176.296 41.253 L 176.525 37.507 L 182.223 37.114 L 182.529 45.653 L 164.069 51.758 C 163.761 53.082 162.665 54.078 161.317 54.258 C 159.969 54.438 158.651 53.765 158.006 52.568 C 157.36 51.371 157.523 49.9 158.415 48.873 C 159.306 47.846 160.74 47.478 162.016 47.948 L 162.016 47.949 Z " fill="rgb(254,184,184)"/><path d=" M 179.657 25.434 C 183.055 26.633 183.654 39.629 183.654 39.629 C 179.656 37.43 174.858 41.028 174.858 41.028 C 174.858 41.028 173.859 37.629 172.659 33.231 C 171.923 30.717 172.526 28.001 174.258 26.035 C 174.258 26.035 176.258 24.234 179.657 25.434 Z " fill="rgb(230,230,230)"/><path d=" M 175.676 12.7 C 174.723 11.938 173.423 13.323 173.423 13.323 L 172.661 6.462 C 172.661 6.462 167.895 7.033 164.845 6.272 C 164.845 6.272 161.318 9.037 161.318 9.037 C 161.161 7.613 161.129 6.177 161.223 4.747 C 161.413 3.032 163.891 1.316 168.276 0.172 C 172.66 -0.971 174.948 3.985 174.948 3.985 C 177.999 5.509 176.631 13.464 175.676 12.7 Z " fill="rgb(47,46,65)"/></g><rect x="26.323" y="123.375" width="163.11" height="0.484" transform="matrix(1,0,0,1,0,0)" fill="rgb(230,230,230)"/><path d=" M 42.058 114.82 C 43.477 115.319 45.054 115.041 46.218 114.087 C 47.675 112.865 48.132 110.85 48.503 108.984 L 49.603 103.467 L 47.301 105.051 C 45.646 106.191 43.953 107.367 42.807 109.018 C 41.661 110.669 41.161 112.923 42.082 114.709" fill="rgb(230,230,230)"/><path d=" M 42.413 121.885 C 42.124 119.774 41.826 117.636 42.029 115.503 C 42.21 113.609 42.788 111.758 43.964 110.241 C 44.589 109.437 45.349 108.749 46.21 108.206 C 46.435 108.064 46.642 108.42 46.418 108.561 C 44.927 109.503 43.774 110.894 43.125 112.533 C 42.409 114.356 42.294 116.343 42.417 118.279 C 42.492 119.45 42.65 120.613 42.81 121.775 C 42.836 121.884 42.773 121.995 42.666 122.028 C 42.557 122.058 42.444 121.993 42.413 121.884 L 42.413 121.885 Z " fill="rgb(242,242,242)"/><path d=" M 44.499 118.498 C 45.108 119.423 46.155 119.964 47.262 119.924 C 48.66 119.858 49.827 118.882 50.876 117.956 L 53.981 115.214 L 51.926 115.116 C 50.449 115.045 48.933 114.98 47.524 115.435 C 46.116 115.891 44.819 116.988 44.562 118.444" fill="rgb(230,230,230)"/><path d=" M 41.595 123.098 C 42.988 120.63 44.607 117.888 47.497 117.011 C 48.301 116.768 49.144 116.681 49.98 116.755 C 50.244 116.777 50.178 117.184 49.914 117.161 C 48.512 117.045 47.113 117.415 45.952 118.209 C 44.834 118.97 43.965 120.027 43.228 121.148 C 42.777 121.834 42.373 122.551 41.97 123.266 C 41.841 123.494 41.465 123.329 41.595 123.098 Z " fill="rgb(242,242,242)"/><g><path d=" M 139.892 51.893 L 70.061 51.893 C 69.347 51.892 68.769 51.314 68.768 50.6 L 68.768 33.278 C 68.769 32.564 69.347 31.986 70.061 31.985 L 139.892 31.985 C 140.605 31.986 141.184 32.564 141.185 33.278 L 141.185 50.6 C 141.184 51.314 140.605 51.892 139.892 51.893 L 139.892 51.893 Z  M 70.061 32.502 C 69.633 32.503 69.285 32.85 69.285 33.278 L 69.285 50.6 C 69.285 51.029 69.633 51.376 70.061 51.376 L 139.892 51.376 C 140.32 51.376 140.667 51.029 140.668 50.6 L 140.668 33.278 C 140.667 32.85 140.32 32.503 139.892 32.502 L 70.061 32.502 Z " fill="rgb(230,230,230)"/><path d=" M 93.077 37.763 C 92.763 37.763 92.474 37.93 92.317 38.202 C 92.16 38.473 92.16 38.808 92.317 39.079 C 92.474 39.351 92.763 39.518 93.077 39.518 L 134.466 39.518 C 134.95 39.518 135.344 39.125 135.344 38.64 C 135.344 38.156 134.95 37.763 134.466 37.763 L 93.077 37.763 Z " fill="rgb(230,230,230)"/><path d=" M 93.077 43.03 C 92.763 43.03 92.474 43.198 92.317 43.469 C 92.16 43.741 92.16 44.076 92.317 44.347 C 92.474 44.619 92.763 44.786 93.077 44.786 L 110.887 44.786 C 111.2 44.786 111.49 44.619 111.647 44.347 C 111.804 44.076 111.804 43.741 111.647 43.469 C 111.49 43.198 111.2 43.03 110.887 43.03 L 93.077 43.03 Z " fill="rgb(230,230,230)"/><g><circle vector-effect="non-scaling-stroke" cx="80.96084607508804" cy="41.23452038501183" r="5.267677547450447" fill="rgb(230,230,230)"/><path d=" M 80.133 44.162 C 79.956 44.162 79.784 44.105 79.642 43.999 L 79.633 43.992 L 77.784 42.578 C 77.424 42.302 77.356 41.786 77.632 41.425 C 77.908 41.065 78.424 40.997 78.784 41.273 L 79.982 42.191 L 82.812 38.499 C 83.088 38.139 83.603 38.071 83.963 38.347 L 83.963 38.347 L 83.946 38.371 L 83.964 38.347 C 84.323 38.623 84.391 39.138 84.116 39.499 L 80.787 43.842 C 80.631 44.044 80.39 44.163 80.134 44.162 L 80.133 44.162 Z " fill="rgb(24,144,255)"/></g></g></g></g></svg>