<?xml version="1.0" encoding="UTF-8" standalone="no"?><!-- Generator: Gravit.io --><svg xmlns="http://www.w3.org/2000/svg" xmlns:xlink="http://www.w3.org/1999/xlink" style="isolation:isolate" viewBox="0 0 133.181 102.962" width="133.181pt" height="102.962pt"><defs><clipPath id="_clipPath_Wk0rCHEDsyVe33f5NLrDylPshoH2srWA"><rect width="133.181" height="102.962"/></clipPath></defs><g clip-path="url(#_clipPath_Wk0rCHEDsyVe33f5NLrDylPshoH2srWA)"><g><path d=" M 120.245 49.308 L 118.261 58.23 L 116.651 65.468 L 115.367 71.241 L 113.758 78.479 L 108.499 102.126 L 43.338 72.016 L 38.548 69.802 L 32.485 67 L 27.693 64.786 L 21.93 62.123 L 25.197 57.37 L 27.914 53.417 L 31.351 48.416 L 34.067 44.466 L 64.631 0 L 97.009 28.707 L 102.775 33.819 L 107.372 37.895 L 113.139 43.007 L 120.245 49.308 L 120.245 49.308 Z " fill="rgb(242,242,242)"/><path d=" M 25.528 75.557 C 21.171 73.128 18.459 69.812 17.466 65.701 C 16.729 62.648 16.941 59.213 18.095 55.491 C 18.951 52.747 20.235 50.155 21.898 47.81 C 30.722 35.32 31.519 27.181 30.633 22.552 C 29.662 17.478 26.507 15.37 26.475 15.349 L 26.611 15.14 C 26.644 15.161 29.882 17.318 30.876 22.495 C 31.45 25.48 31.18 28.884 30.075 32.612 C 28.699 37.251 26.017 42.413 22.102 47.954 C 20.454 50.277 19.182 52.846 18.334 55.565 C 16.44 61.67 16.173 70.056 25.65 75.339 L 25.528 75.557 Z " fill="rgb(47,46,65)"/><path d=" M 27.624 75.557 C 31.981 73.128 34.694 69.812 35.686 65.701 C 36.423 62.648 36.211 59.213 35.057 55.491 C 34.201 52.747 32.918 50.155 31.254 47.81 C 22.43 35.32 21.634 27.181 22.519 22.552 C 23.49 17.478 26.646 15.37 26.677 15.349 L 26.541 15.14 C 26.509 15.161 23.27 17.318 22.276 22.495 C 21.703 25.48 21.972 28.884 23.078 32.612 C 24.453 37.251 27.136 42.413 31.05 47.954 C 32.698 50.277 33.97 52.846 34.818 55.565 C 36.712 61.67 36.98 70.056 27.502 75.339 L 27.624 75.557 Z " fill="rgb(47,46,65)"/><path d=" M 122.594 65.064 C 118.236 62.635 115.524 59.318 114.531 55.207 C 113.794 52.155 114.006 48.719 115.161 44.997 C 116.016 42.253 117.3 39.661 118.963 37.317 C 127.787 24.826 128.584 16.687 127.698 12.059 C 126.727 6.984 123.572 4.877 123.54 4.856 L 123.676 4.646 C 123.709 4.668 126.947 6.824 127.942 12.002 C 128.515 14.987 128.245 18.39 127.14 22.118 C 125.764 26.758 123.082 31.92 119.167 37.461 C 117.519 39.784 116.247 42.352 115.399 45.071 C 113.506 51.176 113.238 59.562 122.715 64.846 L 122.594 65.064 Z " fill="rgb(47,46,65)"/><path d=" M 124.689 65.064 C 129.046 62.635 131.759 59.318 132.751 55.207 C 133.488 52.155 133.277 48.719 132.122 44.997 C 131.266 42.253 129.983 39.661 128.32 37.317 C 119.495 24.826 118.699 16.687 119.584 12.059 C 120.556 6.984 123.711 4.877 123.743 4.856 L 123.606 4.646 C 123.574 4.668 120.335 6.824 119.341 12.002 C 118.768 14.987 119.037 18.39 120.143 22.118 C 121.518 26.758 124.201 31.92 128.115 37.461 C 129.764 39.784 131.035 42.352 131.883 45.071 C 133.777 51.176 134.045 59.562 124.567 64.846 L 124.689 65.064 Z " fill="rgb(47,46,65)"/><path d=" M 58.441 37.47 C 55.167 31.938 48.69 31.68 48.69 31.68 C 48.69 31.68 42.378 30.873 38.33 39.298 C 34.556 47.151 29.348 54.733 37.491 56.571 L 38.962 51.993 L 39.873 56.912 C 41.033 56.996 42.196 57.015 43.357 56.972 C 52.079 56.69 60.384 57.054 60.117 53.925 C 59.761 49.764 61.591 42.793 58.441 37.47 Z " fill="rgb(47,46,65)"/><path d=" M 45.003 49.048 C 46.131 51.543 46.843 54.517 47.267 57.821 L 56.324 57.255 C 54.242 54.305 53.551 50.918 54.343 47.066 L 45.003 49.048 Z " fill="rgb(255,184,184)"/><g opacity="0.2"><path d=" M 45.003 49.048 C 46.131 51.543 46.843 54.517 47.267 57.821 L 56.324 57.255 C 54.242 54.305 53.551 50.918 54.343 47.066 L 45.003 49.048 Z " fill="rgb(0,0,0)"/></g><path d=" M 2.982 96.558 C 2.982 96.558 -1.705 99.069 0.673 101.213 C 0.673 101.213 6.194 98.375 6.194 98.375 L 2.982 96.558 Z " fill="rgb(255,184,184)"/><path d=" M 60.287 89.237 L 60.214 92.667 L 60.057 100.079 L 60.057 100.08 L 60.012 102.226 L 30.036 102.226 L 31.254 95.462 L 31.256 95.457 L 32.347 89.402 L 32.833 86.69 L 32.833 86.689 L 57.457 83.293 L 60.287 89.237 L 60.287 89.237 Z " fill="rgb(47,46,65)"/><path d=" M 60.287 89.237 L 60.213 92.667 C 51.501 92.444 37.998 90.341 32.346 89.401 L 32.833 86.69 L 57.456 83.294 L 60.287 89.237 Z " fill="rgb(63,61,86)"/><circle vector-effect="non-scaling-stroke" cx="49.39004338290769" cy="44.377620630297294" r="7.07563213036007" fill="rgb(255,184,184)"/><path d=" M 62.975 93.058 C 62.975 93.058 63.824 100.7 58.73 100.134 L 57.881 92.492 L 53.352 87.964 L 40.616 87.68 L 31.276 96.454 C 31.276 96.454 30.993 87.397 32.126 86.548 C 32.126 86.548 35.805 83.718 35.805 83.718 L 35.805 82.303 L 28.163 66.737 C 28.163 66.737 32.692 57.397 36.371 57.114 L 41.182 56.831 C 41.182 56.831 42.88 55.982 42.88 55.699 C 42.88 55.699 42.597 53.151 44.013 53.717 C 44.013 53.717 44.14 50.814 45.631 51.699 C 45.631 51.699 50.327 55.379 55.093 51.861 C 55.093 51.861 57.315 51.453 57.032 52.585 C 56.749 53.717 57.032 54.567 57.598 54.567 C 58.164 54.567 60.711 55.416 60.711 55.982 C 60.711 56.103 60.895 57.275 61.184 59.038 L 61.184 59.041 C 62.234 65.469 64.673 79.756 64.673 79.756 C 64.673 79.756 67.221 83.435 62.975 93.058 Z " fill="rgb(24,144,255)"/><path d=" M 30.144 65.321 L 28.163 66.737 L 10.05 89.945 L 0.427 97.586 C 0.427 97.586 5.804 96.737 4.672 101.266 L 37.786 82.303 L 30.144 65.321 Z " fill="rgb(24,144,255)"/><path d=" M 61.184 59.038 L 61.184 59.041 C 60.807 61.254 48.541 60.793 46.843 60.793 C 45.145 60.793 43.73 60.51 42.031 59.378 C 40.333 58.246 41.182 56.831 41.182 56.831 C 41.182 56.831 42.628 55.729 42.628 55.446 C 42.628 55.163 42.345 52.899 43.76 53.465 C 43.76 53.465 43.888 50.561 45.379 51.447 C 45.379 51.447 50.327 55.379 55.093 51.861 C 55.093 51.861 57.315 51.453 57.032 52.585 C 56.749 53.717 57.032 54.567 57.598 54.567 C 58.164 54.567 60.711 55.416 60.711 55.982 C 60.711 56.103 60.895 57.275 61.184 59.038 Z " fill="rgb(63,61,86)"/><path d=" M 59.72 48.481 C 59.72 48.481 57.456 43.67 55.192 45.934 C 55.192 45.934 57.739 51.595 57.739 51.595 L 59.72 48.481 Z " fill="rgb(255,184,184)"/><path d=" M 59.72 47.349 C 59.72 47.349 56.224 51.768 55.142 52.106 C 55.142 52.106 58.305 64.614 62.268 68.01 L 64.532 79.614 C 64.532 79.614 74.155 75.652 71.891 69.142 Q 71.857 69.045 71.823 68.948 C 69.932 63.527 67.323 58.384 64.065 53.657 L 59.72 47.349 Z " fill="rgb(24,144,255)"/><g opacity="0.2"><path d=" M 57.852 60.454 L 64.815 79.614 L 62.268 68.01 L 57.852 60.454 L 57.852 60.454 Z " fill="rgb(0,0,0)"/></g><path d=" M 56.993 36.937 L 50.594 33.585 L 41.758 34.956 L 39.929 43.031 L 44.481 42.856 L 45.752 39.889 L 45.752 42.807 L 47.852 42.726 L 49.071 38.003 L 49.833 43.031 L 57.298 42.879 L 56.993 36.937 L 56.993 36.937 Z " fill="rgb(47,46,65)"/><path d=" M 117.444 80.493 L 121.074 93.444 C 121.074 93.444 120.326 104.915 123.817 102.67 C 127.39 100.374 126.062 90.7 126.062 90.7 L 123.969 79.082 L 117.444 80.493 Z " fill="rgb(160,97,106)"/><path d=" M 119.384 44.162 L 122.382 47.16 L 122.382 61.446 C 122.382 61.446 124.145 64.091 123.793 64.796 C 123.793 64.796 123.087 65.502 123.44 66.031 C 123.44 66.031 124.145 66.913 123.793 67.265 C 123.793 67.265 123.44 68.5 123.793 68.853 C 123.793 68.853 124.851 69.735 124.322 70.264 C 124.322 70.264 123.087 70.44 123.793 72.38 C 123.793 72.38 125.733 74.849 125.38 75.554 C 125.38 75.554 125.027 78.024 125.027 78.024 L 117.444 79.082 L 115.856 59.153 L 119.384 44.162 Z " fill="rgb(208,205,225)"/><path d=" M 125.38 77.847 L 116.562 78.2 L 116.915 81.904 L 124.675 80.493 L 125.38 77.847 L 125.38 77.847 Z " fill="rgb(63,61,86)"/><path d=" M 101.13 25.732 L 100.072 36.314 L 110.83 37.901 L 111.624 31.817 L 112.417 25.732 L 101.13 25.732 L 101.13 25.732 Z " fill="rgb(160,97,106)"/><g opacity="0.1"><path d=" M 101.13 25.675 L 100.072 36.257 L 110.83 37.844 L 111.624 31.76 L 112.417 25.675 L 101.13 25.675 L 101.13 25.675 Z " fill="rgb(0,0,0)"/></g><path d=" M 77.762 76.084 L 83.759 88.958 C 83.759 88.958 84.817 94.954 86.404 95.131 C 86.404 95.131 89.579 88.958 89.579 88.958 L 87.462 85.607 L 84.993 76.084 L 77.762 76.084 Z " fill="rgb(160,97,106)"/><path d=" M 118.809 102.351 L 84.909 102.351 C 85.177 98.102 85.346 95.483 85.346 95.483 L 85.796 94.774 L 87.979 91.344 L 89.538 88.895 L 90.082 88.04 L 90.283 87.723 L 92.419 87.334 L 114.445 83.315 C 114.81 84.946 115.325 86.54 115.985 88.075 C 116.135 88.417 116.297 88.759 116.469 89.097 C 117.023 90.178 117.699 91.202 118.502 91.956 C 118.685 92.127 118.818 92.585 118.903 93.289 C 119.115 95.013 119.055 98.218 118.809 102.351 Z " fill="rgb(47,46,65)"/><circle vector-effect="non-scaling-stroke" cx="107.03837981888177" cy="20.706061198614414" r="8.465346721005716" fill="rgb(160,97,106)"/><path d=" M 88.168 37.989 L 86.933 37.284 C 86.933 37.284 81.466 40.988 79.702 49.277 C 79.702 49.277 76.704 59.682 76.704 59.682 C 76.704 59.682 74.941 60.035 76.175 61.269 C 76.175 61.269 77.41 62.327 76.351 63.033 C 76.351 63.033 74.588 62.327 75.293 63.738 C 75.293 63.738 76.881 64.796 76.175 65.678 C 76.175 65.678 74.235 66.56 74.941 67.265 C 74.941 67.265 74.235 69.558 75.117 70.264 C 75.117 70.264 76.351 71.145 76.351 72.38 C 76.346 73.1 76.465 73.816 76.704 74.496 L 85.875 74.496 C 85.875 74.496 84.111 71.145 84.64 70.44 C 84.64 70.44 85.346 69.029 84.993 68.676 C 84.993 68.676 83.582 69.029 84.64 68.147 C 84.64 68.147 86.051 67.795 85.699 66.736 C 85.699 66.736 84.64 66.207 85.346 65.678 C 85.346 65.678 86.58 65.325 86.228 64.796 C 86.228 64.796 85.17 64.267 85.875 63.915 C 85.875 63.915 87.11 63.915 86.933 63.033 C 86.933 63.033 86.58 62.504 86.933 62.151 C 86.933 62.151 90.989 49.806 90.989 49.453 C 90.989 49.1 88.168 37.989 88.168 37.989 Z " fill="rgb(208,205,225)"/><path d=" M 86.404 73.791 L 75.293 74.496 L 78.115 77.142 L 85.875 77.318 L 86.404 73.791 L 86.404 73.791 Z " fill="rgb(63,61,86)"/><path d=" M 89.579 87.018 L 87.286 91.251 C 87.286 91.251 94.164 92.132 96.633 93.014 C 96.633 93.014 105.451 95.131 105.451 95.131 L 107.038 88.958 L 89.579 87.018 Z " fill="rgb(63,61,86)"/><path d=" M 109.684 88.958 L 111.624 94.778 L 119.384 93.191 L 118.502 87.723 L 109.684 88.958 L 109.684 88.958 Z " fill="rgb(63,61,86)"/><path d=" M 112.858 31.993 C 112.858 31.993 112.329 31.64 111.095 32.346 C 111.095 32.346 105.804 33.404 103.864 31.288 C 103.864 31.288 100.513 27.408 99.984 27.761 C 99.984 27.761 99.102 32.17 99.102 32.17 L 97.339 33.58 L 86.933 37.284 L 87.815 61.093 L 89.402 66.56 C 89.402 66.56 88.168 70.793 89.755 73.262 C 89.755 73.262 88.873 76.613 88.873 76.613 C 88.873 76.613 88.344 77.318 88.697 79.082 C 88.697 79.082 88.344 87.371 88.344 87.371 C 88.344 87.371 103.335 94.072 119.031 88.252 L 117.267 81.551 L 116.386 66.56 C 116.386 66.56 117.267 64.091 117.091 63.033 C 117.091 63.033 122.382 47.16 122.382 47.16 C 122.382 47.16 121.5 39.753 116.915 38.166 C 116.915 38.166 111.624 34.991 111.624 34.991 C 111.624 34.991 113.74 32.699 112.858 31.993 Z " fill="rgb(208,205,225)"/><path d=" M 98.514 21.79 C 98.514 21.79 97.635 20.472 97.973 19.052 C 98.175 18.246 98.255 17.414 98.21 16.584 C 98.21 16.584 98.92 14.284 99.63 13 C 99.63 13 100.002 11.174 102.234 10.768 C 102.234 10.768 103.552 7.455 109.435 10.599 C 109.841 11.166 110.548 11.433 111.227 11.275 C 112.444 11.039 112.884 12.729 112.884 12.729 C 112.884 12.729 113.695 12.256 114 12.932 C 114.304 13.608 116.474 12.526 116.474 17.091 C 116.474 21.655 114.005 25.732 114.005 25.732 C 114.005 25.732 114.186 18.054 110.162 17.277 C 106.139 16.499 101.811 14.234 100.763 17.141 C 99.715 20.049 98.514 21.79 98.514 21.79 Z " fill="rgb(47,46,65)"/><ellipse vector-effect="non-scaling-stroke" cx="114.0928350033099" cy="22.55785594998816" rx="0.7936257866330578" ry="1.058168964740684" fill="rgb(160,97,106)"/></g></g></svg>